<svg xmlns="http://www.w3.org/2000/svg" viewBox="0 0 291.68 174.42"><defs><style>.cls-1{fill:#00913a;}.cls-2{fill:#fff;}</style></defs><g id="レイヤー_2" data-name="レイヤー 2"><g id="レイヤー_1-2" data-name="レイヤー 1"><rect class="cls-1" width="291.68" height="174.42" rx="5"/><path class="cls-2" d="M25.44,20.61H24.32V30.4h-.78V27.93c-1.44.25-2.86.5-3.8.64a.2.2,0,0,1-.18.17l-.31-.92,1.07-.14V20.61H19.27v-.75h6.17Zm-1.9,1.74V20.61H21.08v1.74Zm0,2.51V23.09H21.08v1.77Zm-2.46.74v2l2.46-.36V25.6ZM29.52,21l.5.16a.34.34,0,0,1-.1.16A15.27,15.27,0,0,1,28,27.27a6.85,6.85,0,0,0,2.51,2.48,2.81,2.81,0,0,0-.58.66A7.46,7.46,0,0,1,27.51,28,8.93,8.93,0,0,1,25,30.4a3.66,3.66,0,0,0-.54-.65A7.67,7.67,0,0,0,27,27.23a18.41,18.41,0,0,1-1.64-5.16l.75-.14a16.72,16.72,0,0,0,1.39,4.5,15.11,15.11,0,0,0,1.51-4.62H25V21h4.34Z"/><path class="cls-2" d="M36.18,25.11l.18,0,.48.09c0,.07,0,.17,0,.25-.23,3-.44,4.16-.87,4.58s-.66.39-1.48.39c-.43,0-1,0-1.58-.06a2,2,0,0,0-.3-.83c.9.08,1.79.1,2.09.1a.78.78,0,0,0,.57-.14c.31-.27.52-1.26.71-3.61H32.7c-.05.23-.08.44-.13.63l-.81-.13c.26-1,.53-2.55.7-3.73H36v-2.1H31.74v-.76h5v4H36v-.35H33.16c-.1.58-.21,1.18-.3,1.73Zm4.08-5.75,1,.08c0,.08-.07.14-.24.15V30.4h-.8Z"/><path class="cls-2" d="M20.76,62.16a13.35,13.35,0,0,1-1.37,2,5.18,5.18,0,0,0-.42-.76A16.09,16.09,0,0,0,21.83,58l1,.31c0,.08-.12.13-.27.12a21.34,21.34,0,0,1-1,2.37l.28.09c0,.07-.08.13-.24.15v8h-.78Zm3.54,5c0,.71.17.88,1.07.88h3.29c.82,0,.95-.39,1.07-1.92a2.08,2.08,0,0,0,.75.32c-.16,1.77-.44,2.34-1.79,2.34H25.37c-1.43,0-1.86-.32-1.86-1.63v-4l-1.35.46-.25-.7,1.6-.55V59l1,.07c0,.09-.08.14-.23.16V62l2-.68v-3.3l1,.07c0,.09-.09.13-.23.16v2.79l2.18-.74a.79.79,0,0,1,.17-.14l.65.25a.45.45,0,0,1-.12.12A41.39,41.39,0,0,1,29.8,65c-.13.82-.62.93-2,.88a2.39,2.39,0,0,0-.21-.75c.39,0,.89,0,1.05,0s.35,0,.42-.36a29.45,29.45,0,0,0,.12-3.67l-2.1.73v4.38h-.78V62.13l-2,.69Z"/><path class="cls-2" d="M37.53,60.08a.3.3,0,0,1-.3.19c-.43,3.73-1.68,7-3.67,7-1,0-1.91-1-1.91-2.9A5.26,5.26,0,0,1,37,59.06c3.47,0,5,2.19,5,4.53,0,2.85-1.66,4.23-4.56,4.91a4.82,4.82,0,0,0-.5-.74c2.75-.52,4.17-1.87,4.17-4.13,0-2-1.27-3.78-4.08-3.78l-.36,0Zm-1.15-.16a4.41,4.41,0,0,0-3.92,4.4c0,1.29.55,2.09,1.13,2.09C35,66.41,36.08,63.21,36.38,59.92Z"/><path class="cls-2" d="M47.75,59.92v.67h-4.5v-.67Zm-.39,4.89v3.53H44.51v.56H43.8V64.81Zm7.09,2.81v.76H49.17v.68h-.76V61.9A9.58,9.58,0,0,1,47.52,63a4.19,4.19,0,0,0-.5-.6,2.36,2.36,0,0,0,.2-.23H43.81v-.66h3.53v.52a13.14,13.14,0,0,0,2.15-4.19l1,.3c0,.09-.12.12-.26.12a15.55,15.55,0,0,1-.89,2h1.74A15.53,15.53,0,0,0,52,58l1,.31c0,.08-.12.12-.26.12-.23.54-.56,1.29-.9,1.9h2.4v.74H51.88V62.7H54v.74H51.88V65.1H54v.75H51.88v1.77Zm-7.11-4.44v.66H43.81v-.66Zm0-4.85V59H43.86v-.66Zm-.66,7.17H44.51v2.16h2.13Zm4.48-2.8V61.07H49.17V62.7Zm0,2.4V63.44H49.17V65.1Zm-1.95.75v1.77h1.95V65.85Z"/><path class="cls-2" d="M59.91,58.47c0,.14-.16.2-.39.22L59,61.24c.54-.06,1-.11,1.33-.11,1.82,0,2.44,1.19,2.44,3a9.25,9.25,0,0,1-.4,2.68,2.2,2.2,0,0,1-2.14,1.82,3.57,3.57,0,0,1-2.17-1.05,4.89,4.89,0,0,0,.33-.73c1,.74,1.46.91,1.83.91.68,0,1.09-.43,1.33-1.2A9.09,9.09,0,0,0,62,64.09c0-1.36-.46-2.18-1.66-2.17a14.28,14.28,0,0,0-1.46.12,23,23,0,0,1-2.46,6.48l-.79-.38a19.62,19.62,0,0,0,2.38-6c-.61.07-1.48.18-2.13.29l-.07-.84,2.37-.28c.18-.87.37-2,.52-3Zm5.56,5.77a7.24,7.24,0,0,0-2.7-4.1l.65-.51a7.69,7.69,0,0,1,2.91,4.27Z"/><path class="cls-2" d="M72.77,60h0l-1.81,1-.3-.76,2.29-1.28h.86v9.21h-1Z"/><path class="cls-2" d="M85.43,58.36c0,.1-.1.16-.26.18l0,.35c.13,1.69.85,7.29,5.42,9.37a2.41,2.41,0,0,0-.61.67c-3.24-1.54-4.58-4.8-5.15-7.28h0a10.15,10.15,0,0,1-5,7.27,2.71,2.71,0,0,0-.64-.62c5-2.5,5-8.4,5.12-10Z"/><path class="cls-2" d="M100.64,62.15h-.1a.45.45,0,0,1-.25-.07c-3.56,1-6.79,2.62-6.77,4.22,0,1.15,1.27,1.55,3.21,1.55a27.62,27.62,0,0,0,4.25-.28l.07.88a39.76,39.76,0,0,1-4.3.22c-2.37,0-4.1-.56-4.11-2.32,0-1.28,1.27-2.41,3.15-3.38-.4-.73-.55-2.12-.55-4.83l1.32.1c0,.16-.13.26-.37.29,0,2.1.06,3.41.4,4.06a32.42,32.42,0,0,1,3.74-1.44Z"/><path class="cls-2" d="M103.9,65.73a23.53,23.53,0,0,1,2.71,2.65l-.72.66a27,27,0,0,0-2.63-2.75Z"/><path class="cls-2" d="M126.33,64.44v.79h-5.07v2.68c0,.61-.18.85-.61,1a9.56,9.56,0,0,1-2.52.15,4,4,0,0,0-.35-.81c.58,0,1.13,0,1.55,0,1,0,1.1,0,1.1-.35V65.23h-5.05v-.79h5.05v-2h-4.25v-.77h4.25V59.7c-1.32.16-2.71.28-4,.35a2.42,2.42,0,0,0-.22-.69,37.71,37.71,0,0,0,8.17-1.21l.69.68a.24.24,0,0,1-.14,0h-.11a20.49,20.49,0,0,1-3.33.71c0,.08-.09.12-.24.14v1.95h4.39v.77h-4.39v2Z"/><path class="cls-2" d="M130.84,58c0,.08-.09.14-.24.16v2.44h2.11v.77H130.6v1.14c.46.45,1.75,1.88,2.05,2.24l-.54.69c-.28-.45-1-1.34-1.51-2V69h-.81v-6.1a12.54,12.54,0,0,1-2.18,3.88,4.42,4.42,0,0,0-.47-.76,11.88,11.88,0,0,0,2.53-4.72H127.4v-.77h2.39V57.91Zm3.51,9.27c0,.64.12.76.66.76h1.91c.58,0,.67-.54.75-2.55a2.22,2.22,0,0,0,.77.38c-.11,2.2-.32,3-1.48,3h-2c-1.08,0-1.41-.33-1.41-1.59V57.93l1.06.07c0,.09-.07.15-.24.17Z"/><path class="cls-2" d="M145.53,60.08a.3.3,0,0,1-.3.19c-.43,3.73-1.68,7-3.67,7-1,0-1.91-1-1.91-2.9A5.26,5.26,0,0,1,145,59.06c3.47,0,5,2.19,5,4.53,0,2.85-1.66,4.23-4.56,4.91a4.82,4.82,0,0,0-.5-.74c2.75-.52,4.17-1.87,4.17-4.13,0-2-1.27-3.78-4.08-3.78l-.36,0Zm-1.15-.16a4.41,4.41,0,0,0-3.92,4.4c0,1.29.55,2.09,1.13,2.09C143,66.41,144.08,63.21,144.38,59.92Z"/><path class="cls-2" d="M156.77,60h0l-1.81,1-.3-.76,2.29-1.28h.86v9.21h-1Z"/><path class="cls-2" d="M166.12,62.48c.4.44,1.47,1.72,1.71,2.05l-.51.66c-.23-.4-.76-1.18-1.2-1.78V69h-.78V63a13.38,13.38,0,0,1-1.78,3.75,4.88,4.88,0,0,0-.44-.73,13.39,13.39,0,0,0,2.1-4.71H163.4v-.77h1.94V57.88l1,.07c0,.09-.07.14-.22.16v2.41h1.69v.77h-1.69Zm8.3-1.47h-1a13,13,0,0,1-1.91,5,7.31,7.31,0,0,0,3,2.3,3.47,3.47,0,0,0-.57.74,7.93,7.93,0,0,1-3-2.37,8.68,8.68,0,0,1-3.14,2.35,5.21,5.21,0,0,0-.5-.66A8,8,0,0,0,170.49,66,12.62,12.62,0,0,1,169,62.21a9.12,9.12,0,0,1-1,1.7,6.4,6.4,0,0,0-.6-.56,13.4,13.4,0,0,0,2.17-5.47l1,.25c0,.09-.11.14-.26.15-.15.66-.33,1.33-.54,2h4.68Zm-4.95,0,0,.11a12.39,12.39,0,0,0,1.57,4.2A12.06,12.06,0,0,0,172.56,61Z"/><path class="cls-2" d="M185.84,63l-.07,0a.29.29,0,0,1-.18-.07c-.91.3-2.25.79-3.24,1.22,0,.28,0,.59,0,.94s0,.81,0,1.28l-.88,0c0-.43.06-1,.06-1.45,0-.18,0-.35,0-.48-1.35.66-2.46,1.46-2.46,2.18s.83,1,2.49,1a26,26,0,0,0,3-.12v.81c-.71.07-1.79.09-3,.09-2.31,0-3.33-.55-3.33-1.77,0-1.06,1.39-2.08,3.19-3-.07-.75-.4-1.12-.88-1.12a4,4,0,0,0-2.87,1.69,18.3,18.3,0,0,1-1.32,1.3l-.59-.58a8.49,8.49,0,0,0,3-4.43H176.1v-.78H179a17.35,17.35,0,0,0,.33-1.71l1.17.14c0,.12-.12.19-.3.22-.08.48-.19.9-.3,1.33a16.45,16.45,0,0,0,4.13-.7l.14.81a18.66,18.66,0,0,1-4.5.67,8.31,8.31,0,0,1-.86,2h0a3.18,3.18,0,0,1,1.93-.78c.82,0,1.33.58,1.49,1.56,1-.46,2.28-.95,3.24-1.33Z"/><path class="cls-2" d="M196.83,67.8a22.13,22.13,0,0,1-3.64.28,13.11,13.11,0,0,1-2.35-.16,2.3,2.3,0,0,1-2.08-2.29A3.89,3.89,0,0,1,190,63.06l.7.36a3.32,3.32,0,0,0-1.06,2.14c0,.69.47,1.33,1.5,1.56a10.59,10.59,0,0,0,2,.14,20.74,20.74,0,0,0,3.69-.32Zm-5.38-6.06a15.12,15.12,0,0,1,2.12-1.39h0c-.91.11-3,.16-4.33.14,0-.22,0-.62,0-.84a38.17,38.17,0,0,0,6.83-.38l.1.89a9.8,9.8,0,0,0-4,2Z"/><path class="cls-2" d="M200.53,62.63l1.07-.29a18.13,18.13,0,0,1,4.34-.85A2.76,2.76,0,0,1,209,64.31c0,2.64-2.61,3.61-5.82,3.86a4.81,4.81,0,0,0-.23-.73c2.81-.2,5.2-1,5.2-3.08a2.07,2.07,0,0,0-2.34-2.14,15.16,15.16,0,0,0-4,.88l-.76.26a.32.32,0,0,1-.2.21Z"/><path class="cls-2" d="M213.31,58.78a29,29,0,0,0,5.87-.5l.28.75a2.33,2.33,0,0,0-.56.41c-1.21,1-3,2.27-4.39,3.25a40.81,40.81,0,0,1,7.32-.83v.85h-.54a8,8,0,0,0-1.84.18c-1,.29-3.52,1.77-3.52,3.41a1.11,1.11,0,0,0,.62,1.08,9.2,9.2,0,0,0,3,.59l-.26.84c-2.9-.23-4.23-.9-4.23-2.44s1.68-2.85,2.85-3.48A43,43,0,0,0,211.81,64l-.15-.81a5.27,5.27,0,0,0,1.57-.54,38.26,38.26,0,0,0,4.54-3.42c-.74.12-2.24.24-2.92.28-.35,0-.83,0-1.14.06a.47.47,0,0,1-.31.14Z"/><path class="cls-2" d="M225.79,65a8.26,8.26,0,0,1-.35-2.26,21.18,21.18,0,0,1,.41-4l1.2.2c-.05.16-.19.19-.35.21a17.38,17.38,0,0,0-.4,3.49,5.6,5.6,0,0,0,0,.64c.24-.59.69-1.4.94-1.86a4.86,4.86,0,0,0,.46.53c-.88,1.6-1.15,2-1.15,2.56a1.77,1.77,0,0,0,0,.3Zm6.43-6.53c0,.15-.11.21-.31.27.08,1,.2,2.78.2,4.16,0,2.32-.85,4.4-4.46,5.9a6.3,6.3,0,0,0-.6-.69c3.28-1.25,4.15-3.23,4.15-5.2a44.5,44.5,0,0,0-.28-4.49Z"/><path class="cls-2" d="M239.06,62.88a8,8,0,0,0,1.8,2.77,7.51,7.51,0,0,0,1.8-2.84l1,.34c0,.07-.13.12-.28.11a8.48,8.48,0,0,1-1.92,2.93,10.46,10.46,0,0,0,5,2.08,3.8,3.8,0,0,0-.54.77,10.93,10.93,0,0,1-5.08-2.28,12.48,12.48,0,0,1-5.08,2.31,4.05,4.05,0,0,0-.46-.73,11.69,11.69,0,0,0,4.95-2.14,9.26,9.26,0,0,1-1.95-3.08Zm.58-1.75c0,.1-.15.11-.26.1a12.83,12.83,0,0,1-3.32,2.85,3.46,3.46,0,0,0-.6-.61,10,10,0,0,0,3.22-2.75Zm6.52-1.62v.79H235.51v-.79h4.9V57.88l1.05.06c0,.09-.07.15-.24.17v1.4Zm-.6,4.46a18.29,18.29,0,0,0-3.23-2.79l.65-.48a18.8,18.8,0,0,1,3.29,2.71Z"/><path class="cls-2" d="M251.05,64l-1.39.44v3.61c0,.88-.37,1-1.91,1a3.21,3.21,0,0,0-.25-.76l.85,0c.49,0,.55,0,.55-.24V64.69l-1.23.39a.25.25,0,0,1-.17.19l-.29-.92,1.69-.46V61.16h-1.57V60.4h1.57V57.89l1,.06c0,.1-.07.15-.23.17V60.4h1.24v.7A8,8,0,0,0,253,57.89L254,58a.22.22,0,0,1-.23.16c-.08.22-.19.44-.3.67h2.22l.13-.05.56.38a.31.31,0,0,1-.16.09,12.08,12.08,0,0,1-.83,1.51h2.33v4.1H257V63.44a.59.59,0,0,1-.52.2h-.72c-.62,0-.77-.15-.77-.79V61.44h-.93A2.69,2.69,0,0,1,252.71,64a2.39,2.39,0,0,0-.4-.45,2.19,2.19,0,0,0,1.12-2.08h-1.12v3.45h-.7V61.43a4.38,4.38,0,0,1-.45.41,2.22,2.22,0,0,0-.58-.48,2.54,2.54,0,0,0,.24-.2h-1.16v2.53l1.28-.36Zm7.24,1.93h-3.13a4.35,4.35,0,0,0,3.32,2.39A2.07,2.07,0,0,0,258,69a4.81,4.81,0,0,1-3.5-2.77c-.45,1.32-1.37,2.27-3.51,2.82a2,2,0,0,0-.41-.6c2-.47,2.82-1.3,3.23-2.51h-3v-.71H254c.06-.34.11-.72.15-1.11l1,.08c0,.09-.1.15-.24.17,0,.3-.08.59-.12.86h3.53Zm-3.7-5.17a9,9,0,0,0,.67-1.27H253.1a9.8,9.8,0,0,1-.89,1.27Zm1.79,2.29c.16,0,.2,0,.22-.48a1.28,1.28,0,0,0,.39.18V61.44h-1.37v1.41c0,.19,0,.21.2.21Z"/><path class="cls-2" d="M263.2,58.41c0,.14-.14.23-.38.26-.09,1.39-.21,4.57-.21,6.35s.89,2.65,2.4,2.65a5.81,5.81,0,0,0,4.31-2.28,5.08,5.08,0,0,0,.54.71A6.5,6.5,0,0,1,265,68.53c-2.18,0-3.29-1.26-3.29-3.52,0-1.52.1-5.23.19-6.71Z"/><path class="cls-2" d="M25.57,79a.27.27,0,0,1-.25.18,15.12,15.12,0,0,0,5.25,4.19A3.39,3.39,0,0,0,30,84a17,17,0,0,1-5.23-4.3,15.47,15.47,0,0,1-5.1,4.39,3.71,3.71,0,0,0-.51-.63,14,14,0,0,0,5.18-4.6Zm-4.4,11.1V85.19h7.39v4.86h-.82v-.52H22v.52Zm.61-7.17h6.14v.73H21.78Zm6,3.05H22V88.8h5.78Z"/><path class="cls-2" d="M32.78,83.31a27.56,27.56,0,0,1,5-1,2.53,2.53,0,0,1,2.85,2.74v.09c0,2.19-1.74,3.78-5.18,4.71a4.33,4.33,0,0,0-.54-.74c3.07-.73,4.81-2.17,4.81-4a1.77,1.77,0,0,0-2-2,16.48,16.48,0,0,0-4.34.95c0,.09-.11.22-.23.27Zm1.68-4.15a22,22,0,0,1,4.82.93l-.25.84a23.14,23.14,0,0,0-4.77-1Z"/><path class="cls-2" d="M46.62,88.36a1.68,1.68,0,1,1-1.68-1.68A1.69,1.69,0,0,1,46.62,88.36Zm-.43,0a1.24,1.24,0,1,0-1.25,1.23A1.24,1.24,0,0,0,46.19,88.36Z"/><path class="cls-2" d="M66.33,85.44v.79H61.26v2.68c0,.61-.18.85-.61,1a9.56,9.56,0,0,1-2.52.15,4,4,0,0,0-.35-.81c.58,0,1.13,0,1.55,0,1,0,1.1,0,1.1-.35V86.23h-5v-.79h5v-2H56.18v-.77h4.25v-2c-1.32.16-2.71.28-4,.35a2.42,2.42,0,0,0-.22-.69,37.71,37.71,0,0,0,8.17-1.21l.69.68a.24.24,0,0,1-.14,0h-.11a20.49,20.49,0,0,1-3.33.71c0,.08-.09.12-.24.14v2h4.39v.77H61.26v2Z"/><path class="cls-2" d="M70.84,79c0,.08-.09.14-.24.16v2.44h2.11v.77H70.6v1.14c.46.45,1.75,1.88,2.05,2.24l-.54.69c-.28-.45-1-1.34-1.51-2V90h-.81v-6.1a12.54,12.54,0,0,1-2.18,3.88,4.42,4.42,0,0,0-.47-.76,11.88,11.88,0,0,0,2.53-4.72H67.4v-.77h2.39V78.91Zm3.51,9.27c0,.64.12.76.66.76h1.91c.58,0,.67-.54.75-2.55a2.22,2.22,0,0,0,.77.38c-.11,2.2-.32,3-1.48,3h-2c-1.08,0-1.41-.33-1.41-1.59V78.93l1.06.07c0,.09-.07.15-.24.17Z"/><path class="cls-2" d="M83.91,79.47c0,.14-.16.2-.39.22L83,82.24c.54-.06,1-.11,1.33-.11,1.82,0,2.44,1.19,2.44,3a9.25,9.25,0,0,1-.4,2.68,2.2,2.2,0,0,1-2.14,1.82,3.57,3.57,0,0,1-2.17-1.05,4.89,4.89,0,0,0,.33-.73c1,.74,1.46.91,1.83.91.68,0,1.09-.43,1.33-1.2A9.09,9.09,0,0,0,86,85.09c0-1.36-.46-2.18-1.66-2.17a14.28,14.28,0,0,0-1.46.12,23,23,0,0,1-2.46,6.48l-.79-.38a19.62,19.62,0,0,0,2.38-6c-.61.07-1.48.18-2.13.29l-.07-.84,2.37-.28c.18-.87.37-2,.52-3Zm2.79-.37a8.12,8.12,0,0,1,1.6,1.68l-.46.33a8.34,8.34,0,0,0-1.59-1.67Zm2.68,7A7.51,7.51,0,0,0,86.94,82l.69-.47a8,8,0,0,1,2.62,4.23Zm-.87-7.45a7.72,7.72,0,0,1,1.62,1.67l-.47.34A8.3,8.3,0,0,0,88.08,79Z"/><path class="cls-2" d="M95.91,79.24c0,.1-.15.19-.37.2-.08.53-.19,1.16-.3,1.62a16.48,16.48,0,0,0,3.53-.58l.13.81a23.71,23.71,0,0,1-3.81.58,17.85,17.85,0,0,1-2.55,5.9l-.8-.33a16.09,16.09,0,0,0,2.44-5.55H91.79v-.78h2.53c.14-.64.25-1.32.34-2Zm3.2,5.11c0,1,.08,1.63.15,2.46a12.23,12.23,0,0,1,2.56,1.39l-.44.77a11,11,0,0,0-2.12-1.26c0,1.2-.48,2.13-2.24,2.13-1.33,0-2.35-.6-2.34-1.72s1.26-1.78,2.36-1.78a5.27,5.27,0,0,1,1.36.22c-.05-.77-.11-1.55-.11-2.11Zm-.66,3A4.11,4.11,0,0,0,97,87.07c-.72,0-1.57.29-1.59,1s.68,1,1.61,1,1.42-.42,1.42-1.21C98.46,87.71,98.46,87.53,98.45,87.35Zm3.28-4.24a17.42,17.42,0,0,0-4.24.59L97.35,83a16.66,16.66,0,0,1,4.33-.65Z"/><path class="cls-2" d="M105.31,80.51c0,.11-.15.18-.32.19a19,19,0,0,0-.23,3c0,.44,0,.88,0,1.26.14,2,1,3.27,1.89,3.26.48,0,1.11-1.22,1.54-2.56a4.92,4.92,0,0,0,.69.51c-.55,1.62-1.24,2.94-2.24,3-1.52,0-2.58-1.82-2.75-4.12,0-.46,0-1,0-1.5a28.61,28.61,0,0,1,.18-3.23Zm8,5.58a6,6,0,0,0-3-4.51l.53-.65a6.61,6.61,0,0,1,3.38,4.88Z"/><path class="cls-2" d="M119.91,79.24c0,.1-.15.19-.37.2-.08.53-.19,1.16-.3,1.62a16.48,16.48,0,0,0,3.53-.58l.13.81a23.71,23.71,0,0,1-3.81.58,17.85,17.85,0,0,1-2.55,5.9l-.8-.33a16.09,16.09,0,0,0,2.44-5.55h-2.39v-.78h2.53c.14-.64.25-1.32.34-2Zm3.2,5.11c0,1,.08,1.63.15,2.46a12.23,12.23,0,0,1,2.56,1.39l-.44.77a11,11,0,0,0-2.12-1.26c0,1.2-.48,2.13-2.24,2.13-1.33,0-2.35-.6-2.34-1.72s1.26-1.78,2.36-1.78a5.27,5.27,0,0,1,1.36.22c-.05-.77-.11-1.55-.11-2.11Zm-.66,3a4.11,4.11,0,0,0-1.43-.28c-.72,0-1.57.29-1.59,1s.68,1,1.61,1,1.42-.42,1.42-1.21C122.46,87.71,122.46,87.53,122.45,87.35Zm3.28-4.24a17.42,17.42,0,0,0-4.24.59l-.14-.75a16.66,16.66,0,0,1,4.33-.65Z"/><path class="cls-2" d="M130.54,81.47a.37.37,0,0,1-.32.21,13.3,13.3,0,0,1-.49,3.53h0a8.22,8.22,0,0,1,4.42-1.47c1.84,0,3,1,3,2.63,0,2.2-1.86,3.19-6.5,3.38a3.46,3.46,0,0,0-.3-.79c4.19-.18,5.87-.87,5.9-2.58,0-1.15-.79-1.85-2.19-1.85a6.34,6.34,0,0,0-4.56,1.92l-.82-.4a13.25,13.25,0,0,0,.69-4.72Zm.2-2.32a19.23,19.23,0,0,1,4.65,1l-.3.83a19,19,0,0,0-4.6-1.09Z"/><path class="cls-2" d="M143.06,83.88a8,8,0,0,0,1.8,2.77,7.51,7.51,0,0,0,1.8-2.84l1,.34c0,.07-.13.12-.28.11a8.48,8.48,0,0,1-1.92,2.93,10.46,10.46,0,0,0,5,2.08,3.8,3.8,0,0,0-.54.77,10.93,10.93,0,0,1-5.08-2.28,12.48,12.48,0,0,1-5.08,2.31,4.05,4.05,0,0,0-.46-.73,11.69,11.69,0,0,0,4.95-2.14,9.26,9.26,0,0,1-1.95-3.08Zm.58-1.75c0,.1-.15.11-.26.1a12.83,12.83,0,0,1-3.32,2.85,3.46,3.46,0,0,0-.6-.61,10,10,0,0,0,3.22-2.75Zm6.52-1.62v.79H139.51v-.79h4.9V78.88l1.05.06c0,.09-.07.15-.24.17v1.4Zm-.6,4.46a18.29,18.29,0,0,0-3.23-2.79l.65-.48a18.8,18.8,0,0,1,3.29,2.71Z"/><path class="cls-2" d="M155.05,85l-1.39.44v3.61c0,.88-.37,1-1.91,1a3.21,3.21,0,0,0-.25-.76l.85,0c.49,0,.55,0,.55-.24V85.69l-1.23.39a.25.25,0,0,1-.17.19l-.29-.92,1.69-.46V82.16h-1.57V81.4h1.57V78.89l1,.06c0,.1-.07.15-.23.17V81.4h1.24v.7A8,8,0,0,0,157,78.89L158,79a.22.22,0,0,1-.23.16c-.08.22-.19.44-.3.67h2.22l.13,0,.56.38a.31.31,0,0,1-.16.09,12.08,12.08,0,0,1-.83,1.51h2.33v4.1H161V84.44a.59.59,0,0,1-.52.2h-.72c-.62,0-.77-.15-.77-.79V82.44h-.93A2.69,2.69,0,0,1,156.71,85a2.39,2.39,0,0,0-.4-.45,2.19,2.19,0,0,0,1.12-2.08h-1.12v3.45h-.7V82.43a4.38,4.38,0,0,1-.45.41,2.22,2.22,0,0,0-.58-.48,2.54,2.54,0,0,0,.24-.2h-1.16v2.53l1.28-.36Zm7.24,1.93h-3.13a4.35,4.35,0,0,0,3.32,2.39A2.07,2.07,0,0,0,162,90a4.81,4.81,0,0,1-3.5-2.77c-.45,1.32-1.37,2.27-3.51,2.82a2,2,0,0,0-.41-.6c2-.47,2.82-1.3,3.23-2.51h-3v-.71H158c.06-.34.11-.72.15-1.11l1,.08c0,.09-.1.15-.24.17,0,.3-.08.59-.12.86h3.53Zm-3.7-5.17a9,9,0,0,0,.67-1.27H157.1a9.8,9.8,0,0,1-.89,1.27Zm1.79,2.29c.16,0,.2,0,.22-.48a1.28,1.28,0,0,0,.39.18V82.44h-1.37v1.41c0,.19,0,.21.2.21Z"/><path class="cls-2" d="M167.19,79.41c0,.14-.13.23-.37.26-.09,1.39-.21,4.57-.21,6.35s.88,2.65,2.4,2.65a5.81,5.81,0,0,0,4.31-2.28,5.08,5.08,0,0,0,.54.71A6.5,6.5,0,0,1,169,89.53c-2.18,0-3.29-1.26-3.29-3.52,0-1.52.1-5.23.19-6.71Z"/><path class="cls-2" d="M179.91,79.24c0,.1-.15.19-.37.2-.08.53-.19,1.16-.3,1.62a16.48,16.48,0,0,0,3.53-.58l.13.81a23.71,23.71,0,0,1-3.81.58,17.85,17.85,0,0,1-2.55,5.9l-.8-.33a16.09,16.09,0,0,0,2.44-5.55h-2.39v-.78h2.53c.14-.64.25-1.32.34-2Zm3.2,5.11c0,1,.08,1.63.15,2.46a12.23,12.23,0,0,1,2.56,1.39l-.44.77a11,11,0,0,0-2.12-1.26c0,1.2-.48,2.13-2.24,2.13-1.33,0-2.35-.6-2.34-1.72s1.26-1.78,2.36-1.78a5.27,5.27,0,0,1,1.36.22c-.05-.77-.11-1.55-.11-2.11Zm-.66,3a4.11,4.11,0,0,0-1.43-.28c-.72,0-1.57.29-1.59,1s.68,1,1.61,1,1.42-.42,1.42-1.21C182.46,87.71,182.46,87.53,182.45,87.35Zm3.28-4.24a17.42,17.42,0,0,0-4.24.59l-.14-.75a16.66,16.66,0,0,1,4.33-.65Z"/><path class="cls-2" d="M189.31,80.51c0,.11-.15.18-.32.19a19,19,0,0,0-.23,3c0,.44,0,.88.05,1.26.14,2,1,3.27,1.89,3.26.48,0,1.11-1.22,1.54-2.56a4.92,4.92,0,0,0,.69.51c-.55,1.62-1.24,2.94-2.24,3-1.52,0-2.58-1.82-2.75-4.12,0-.46,0-1,0-1.5a28.61,28.61,0,0,1,.18-3.23Zm7.95,5.58a6,6,0,0,0-3-4.51l.53-.65a6.61,6.61,0,0,1,3.38,4.88Z"/><path class="cls-2" d="M202.62,88.36a1.68,1.68,0,1,1-1.68-1.68A1.69,1.69,0,0,1,202.62,88.36Zm-.43,0a1.24,1.24,0,1,0-1.25,1.23A1.24,1.24,0,0,0,202.19,88.36Z"/><rect class="cls-2" x="18.84" y="44.17" width="254" height="1.5"/></g></g></svg>