<svg xmlns="http://www.w3.org/2000/svg" viewBox="0 0 292 173.81"><defs><style>.cls-1{fill:#036eb8;}.cls-2{fill:#fff;}</style></defs><g id="レイヤー_2" data-name="レイヤー 2"><g id="レイヤー_1-2" data-name="レイヤー 1"><rect class="cls-1" width="292" height="173.81" rx="5"/><path class="cls-2" d="M22.73,25.12l-1.4.46v3.61c0,.89-.4,1-1.91,1a2.87,2.87,0,0,0-.24-.76l.84,0c.49,0,.55,0,.55-.24V25.82l-1.24.38a.27.27,0,0,1-.17.2l-.29-.93c.47-.12,1.06-.27,1.7-.45V22.28H19v-.75h1.58V19l1,.06c0,.09-.07.14-.24.17v2.28h1.45v.75H21.33v2.53l1.31-.37Zm7.21.9H27.18a8.63,8.63,0,0,0,3.05,2.91,2.54,2.54,0,0,0-.56.62,9.87,9.87,0,0,1-3.05-3.14v3.75h-.79V26.45a8.5,8.5,0,0,1-3.17,3.16,3.22,3.22,0,0,0-.54-.63,7.54,7.54,0,0,0,3.16-3H22.77v-.74h3.06V23.94l1,.06c0,.08-.08.14-.24.16v1.12h3.32Zm-4.05-5.25a.25.25,0,0,1-.23.16c-.17,1.69-.61,2.85-2.55,3.5a2.12,2.12,0,0,0-.44-.59c1.74-.53,2.14-1.51,2.26-3.15Zm-2.12-.48v1.44h-.71V19.58h6.71V21.8H29V20.29Zm3.1.32,1,.08c0,.08-.07.13-.23.15V23c0,.26.06.3.39.3h1.06c.27,0,.33-.12.35-1a1.87,1.87,0,0,0,.65.27C30,23.7,29.77,24,29.15,24H27.89c-.84,0-1-.2-1-.95Z"/><path class="cls-2" d="M32.55,23.25a14.08,14.08,0,0,1-1.46,2,6.31,6.31,0,0,0-.42-.76,16.06,16.06,0,0,0,3-5.4l1,.33a.26.26,0,0,1-.28.1A21.93,21.93,0,0,1,33.25,22l.32.08c0,.07-.08.13-.24.14v8h-.78Zm5,5.23a.21.21,0,0,1-.25.08,10.33,10.33,0,0,1-2.65,1.62,5.88,5.88,0,0,0-.65-.51,8.2,8.2,0,0,0,2.59-1.57ZM41.27,22v5.86H35V22h2.6V19l1,.07c0,.08-.07.14-.24.17v.91h3.52v.72H38.37V22Zm-.81,1.75V22.58H35.74V23.7Zm0,1.72V24.31H35.74v1.11Zm0,1.75V26H35.74v1.14Zm.88,3a19,19,0,0,0-2.44-1.69l.68-.41a16.93,16.93,0,0,1,2.48,1.64Z"/><rect class="cls-2" x="18.5" y="43.94" width="254" height="1.5"/><path class="cls-2" d="M20.42,62.17a14.51,14.51,0,0,1-1.37,2,5.63,5.63,0,0,0-.42-.76A16.33,16.33,0,0,0,21.49,58l.94.31c0,.09-.12.14-.26.12a20.71,20.71,0,0,1-1,2.38l.28.08c0,.07-.09.13-.24.16v8h-.78Zm3.54,5c0,.71.16.87,1.06.87h3.3c.82,0,.95-.38,1.07-1.92a2.13,2.13,0,0,0,.74.33c-.15,1.76-.43,2.34-1.78,2.34H25c-1.42,0-1.85-.33-1.85-1.63V63.09l-1.35.47-.25-.71,1.6-.55V59l1,.07c0,.09-.07.13-.22.16V62l2-.69V58.06l1,.07c0,.08-.09.13-.23.15v2.8l2.18-.75a.85.85,0,0,1,.17-.14l.65.25a.46.46,0,0,1-.12.12A44.41,44.41,0,0,1,29.46,65c-.13.83-.62.94-2,.89a2.45,2.45,0,0,0-.21-.76c.39,0,.89,0,1.05,0s.34,0,.42-.36a29.45,29.45,0,0,0,.12-3.67l-2.1.73v4.38H26V62.13l-2,.7Z"/><path class="cls-2" d="M37.19,60.08a.3.3,0,0,1-.3.19c-.43,3.73-1.68,7-3.67,7-1,0-1.92-1-1.92-2.9a5.27,5.27,0,0,1,5.4-5.29c3.47,0,5,2.2,5,4.54,0,2.85-1.66,4.23-4.56,4.9a4.66,4.66,0,0,0-.51-.73c2.76-.53,4.18-1.87,4.18-4.14,0-2-1.27-3.78-4.08-3.78l-.36,0ZM36,59.93a4.41,4.41,0,0,0-3.92,4.4c0,1.28.55,2.08,1.13,2.08C34.7,66.41,35.74,63.21,36,59.93Z"/><path class="cls-2" d="M47.41,59.93v.67h-4.5v-.67ZM47,64.82v3.53H44.17v.56h-.71V64.82Zm7.09,2.81v.75H48.83v.68h-.76V61.91A9.45,9.45,0,0,1,47.18,63a4.15,4.15,0,0,0-.51-.6,2.18,2.18,0,0,0,.21-.22H43.47v-.66H47v.51a12.87,12.87,0,0,0,2.14-4.18l1,.3c0,.08-.12.12-.26.12a15.45,15.45,0,0,1-.89,2h1.74a15.87,15.87,0,0,0,1-2.32l1,.31c0,.07-.12.12-.26.12-.23.54-.57,1.28-.9,1.89h2.4v.75H51.54v1.63H53.7v.73H51.54v1.67H53.7v.74H51.54v1.78ZM47,63.19v.66H43.47v-.66Zm0-4.86V59H43.52v-.66ZM46.3,65.5H44.17v2.16H46.3Zm4.48-2.79V61.08h-2v1.63Zm0,2.4V63.44h-2v1.67Zm-2,.74v1.78h2V65.85Z"/><path class="cls-2" d="M59.57,58.48c0,.14-.16.2-.39.21-.13.67-.35,1.84-.49,2.56.54-.06,1-.11,1.33-.11,1.82,0,2.44,1.18,2.44,3a9.38,9.38,0,0,1-.4,2.69,2.21,2.21,0,0,1-2.14,1.81,3.54,3.54,0,0,1-2.17-1,4.36,4.36,0,0,0,.32-.73,3.24,3.24,0,0,0,1.84.91c.68,0,1.09-.43,1.33-1.2a9.17,9.17,0,0,0,.38-2.46c0-1.37-.45-2.18-1.65-2.17a14.28,14.28,0,0,0-1.46.12,23,23,0,0,1-2.46,6.48l-.79-.39a19.66,19.66,0,0,0,2.38-6c-.61.07-1.48.17-2.13.28l-.07-.84,2.37-.27c.18-.88.37-2,.52-3Zm5.56,5.76a7.27,7.27,0,0,0-2.7-4.1l.65-.5A7.65,7.65,0,0,1,66,63.91Z"/><path class="cls-2" d="M72.42,60h0l-1.81,1-.3-.77,2.29-1.27h.86v9.21h-1Z"/><path class="cls-2" d="M85.08,58.37c0,.09-.09.15-.25.18l0,.35c.13,1.69.85,7.29,5.42,9.36a2.73,2.73,0,0,0-.61.67c-3.24-1.53-4.58-4.79-5.15-7.28h0a10.11,10.11,0,0,1-5,7.27,2.75,2.75,0,0,0-.65-.61c5-2.51,5-8.41,5.13-10Z"/><path class="cls-2" d="M93.65,58.79c0,.13-.15.2-.39.19a28.74,28.74,0,0,0-.64,5.4,13.07,13.07,0,0,0,.16,2.37c.23-.59.74-1.85.91-2.27l.5.53c-.49,1.21-.85,1.9-1,2.44a2,2,0,0,0-.09.56,1.15,1.15,0,0,0,.06.37l-.85.16a13,13,0,0,1-.53-4.13,35.48,35.48,0,0,1,.63-5.84Zm7.64,8.76c-.43,0-.87,0-1.32,0a17.28,17.28,0,0,1-2.23-.13c-1.47-.22-2.16-1-2.16-2a3.68,3.68,0,0,1,1.13-2.32l.78.34a2.83,2.83,0,0,0-1,1.88c0,1.39,2,1.39,3.29,1.39.5,0,1,0,1.55-.06Zm-5.55-7.32a39,39,0,0,0,5.23-.46l.07.84a44.56,44.56,0,0,1-5.28.44Z"/><path class="cls-2" d="M110.2,66.57v-8.8h4v.62h-3.37v8.18Z"/><path class="cls-2" d="M122.66,61.83c0,.16-.08.32-.12.46a3.06,3.06,0,0,1,2.89,3.11c0,1.9-1.64,3-4.63,3.39a4.53,4.53,0,0,0-.33-.72c2.49-.24,4.08-1.1,4.08-2.65v-.08a2.38,2.38,0,0,0-2.28-2.3,9.33,9.33,0,0,1-2.39,3.53,3,3,0,0,0,.32.65l-.71.44a3.36,3.36,0,0,1-.29-.6,3.88,3.88,0,0,1-2.27.9,1.43,1.43,0,0,1-1.45-1.59c0-1.66,1.37-3,3.11-3.67,0-.63,0-1.31,0-2-2,0-2.25,0-2.64,0l0-.79c.61,0,1.65,0,2.68,0,0-.55,0-1.22.06-1.78l1.2.08c0,.12-.13.22-.31.24,0,.44-.06,1-.1,1.44a27,27,0,0,0,4.81-.51l.11.82a29.77,29.77,0,0,1-5,.47c0,.62,0,1.22,0,1.78a6.32,6.32,0,0,1,1.8-.27h.49a5.59,5.59,0,0,0,.12-.56ZM119,66.31a13.73,13.73,0,0,1-.34-2.81c-1.31.58-2.33,1.57-2.33,2.73,0,.71.39,1,.83.93A3.27,3.27,0,0,0,119,66.31Zm2.46-3.37a5.26,5.26,0,0,0-2,.29,11.18,11.18,0,0,0,.27,2.46A7.8,7.8,0,0,0,121.43,62.94Z"/><path class="cls-2" d="M131.57,58.25c0,.09-.15.19-.37.2-.08.53-.19,1.15-.3,1.62a16.58,16.58,0,0,0,3.53-.59l.13.82a24.11,24.11,0,0,1-3.81.57,17.67,17.67,0,0,1-2.55,5.9l-.8-.32a15.89,15.89,0,0,0,2.43-5.55h-2.38v-.78H130a20,20,0,0,0,.33-2Zm3.19,5.11c0,1,.09,1.63.16,2.45a12,12,0,0,1,2.55,1.4L137,68a11.58,11.58,0,0,0-2.12-1.26c0,1.2-.48,2.14-2.24,2.14-1.33,0-2.35-.6-2.34-1.73s1.26-1.77,2.36-1.77a5.24,5.24,0,0,1,1.36.21C134,64.8,134,64,134,63.45Zm-.66,3a3.81,3.81,0,0,0-1.42-.28c-.72,0-1.57.29-1.59,1s.67,1,1.61,1,1.42-.42,1.42-1.21A4.79,4.79,0,0,0,134.1,66.36Zm3.29-4.24a17.09,17.09,0,0,0-4.25.59L133,62a17.07,17.07,0,0,1,4.33-.64Z"/><path class="cls-2" d="M146.33,60.53a15.16,15.16,0,0,1-3.68.68,32,32,0,0,1-2.19,7.5l-.87-.33a25.49,25.49,0,0,0,2.17-7.13c-.24,0-1.84,0-2.2,0l0-.82h2.34c.12-.77.24-1.6.31-2.34l1.24.12c0,.14-.18.23-.35.24-.07.53-.19,1.18-.3,1.91a14,14,0,0,0,3.36-.67Zm3.19,8c-.36,0-.73,0-1.1,0a11.89,11.89,0,0,1-2.84-.27,1.64,1.64,0,0,1-1.33-1.65,2.83,2.83,0,0,1,.74-1.74l.72.31a2.22,2.22,0,0,0-.63,1.33c0,1,.92,1.19,3.1,1.19.44,0,.9,0,1.34,0Zm-4.68-5.78a14.73,14.73,0,0,1,4.36-.61v.82a13.22,13.22,0,0,0-4.15.54Z"/><path class="cls-2" d="M155.57,58.48c0,.14-.16.2-.39.21-.13.67-.35,1.84-.49,2.56.54-.06,1-.11,1.33-.11,1.82,0,2.44,1.18,2.44,3a9.38,9.38,0,0,1-.4,2.69,2.21,2.21,0,0,1-2.14,1.81,3.54,3.54,0,0,1-2.17-1,4.36,4.36,0,0,0,.32-.73,3.24,3.24,0,0,0,1.84.91c.68,0,1.09-.43,1.33-1.2a9.17,9.17,0,0,0,.38-2.46c0-1.37-.45-2.18-1.65-2.17a14.28,14.28,0,0,0-1.46.12,23,23,0,0,1-2.46,6.48l-.79-.39a19.66,19.66,0,0,0,2.38-6c-.61.07-1.48.17-2.13.28l-.07-.84,2.37-.27c.18-.88.37-2,.52-3Zm2.79-.38a8.66,8.66,0,0,1,1.6,1.68l-.46.34a8.08,8.08,0,0,0-1.59-1.67Zm2.68,7A7.59,7.59,0,0,0,158.6,61l.69-.46a7.93,7.93,0,0,1,2.62,4.23Zm-.87-7.44a8.17,8.17,0,0,1,1.62,1.66l-.47.35A8.62,8.62,0,0,0,159.74,58Z"/><path class="cls-2" d="M167.51,58.4c0,.08-.1.1-.22.1a12.45,12.45,0,0,1-1.49,1.71,8.13,8.13,0,0,1,.92,4.26c0,1.85-.17,3.35-.71,4.07-.24.33-.62.5-1.73.5l-.71,0a1.68,1.68,0,0,0-.28-.82,9.87,9.87,0,0,0,1,0c.64,0,.88,0,1.1-.28a7.56,7.56,0,0,0,.51-3.51,7.77,7.77,0,0,0,0-.84,11,11,0,0,1-2.56,2.57,2.44,2.44,0,0,0-.55-.65,9,9,0,0,0,3-3.06,5.63,5.63,0,0,0-.56-1.71,16.33,16.33,0,0,1-1.77,1.36,4.9,4.9,0,0,0-.57-.54,12.85,12.85,0,0,0,1.93-1.5,7.47,7.47,0,0,0-1.64-1.64l.58-.47a9.08,9.08,0,0,1,1.63,1.56A9.49,9.49,0,0,0,166.65,58ZM169,67.19c0,.65.15.8.88.8h2.64c.68,0,.79-.41.87-2.08a2.4,2.4,0,0,0,.76.36c-.12,1.86-.37,2.48-1.61,2.48h-2.72c-1.25,0-1.63-.32-1.63-1.58V58.86h5.22v4.77c0,1-.41,1-2.68,1a2.86,2.86,0,0,0-.27-.81c.52,0,1,0,1.36,0,.71,0,.78,0,.78-.25v-4H169Z"/><path class="cls-2" d="M181.08,58.37c0,.09-.09.15-.25.18l0,.35c.13,1.69.85,7.29,5.42,9.36a2.73,2.73,0,0,0-.61.67c-3.24-1.53-4.58-4.79-5.15-7.28h0a10.11,10.11,0,0,1-5,7.27,2.75,2.75,0,0,0-.65-.61c5-2.51,5-8.41,5.13-10Z"/><path class="cls-2" d="M187.48,59.52c.9,0,8.29-.57,9.85-.58v.9h-.44a3.46,3.46,0,0,0-2.05.61c-1.8,1.08-3.54,3-3.54,4.56s1.17,2.67,4.15,3.06l-.4.84c-3.4-.49-4.67-1.77-4.67-3.9,0-1.69,1.66-3.74,3.86-5.12-1.32.09-4.86.36-6.41.5a.32.32,0,0,1-.26.19Zm7.77,2.36a8.86,8.86,0,0,1,1.64,1.66l-.46.37a8.32,8.32,0,0,0-1.58-1.67Zm1.3-1.05a7.48,7.48,0,0,1,1.63,1.65l-.45.36a8.46,8.46,0,0,0-1.59-1.65Z"/><path class="cls-2" d="M204.86,59.88c0-.27-.05-1.57-.08-1.87l1.24.05c0,.09-.1.21-.31.25,0,.14,0,.29,0,1.54,1.48,0,3-.08,3.92-.09v.83c-1,0-2.47,0-3.89,0,0,.94,0,1.8.08,2.46a4.13,4.13,0,0,1,.14,1.26,4.89,4.89,0,0,1-.12,1.17c-.31,1.4-1.34,2.63-3.45,3.47a7.8,7.8,0,0,0-.61-.68c1.83-.66,2.82-1.66,3.12-2.79h0a1.49,1.49,0,0,1-1.23.63,2,2,0,0,1-2-2.1,2.21,2.21,0,0,1,2.16-2.24,1.81,1.81,0,0,1,1.12.37c0-.2,0-1-.05-1.52-1.25,0-5,.15-5.53.18l0-.79,2.73-.08Zm.22,4.21c0-.47,0-1.56-1.22-1.56a1.45,1.45,0,0,0-1.43,1.52,1.34,1.34,0,0,0,1.33,1.39A1.29,1.29,0,0,0,205.08,64.09Z"/><path class="cls-2" d="M211.32,60.48a12,12,0,0,0,2.36-.15c0-.31.07-1.81.07-2.15l1.19.1c0,.14-.12.21-.33.23,0,.52-.07,1.12-.09,1.69l.49.17a11.86,11.86,0,0,0-.56,1.61c0,.15,0,.32,0,.48a6.53,6.53,0,0,1,4-1.75c1.81,0,2.7,1.23,2.7,3.47a6.85,6.85,0,0,1-.31,2.13,10.21,10.21,0,0,1,1,1l-.55.71a10.94,10.94,0,0,0-.9-.94,2.56,2.56,0,0,1-2.4,1.39,1.75,1.75,0,0,1-1.94-1.64,1.79,1.79,0,0,1,2-1.68,3.67,3.67,0,0,1,2,.64,5.34,5.34,0,0,0,.22-1.66c0-1.62-.64-2.66-2-2.66a6.32,6.32,0,0,0-3.93,1.85c0,.78,0,4.61,0,5.48h-.83c0-1.06,0-3.6,0-5.09h0a11.59,11.59,0,0,1-2,3l-.5-.74a12.32,12.32,0,0,0,2.54-3.93l0-1a17,17,0,0,1-2.33.13Zm8.53,6.07a2.91,2.91,0,0,0-1.78-.69c-.67,0-1.27.4-1.27,1s.58,1,1.27,1A1.89,1.89,0,0,0,219.85,66.55Z"/><path class="cls-2" d="M227.79,65.52a4,4,0,0,1-.1-.75,2.73,2.73,0,0,1,1.14-2c.87-.76,1.32-1.23,1.32-1.92s-.66-1.28-2-1.28a4.33,4.33,0,0,0-2,.47l-.32-.7a5.74,5.74,0,0,1,2.42-.55c2.07,0,2.88,1,2.88,2s-.6,1.57-1.55,2.37a2.28,2.28,0,0,0-1,1.75c0,.1,0,.2,0,.3l.06.38Zm-.22,1.91a.72.72,0,0,1,.71-.8.76.76,0,1,1-.71.8Z"/><path class="cls-2" d="M238.91,60.24V69h-4v-.63h3.37V60.24Z"/><path class="cls-2" d="M256.3,62.16h-.1a.45.45,0,0,1-.25-.07c-3.56,1-6.79,2.61-6.78,4.22,0,1.15,1.28,1.55,3.22,1.55a28.82,28.82,0,0,0,4.24-.28l.08.88a39.92,39.92,0,0,1-4.3.21c-2.37,0-4.1-.55-4.11-2.31,0-1.29,1.27-2.41,3.15-3.39-.4-.73-.55-2.12-.55-4.83l1.32.11c0,.16-.13.25-.37.29,0,2.1.06,3.4.4,4.05A32.42,32.42,0,0,1,256,61.16Z"/><path class="cls-2" d="M263.91,62.37h-3.6v6.68h-.79V58.43h4.39Zm-.77-3.32h-2.83v1h2.83Zm-2.83,2.7h2.83V60.67h-2.83Zm7.21,2h-.92v5.07h-.75v-1c-1.59.12-3.19.21-4.21.27a.18.18,0,0,1-.17.16l-.21-.8,1.1,0V63.7h-.95v-.61h6.11Zm-1.67.78V63.7h-2.77v.78Zm0,1.35V65h-2.77v.81Zm-2.77.54v.93c.85,0,1.81-.08,2.77-.14v-.79Zm6.45-7.94V68c0,1-.48,1.08-2.3,1.08a2.66,2.66,0,0,0-.26-.83l1.08,0c.62,0,.69,0,.69-.28V62.39H265v-4Zm-.79.62h-2.92v1h2.92Zm-2.92,2.71h2.92V60.67h-2.92Z"/><path class="cls-2" d="M26.49,90a36.57,36.57,0,0,0-4.7-4.47c-.6-.48-.82-.81-.82-1.24a1.5,1.5,0,0,1,.64-1.09c1.09-1,3.14-3,4.29-4.13l1,.67a.33.33,0,0,1-.26.12l-.15,0c-1.2,1.15-3.07,2.78-4.05,3.7-.29.28-.52.52-.52.71s.22.44.64.76a40.67,40.67,0,0,1,4.74,4.35Z"/><path class="cls-2" d="M34.28,88.36a1.68,1.68,0,1,1-1.68-1.68A1.68,1.68,0,0,1,34.28,88.36Zm-.43,0A1.25,1.25,0,1,0,32.6,89.6,1.25,1.25,0,0,0,33.85,88.36Z"/><path class="cls-2" d="M47.13,79c0,.08-.07.14-.24.17v4.15h4v6.78H50.1v-.52H41.85v-.79H50.1v-2H42.49V86H50.1V84.07h-8v-.79h4V78.89Zm-4.48.48a11.46,11.46,0,0,1,1.65,2.77l-.77.35a12.21,12.21,0,0,0-1.6-2.82Zm8.6.3a.29.29,0,0,1-.27.11,21.62,21.62,0,0,1-1.65,2.82l-.68-.32a21.68,21.68,0,0,0,1.6-3Z"/><path class="cls-2" d="M53.49,81.65a12.28,12.28,0,0,0,2.26-.18c0-.72,0-1.12.08-2.21l1.23.1q0,.19-.33.24c0,.52-.1,1.27-.12,1.71l.37.14a6.18,6.18,0,0,0-.48,1.72c1.32-1.24,2.78-2.11,3.78-2.11S62,81.85,62,83.24c0,.16,0,.31,0,.47-.09,1.05-.21,2.55-.21,3.51,0,.72.09,1.11.59,1.11a3.19,3.19,0,0,0,1.59-.81c0,.24.12.73.17.91a3.57,3.57,0,0,1-1.88.78c-1,0-1.34-.6-1.34-1.84,0-.63.21-3.93.21-3.94,0-1-.36-1.51-.95-1.51-.89,0-2.41,1-3.65,2.29,0,1.74,0,3.88,0,5.51h-.84c0-.7,0-4.12,0-4.88a12.42,12.42,0,0,1-2.18,2.89L53.05,87a12.3,12.3,0,0,0,2.64-3.62c0-.35,0-.67,0-1.06a11.79,11.79,0,0,1-2.21.21Z"/><path class="cls-2" d="M66.14,89.37a13.18,13.18,0,0,1-.52-4.22,30.13,30.13,0,0,1,.65-5.6l1.16.22c0,.13-.14.21-.31.22a23.1,23.1,0,0,0-.69,5.17,15.29,15.29,0,0,0,.1,2.27c.27-.72.76-1.87,1-2.44l.54.51a13.68,13.68,0,0,0-1.24,3.2,1.66,1.66,0,0,0,.12.57Zm2.71-7c.27,0,2.22,0,3,0-.05-1-.08-2-.11-2.9l1.21,0c0,.12-.12.21-.31.25,0,.77,0,1.63.06,2.55a10.63,10.63,0,0,0,2.35-.48l.11.83a11,11,0,0,1-2.43.45l.15,3.4A9,9,0,0,1,75.35,88l-.47.77a7.37,7.37,0,0,0-1.95-1.37c0,1-.17,2.16-2,2.16-1.41,0-2.34-.67-2.34-1.72,0-1.23,1.22-1.77,2.34-1.77a4.06,4.06,0,0,1,1.13.16c0-.76-.1-1.93-.16-3.11-.39,0-.88.05-1.23.05H68.85ZM72.15,87A4,4,0,0,0,71,86.8c-.73,0-1.6.27-1.6,1s.71,1,1.6,1,1.21-.43,1.2-1.39C72.16,87.34,72.16,87.14,72.15,87Zm2.43-5.42a6.28,6.28,0,0,0-1.32-1.76l.42-.32a6.81,6.81,0,0,1,1.37,1.78Zm1.32-.87A7.08,7.08,0,0,0,74.59,79l.42-.33a6.58,6.58,0,0,1,1.36,1.76Z"/><path class="cls-2" d="M88.06,83.85H86.62a5,5,0,0,0,1.7,1.8,3,3,0,0,0-.54.64,6.43,6.43,0,0,1-2-2.44H83.27a6.39,6.39,0,0,1-2.16,2.47,3.79,3.79,0,0,0-.44-.57v3.32c0,.88-.4,1-1.88,1a4.54,4.54,0,0,0-.24-.74h.74c.62,0,.65,0,.65-.24V85.9H78.32A12.8,12.8,0,0,1,77.47,90a2.41,2.41,0,0,0-.64-.38,15.54,15.54,0,0,0,.85-6V79.34h3v6.38a5.64,5.64,0,0,0,1.76-1.87H81v-.68h1.83a10.36,10.36,0,0,0,.5-1.36h-2v-.68h2.21a20.07,20.07,0,0,0,.38-2.24l1,.14c0,.1-.1.15-.24.16-.1.68-.2,1.33-.35,1.94H85.8l-.21-.08a13.42,13.42,0,0,0,.9-2l.94.32a.27.27,0,0,1-.26.11,14.47,14.47,0,0,1-.88,1.62h1.56v.68H85.72a8.92,8.92,0,0,0,.53,1.36h1.81Zm-9.67-.14c0,.44,0,.92,0,1.44h1.57V83H78.39Zm1.55-3.61H78.39v2.12h1.55Zm6.5,5.74h.17l.42.06c0,.07,0,.16,0,.25-.13,2.35-.27,3.22-.56,3.53s-.54.31-1.23.31l-.74,0a2.16,2.16,0,0,0-.2-.7,10.07,10.07,0,0,0,1.17.06c.18,0,.28,0,.36-.12s.31-.89.42-2.66H84.31a4.42,4.42,0,0,1-2.87,3.55,2.35,2.35,0,0,0-.48-.61,3.85,3.85,0,0,0,2.59-2.94H81.82v-.7h1.86c.06-.42.09-.87.13-1.35l1,.08c0,.1-.09.15-.24.17,0,.38-.07.74-.12,1.1Zm-4.31-6.72a5.81,5.81,0,0,1,.75,1.59l-.66.26a6,6,0,0,0-.7-1.61Zm1.93,2.69a10.33,10.33,0,0,1-.47,1.36H85.5A13.57,13.57,0,0,1,85,81.81Z"/><path class="cls-2" d="M98.43,81.32a27.49,27.49,0,0,1-5.16.7,14.66,14.66,0,0,1-.57,3.18,6.11,6.11,0,0,1,3.41-1.28c1.79,0,2.88,1,2.88,2.58,0,2.39-2.41,3.19-6.31,3.29a3.45,3.45,0,0,0-.24-.79c3.44-.07,5.67-.66,5.67-2.47,0-1.08-.72-1.83-2.11-1.83a5,5,0,0,0-3.69,1.84l-.84-.4a10.28,10.28,0,0,0,1-4.11H89.62v-.84H92.5c0-.68.07-1.45.07-2.17l1.27.12c0,.21-.16.24-.38.27,0,.6-.06,1.21-.11,1.77a23.54,23.54,0,0,0,4.92-.73Z"/><path class="cls-2" d="M104.29,88.36a1.68,1.68,0,1,1-1.68-1.68A1.68,1.68,0,0,1,104.29,88.36Zm-.44,0a1.24,1.24,0,1,0-1.24,1.24A1.24,1.24,0,0,0,103.85,88.36Z"/><path class="cls-2" d="M113.81,81.18a3.53,3.53,0,0,1,2.9-1.31,2.47,2.47,0,0,1,2.68,2.5c0,1.88-1.41,3.1-3.54,5l-.86.75v0h4.65V89h-6.21v-.65l1-.89c2.53-2.27,3.86-3.44,3.86-5a1.67,1.67,0,0,0-1.78-1.74,3,3,0,0,0-2.23,1.14Z"/><path class="cls-2" d="M133.05,79.63V89c0,1.05-.55,1.06-2.62,1a3.73,3.73,0,0,0-.28-.76l1.12,0c.9,0,1,0,1-.33V80.4h-7.17v3c0,2-.2,4.75-1.6,6.62a2.86,2.86,0,0,0-.63-.52c1.31-1.77,1.44-4.22,1.44-6.1V79.63Zm-7.46,4h2.56V82.39h-2.26v-.66h2.26v-1.1l1,.06c0,.08-.09.14-.23.16v.88h2.36v.66h-2.36v1.28h2.67v.67h-6Zm5.37,4.9h-4v.68h-.75V85.4H131Zm-.77-2.51H127v1.85h3.22Z"/><path class="cls-2" d="M136.43,79.73h8.13V90h-.84v-.85h-6.48V90h-.81Zm7.29.78h-6.48v2.1h6.48Zm0,2.86h-6.48V85.5h6.48Zm-6.48,5h6.48V86.28h-6.48Z"/><path class="cls-2" d="M149.67,79.79c0,.13-.16.2-.4.19a28.62,28.62,0,0,0-.63,5.4,13.19,13.19,0,0,0,.15,2.37c.23-.59.75-1.85.91-2.27l.51.53c-.5,1.21-.85,1.9-1,2.44a2,2,0,0,0-.1.56,1.51,1.51,0,0,0,.06.37l-.85.16a13.28,13.28,0,0,1-.53-4.13,34.53,34.53,0,0,1,.64-5.84Zm7.64,8.76c-.43,0-.88,0-1.32,0a17.17,17.17,0,0,1-2.23-.13c-1.48-.22-2.16-1-2.16-2a3.63,3.63,0,0,1,1.13-2.32l.77.34a2.86,2.86,0,0,0-1,1.88c0,1.39,2,1.39,3.28,1.39.51,0,1,0,1.55-.06Zm-5.56-7.32a39,39,0,0,0,5.23-.46l.07.84a44.23,44.23,0,0,1-5.27.44Z"/><path class="cls-2" d="M163.59,79.25a.41.41,0,0,1-.38.2c-.08.53-.19,1.15-.3,1.62a16.48,16.48,0,0,0,3.53-.59l.13.82a23.76,23.76,0,0,1-3.81.57,17.86,17.86,0,0,1-2.54,5.9l-.81-.32a16.09,16.09,0,0,0,2.44-5.55h-2.39v-.78H162c.14-.64.25-1.32.34-2Zm3.19,5.11c0,1,.08,1.63.15,2.45a12,12,0,0,1,2.56,1.4l-.44.76a11.25,11.25,0,0,0-2.12-1.26c0,1.2-.48,2.14-2.24,2.14-1.33,0-2.35-.6-2.34-1.73s1.26-1.77,2.36-1.77a5.18,5.18,0,0,1,1.36.21c0-.76-.11-1.54-.11-2.11Zm-.66,3a3.89,3.89,0,0,0-1.43-.28c-.72,0-1.57.29-1.58,1s.67,1,1.6,1,1.42-.42,1.42-1.21C166.13,87.71,166.13,87.53,166.12,87.36Zm3.28-4.24a17,17,0,0,0-4.24.59L165,83a16.93,16.93,0,0,1,4.32-.64Z"/><path class="cls-2" d="M175,84.16a7.4,7.4,0,0,1,3-.69,2.79,2.79,0,0,1,3.1,2.88c0,2.17-1.9,3.37-4.31,3.37-1.56,0-2.63-.63-2.63-1.68a1.81,1.81,0,0,1,2-1.61,2.53,2.53,0,0,1,2.44,2.17,2.35,2.35,0,0,0,1.66-2.24c0-1.3-1-2.12-2.47-2.12a6.83,6.83,0,0,0-4.36,1.57c-.36.33-.82.84-1.15,1.21l-.61-.61c1.08-1.13,4.51-4.4,6.14-5.93-.7.1-3.09.19-4.46.24a.38.38,0,0,1-.25.18l-.1-1c1.62,0,4.71-.13,5.59-.26l.18-.08.64.77a.55.55,0,0,1-.29.11c-.85.7-3.13,2.83-4.07,3.73Zm1.66,4.8a5.35,5.35,0,0,0,1.09-.12,1.85,1.85,0,0,0-1.7-1.7c-.63,0-1.18.34-1.18.89C174.89,88.76,175.89,89,176.68,89Z"/><path class="cls-2" d="M183.9,80.76c.75,0,1.74,0,2.56,0l1.65,0c0-.57,0-1.24,0-1.66l1.21.06c0,.14-.12.21-.32.25,0,.19,0,1.11,0,1.32a25.11,25.11,0,0,0,4-.47l.11.79a26,26,0,0,1-4.09.46c0,.72,0,1.46.05,2.2a20,20,0,0,0,3.38-.46l.09.77a22.14,22.14,0,0,1-3.46.42l.09,2a13.22,13.22,0,0,1,3.53,1.87l-.53.73a11.63,11.63,0,0,0-3-1.76c0,.19,0,.4,0,.56,0,1.14-.7,1.8-2.15,1.8s-2.64-.62-2.64-1.75,1.31-1.79,2.65-1.79a5.15,5.15,0,0,1,1.26.15c0-.52,0-1.14,0-1.79l-1.17,0c-2.05,0-2.62-.32-2.62-1,0-.45.34-.82,1.11-1.32l.58.38c-.54.3-.83.56-.83.8s.56.43,2.09.43h.8l-.07-2.22c-.52,0-1.12,0-1.66,0-.77,0-1.86,0-2.58,0ZM188.34,87a5.12,5.12,0,0,0-1.34-.2c-.91,0-1.84.38-1.84,1.1s.84,1,1.89,1,1.3-.42,1.3-1.26Z"/><path class="cls-2" d="M195.5,80.52c.9,0,8.28-.57,9.84-.58v.9h-.44a3.48,3.48,0,0,0-2,.61c-1.8,1.08-3.54,3-3.54,4.56s1.18,2.67,4.15,3.06l-.39.84c-3.41-.49-4.68-1.77-4.68-3.9,0-1.69,1.67-3.74,3.86-5.12-1.32.09-4.86.36-6.4.5a.36.36,0,0,1-.27.19Zm7.77,2.36a8.8,8.8,0,0,1,1.63,1.66l-.46.37a7.79,7.79,0,0,0-1.58-1.67Zm1.29-1a7.26,7.26,0,0,1,1.63,1.65l-.45.36a8.39,8.39,0,0,0-1.58-1.65Z"/><path class="cls-2" d="M208.13,89.37a13.22,13.22,0,0,1-.51-4.22,30.92,30.92,0,0,1,.64-5.6l1.17.22a.31.31,0,0,1-.31.22,22.57,22.57,0,0,0-.7,5.17,13.8,13.8,0,0,0,.11,2.27c.26-.72.74-1.87,1-2.44l.54.51a14.06,14.06,0,0,0-1.23,3.2,1.46,1.46,0,0,0,.12.57Zm3.05-7.06c1,0,2,0,3,0,0-1-.08-1.92-.11-2.81l1.21,0c0,.12-.12.21-.31.25,0,.77,0,1.55.06,2.46a11.1,11.1,0,0,0,2.35-.48l.11.84a11.33,11.33,0,0,1-2.42.43c0,1.33.11,2.73.14,3.5A9,9,0,0,1,217.68,88l-.47.77a7.31,7.31,0,0,0-1.94-1.37c0,1-.21,2.16-2,2.16-1.4,0-2.33-.67-2.33-1.72,0-1.23,1.23-1.77,2.33-1.77a4,4,0,0,1,1.14.16c0-.76-.1-2-.16-3.19-.38,0-.88,0-1.23,0h-1.82ZM214.46,87a4,4,0,0,0-1.18-.22c-.74,0-1.61.27-1.61,1s.72,1,1.59,1,1.22-.43,1.22-1.39Z"/><path class="cls-2" d="M220.56,83.13a14.08,14.08,0,0,1-1.46,2,5.18,5.18,0,0,0-.42-.76,16.06,16.06,0,0,0,3-5.4l1,.33a.27.27,0,0,1-.28.11,22.6,22.6,0,0,1-1.1,2.48l.32.08c0,.07-.08.13-.24.15v8h-.78Zm9.13,2.47h-3.23a5.08,5.08,0,0,1-.71,2.26,10.18,10.18,0,0,0,4.52,1.44,3.34,3.34,0,0,0-.52.75,10.17,10.17,0,0,1-4.49-1.58,6.45,6.45,0,0,1-2.91,1.61,2.73,2.73,0,0,0-.49-.67A5.81,5.81,0,0,0,224.64,88a6,6,0,0,1-1.39-1.82l.73-.24a4.86,4.86,0,0,0,1.14,1.46,4,4,0,0,0,.55-1.78h-3V82.28h3V81H222.3v-.74h3.43V79l1,.06c0,.08-.07.14-.24.16v1.06h3.59V81h-3.59v1.26h3.17Zm-6.26-.69h2.29c0-.21,0-.4,0-.6V83h-2.3ZM228.91,83h-2.39v1.34c0,.2,0,.39,0,.6h2.4Z"/><path class="cls-2" d="M236,85.64a2.65,2.65,0,0,1,1.19-.28,1.09,1.09,0,0,1,1,1.23c0,.31,0,.68,0,1,0,1.22.72,1.22,1.76,1.22a9.34,9.34,0,0,0,1.55-.11,7.68,7.68,0,0,0,0,.86c-.47,0-1,.07-1.56.07a10.47,10.47,0,0,1-1.25-.07,1.52,1.52,0,0,1-1.36-1.48c0-.28,0-.82,0-1.17,0-.51-.19-.8-.61-.8a3.45,3.45,0,0,0-2.15,1c-.69.68-2,2-2.41,2.48a5.8,5.8,0,0,0-.65-.63c1.14-1.17,4.91-4.82,6.13-6-.87.08-3.59.24-5,.31a.24.24,0,0,1-.19.13l-.08-1c1.68-.05,4.84-.2,6.05-.31l.18-.11.69.64a.44.44,0,0,1-.28.09c-.76.71-2.24,2.07-3.12,2.92Zm3-4.8a26.24,26.24,0,0,0-5.14-.8l.18-.81a25.54,25.54,0,0,1,5.19.8Z"/><path class="cls-2" d="M247.59,79.25a.41.41,0,0,1-.38.2c-.08.53-.19,1.15-.3,1.62a16.48,16.48,0,0,0,3.53-.59l.13.82a23.76,23.76,0,0,1-3.81.57,17.86,17.86,0,0,1-2.54,5.9l-.81-.32a16.09,16.09,0,0,0,2.44-5.55h-2.39v-.78H246c.14-.64.25-1.32.34-2Zm3.19,5.11c0,1,.08,1.63.15,2.45a12,12,0,0,1,2.56,1.4l-.44.76a11.25,11.25,0,0,0-2.12-1.26c0,1.2-.48,2.14-2.24,2.14-1.33,0-2.35-.6-2.34-1.73s1.26-1.77,2.36-1.77a5.18,5.18,0,0,1,1.36.21c0-.76-.11-1.54-.11-2.11Zm-.66,3a3.89,3.89,0,0,0-1.43-.28c-.72,0-1.57.29-1.58,1s.67,1,1.6,1,1.42-.42,1.42-1.21C250.13,87.71,250.13,87.53,250.12,87.36Zm3.28-4.24a17,17,0,0,0-4.24.59L249,83a16.93,16.93,0,0,1,4.32-.64Z"/><path class="cls-2" d="M257,80.52c0,.11-.15.18-.32.19a20.27,20.27,0,0,0-.23,3c0,.44,0,.87.05,1.26.14,2,1,3.27,1.9,3.26.47,0,1.1-1.23,1.53-2.57a4,4,0,0,0,.7.52c-.56,1.62-1.25,2.94-2.25,3-1.52,0-2.58-1.82-2.74-4.13,0-.45-.05-1-.05-1.49a28.61,28.61,0,0,1,.18-3.23Zm7.95,5.58a6,6,0,0,0-3-4.51l.53-.65a6.58,6.58,0,0,1,3.38,4.88Z"/><path class="cls-2" d="M270.29,88.36a1.68,1.68,0,1,1-1.68-1.68A1.68,1.68,0,0,1,270.29,88.36Zm-.43,0a1.24,1.24,0,1,0-2.48,0,1.24,1.24,0,1,0,2.48,0Z"/><path class="cls-2" d="M30,106.45v.79H24.92v2.67c0,.62-.18.86-.62,1a10.06,10.06,0,0,1-2.51.14,4,4,0,0,0-.35-.8c.57,0,1.13,0,1.55,0,1,0,1.1,0,1.1-.35v-2.67H19v-.79h5.05v-2H19.84v-.77h4.25v-1.94c-1.32.16-2.71.28-4,.35a2.1,2.1,0,0,0-.21-.7,37.1,37.1,0,0,0,8.17-1.21l.69.69a.24.24,0,0,1-.14,0h-.11a21.61,21.61,0,0,1-3.33.71c0,.08-.09.12-.24.14v1.94h4.39v.77H24.92v2Z"/><path class="cls-2" d="M34.49,100c0,.09-.08.15-.24.17v2.43h2.12v.77H34.25v1.14c.47.46,1.75,1.88,2,2.24l-.54.7a20.59,20.59,0,0,0-1.51-2V111h-.8V105a12.48,12.48,0,0,1-2.18,3.87,5,5,0,0,0-.47-.75,11.85,11.85,0,0,0,2.53-4.73H31.06v-.77h2.39V99.91ZM38,109.24c0,.65.12.77.66.77h1.9c.59,0,.68-.54.76-2.55a2.31,2.31,0,0,0,.77.38c-.11,2.19-.33,3-1.48,3h-2c-1.08,0-1.41-.32-1.41-1.58V99.94l1.06.07c0,.08-.07.14-.24.17Z"/><path class="cls-2" d="M47.57,100.48c0,.14-.16.2-.39.21-.13.67-.35,1.84-.49,2.56.54-.06,1-.11,1.33-.11,1.82,0,2.44,1.18,2.44,3a9.38,9.38,0,0,1-.4,2.69,2.21,2.21,0,0,1-2.14,1.81,3.54,3.54,0,0,1-2.17-1,4.36,4.36,0,0,0,.32-.73,3.24,3.24,0,0,0,1.84.91c.68,0,1.09-.43,1.33-1.2a9.17,9.17,0,0,0,.38-2.46c0-1.37-.45-2.18-1.65-2.17a14.28,14.28,0,0,0-1.46.12,23,23,0,0,1-2.46,6.48l-.79-.39a19.66,19.66,0,0,0,2.38-6c-.61.07-1.48.17-2.13.28l-.07-.84,2.37-.27c.18-.88.37-2,.52-3Zm2.79-.38a8.66,8.66,0,0,1,1.6,1.68l-.46.34a8.08,8.08,0,0,0-1.59-1.67Zm2.68,7A7.59,7.59,0,0,0,50.6,103l.69-.46a7.93,7.93,0,0,1,2.62,4.23Zm-.87-7.44a8.17,8.17,0,0,1,1.62,1.66l-.47.35A8.62,8.62,0,0,0,51.74,100Z"/><path class="cls-2" d="M56.79,104.21v-1.74a9.56,9.56,0,0,1-1.21,1.18,4.19,4.19,0,0,0-.6-.5,9.32,9.32,0,0,0,2.59-3.26l1,.33c0,.08-.12.12-.27.1a9.11,9.11,0,0,1-.58,1h7.79v.74H64.18v2.16h1.75v.73H64.18v2.18h1.57v.73H55.27v-.73h1.52v-2.18h-1.7v-.73Zm.5,4.41a5.83,5.83,0,0,1-1.54,2.43l-.75-.32a5.27,5.27,0,0,0,1.54-2.32Zm.24-6.57v2.16H59v-2.16Zm0,2.89v2.18H59v-2.18Zm1.37,6a14.92,14.92,0,0,0-.25-2.22l.73-.07a11.9,11.9,0,0,1,.31,2.17Zm2.28-8.88h-1.5v2.16h1.5Zm0,2.89h-1.5v2.18h1.5Zm.71,6a11.19,11.19,0,0,0-.76-2.24l.76-.14a11.83,11.83,0,0,1,.79,2.2Zm1.53-6.74v-2.16H61.89v2.16Zm0,2.91v-2.18H61.89v2.18Zm1.84,3.94a14,14,0,0,0-1.62-2.43l.74-.26a13.28,13.28,0,0,1,1.67,2.4Z"/><path class="cls-2" d="M69,101.52c0,.11-.16.18-.32.19a19,19,0,0,0-.23,3c0,.44,0,.87,0,1.26.14,2,1,3.27,1.89,3.26.48,0,1.1-1.23,1.54-2.57a4.3,4.3,0,0,0,.69.52c-.55,1.62-1.24,2.94-2.24,3-1.52,0-2.58-1.82-2.75-4.13,0-.45,0-1,0-1.49a28.61,28.61,0,0,1,.18-3.23Zm8,5.58a6,6,0,0,0-3-4.51l.53-.65a6.58,6.58,0,0,1,3.38,4.88Z"/><path class="cls-2" d="M85.08,100.37c0,.09-.09.15-.25.18l0,.35c.13,1.69.85,7.29,5.42,9.36a2.73,2.73,0,0,0-.61.67c-3.24-1.53-4.58-4.79-5.15-7.28h0a10.11,10.11,0,0,1-5,7.27,2.75,2.75,0,0,0-.65-.61c5-2.51,5-8.41,5.13-10Z"/><path class="cls-2" d="M93.65,100.79c0,.13-.15.2-.39.19a28.74,28.74,0,0,0-.64,5.4,13.07,13.07,0,0,0,.16,2.37c.23-.59.74-1.85.91-2.27l.5.53c-.49,1.21-.85,1.9-1,2.44a2,2,0,0,0-.09.56,1.15,1.15,0,0,0,.06.37l-.85.16a13,13,0,0,1-.53-4.13,35.48,35.48,0,0,1,.63-5.84Zm7.64,8.76c-.43,0-.87,0-1.32,0a17.28,17.28,0,0,1-2.23-.13c-1.47-.22-2.16-1-2.16-2a3.68,3.68,0,0,1,1.13-2.32l.78.34a2.83,2.83,0,0,0-1,1.88c0,1.39,2,1.39,3.29,1.39.5,0,1,0,1.55-.06Zm-5.55-7.32a39,39,0,0,0,5.23-.46l.07.84a44.56,44.56,0,0,1-5.28.44Z"/><path class="cls-2" d="M104.12,110.37a13.18,13.18,0,0,1-.52-4.22,31,31,0,0,1,.65-5.6l1.16.22c0,.13-.14.21-.31.22a23.1,23.1,0,0,0-.69,5.17,15.29,15.29,0,0,0,.1,2.27c.27-.72.75-1.87,1-2.44l.54.51a13.68,13.68,0,0,0-1.24,3.2,1.66,1.66,0,0,0,.12.57Zm3-7.06c1,0,2,0,3,0,0-1-.09-1.92-.11-2.81l1.21,0c0,.12-.12.21-.31.25,0,.77,0,1.55.06,2.46a11.24,11.24,0,0,0,2.35-.48l.11.84a11.45,11.45,0,0,1-2.42.43c0,1.33.1,2.73.14,3.5a9,9,0,0,1,2.45,1.52l-.47.77a7.21,7.21,0,0,0-2-1.37c0,1-.2,2.16-2,2.16-1.4,0-2.34-.67-2.34-1.72,0-1.23,1.24-1.77,2.34-1.77a4.08,4.08,0,0,1,1.14.16c0-.76-.11-2-.17-3.19-.37,0-.87,0-1.22,0h-1.82Zm3.28,4.71a4,4,0,0,0-1.19-.22c-.73,0-1.6.27-1.6,1s.72,1,1.59,1,1.21-.43,1.21-1.39Z"/><path class="cls-2" d="M119.91,104.37h-3.6v6.68h-.79V100.43h4.39Zm-.77-3.32h-2.83v1h2.83Zm-2.83,2.7h2.83v-1.08h-2.83Zm7.21,2h-.92v5.07h-.75v-1c-1.59.12-3.19.21-4.21.27a.18.18,0,0,1-.17.16l-.21-.8,1.1,0V105.7h-1v-.61h6.11Zm-1.67.78v-.78h-2.77v.78Zm0,1.35V107h-2.77v.81Zm-2.77.54v.93c.85,0,1.81-.08,2.77-.14v-.79Zm6.45-7.94V110c0,1-.48,1.08-2.3,1.08a2.66,2.66,0,0,0-.26-.83l1.08,0c.62,0,.69,0,.69-.28v-5.56H121v-4Zm-.79.62h-2.92v1h2.92Zm-2.92,2.71h2.92v-1.09h-2.92Z"/><path class="cls-2" d="M129.41,100.87c0,.11-.13.19-.31.22a25.47,25.47,0,0,0-.62,5,12.16,12.16,0,0,0,.12,2c.26-.54.85-1.68,1.22-2.38l.55.56a10.49,10.49,0,0,0-1.42,3,1.65,1.65,0,0,0,.09.49l-.84.17a11.93,11.93,0,0,1-.55-3.87,30.63,30.63,0,0,1,.6-5.38Zm1.78,2.72c1,0,2.37,0,3.24-.08-.07-1.39-.16-3.05-.19-3.3l1.23.05c0,.13-.13.24-.32.28,0,.65.08,1.88.13,2.92a14.29,14.29,0,0,0,2.35-.37l.08.85a16.53,16.53,0,0,1-2.41.33c0,.07,0,.26,0,1,0,2.59-.58,4.42-2.9,5.57a4.21,4.21,0,0,0-.64-.6c2.22-1.08,2.68-2.65,2.68-4.9v-1c-.8,0-2.18.09-3.25.09Z"/><path class="cls-2" d="M143.57,100.25c0,.09-.15.19-.37.2-.08.53-.19,1.15-.3,1.62a16.58,16.58,0,0,0,3.53-.59l.13.82a24.11,24.11,0,0,1-3.81.57,17.67,17.67,0,0,1-2.55,5.9l-.8-.32a15.89,15.89,0,0,0,2.43-5.55h-2.38v-.78H142a20,20,0,0,0,.33-2Zm3.19,5.11c0,1,.09,1.63.16,2.45a12,12,0,0,1,2.55,1.4L149,110a11.58,11.58,0,0,0-2.12-1.26c0,1.2-.48,2.14-2.24,2.14-1.33,0-2.35-.6-2.34-1.73s1.26-1.77,2.36-1.77a5.24,5.24,0,0,1,1.36.21c-.05-.76-.11-1.54-.11-2.11Zm-.66,3a3.81,3.81,0,0,0-1.42-.28c-.72,0-1.57.29-1.59,1s.67,1,1.61,1,1.42-.42,1.42-1.21A4.79,4.79,0,0,0,146.1,108.36Zm3.29-4.24a17.09,17.09,0,0,0-4.25.59L145,104a17.07,17.07,0,0,1,4.33-.64Z"/><path class="cls-2" d="M153,101.52c0,.11-.16.18-.32.19a19,19,0,0,0-.23,3c0,.44,0,.87.05,1.26.14,2,1,3.27,1.89,3.26.48,0,1.1-1.23,1.54-2.57a4.3,4.3,0,0,0,.69.52c-.55,1.62-1.24,2.94-2.24,3-1.52,0-2.58-1.82-2.75-4.13,0-.45,0-1,0-1.49a28.61,28.61,0,0,1,.18-3.23Zm7.95,5.58a6,6,0,0,0-3-4.51l.53-.65a6.58,6.58,0,0,1,3.38,4.88Z"/><path class="cls-2" d="M166.28,109.36a1.68,1.68,0,1,1-1.68-1.68A1.68,1.68,0,0,1,166.28,109.36Zm-.43,0a1.25,1.25,0,1,0-1.25,1.24A1.25,1.25,0,0,0,165.85,109.36Z"/></g></g></svg>