<svg xmlns="http://www.w3.org/2000/svg" viewBox="0 0 292 173.81"><defs><style>.cls-1{fill:#f39800;}.cls-2{fill:#fff;}</style></defs><g id="レイヤー_2" data-name="レイヤー 2"><g id="レイヤー_1-2" data-name="レイヤー 1"><rect class="cls-1" width="292" height="173.81" rx="5"/><path class="cls-2" d="M20.78,23.21a8,8,0,0,0-.54-1.45h-.55a8.36,8.36,0,0,1-1.15,1.53,4.6,4.6,0,0,0-.63-.42A8.11,8.11,0,0,0,19.72,20l.91.3c0,.08-.13.12-.25.11a7.83,7.83,0,0,1-.33.73h3.32v.66H21a7,7,0,0,1,.46,1.17Zm7.16,4h.18l.47.07a1.87,1.87,0,0,1,0,.25c-.31,3-.55,3.07-1.94,3.07-.28,0-.6,0-.95,0a1.76,1.76,0,0,0-.23-.76,10.7,10.7,0,0,0,1.38.08c.22,0,.34,0,.43-.11s.33-.67.46-1.86H23.93v3.2h-.79v-3a12.26,12.26,0,0,1-4.64,2.74A3.55,3.55,0,0,0,18,30.3,11.79,11.79,0,0,0,22.41,28H19.85l-.13.44-.79-.12c.25-.77.55-2,.74-2.92h3.47V24.05H19v-.7h8.8v2.7h-3.9v1.2Zm-4.8-1.2H20.32c-.08.4-.19.82-.29,1.2h3.11Zm2.27-5.8c0,.08-.12.1-.24.1q-.17.39-.36.75h4.27v.66H26.21a6,6,0,0,1,.73,1.2l-.71.28a6.37,6.37,0,0,0-.89-1.48H24.4a6.43,6.43,0,0,1-1.31,1.46,4.15,4.15,0,0,0-.61-.44,6.56,6.56,0,0,0,2-2.82Zm-1.48,3.8v1.31H27V24.05Z"/><path class="cls-2" d="M30,25h11.1v.89H30Z"/><path class="cls-2" d="M51.54,20.67c0,.06-.13.08-.24.07a19.79,19.79,0,0,1-1.71,1.41,8.18,8.18,0,0,0,.84,1,17.31,17.31,0,0,0,1.82-1.63l.73.54a.29.29,0,0,1-.25.06,20.07,20.07,0,0,1-1.84,1.47,7.85,7.85,0,0,0,2.36,1.47,3.62,3.62,0,0,0-.56.68,7.82,7.82,0,0,1-1.76-1.07v.46H49.42v1.91h2.95v.75H49.42v2.08c0,.38.07.44.5.44h1.49c.4,0,.46-.24.5-1.57a2.49,2.49,0,0,0,.74.34c-.09,1.54-.3,2-1.18,2H49.83c-1,0-1.24-.25-1.24-1.18V27.8H46.28c-.2,1.33-.93,2.57-3.34,3.42a2.36,2.36,0,0,0-.51-.64c2.12-.71,2.82-1.72,3-2.78H42.67v-.75h2.86V25.14H44.19v-.38a10.42,10.42,0,0,1-1.81,1.1,3.25,3.25,0,0,0-.5-.61,8.57,8.57,0,0,0,2.49-1.67,15.24,15.24,0,0,0-1.54-1.33l.52-.43a12.34,12.34,0,0,1,1.52,1.24,7.61,7.61,0,0,0,1.23-1.79H42.93v-.72h3.61l.14-.05a5,5,0,0,0,.57.29c0,.06-.07.1-.13.13a8.94,8.94,0,0,1-2.47,3.45h5.9a10.49,10.49,0,0,1-2.82-4.1l.71-.21a9.23,9.23,0,0,0,.79,1.57,15.32,15.32,0,0,0,1.58-1.5Zm-2.95,6.38V25.14H46.34v1.91Z"/><path class="cls-2" d="M58.52,27.57c0,.09-.11.15-.25.16-.33,1.72-1,2.88-3.85,3.45a2.68,2.68,0,0,0-.45-.7c2.59-.47,3.24-1.41,3.48-3Zm2.66,2.32c0,.35.1.42.65.42h1.9c.51,0,.6-.23.65-1.74a2.61,2.61,0,0,0,.74.34c-.09,1.74-.32,2.17-1.33,2.17h-2c-1.1,0-1.39-.26-1.39-1.19V27.13H55.73V20.45h7.64v6.68H61.18Zm-4.67-8.73v1.31h6.05V21.16Zm0,2v1.31h6.05V23.13Zm0,2v1.35h6.05V25.1Z"/><path class="cls-2" d="M77,24.71H72.33c-.66.48-1.35.92-2,1.33h5v5.07h-.8v-.36h-5v.41h-.78V26.84c-.77.39-1.58.73-2.38,1.05a3.89,3.89,0,0,0-.48-.63A24.64,24.64,0,0,0,71,24.71H66.09V24h4.28V22.38H67.22v-.71h3.15V20l1,.07c0,.08-.08.14-.24.17v1.42h3.12v.41a14,14,0,0,0,1.41-1.59l.85.49a.25.25,0,0,1-.21.07h-.12a18.76,18.76,0,0,1-2.95,3H77ZM74.5,28V26.75h-5V28Zm-5,2h5V28.69h-5ZM71.16,24H72A18.92,18.92,0,0,0,74,22.38H71.16Z"/><path class="cls-2" d="M27.53,67.81a22.37,22.37,0,0,1-3.65.27,14.57,14.57,0,0,1-2.35-.15,2.31,2.31,0,0,1-2.07-2.29,3.82,3.82,0,0,1,1.22-2.57l.7.36a3.27,3.27,0,0,0-1.06,2.13c0,.7.47,1.33,1.5,1.56a9.63,9.63,0,0,0,2,.15,19.86,19.86,0,0,0,3.69-.33Zm-5.38-6.06a14.28,14.28,0,0,1,2.12-1.39h0c-.91.1-3,.15-4.33.14,0-.23,0-.62,0-.84a40.2,40.2,0,0,0,6.83-.38l.1.88a9.93,9.93,0,0,0-4,2Z"/><path class="cls-2" d="M36.23,60.08a.3.3,0,0,1-.3.19c-.43,3.73-1.68,7-3.67,7-1,0-1.92-1-1.92-2.9a5.27,5.27,0,0,1,5.4-5.29c3.47,0,5,2.2,5,4.54,0,2.85-1.66,4.23-4.56,4.9a4.24,4.24,0,0,0-.51-.73c2.76-.53,4.18-1.87,4.18-4.14,0-2-1.27-3.78-4.08-3.78l-.36,0Zm-1.15-.15a4.41,4.41,0,0,0-3.92,4.4c0,1.28.55,2.08,1.13,2.08C33.74,66.41,34.78,63.21,35.08,59.93Z"/><path class="cls-2" d="M52,61.06a.38.38,0,0,1-.11.16c-.15,3.46-.49,5.63-1,6.48a1.63,1.63,0,0,1-1.57.86,13.43,13.43,0,0,1-2.14-.27,4.2,4.2,0,0,0,0-.86,11.86,11.86,0,0,0,2.1.3.88.88,0,0,0,.92-.56A18.31,18.31,0,0,0,51,61.73H47.16a11,11,0,0,1-3.95,6.87,3.91,3.91,0,0,0-.69-.53,9.93,9.93,0,0,0,3.75-6.34H43v-.81h3.48a22,22,0,0,0,.28-2.61l1.19.09c0,.13-.12.21-.3.22-.08.87-.14,1.53-.27,2.3h3.89l.19-.07Z"/><path class="cls-2" d="M54.46,62.83h10v.85H54.92a.58.58,0,0,1-.38.23Z"/><path class="cls-2" d="M74.92,64.63a43.62,43.62,0,0,0-4.21-2v6h-.9V58.23l1.21.08c0,.13-.11.21-.31.25v3.52l.18-.26a43,43,0,0,1,4.51,2ZM73.66,59a10.12,10.12,0,0,1,1.65,1.76l-.45.37a10.27,10.27,0,0,0-1.63-1.75Zm1.61-1a9.92,9.92,0,0,1,1.64,1.75l-.43.37a10.83,10.83,0,0,0-1.65-1.75Z"/><path class="cls-2" d="M88.54,63l-.07,0a.25.25,0,0,1-.18-.08c-.92.3-2.25.8-3.24,1.23,0,.27,0,.59,0,.93s0,.82,0,1.29l-.88,0c0-.43.06-1,.06-1.45,0-.18,0-.34,0-.48-1.36.66-2.46,1.47-2.46,2.19s.83,1,2.48,1a28.2,28.2,0,0,0,3-.12l0,.8c-.71.07-1.79.1-3,.1-2.3,0-3.32-.56-3.32-1.78,0-1.05,1.39-2.07,3.19-3-.07-.76-.41-1.13-.89-1.13a4,4,0,0,0-2.86,1.69c-.34.37-.81.84-1.32,1.31l-.59-.59a8.35,8.35,0,0,0,3-4.42H78.8v-.78h2.89A15.12,15.12,0,0,0,82,58.16l1.18.15c0,.12-.12.19-.3.21-.09.48-.19.9-.3,1.33a16.28,16.28,0,0,0,4.12-.69l.15.8a17.72,17.72,0,0,1-4.5.67,9.19,9.19,0,0,1-.86,2h0a3.18,3.18,0,0,1,1.93-.78c.82,0,1.33.59,1.49,1.56,1-.46,2.28-.95,3.24-1.32Z"/><path class="cls-2" d="M99.46,64l1.07.07c0,.08-.08.14-.24.15V69h-.83v-.76h-7.8v.79h-.8V64l1,.06c0,.09-.08.15-.25.16v3.23h3.41V63.21H91.31V59.06l1.06.07c0,.08-.08.14-.25.16v3.13h2.95V58l1.07.07c0,.08-.09.14-.24.17v4.23H99V59.05l1.06.07c0,.09-.07.15-.24.17v3.92H95.9v4.26h3.56Z"/><path class="cls-2" d="M105.89,58.41c0,.15-.13.23-.37.27-.09,1.39-.21,4.57-.21,6.34s.88,2.65,2.39,2.65A5.85,5.85,0,0,0,112,65.4a5,5,0,0,0,.54.7,6.48,6.48,0,0,1-4.87,2.44c-2.18,0-3.3-1.26-3.3-3.53,0-1.51.11-5.23.2-6.7Z"/><path class="cls-2" d="M114.52,59.52c.9,0,8.29-.57,9.85-.58v.9h-.44a3.44,3.44,0,0,0-2,.61c-1.8,1.08-3.54,3-3.54,4.56s1.17,2.67,4.15,3.06l-.4.84c-3.4-.5-4.67-1.77-4.67-3.9,0-1.69,1.66-3.74,3.86-5.12-1.27.08-4.86.36-6.41.5a.34.34,0,0,1-.26.19Z"/><path class="cls-2" d="M136.48,61.09v.81h-3a.23.23,0,0,1-.21.15,8.45,8.45,0,0,1-4,6.67,5.6,5.6,0,0,0-.74-.54,7.63,7.63,0,0,0,3.89-6.28h-3.33a10.3,10.3,0,0,1-1.9,2.48,3.84,3.84,0,0,0-.75-.42,12.35,12.35,0,0,0,3.26-5.69l1.15.26a.3.3,0,0,1-.32.19,20.39,20.39,0,0,1-1,2.37ZM134,58.36a8.29,8.29,0,0,1,1.53,1.75l-.46.34a9,9,0,0,0-1.5-1.73Zm1.69-.68a9.48,9.48,0,0,1,1.54,1.74l-.47.36a8.76,8.76,0,0,0-1.5-1.74Z"/><path class="cls-2" d="M138.46,62.83h10v.85h-9.56a.58.58,0,0,1-.38.23Z"/><path class="cls-2" d="M160,68.37c-.18-.41-.39-.84-.63-1.27-2.5.26-6.6.51-8.43.61a.33.33,0,0,1-.23.24l-.33-1.08c.36,0,.8,0,1.26-.05.8-2.3,1.94-5.89,2.6-8.29l1.16.32A.36.36,0,0,1,155,59c-.66,2.21-1.69,5.43-2.52,7.78,2-.09,4.84-.29,6.42-.44a21,21,0,0,0-2.14-2.92l.72-.41a23.91,23.91,0,0,1,3.31,5Z"/><path class="cls-2" d="M172.54,63l-.07,0a.25.25,0,0,1-.18-.08c-.92.3-2.25.8-3.24,1.23,0,.27,0,.59,0,.93s0,.82,0,1.29l-.88,0c0-.43.06-1,.06-1.45,0-.18,0-.34,0-.48-1.36.66-2.46,1.47-2.46,2.19s.83,1,2.48,1a28.2,28.2,0,0,0,3-.12l0,.8c-.71.07-1.79.1-3,.1-2.3,0-3.32-.56-3.32-1.78,0-1.05,1.39-2.07,3.19-3-.07-.76-.41-1.13-.89-1.13a4,4,0,0,0-2.86,1.69c-.34.37-.81.84-1.32,1.31l-.59-.59a8.35,8.35,0,0,0,3-4.42H162.8v-.78h2.89a15.12,15.12,0,0,0,.32-1.72l1.18.15c0,.12-.12.19-.3.21-.09.48-.19.9-.3,1.33a16.28,16.28,0,0,0,4.12-.69l.15.8a17.72,17.72,0,0,1-4.5.67,9.19,9.19,0,0,1-.86,2h0a3.18,3.18,0,0,1,1.93-.78c.82,0,1.33.59,1.49,1.56,1-.46,2.28-.95,3.24-1.32Z"/><path class="cls-2" d="M178.12,60.39l.46.12-.08.17a15.47,15.47,0,0,1-1.15,5.16,8.44,8.44,0,0,1,1.42,1.31l-.49.66A8.16,8.16,0,0,0,177,66.56a6.43,6.43,0,0,1-2.37,2.5,4,4,0,0,0-.5-.66,5.63,5.63,0,0,0,2.25-2.33,15,15,0,0,0-1.37-.93l-.14.53-.68-.36c.3-1,.67-2.58,1-4.12H174v-.76h1.36c.19-.9.36-1.76.51-2.53l1,.12c0,.08-.08.13-.24.14-.13.69-.3,1.47-.48,2.27H178Zm-2.16.8c-.25,1.11-.53,2.24-.78,3.22.51.28,1,.61,1.53,1a14.35,14.35,0,0,0,1-4.17Zm7.33-1.31A12.87,12.87,0,0,1,185.21,63l-.71.39a6.47,6.47,0,0,0-.35-.82c-1.89.16-3.83.28-5.09.36a.23.23,0,0,1-.17.16l-.34-.94,1,0a29.39,29.39,0,0,0,1.37-4.26l1.06.26a.35.35,0,0,1-.28.15,37.25,37.25,0,0,1-1.35,3.82l3.49-.17a19,19,0,0,0-1.18-1.74ZM179.45,69V64.12h5.09V69h-.81v-.51h-3.51V69Zm4.28-4.16h-3.51v2.85h3.51Z"/><path class="cls-2" d="M194.29,58.43c0,.1-.15.15-.31.18a22.44,22.44,0,0,1-.49,2.32,3.74,3.74,0,0,1,3.26,3.77c0,2.13-1.62,3.5-4.65,3.93-.12-.25-.25-.51-.38-.73,2.65-.35,4.16-1.43,4.16-3.18a3,3,0,0,0-2.63-3A12,12,0,0,1,191.08,66a4.42,4.42,0,0,0,.55.59l-.61.59a6.08,6.08,0,0,1-.52-.59,3.55,3.55,0,0,1-2.43,1.12c-1.06,0-1.7-.9-1.7-2.21a4.36,4.36,0,0,1,2.11-3.68c-.23-.91-.42-1.91-.59-3l1.15,0a.28.28,0,0,1-.25.26c.12.83.25,1.63.42,2.38a6.82,6.82,0,0,1,3.13-.66h.29a24.39,24.39,0,0,0,.48-2.63ZM190.05,66a12.67,12.67,0,0,1-1.34-3.33,3.44,3.44,0,0,0-1.55,2.81c0,.85.32,1.46,1,1.46A2.89,2.89,0,0,0,190.05,66Zm.54-.66a10.57,10.57,0,0,0,1.82-3.72H192a5.5,5.5,0,0,0-2.6.64A11.32,11.32,0,0,0,190.59,65.29Z"/><path class="cls-2" d="M202.05,63.16a7.39,7.39,0,0,1,3-.69,2.79,2.79,0,0,1,3.11,2.88c0,2.17-1.91,3.37-4.32,3.37-1.56,0-2.62-.63-2.62-1.68a1.81,1.81,0,0,1,2-1.61,2.53,2.53,0,0,1,2.45,2.17,2.35,2.35,0,0,0,1.65-2.24c0-1.3-1-2.12-2.47-2.12a6.8,6.8,0,0,0-4.35,1.57A16.44,16.44,0,0,0,199.28,66l-.61-.61c1.08-1.13,4.51-4.4,6.14-5.93-.7.1-3.1.19-4.46.24a.38.38,0,0,1-.26.18l-.09-1c1.62,0,4.71-.13,5.59-.26l.18-.09.63.78a.55.55,0,0,1-.29.11c-.85.7-3.13,2.83-4.06,3.73ZM203.7,68a5.53,5.53,0,0,0,1.1-.12,1.86,1.86,0,0,0-1.71-1.7c-.62,0-1.17.33-1.17.89C201.92,67.76,202.91,68,203.7,68Z"/><path class="cls-2" d="M213.32,67.36a1.68,1.68,0,1,1-1.68-1.68A1.68,1.68,0,0,1,213.32,67.36Zm-.43,0a1.25,1.25,0,1,0-2.49,0,1.25,1.25,0,0,0,2.49,0Z"/><path class="cls-2" d="M228.21,57.91a.27.27,0,0,1-.24.17,17.91,17.91,0,0,0,5.23,4.52,3,3,0,0,0-.54.7,19.1,19.1,0,0,1-5.18-4.62,17.69,17.69,0,0,1-5.06,4.7,3.65,3.65,0,0,0-.51-.62,15.78,15.78,0,0,0,5.15-4.93Zm2.59,6.21.15,0,.58.22a.45.45,0,0,1-.11.19c-.5,1.1-1.45,3.09-2.23,4.59l-.83-.23c.65-1.22,1.43-2.84,1.95-4h-7v-.77Zm-5.94-2.36h5.36v.76h-5.36Z"/><path class="cls-2" d="M234.61,58.65h9.92V69h-.83v-.84h-8.28V69h-.81Zm.81,8.7h8.28V59.46h-8.28Zm1.84-6h4.53v4.08h-4.53ZM241,64.72V62h-3v2.68Z"/><path class="cls-2" d="M249.26,65v2.5a7.57,7.57,0,0,0,3,.43c.53,0,4.33,0,5,0a2.75,2.75,0,0,0-.33.79h-4.67c-2.68,0-4.14-.43-5-2.2a7,7,0,0,1-.78,2.59,4.06,4.06,0,0,0-.62-.37c.68-1.1.84-3.17.88-5.35l1,.12a.22.22,0,0,1-.23.16c0,.48-.05,1-.09,1.43a4,4,0,0,0,1.13,2V62.56H246v-.73h2.49v-1.7h-2.12V59.4h2.12V57.89l1,.06c0,.08-.08.14-.23.16V59.4h2v.73h-2v1.7h2.22v.73h-2.22V64.3h2V65Zm6.37-3.13V59.17h-3.85v-.73h4.63V63h-.78v-.42h-2.74V65.8c0,.39.12.46.72.46h2.1c.53,0,.62-.23.68-1.73a2.62,2.62,0,0,0,.72.33c-.1,1.71-.33,2.14-1.35,2.14h-2.22c-1.09,0-1.43-.24-1.43-1.2V61.89Z"/><path class="cls-2" d="M27.53,88.81a22.37,22.37,0,0,1-3.65.27,14.57,14.57,0,0,1-2.35-.15,2.31,2.31,0,0,1-2.07-2.29,3.82,3.82,0,0,1,1.22-2.57l.7.36a3.27,3.27,0,0,0-1.06,2.13c0,.7.47,1.33,1.5,1.56a9.63,9.63,0,0,0,2,.15,19.86,19.86,0,0,0,3.69-.33Zm-5.38-6.06a14.28,14.28,0,0,1,2.12-1.39h0c-.91.1-3,.15-4.33.14,0-.23,0-.62,0-.84a40.2,40.2,0,0,0,6.83-.38l.1.88a9.93,9.93,0,0,0-4,2Z"/><path class="cls-2" d="M31.23,83.64l1.07-.29a17.56,17.56,0,0,1,4.34-.85c1.62,0,3.07.86,3.07,2.81,0,2.64-2.61,3.62-5.82,3.87a3.91,3.91,0,0,0-.24-.73c2.82-.21,5.21-1,5.21-3.09a2.06,2.06,0,0,0-2.34-2.13,15,15,0,0,0-4,.87c-.27.1-.57.21-.77.27a.27.27,0,0,1-.19.2Z"/><path class="cls-2" d="M49.37,81.53a15.16,15.16,0,0,1-3.68.68,31.51,31.51,0,0,1-2.2,7.5l-.86-.33a25.8,25.8,0,0,0,2.17-7.14c-.24,0-1.85,0-2.21,0v-.82h2.34c.12-.77.24-1.61.31-2.34l1.24.12c0,.14-.18.23-.35.24-.07.53-.19,1.18-.3,1.91a14,14,0,0,0,3.36-.67Zm3.19,8c-.36,0-.73,0-1.1,0a11.89,11.89,0,0,1-2.84-.27,1.66,1.66,0,0,1-1.34-1.65A2.91,2.91,0,0,1,48,85.88l.72.31a2.22,2.22,0,0,0-.63,1.33c0,1,.92,1.19,3.1,1.19.44,0,.9,0,1.34,0Zm-4.68-5.78a14.41,14.41,0,0,1,4.36-.61v.82a13.22,13.22,0,0,0-4.15.54Z"/><path class="cls-2" d="M65,86v.66H63.77v2.17H63v-.56h-3v.82c0,.54-.16.75-.52.87a8.21,8.21,0,0,1-2,.12,2.9,2.9,0,0,0-.29-.69l1.21,0c.73,0,.8,0,.8-.31v-.83h-4v-.63h4v-1h-5V86h5v-.92H55.21v-.61h3.88v-.8H55.57V81.33h3.52v-.75H54.28V79.9h4.81v-1l1,.06c0,.09-.08.15-.23.16v.79h4.9v.68h-4.9v.75H63.6v2.32H59.91v.8h3.86V86Zm-8.69-2.92h2.74V81.92H56.35Zm6.42-1.14H59.91v1.14h2.86Zm-2.86,3.14V86h3v-.92Zm3,2.56v-1h-3v1Z"/><path class="cls-2" d="M67.59,83.13a14.9,14.9,0,0,1-1.46,2,6.31,6.31,0,0,0-.42-.76,16.06,16.06,0,0,0,3-5.4l1,.33a.26.26,0,0,1-.28.1,21.93,21.93,0,0,1-1.1,2.49l.32.08c0,.07-.08.13-.24.15v8h-.78Zm9.61,2v.78H73.6v4.17h-.8V85.88H69.05V85.1H72.8V82.19H70.64a11.57,11.57,0,0,1-1.06,1.94,7.16,7.16,0,0,0-.66-.39,12.81,12.81,0,0,0,1.82-4.31l1,.26a.27.27,0,0,1-.27.13c-.14.53-.32,1.07-.51,1.6H72.8V79l1,.06c0,.1-.08.16-.25.17v2.15h3.14v.77H73.6V85.1Z"/><path class="cls-2" d="M88.54,84l-.07,0a.25.25,0,0,1-.18-.08c-.92.3-2.25.8-3.24,1.23,0,.27,0,.59,0,.93s0,.82,0,1.29l-.88,0c0-.43.06-1,.06-1.45,0-.18,0-.34,0-.48-1.36.66-2.46,1.47-2.46,2.19s.83,1,2.48,1a28.2,28.2,0,0,0,3-.12l0,.8c-.71.07-1.79.1-3,.1-2.3,0-3.32-.56-3.32-1.78,0-1.05,1.39-2.07,3.19-3-.07-.76-.41-1.13-.89-1.13a4,4,0,0,0-2.86,1.69c-.34.37-.81.84-1.32,1.31l-.59-.59a8.35,8.35,0,0,0,3-4.42H78.8v-.78h2.89A15.12,15.12,0,0,0,82,79.16l1.18.15c0,.12-.12.19-.3.21-.09.48-.19.9-.3,1.33a16.28,16.28,0,0,0,4.12-.69l.15.8a17.72,17.72,0,0,1-4.5.67,9.19,9.19,0,0,1-.86,2h0a3.18,3.18,0,0,1,1.93-.78c.82,0,1.33.59,1.49,1.56,1-.46,2.28-1,3.24-1.32Z"/><path class="cls-2" d="M101,83.28H96.41a22.36,22.36,0,0,1-2.48,1.54v.08a32.68,32.68,0,0,0,4.94-.8l.57.6a.15.15,0,0,1-.12,0h-.09a38,38,0,0,1-5.45.78c-.07.31-.15.62-.22.92h5.08l.18,0,.5.16a.58.58,0,0,1-.08.22c-.28,1.83-.55,2.64-.94,3s-.55.29-1.22.29c-.38,0-.95,0-1.53-.05a1.57,1.57,0,0,0-.26-.75c.78.07,1.58.09,1.86.09a.76.76,0,0,0,.53-.12c.27-.21.49-.8.7-2.1h-5c-.06.23-.12.44-.18.62l-.81-.12c.19-.6.42-1.47.61-2.3-.84.42-1.71.81-2.59,1.15a3.66,3.66,0,0,0-.48-.59,27.37,27.37,0,0,0,3.29-1.47l.06-.31.42,0c.49-.28,1-.56,1.45-.86h-5v-.72h4.24V81.09H91.13V80.4h3.21V78.89l1,.07c0,.08-.07.14-.24.17V80.4h3.16v.41a15.17,15.17,0,0,0,1.35-1.45l.81.5a.28.28,0,0,1-.2.06h-.12a19.23,19.23,0,0,1-2.75,2.65H101Zm-5.85-.72H96.2A21.34,21.34,0,0,0,98,81.09H95.13Z"/><path class="cls-2" d="M107,85.64a2.68,2.68,0,0,1,1.19-.28,1.09,1.09,0,0,1,1.06,1.23c0,.31,0,.68,0,1,0,1.22.72,1.22,1.75,1.22a9.39,9.39,0,0,0,1.56-.11,7.68,7.68,0,0,0,0,.86c-.47,0-1,.07-1.56.07a10.34,10.34,0,0,1-1.25-.07,1.54,1.54,0,0,1-1.37-1.48c0-.28,0-.82,0-1.18s-.19-.79-.61-.79a3.43,3.43,0,0,0-2.15,1c-.7.68-2,2-2.41,2.48a5.8,5.8,0,0,0-.65-.63c1.14-1.17,4.91-4.83,6.13-6-.88.08-3.6.24-5,.31a.21.21,0,0,1-.19.13l-.07-1c1.68-.05,4.83-.2,6-.31l.18-.11.69.64a.48.48,0,0,1-.29.09c-.75.71-2.23,2.07-3.12,2.92Zm3-4.8a26.24,26.24,0,0,0-5.14-.8l.18-.81a25.33,25.33,0,0,1,5.18.8Z"/><path class="cls-2" d="M114.52,80.52c.9,0,8.29-.57,9.85-.58v.9h-.44a3.44,3.44,0,0,0-2,.61c-1.8,1.08-3.54,3-3.54,4.56s1.17,2.67,4.15,3.06l-.4.84c-3.4-.5-4.67-1.77-4.67-3.9,0-1.69,1.66-3.74,3.86-5.12-1.27.08-4.86.36-6.41.5a.34.34,0,0,1-.26.19Z"/><path class="cls-2" d="M126.59,86.73a24.53,24.53,0,0,1,2.72,2.65l-.72.66A27,27,0,0,0,126,87.29Z"/><path class="cls-2" d="M144.23,78.91a.26.26,0,0,1-.24.18,16.77,16.77,0,0,0,5.18,4.35,4.16,4.16,0,0,0-.54.71,18.45,18.45,0,0,1-5.14-4.47,16.76,16.76,0,0,1-5,4.56,4.12,4.12,0,0,0-.5-.64,14.84,14.84,0,0,0,5.11-4.75Zm-.31,7.94V89h4.83v.74H138.38V89h4.7v-2.1h-3.69v-.73h3.69v-2h-3.17V83.4h7.31v.73h-3.3v2h3.74v.73Z"/><path class="cls-2" d="M154.41,88.54a.45.45,0,0,1-.24.09A14.66,14.66,0,0,1,150.63,90a4.15,4.15,0,0,0-.59-.6,12.32,12.32,0,0,0,3.54-1.39Zm-3.12-5.72h8.58V88h-8.58Zm.68-3.44h7.2v2.7H152Zm.12,4.05v.93H159v-.93Zm0,1.51v.94H159v-.94Zm0,1.53v.94H159v-.94Zm.69-6.42v1.34h5.55V80.05Zm7.66,10a31.32,31.32,0,0,0-3.84-1.45l.71-.52a37.16,37.16,0,0,1,3.81,1.39Z"/><path class="cls-2" d="M164.69,79.79c0,.13-.15.2-.39.19a28.74,28.74,0,0,0-.64,5.4,13.14,13.14,0,0,0,.16,2.37c.23-.59.74-1.85.91-2.27l.5.53c-.49,1.21-.85,1.9-1,2.44a2,2,0,0,0-.09.56,1.15,1.15,0,0,0,.06.37l-.85.16a13,13,0,0,1-.53-4.13,35.48,35.48,0,0,1,.63-5.84Zm7.64,8.76c-.43,0-.87,0-1.32,0a17.28,17.28,0,0,1-2.23-.13c-1.47-.22-2.16-1-2.16-2a3.68,3.68,0,0,1,1.13-2.32l.78.34a2.83,2.83,0,0,0-1,1.88c0,1.39,2,1.39,3.29,1.39.5,0,1,0,1.55-.06Zm-5.55-7.32a39.19,39.19,0,0,0,5.23-.46l.07.84a44.56,44.56,0,0,1-5.28.44Z"/><path class="cls-2" d="M175.59,83.13a14.9,14.9,0,0,1-1.46,2,6.31,6.31,0,0,0-.42-.76,16.06,16.06,0,0,0,3-5.4l1,.33a.26.26,0,0,1-.28.1,21.93,21.93,0,0,1-1.1,2.49l.32.08c0,.07-.08.13-.24.15v8h-.78ZM183,85.86a15.86,15.86,0,0,1,2.24,3.82l-.77.37a7.62,7.62,0,0,0-.44-1.07c-2.37.22-4.88.41-6.49.53a.21.21,0,0,1-.18.17l-.33-1,1.4-.07a32.75,32.75,0,0,0,1.4-4.33H177.2v-.79h8v.79h-4.34l.17,0a.31.31,0,0,1-.28.14,38.15,38.15,0,0,1-1.41,4.09l4.42-.28a20.1,20.1,0,0,0-1.38-2.14Zm1.45-6v.77h-6.36v-.77Z"/><path class="cls-2" d="M191,85.64a2.68,2.68,0,0,1,1.19-.28,1.09,1.09,0,0,1,1.06,1.23c0,.31,0,.68,0,1,0,1.22.72,1.22,1.75,1.22a9.39,9.39,0,0,0,1.56-.11,7.68,7.68,0,0,0,0,.86c-.47,0-1,.07-1.56.07a10.34,10.34,0,0,1-1.25-.07,1.54,1.54,0,0,1-1.37-1.48c0-.28,0-.82,0-1.18s-.19-.79-.61-.79a3.43,3.43,0,0,0-2.15,1c-.7.68-2,2-2.41,2.48a5.8,5.8,0,0,0-.65-.63c1.14-1.17,4.91-4.83,6.13-6-.88.08-3.6.24-5,.31a.21.21,0,0,1-.19.13l-.07-1c1.68-.05,4.83-.2,6.05-.31l.18-.11.69.64a.48.48,0,0,1-.29.09c-.75.71-2.23,2.07-3.12,2.92Zm3-4.8a26.24,26.24,0,0,0-5.14-.8l.18-.81a25.33,25.33,0,0,1,5.18.8Z"/><path class="cls-2" d="M207.55,89A12.29,12.29,0,0,0,204,87a4.74,4.74,0,0,1-.16,1.39c-.1,1-1,1.38-2.12,1.38-1.55,0-2.77-.76-2.78-2s1.24-2,2.75-2a8.59,8.59,0,0,1,1.41.1c0-.32-.06-.6-.08-.87-.1-1.57-.2-4.09-.21-5.82l1.25.07c0,.12-.11.23-.32.25,0,.33,0,1.91,0,2.27a28.58,28.58,0,0,0,4-.38l.08.85a34.27,34.27,0,0,1-4.05.35c0,.68,0,1,.2,3.44a13.91,13.91,0,0,1,4.19,2.13Zm-5.92-2.45c-1.15,0-2,.51-2,1.19,0,.88,1,1.26,1.91,1.26s1.54-.3,1.54-1.15c0-.28,0-.77,0-1.12A5.35,5.35,0,0,0,201.63,86.51Z"/><path class="cls-2" d="M211.48,83.31a27.37,27.37,0,0,1,5-1,2.53,2.53,0,0,1,2.85,2.73v.1c0,2.18-1.74,3.78-5.18,4.7a4.89,4.89,0,0,0-.54-.73c3.07-.73,4.81-2.17,4.81-4a1.77,1.77,0,0,0-2-2,16.82,16.82,0,0,0-4.34.94c0,.1-.11.22-.23.28Zm1.68-4.15a22.15,22.15,0,0,1,4.82.94l-.25.84A22.5,22.5,0,0,0,213,80Z"/><path class="cls-2" d="M225.32,88.36a1.68,1.68,0,1,1-1.68-1.68A1.68,1.68,0,0,1,225.32,88.36Zm-.43,0a1.25,1.25,0,1,0-2.49,0,1.25,1.25,0,0,0,2.49,0Z"/><rect class="cls-2" x="17.54" y="43.94" width="254" height="1.5"/></g></g></svg>