<svg xmlns="http://www.w3.org/2000/svg" viewBox="0 0 291.68 174.42"><defs><style>.cls-1{fill:#8fc31f;}.cls-2{fill:#fff;}</style></defs><g id="レイヤー_2" data-name="レイヤー 2"><g id="レイヤー_1-2" data-name="レイヤー 1"><rect class="cls-1" width="291.68" height="174.42" rx="5"/><path class="cls-2" d="M19.75,22.7a6.37,6.37,0,0,1-.69,3.13,5.21,5.21,0,0,0-.6-.33,6.23,6.23,0,0,0,.64-2.89Zm.47-2.46,1,.08c0,.08-.07.14-.23.15v10.9h-.79Zm1.85,3.89a12.39,12.39,0,0,0-.87-1.76l.55-.28a9.31,9.31,0,0,1,.89,1.69Zm4.2.16h3.35V25H22.2v-.68h3.23v-.88H23.1v-.62h2.33V22H22.62v-.65h2.81V20.24l1.09.08c0,.08-.08.14-.25.16v.84H29.2V22H26.27v.82h2.44v.62H26.27Zm2.27,1.48v4.76c0,.78-.31.87-2,.87a2.46,2.46,0,0,0-.25-.7l.88,0c.49,0,.55,0,.55-.2V29.47H24v1.9h-.78v-5.6Zm-.8.66H24v.9h3.73ZM24,28.86h3.73v-.92H24Z"/><path class="cls-2" d="M33.69,22.18v1.34H36.1v.71H30.54v-.71h2.4V22.18H31v-.7h1.92V20.27l1,.06c0,.08-.07.14-.23.15v1H35.6v.7Zm.21,4a12.5,12.5,0,0,0,.72-1.78l.85.29c0,.07-.12.1-.25.1a16.29,16.29,0,0,1-.77,1.49h1.44V27H33.68v1.39h2v.71h-2v2.36h-.75V29.05H30.86v-.71h2.07V27H30.71v-.71h3.4Zm-2,0a6.44,6.44,0,0,0-.55-1.66l.62-.16A6.19,6.19,0,0,1,32.58,26Zm8.8-.79.51.18a.43.43,0,0,1-.09.15,10.19,10.19,0,0,1-1.32,3.61,5.28,5.28,0,0,0,1.83,1.38,3.18,3.18,0,0,0-.57.7A5.9,5.9,0,0,1,39.37,30,6.26,6.26,0,0,1,38,31.3a2.56,2.56,0,0,0-.55-.54,5.44,5.44,0,0,0,1.46-1.41,10,10,0,0,1-1.35-2.85l.65-.16a8.79,8.79,0,0,0,1.14,2.32,9,9,0,0,0,.94-2.54h-3v5.29h-.77V20.82h4.66v3c0,.86-.43.86-2.06.86a2.37,2.37,0,0,0-.24-.69h.84c.66,0,.71,0,.71-.19V21.56H37.2v3.85h3.39Z"/><path class="cls-2" d="M46.14,25.68l.09.68c-.44.16-.91.3-1.34.44v3.63c0,.87-.37,1-1.91,1a3.36,3.36,0,0,0-.25-.76l.85,0c.49,0,.55,0,.55-.24V27.06l-1.23.38a.22.22,0,0,1-.17.19l-.29-.92,1.69-.46V23.52H42.56v-.76h1.57v-2.5l1,.06c0,.09-.07.14-.23.16v2.28h1.45v.76H44.89V26ZM53.55,28H50.78a7.6,7.6,0,0,0,2.94,2.17,3.66,3.66,0,0,0-.55.63,8.81,8.81,0,0,1-3.05-2.55v3.12h-.77V28.32a8.23,8.23,0,0,1-3,2.55,2.9,2.9,0,0,0-.54-.62A7.9,7.9,0,0,0,48.72,28H46v-.71h3.32v-1l1,.06c0,.08-.09.14-.24.17v.78h3.43Zm-4.14-4.36V26.3h-3V23.66Zm-.68,2v-1.4H47.07v1.4Zm3.18-5.11v2.49H47.67V20.58Zm-.77,1.87V21.2H48.4v1.25Zm-1,3.85V23.66h3.1V26.3Zm.66-2v1.4h1.75v-1.4Z"/><path class="cls-2" d="M56.27,24.51a12.63,12.63,0,0,1-1.55,2,8,8,0,0,0-.43-.75,15.21,15.21,0,0,0,3.1-5.47l1,.32c-.05.09-.13.12-.28.12A20.57,20.57,0,0,1,57,23.31l.34.1c0,.08-.09.13-.23.16V31.4h-.8Zm9.44-1.44H61.85v1.85h3.57v.76H61.85v1.93h3.74v.77H61.85v3H61V23.07H59.92a11.86,11.86,0,0,1-1.69,2.71,5.41,5.41,0,0,0-.61-.55,14.09,14.09,0,0,0,2.47-4.82l1,.3c0,.09-.13.13-.28.13-.17.48-.35,1-.56,1.45h5.43Z"/><path class="cls-2" d="M24.76,57.91c0,.09-.12.15-.24.18a16.81,16.81,0,0,0,5.19,4.35,3.1,3.1,0,0,0-.54.71A18.69,18.69,0,0,1,24,58.67a16.51,16.51,0,0,1-5,4.56,3.22,3.22,0,0,0-.5-.63,15,15,0,0,0,5.11-4.75Zm-.31,7.94v2.09h4.84v.75H18.91v-.75h4.7V65.85H19.92v-.74h3.69v-2H20.45v-.73h7.3v.73h-3.3v2h3.74v.74Z"/><path class="cls-2" d="M34.94,67.54a.45.45,0,0,1-.24.08A14.9,14.9,0,0,1,31.16,69a4.08,4.08,0,0,0-.58-.6A12.37,12.37,0,0,0,34.11,67Zm-3.12-5.72H40.4V67H31.82Zm.69-3.45H39.7v2.7H32.51Zm.12,4.06v.92h6.94v-.92Zm0,1.51v.93h6.94v-.93Zm0,1.52v1h6.94v-1ZM33.31,59v1.35h5.55V59Zm7.66,10a30.16,30.16,0,0,0-3.83-1.45l.7-.53a38.29,38.29,0,0,1,3.82,1.39Z"/><path class="cls-2" d="M43.13,65.73a22.75,22.75,0,0,1,2.71,2.65l-.72.66a27,27,0,0,0-2.63-2.75Z"/><path class="cls-2" d="M60.69,58.09c0,.07-.12.12-.26.13-.13.38-.34.9-.53,1.34h4.35V69h-.84v-.64H56.88v.71h-.81v-9.5h3a11.72,11.72,0,0,0,.54-1.69Zm2.72,2.26H56.88v1.92h6.53Zm0,2.68H56.88v1.89h6.53Zm-6.53,4.55h6.53v-1.9H56.88Z"/><path class="cls-2" d="M71,58.51c0,.08-.13.12-.29.1A11.9,11.9,0,0,1,67,63.36a4.53,4.53,0,0,0-.64-.57A10.77,10.77,0,0,0,70,58.16Zm4.2,4h.19l.46,0c0,.08,0,.19,0,.29-.19,3.87-.37,5.26-.79,5.72s-.69.42-1.42.42c-.41,0-.93,0-1.44,0a1.94,1.94,0,0,0-.27-.81c.82.08,1.6.09,1.89.09a.61.61,0,0,0,.51-.16c.31-.31.5-1.56.66-4.75h-3.3c-.32,2.31-1,4.63-4.21,5.78A3,3,0,0,0,67,68.4c2.9-1,3.58-3,3.87-5.1H68.24v-.79Zm-1.06-4.38a12.56,12.56,0,0,0,3.7,4.43,3.52,3.52,0,0,0-.67.72,15.64,15.64,0,0,1-3.79-4.84Z"/><path class="cls-2" d="M84.76,60.08a.3.3,0,0,1-.3.19c-.43,3.73-1.68,7-3.67,7-1,0-1.91-1-1.91-2.9a5.26,5.26,0,0,1,5.39-5.29c3.47,0,5,2.19,5,4.53,0,2.85-1.66,4.23-4.56,4.91a4.82,4.82,0,0,0-.5-.74c2.75-.52,4.17-1.87,4.17-4.13,0-2-1.27-3.78-4.08-3.78l-.36,0Zm-1.15-.16a4.41,4.41,0,0,0-3.92,4.4c0,1.29.55,2.09,1.13,2.09C82.27,66.41,83.31,63.21,83.61,59.92Z"/><path class="cls-2" d="M97.56,67.91h3.92v.79H92.76v-.79h4V64.09H94v-.58a12.91,12.91,0,0,1-3,4.78,3.9,3.9,0,0,0-.59-.63,13.68,13.68,0,0,0,3.56-6.76H90.85v-.79h3.26c.17-.74.3-1.48.42-2.22l1.11.2c0,.1-.12.15-.29.15-.11.61-.23,1.24-.37,1.87h6.32v.79H94.78A21.05,21.05,0,0,1,94,63.32h6.8v.77H97.56Z"/><path class="cls-2" d="M105.73,58.39l.5.28a.2.2,0,0,1-.09.11c-.28.91-.69,2.15-1.06,3.16a3.93,3.93,0,0,1,1.1,2.66c0,1.64-1,1.59-1.78,1.56a1.71,1.71,0,0,0-.21-.69,2.68,2.68,0,0,0,.46,0c.42,0,.83,0,.83-1A4,4,0,0,0,104.37,62c.34-.92.66-2,.89-2.87H103.7v9.9H103V58.42h2.6Zm6.69,6.38v1.81h1.21v.66h-1.21V69h-.72v-1.8H109v-.66h1V64.77h-.44v-.56a.13.13,0,0,1-.06.05,6.39,6.39,0,0,1-3.21,4.79,1.8,1.8,0,0,0-.51-.48,5.21,5.21,0,0,0,2-1.72,7.79,7.79,0,0,0-1-.82l.38-.42a7.08,7.08,0,0,1,.91.7,7.77,7.77,0,0,0,.63-1.65h-1.3a5.75,5.75,0,0,1-1.28,1.69,5,5,0,0,0-.49-.4,5.87,5.87,0,0,0,1.75-3l.82.21c0,.08-.09.13-.24.13a5.56,5.56,0,0,1-.26.75h1.28l.14,0,.38.18v0h2.12V62.93l1,.06c0,.08-.07.14-.23.16v1h1.07v.66ZM106.2,60h3.18V57.89l1,.08c0,.07-.07.13-.23.15V60h3.39v.7h-2.78a7.16,7.16,0,0,0,3,1.72,2.66,2.66,0,0,0-.51.6A8.38,8.38,0,0,1,110.13,61v2.18h-.75V61a8.45,8.45,0,0,1-3.06,2.11,3.94,3.94,0,0,0-.49-.59,7.58,7.58,0,0,0,2.91-1.79H106.2Zm1.24-1.87a4.84,4.84,0,0,1,.94,1.49l-.64.32a5.54,5.54,0,0,0-.89-1.52Zm3.22,8.41h1V64.77h-1Zm2.24-8.1a.25.25,0,0,1-.24.11,16.9,16.9,0,0,1-1,1.35l-.57-.26a10,10,0,0,0,1-1.55Z"/><path class="cls-2" d="M120.76,60.08a.3.3,0,0,1-.3.19c-.43,3.73-1.68,7-3.67,7-1,0-1.91-1-1.91-2.9a5.26,5.26,0,0,1,5.39-5.29c3.47,0,5,2.19,5,4.53,0,2.85-1.66,4.23-4.56,4.91a4.82,4.82,0,0,0-.5-.74c2.75-.52,4.17-1.87,4.17-4.13,0-2-1.27-3.78-4.08-3.78l-.36,0Zm-1.15-.16a4.41,4.41,0,0,0-3.92,4.4c0,1.29.55,2.09,1.13,2.09C118.27,66.41,119.31,63.21,119.61,59.92Z"/><path class="cls-2" d="M132.66,58.36c0,.1-.1.16-.26.18l0,.35c.13,1.69.85,7.29,5.42,9.37a2.41,2.41,0,0,0-.61.67c-3.24-1.54-4.58-4.8-5.15-7.28h0a10.15,10.15,0,0,1-5,7.27,2.71,2.71,0,0,0-.64-.62c5-2.5,5-8.4,5.12-10Z"/><path class="cls-2" d="M141.23,58.78c0,.13-.16.21-.4.19a28.83,28.83,0,0,0-.64,5.4,13.07,13.07,0,0,0,.16,2.37l.91-2.26.51.53c-.5,1.21-.86,1.89-1,2.43a2.07,2.07,0,0,0-.1.56,1.16,1.16,0,0,0,.06.38l-.85.15a13,13,0,0,1-.53-4.12,34.43,34.43,0,0,1,.64-5.84Zm7.64,8.77q-.66,0-1.32,0a15.46,15.46,0,0,1-2.23-.13c-1.48-.21-2.16-1-2.16-2a3.64,3.64,0,0,1,1.12-2.31l.78.33a2.85,2.85,0,0,0-1,1.89c0,1.39,2,1.39,3.29,1.39.5,0,1,0,1.55-.06Zm-5.56-7.33a39,39,0,0,0,5.23-.45l.07.83a44.29,44.29,0,0,1-5.27.45Z"/><path class="cls-2" d="M151.13,65.73a22.75,22.75,0,0,1,2.71,2.65l-.72.66a27,27,0,0,0-2.63-2.75Z"/><path class="cls-2" d="M173.56,64.44v.79h-5.07v2.68c0,.61-.18.85-.61,1a9.56,9.56,0,0,1-2.52.15,4,4,0,0,0-.35-.81c.58,0,1.13,0,1.55,0,1,0,1.1,0,1.1-.35V65.23h-5v-.79h5v-2h-4.24v-.77h4.24V59.7c-1.32.16-2.71.28-4,.35a2.42,2.42,0,0,0-.22-.69,37.71,37.71,0,0,0,8.17-1.21l.69.68a.24.24,0,0,1-.14,0h-.11a20.49,20.49,0,0,1-3.33.71c0,.08-.09.12-.24.14v1.95h4.39v.77h-4.39v2Z"/><path class="cls-2" d="M178.07,58c0,.08-.09.14-.24.16v2.44h2.11v.77h-2.11v1.14c.46.45,1.75,1.88,2,2.24l-.54.69c-.28-.45-1-1.34-1.51-2V69H177v-6.1a12.54,12.54,0,0,1-2.18,3.88,4.42,4.42,0,0,0-.47-.76,11.88,11.88,0,0,0,2.53-4.72h-2.26v-.77H177V57.91Zm3.51,9.27c0,.64.12.76.66.76h1.91c.58,0,.67-.54.75-2.55a2.13,2.13,0,0,0,.77.38c-.11,2.2-.32,3-1.48,3h-2c-1.08,0-1.41-.33-1.41-1.59V57.93l1.06.07c0,.09-.07.15-.24.17Z"/><path class="cls-2" d="M192.76,60.08a.3.3,0,0,1-.3.19c-.43,3.73-1.68,7-3.67,7-1,0-1.91-1-1.91-2.9a5.26,5.26,0,0,1,5.39-5.29c3.47,0,5,2.19,5,4.53,0,2.85-1.66,4.23-4.56,4.91a4.82,4.82,0,0,0-.5-.74c2.75-.52,4.17-1.87,4.17-4.13,0-2-1.27-3.78-4.08-3.78l-.36,0Zm-1.15-.16a4.41,4.41,0,0,0-3.92,4.4c0,1.29.55,2.09,1.13,2.09C190.27,66.41,191.31,63.21,191.61,59.92Z"/><path class="cls-2" d="M204.19,68V60h0l-1.48.85-.24-.74,1.86-1h.85v9Z"/><path class="cls-2" d="M214,62.48c.41.44,1.47,1.72,1.71,2.05l-.51.66c-.23-.4-.76-1.18-1.2-1.78V69h-.78V63a13.38,13.38,0,0,1-1.78,3.75A4.16,4.16,0,0,0,211,66a13.39,13.39,0,0,0,2.1-4.71h-1.81v-.77h1.93V57.88l1,.07c0,.09-.07.14-.22.16v2.41h1.69v.77H214Zm8.3-1.47h-1a13,13,0,0,1-1.91,5,7.38,7.38,0,0,0,3,2.3,3.47,3.47,0,0,0-.57.74,7.82,7.82,0,0,1-3-2.37,8.71,8.71,0,0,1-3.15,2.35,3.83,3.83,0,0,0-.5-.66A8,8,0,0,0,218.34,66a12.39,12.39,0,0,1-1.53-3.82,9.12,9.12,0,0,1-1,1.7,5.36,5.36,0,0,0-.6-.56,13.4,13.4,0,0,0,2.17-5.47l1,.25c0,.09-.11.14-.26.15a16.21,16.21,0,0,1-.54,2h4.68Zm-4.94,0,0,.11a12.82,12.82,0,0,0,1.57,4.2A12.06,12.06,0,0,0,220.4,61Z"/><path class="cls-2" d="M233.68,63l-.07,0a.29.29,0,0,1-.18-.07c-.91.3-2.24.79-3.24,1.22a8.93,8.93,0,0,1,0,.94c0,.38,0,.81,0,1.28l-.87,0c0-.43.06-1,.06-1.45a3.47,3.47,0,0,0,0-.48c-1.35.66-2.45,1.46-2.45,2.18s.82,1,2.48,1a26,26,0,0,0,3-.12v.81c-.71.07-1.79.09-3,.09-2.3,0-3.32-.55-3.32-1.77,0-1.06,1.39-2.08,3.19-3-.08-.75-.41-1.12-.89-1.12a4,4,0,0,0-2.87,1.69,16.44,16.44,0,0,1-1.32,1.3l-.58-.58a8.54,8.54,0,0,0,3-4.43h-2.68v-.78h2.89a14.85,14.85,0,0,0,.33-1.71l1.17.14c0,.12-.12.19-.3.22-.08.48-.19.9-.3,1.33a16.45,16.45,0,0,0,4.13-.7L232,60a18.66,18.66,0,0,1-4.49.67,8.67,8.67,0,0,1-.87,2h0a3.18,3.18,0,0,1,1.93-.78c.82,0,1.34.58,1.49,1.56,1-.46,2.28-.95,3.24-1.33Z"/><path class="cls-2" d="M28.06,88.8a22.13,22.13,0,0,1-3.64.28,13.11,13.11,0,0,1-2.35-.16A2.3,2.3,0,0,1,20,86.63a3.89,3.89,0,0,1,1.22-2.57l.7.36a3.32,3.32,0,0,0-1.06,2.14c0,.69.47,1.33,1.5,1.56a10.59,10.59,0,0,0,2,.14A20.74,20.74,0,0,0,28,87.94Zm-5.38-6.06a15.12,15.12,0,0,1,2.12-1.39h0c-.91.11-3,.16-4.33.14,0-.22,0-.62,0-.84a38.17,38.17,0,0,0,6.83-.38l.1.89a9.8,9.8,0,0,0-4,2Z"/><path class="cls-2" d="M31.76,83.63l1.07-.29a18.13,18.13,0,0,1,4.34-.85,2.76,2.76,0,0,1,3.07,2.82c0,2.64-2.61,3.61-5.81,3.86a4.8,4.8,0,0,0-.25-.73c2.82-.2,5.21-1,5.21-3.08a2.07,2.07,0,0,0-2.34-2.14,15.16,15.16,0,0,0-4,.88l-.76.26a.32.32,0,0,1-.2.21Z"/><path class="cls-2" d="M44.54,79.78a29,29,0,0,0,5.87-.5l.28.75a2.33,2.33,0,0,0-.56.41c-1.21,1-3,2.27-4.39,3.25a40.81,40.81,0,0,1,7.32-.83v.85h-.54a8,8,0,0,0-1.84.18c-1,.29-3.52,1.77-3.52,3.41a1.11,1.11,0,0,0,.62,1.08,9.21,9.21,0,0,0,3,.59l-.27.84c-2.9-.23-4.23-.9-4.23-2.44s1.68-2.85,2.85-3.48A43,43,0,0,0,43,85l-.15-.81a5.27,5.27,0,0,0,1.57-.54A38.26,38.26,0,0,0,49,80.26c-.74.12-2.24.24-2.92.28-.35,0-.83,0-1.14.06a.47.47,0,0,1-.31.14Z"/><path class="cls-2" d="M57,86a8.26,8.26,0,0,1-.35-2.26,21.18,21.18,0,0,1,.41-3.95l1.2.2c-.05.16-.19.19-.35.21a17.38,17.38,0,0,0-.4,3.49,5.6,5.6,0,0,0,0,.64c.24-.59.69-1.4.94-1.86A4.86,4.86,0,0,0,59,83c-.88,1.6-1.15,2-1.15,2.56a1.77,1.77,0,0,0,0,.3Zm6.43-6.53c0,.15-.11.21-.31.27.08,1,.2,2.78.2,4.16,0,2.32-.85,4.4-4.46,5.9a6.3,6.3,0,0,0-.6-.69c3.28-1.25,4.15-3.23,4.15-5.2,0-1.47-.14-3.21-.27-4.49Z"/><path class="cls-2" d="M66.92,82.26A8.7,8.7,0,0,1,69,83.5l-.46.66a8.84,8.84,0,0,0-2.09-1.3Zm-.15,7.13a37.48,37.48,0,0,0,1.94-4l.64.47a39.87,39.87,0,0,1-1.75,3.71.4.4,0,0,1,.07.19.25.25,0,0,1,0,.12ZM67.56,79a8.8,8.8,0,0,1,2.07,1.33l-.48.65a9,9,0,0,0-2.06-1.39ZM71,83v.57c0,1.92-.19,4.64-1.45,6.47a3,3,0,0,0-.68-.38c1.24-1.78,1.37-4.28,1.37-6.09V80.31h3.28V78.89l1.06.08c0,.08-.07.14-.24.16v1.18h3.33V81H71V82.3h1.31v-1l1,.06c0,.08-.07.14-.24.17v.79h2.22v-1l1,.06c0,.08-.08.14-.23.17v.79h1.64V83H76v1.79H72.27V83Zm5.29,2.49.52.24a.6.6,0,0,1-.11.12,5.86,5.86,0,0,1-1.92,2.49,8.61,8.61,0,0,0,3,1,2.79,2.79,0,0,0-.49.69,9,9,0,0,1-3.12-1.26,11.33,11.33,0,0,1-3.2,1.27,2.45,2.45,0,0,0-.41-.66,10.24,10.24,0,0,0,3-1.08,5.93,5.93,0,0,1-1.54-2l.41-.14H71.19V85.5h4.93Zm-3.58.7a5.24,5.24,0,0,0,1.45,1.73,5.23,5.23,0,0,0,1.55-1.73ZM75.22,83H73v1.13h2.22Z"/><path class="cls-2" d="M84.43,80.87c0-.26-.05-1.57-.07-1.87l1.23,0c0,.1-.09.22-.31.25,0,.14,0,.29,0,1.55,1.48,0,3-.08,3.93-.1v.83c-1,0-2.47,0-3.9,0,0,.93,0,1.8.08,2.46a4,4,0,0,1,.15,1.26,4.85,4.85,0,0,1-.13,1.16c-.31,1.4-1.34,2.64-3.45,3.48a5.68,5.68,0,0,0-.61-.69c1.83-.66,2.82-1.65,3.12-2.79h0a1.53,1.53,0,0,1-1.24.64,2,2,0,0,1-2-2.1,2.21,2.21,0,0,1,2.15-2.25,1.75,1.75,0,0,1,1.12.38c0-.21,0-1,0-1.53-1.25,0-5,.16-5.53.18l0-.79L81.63,81Zm.23,4.21c0-.47,0-1.56-1.23-1.56A1.44,1.44,0,0,0,82,85.05a1.34,1.34,0,0,0,1.33,1.39A1.3,1.3,0,0,0,84.66,85.08Z"/><path class="cls-2" d="M93.85,88.36a1.68,1.68,0,1,1-1.68-1.68A1.69,1.69,0,0,1,93.85,88.36Zm-.43,0a1.25,1.25,0,1,0-1.25,1.23A1.24,1.24,0,0,0,93.42,88.36Z"/><rect class="cls-2" x="18.07" y="44.17" width="254" height="1.5"/></g></g></svg>