<svg xmlns="http://www.w3.org/2000/svg" viewBox="0 0 292 173.81"><defs><style>.cls-1{fill:#5abcec;}.cls-2{fill:#fff;}</style></defs><g id="レイヤー_2" data-name="レイヤー 2"><g id="レイヤー_1-2" data-name="レイヤー 1"><rect class="cls-1" width="292" height="173.81" rx="5"/><path class="cls-2" d="M17.46,27h11.1v.89H17.46Z"/><path class="cls-2" d="M34.48,27.67l-.59.07V32.3c0,.81-.37.86-1.75.86a2.57,2.57,0,0,0-.24-.67H33c.16,0,.21,0,.21-.2V27.84l-2.28.27a9.89,9.89,0,0,1-1,5,2.27,2.27,0,0,0-.57-.38,8.88,8.88,0,0,0,.91-4.58l-.46,0a.19.19,0,0,1-.15.17l-.28-.83.89-.08V23.7h1A11.66,11.66,0,0,0,31.78,22l1,.26a.26.26,0,0,1-.25.12c-.12.36-.32.88-.51,1.3h1.87v3.42l.58-.06Zm-3.55-3.3v3.07l2.28-.24V24.37Zm1.18,2.42a6,6,0,0,0-.68-1.68l.52-.2a5.32,5.32,0,0,1,.72,1.65Zm.37,1.68c0,.07-.06.12-.21.13v2.7h-.55V28.41Zm7-1,.52.21c0,.07-.08.09-.11.13A7.76,7.76,0,0,1,38,31.12a6.79,6.79,0,0,0,2.73,1.38,3.7,3.7,0,0,0-.51.67,7.28,7.28,0,0,1-2.77-1.53,8.21,8.21,0,0,1-2.77,1.54,3.64,3.64,0,0,0-.45-.68,7.48,7.48,0,0,0,2.67-1.41,8.14,8.14,0,0,1-1.63-2.71l.56-.15h-1V27.5h4.54Zm-3.25-4.24v.92A3.59,3.59,0,0,1,35,27.06a3,3,0,0,0-.57-.5,2.85,2.85,0,0,0,1-2.44V22.5H39v2.85c0,.41,0,.46.27.46h.37a.55.55,0,0,0,.28,0c.16-.09.16-.46.19-1.24a1.64,1.64,0,0,0,.6.32c0,1.07,0,1.61-1,1.61h-.6c-.85,0-.85-.53-.85-1.18V23.22Zm-.3,5a6.94,6.94,0,0,0,1.5,2.36,6.67,6.67,0,0,0,1.5-2.36Z"/><path class="cls-2" d="M47.57,22.49c0,.09-.09.15-.25.18l0,.34c.13,1.7.85,7.3,5.42,9.37a2.73,2.73,0,0,0-.61.67c-3.24-1.53-4.59-4.79-5.15-7.28h0A10.14,10.14,0,0,1,42,33a3.2,3.2,0,0,0-.65-.61c5-2.51,5-8.41,5.12-10Z"/><rect class="cls-2" x="16.99" y="43.94" width="254" height="1.5"/><path class="cls-2" d="M26.91,64l1.06.07c0,.08-.07.14-.24.15V69h-.82v-.76h-7.8v.79h-.8V64l1.05,0c0,.1-.08.16-.25.17v3.23h3.41V63.21H18.76V59.06l1.06.07c0,.08-.09.14-.25.16v3.13h2.95V58l1.06.07c0,.08-.08.14-.24.17v4.23h3.07V59.05l1.07.07c0,.09-.07.15-.24.17v3.92h-3.9v4.26h3.57Z"/><path class="cls-2" d="M33.34,58.41c0,.15-.13.23-.37.27-.1,1.39-.22,4.57-.22,6.34s.89,2.65,2.4,2.65a5.83,5.83,0,0,0,4.32-2.28,4.55,4.55,0,0,0,.54.71,6.5,6.5,0,0,1-4.87,2.44c-2.18,0-3.3-1.26-3.3-3.53,0-1.51.11-5.23.19-6.7Z"/><path class="cls-2" d="M42,59.52c.9,0,8.29-.57,9.85-.58v.9h-.44a3.49,3.49,0,0,0-2.06.61c-1.79,1.08-3.53,3-3.53,4.56S47,67.67,50,68.06l-.4.84c-3.41-.5-4.68-1.77-4.68-3.9,0-1.69,1.67-3.74,3.87-5.12-1.28.08-4.86.36-6.41.5a.36.36,0,0,1-.26.19Z"/><path class="cls-2" d="M60.46,64.47a27,27,0,0,1-2.87.14c0,.42-.07.89-.07,1.12,0,1.92,1.27,2.08,2.39,2.08,1.88,0,2.82-.54,2.82-1.65a3.77,3.77,0,0,0-1-2.2c.23-.08.58-.21.77-.3a4.49,4.49,0,0,1,1.1,2.63c0,2-2.25,2.32-3.7,2.32-1.15,0-3.22-.09-3.22-2.88a7.72,7.72,0,0,1,.08-1.14c-1,0-2.63-.1-2.63-1.33a2,2,0,0,1,1-1.55l.63.37c-.52.33-.84.72-.84,1.05,0,.63,1,.66,1.88.68.08-.8.19-1.75.29-2.69a8.25,8.25,0,0,1-2.51-.65l.21-.78a7.8,7.8,0,0,0,2.4.64c.1-.75.18-1.52.26-2.16l1.25.16c0,.14-.17.23-.38.24-.09.5-.18,1.16-.28,1.85q.52,0,1.11,0c.45,0,.92,0,1.35-.05l0,.8c-.36,0-.77,0-1.18,0s-.94,0-1.36,0c-.12.9-.22,1.82-.31,2.64a23.93,23.93,0,0,0,2.8-.17Z"/><path class="cls-2" d="M67,62.2a13.61,13.61,0,0,1-1.45,1.94,3.81,3.81,0,0,0-.42-.76A16,16,0,0,0,68.21,58l1,.33c0,.08-.12.12-.28.1A20.36,20.36,0,0,1,67.73,61l.3.08c0,.09-.07.14-.22.16v7.84H67Zm9.57-3.1v.78h-.92v8c0,.62-.15.87-.59,1a9.81,9.81,0,0,1-2.43.16,3.27,3.27,0,0,0-.3-.84c.55,0,1.08,0,1.49,0,1,0,1,0,1-.34v-8H69V59.1Zm-3.41,6.74h-3v.86H69.4v-5h3.77Zm-.75-3.44H70.14v2.72h2.28Z"/><path class="cls-2" d="M84.46,64.47a27,27,0,0,1-2.87.14c0,.42-.07.89-.07,1.12,0,1.92,1.27,2.08,2.39,2.08,1.88,0,2.82-.54,2.82-1.65a3.77,3.77,0,0,0-1-2.2c.23-.08.58-.21.77-.3a4.49,4.49,0,0,1,1.1,2.63c0,2-2.25,2.32-3.7,2.32-1.15,0-3.22-.09-3.22-2.88a7.72,7.72,0,0,1,.08-1.14c-1,0-2.63-.1-2.63-1.33a2,2,0,0,1,1-1.55l.63.37c-.52.33-.84.72-.84,1.05,0,.63,1,.66,1.88.68.08-.8.19-1.75.29-2.69a8.25,8.25,0,0,1-2.51-.65l.21-.78a7.8,7.8,0,0,0,2.4.64c.1-.75.18-1.52.26-2.16l1.25.16c0,.14-.17.23-.38.24-.09.5-.18,1.16-.28,1.85q.53,0,1.11,0c.45,0,.92,0,1.35-.05l0,.8c-.36,0-.77,0-1.18,0s-.94,0-1.36,0c-.12.9-.22,1.82-.31,2.64a23.93,23.93,0,0,0,2.8-.17Z"/><path class="cls-2" d="M92.71,65v2.5a7.57,7.57,0,0,0,3,.43c.52,0,4.33,0,5,0a2.78,2.78,0,0,0-.34.79H95.68c-2.69,0-4.14-.44-5-2.2a7.21,7.21,0,0,1-.78,2.59,4.62,4.62,0,0,0-.62-.37c.68-1.1.83-3.17.88-5.35l1,.12c0,.1-.09.15-.22.16,0,.48,0,1-.09,1.42a4,4,0,0,0,1.13,2V62.56H89.44v-.73h2.5v-1.7H89.81V59.4h2.13V57.89l1,.06c0,.08-.07.14-.22.16V59.4h2v.73h-2v1.7h2.21v.73H92.71V64.3h2V65Zm6.36-3.13V59.17H95.22v-.73h4.63V63h-.78v-.42H96.34V65.8c0,.39.12.46.72.46h2.1c.53,0,.62-.23.68-1.73a2.79,2.79,0,0,0,.72.33c-.11,1.71-.33,2.14-1.35,2.14H97c-1.09,0-1.43-.24-1.43-1.2V61.89Z"/><path class="cls-2" d="M111.71,62.19a18.57,18.57,0,0,1-3.62.75,4.47,4.47,0,0,0,2,1.88l-.48.68c-.17-.08-.48-.23-.7-.36a5.2,5.2,0,0,0-1.41-.18c-.17,0-.34,0-.5,0l-.16-.66a7.34,7.34,0,0,1,1.34,0,6.32,6.32,0,0,1-1-1.36,31.31,31.31,0,0,1-3.21.12h-1.79v-.76l1.83,0c1,0,2,0,2.93-.09-.13-.37-.32-1.05-.47-1.59-.48.05-1,.07-1.51.07-.65,0-1.47,0-2,0V60c.72,0,1.51,0,2,0s.92,0,1.38-.06c-.11-.55-.23-1.21-.33-1.89l1.24,0c0,.14-.11.22-.32.26.07.52.15,1.07.25,1.54a12.44,12.44,0,0,0,3.21-.7l.21.74a14.77,14.77,0,0,1-3.27.69,16.33,16.33,0,0,0,.46,1.57,17.33,17.33,0,0,0,3.74-.79Zm-2.11,6.35c-.66,0-1.45.07-2.64.07-1.94,0-3.45-.64-3.43-2a2.53,2.53,0,0,1,1.42-1.9l.53.55c-.69.38-1.1.88-1.1,1.34,0,.85,1.06,1.22,2.58,1.23.9,0,1.85,0,2.66-.11Z"/><path class="cls-2" d="M118.06,58.25a.41.41,0,0,1-.37.2c-.09.53-.19,1.15-.3,1.62a16.69,16.69,0,0,0,3.53-.59l.13.82a24.07,24.07,0,0,1-3.82.57,17.46,17.46,0,0,1-2.54,5.9l-.8-.32a15.89,15.89,0,0,0,2.43-5.55h-2.39v-.78h2.54a20,20,0,0,0,.33-2Zm3.19,5.11c0,1,.08,1.63.16,2.45a12.23,12.23,0,0,1,2.55,1.4l-.43.76a11.92,11.92,0,0,0-2.12-1.26c0,1.2-.48,2.14-2.25,2.14-1.33,0-2.35-.6-2.33-1.73s1.25-1.77,2.36-1.77a5.17,5.17,0,0,1,1.35.21c0-.77-.1-1.54-.1-2.11Zm-.66,3a4,4,0,0,0-1.43-.27c-.72,0-1.57.29-1.58,1s.67,1,1.61,1,1.41-.42,1.41-1.21C120.6,66.71,120.6,66.53,120.59,66.35Zm3.29-4.23a17,17,0,0,0-4.25.59L119.5,62a17,17,0,0,1,4.33-.64Z"/><path class="cls-2" d="M127.46,59.52c0,.11-.16.18-.33.19a20.3,20.3,0,0,0-.22,3c0,.44,0,.87,0,1.26.15,2,1,3.27,1.9,3.26.48,0,1.1-1.23,1.53-2.57a4.38,4.38,0,0,0,.7.52c-.55,1.62-1.25,2.94-2.24,3-1.53,0-2.58-1.82-2.75-4.13,0-.45,0-1,0-1.5a28.56,28.56,0,0,1,.18-3.22Zm8,5.57a6,6,0,0,0-3-4.5l.53-.65a6.58,6.58,0,0,1,3.38,4.88Z"/><path class="cls-2" d="M140.77,67.36a1.68,1.68,0,1,1-1.68-1.68A1.69,1.69,0,0,1,140.77,67.36Zm-.44,0a1.24,1.24,0,1,0-1.24,1.24A1.24,1.24,0,0,0,140.33,67.36Z"/></g></g></svg>