<svg xmlns="http://www.w3.org/2000/svg" viewBox="0 0 291.68 174.42"><defs><style>.cls-1{fill:#ec73a8;}.cls-2{fill:#fff;}</style></defs><g id="レイヤー_2" data-name="レイヤー 2"><g id="レイヤー_1-2" data-name="レイヤー 1"><rect class="cls-1" width="291.68" height="174.42" rx="5"/><path class="cls-2" d="M27.87,27.36h2.25V28H27.87v1.55c0,.41-.09.61-.41.72a6.74,6.74,0,0,1-1.73.11,2.79,2.79,0,0,0-.25-.66l1,0h.39c.18,0,.22-.05.22-.19V28h-5v-.66h5v-.73h-4V22.55a3.7,3.7,0,0,1-.42.38,3.79,3.79,0,0,0-.5-.46v3.91H20.05v1.09h-.66V20.55h2.75v1.87A5.43,5.43,0,0,0,23.82,20l.9.28c0,.07-.1.11-.24.11a4.3,4.3,0,0,1-.3.61h3.91a5.7,5.7,0,0,1-.38-.88H24.76v-.61h3.48a4.68,4.68,0,0,0,1.94,2.68,2.92,2.92,0,0,0-.54.57,2.33,2.33,0,0,1-.32-.25v4.1H28.08q0,.09-.21.12Zm-6.4-6.08H20.05v4.37h1.42Zm2.59,0a6.64,6.64,0,0,1-1,1.29h1.86v-.92h-.88ZM24,28a8.08,8.08,0,0,1,1.53,1.25l-.56.43a7.66,7.66,0,0,0-1.5-1.3Zm-.28-5v1.8H28.6v-1.8H27.15v.54c0,.14,0,.22,0,.24a.23.23,0,0,0,.17,0h.31a.65.65,0,0,0,.22,0,.11.11,0,0,0,.11-.06.68.68,0,0,0,.06-.25,1.55,1.55,0,0,0,.46.24,1,1,0,0,1-.1.39.45.45,0,0,1-.29.15,2.23,2.23,0,0,1-.39,0h-.49a.8.8,0,0,1-.51-.16c-.12-.12-.16-.26-.16-.69v-.46h-1v.11a1.71,1.71,0,0,1-1.18,1.55,1.91,1.91,0,0,0-.44-.41c.84-.35,1-.77,1-1.17v-.08Zm0,3H28.6v-.67H23.75Zm1.83-4.47v.92h1v-.92Zm3.74.92a4.76,4.76,0,0,1-1.18-1.43v.51h-.92v.92Z"/><rect class="cls-2" x="18.56" y="44.17" width="254" height="1.5"/><path class="cls-2" d="M25.25,57.91c0,.09-.12.15-.24.18a16.77,16.77,0,0,0,5.18,4.35,3.8,3.8,0,0,0-.54.71,18.64,18.64,0,0,1-5.14-4.48,16.63,16.63,0,0,1-5,4.56,4.19,4.19,0,0,0-.5-.63,15,15,0,0,0,5.11-4.75Zm-.31,7.94v2.09h4.83v.75H19.4v-.75h4.7V65.85H20.41v-.74H24.1v-2H20.93v-.73h7.31v.73h-3.3v2h3.74v.74Z"/><path class="cls-2" d="M35.43,67.54a.38.38,0,0,1-.24.08A15.07,15.07,0,0,1,31.65,69a4.16,4.16,0,0,0-.59-.6A12.32,12.32,0,0,0,34.6,67Zm-3.12-5.72h8.58V67H32.31ZM33,58.37h7.2v2.7H33Zm.12,4.06v.92h7v-.92Zm0,1.51v.93h7v-.93Zm0,1.52v1h7v-1Zm.69-6.41v1.34h5.55V59.05Zm7.66,10a29.77,29.77,0,0,0-3.84-1.45l.71-.53a37.16,37.16,0,0,1,3.81,1.39Z"/><path class="cls-2" d="M43.61,65.73a22,22,0,0,1,2.71,2.65L45.6,69A25.8,25.8,0,0,0,43,66.29Z"/><path class="cls-2" d="M61.18,58.09a.3.3,0,0,1-.26.13c-.14.38-.34.9-.53,1.34h4.35V69H63.9v-.64H57.37v.71h-.81v-9.5h3a13.11,13.11,0,0,0,.54-1.69Zm2.72,2.26H57.37v1.92H63.9Zm0,2.68H57.37v1.89H63.9Zm-6.53,4.56H63.9V65.68H57.37Z"/><path class="cls-2" d="M71.49,58.51c0,.08-.13.12-.29.1a11.9,11.9,0,0,1-3.75,4.75,5.17,5.17,0,0,0-.64-.57,10.77,10.77,0,0,0,3.65-4.63Zm4.2,4h.19l.45,0c0,.08,0,.19,0,.29-.19,3.87-.37,5.26-.79,5.72s-.7.42-1.43.42c-.41,0-.92,0-1.44,0a1.92,1.92,0,0,0-.26-.81c.82.08,1.59.09,1.88.09s.4,0,.52-.16c.31-.31.5-1.56.66-4.75h-3.3c-.32,2.31-1,4.63-4.21,5.78a2.74,2.74,0,0,0-.52-.68c2.91-1,3.59-3,3.88-5.1H68.73v-.79Zm-1.06-4.38a12.54,12.54,0,0,0,3.69,4.43,4.18,4.18,0,0,0-.67.72,15.9,15.9,0,0,1-3.79-4.83Z"/><path class="cls-2" d="M85.25,60.08a.3.3,0,0,1-.3.19c-.43,3.73-1.68,7-3.67,7-1,0-1.92-1-1.92-2.9a5.26,5.26,0,0,1,5.4-5.29c3.47,0,5,2.19,5,4.53,0,2.85-1.65,4.24-4.55,4.91a3.89,3.89,0,0,0-.51-.73c2.76-.53,4.18-1.88,4.18-4.14,0-2-1.27-3.78-4.08-3.78l-.36,0Zm-1.15-.16a4.41,4.41,0,0,0-3.92,4.4c0,1.29.55,2.09,1.13,2.09C82.76,66.41,83.8,63.21,84.1,59.92Z"/><path class="cls-2" d="M101.88,61H95.52a14.31,14.31,0,0,1-1.17,2.43H101V69h-.84v-.64H94.56v.7h-.8V64.31a10.3,10.3,0,0,1-2.33,2.33,3.79,3.79,0,0,0-.55-.65,10.66,10.66,0,0,0,3.74-5H91.28V60.2h3.63a20,20,0,0,0,.64-2.32l1.08.24c0,.1-.12.15-.28.15-.15.63-.33,1.28-.54,1.93h6.07Zm-1.74,3.22H94.56v3.36h5.58Z"/><path class="cls-2" d="M106.22,58.39l.5.28a.18.18,0,0,1-.1.11c-.27.91-.68,2.15-1.05,3.16a3.93,3.93,0,0,1,1.1,2.66c0,1.64-1,1.59-1.78,1.56a1.88,1.88,0,0,0-.21-.69,2.68,2.68,0,0,0,.46,0c.42,0,.83,0,.83-1A4,4,0,0,0,104.86,62c.34-.92.66-2,.89-2.87h-1.56v9.9h-.71V58.42h2.61Zm6.69,6.38v1.81h1.21v.66h-1.21V69h-.72v-1.8h-2.7v-.66h1V64.77h-.44v-.56l-.06.05a6.4,6.4,0,0,1-3.22,4.79,1.64,1.64,0,0,0-.5-.48,5,5,0,0,0,2-1.72,6.55,6.55,0,0,0-1-.82l.39-.42a7.08,7.08,0,0,1,.91.7,7.26,7.26,0,0,0,.62-1.65H108a5.6,5.6,0,0,1-1.29,1.69,4,4,0,0,0-.49-.4,5.8,5.8,0,0,0,1.75-3l.83.22c0,.07-.09.12-.24.12a5.56,5.56,0,0,1-.26.75h1.28l.13,0,.39.18v0h2.12V62.93l1,.06c0,.09-.08.15-.23.16v1H114v.66ZM106.68,60h3.18V57.89l1,.08c0,.07-.08.13-.23.15V60H114v.7h-2.78a7.12,7.12,0,0,0,3,1.72,2.62,2.62,0,0,0-.5.6A8.38,8.38,0,0,1,110.62,61v2.18h-.76V61a8.33,8.33,0,0,1-3,2.11,3.48,3.48,0,0,0-.5-.59,7.54,7.54,0,0,0,2.92-1.79h-2.55Zm1.25-1.87a5,5,0,0,1,.94,1.49l-.64.32a5.35,5.35,0,0,0-.9-1.52Zm3.22,8.41h1V64.77h-1Zm2.24-8.1a.27.27,0,0,1-.24.11c-.28.38-.7,1-1,1.35l-.57-.26a10,10,0,0,0,1-1.55Z"/><path class="cls-2" d="M121.25,60.08a.3.3,0,0,1-.3.19c-.43,3.73-1.68,7-3.67,7-1,0-1.92-1-1.92-2.9a5.26,5.26,0,0,1,5.4-5.29c3.47,0,5,2.19,5,4.53,0,2.85-1.65,4.24-4.55,4.91a3.89,3.89,0,0,0-.51-.73c2.76-.53,4.18-1.88,4.18-4.14,0-2-1.27-3.78-4.08-3.78l-.36,0Zm-1.15-.16a4.41,4.41,0,0,0-3.92,4.4c0,1.29.55,2.09,1.13,2.09C118.76,66.41,119.8,63.21,120.1,59.92Z"/><path class="cls-2" d="M133.14,58.36c0,.1-.09.16-.25.18l0,.35c.13,1.69.85,7.29,5.42,9.37a2.56,2.56,0,0,0-.61.67c-3.24-1.54-4.58-4.8-5.15-7.28h0a10.15,10.15,0,0,1-5,7.27,2.77,2.77,0,0,0-.65-.62c5-2.5,5-8.4,5.12-10Z"/><path class="cls-2" d="M145.25,60.08a.3.3,0,0,1-.3.19c-.43,3.73-1.68,7-3.67,7-1,0-1.92-1-1.92-2.9a5.26,5.26,0,0,1,5.4-5.29c3.47,0,5,2.19,5,4.53,0,2.85-1.65,4.24-4.55,4.91a3.89,3.89,0,0,0-.51-.73c2.76-.53,4.18-1.88,4.18-4.14,0-2-1.27-3.78-4.08-3.78l-.36,0Zm-1.15-.16a4.41,4.41,0,0,0-3.92,4.4c0,1.29.55,2.09,1.13,2.09C142.76,66.41,143.8,63.21,144.1,59.92Z"/><path class="cls-2" d="M162.05,64.44v.79H157v2.68c0,.61-.17.85-.61,1a9.43,9.43,0,0,1-2.51.15,4,4,0,0,0-.35-.81c.57,0,1.12,0,1.54,0,1,0,1.11,0,1.11-.35V65.23H151.1v-.79h5.05v-2H151.9v-.77h4.25V59.7c-1.32.16-2.71.28-4,.35a2.4,2.4,0,0,0-.21-.69,37.71,37.71,0,0,0,8.17-1.21l.69.68a.24.24,0,0,1-.14,0h-.11a20.49,20.49,0,0,1-3.33.71c0,.09-.09.12-.25.14v1.95h4.39v.77H157v2Z"/><path class="cls-2" d="M166.55,58c0,.08-.08.14-.24.16v2.44h2.11v.77h-2.11v1.14c.47.45,1.75,1.88,2.05,2.24l-.54.69a21.89,21.89,0,0,0-1.51-2V69h-.8v-6.1a12.75,12.75,0,0,1-2.18,3.88,5.14,5.14,0,0,0-.47-.76,11.88,11.88,0,0,0,2.53-4.72h-2.27v-.77h2.39V57.91Zm3.52,9.27c0,.64.12.77.66.77h1.9c.59,0,.68-.55.76-2.56a2.13,2.13,0,0,0,.77.38c-.11,2.2-.33,3-1.48,3h-2c-1.07,0-1.4-.33-1.4-1.59V57.93l1.06.07c0,.09-.08.15-.24.17Z"/><path class="cls-2" d="M179.63,58.47c0,.14-.17.2-.39.22-.14.67-.35,1.83-.5,2.55.54-.06,1-.11,1.34-.11,1.82,0,2.44,1.19,2.44,3a9.37,9.37,0,0,1-.41,2.69A2.2,2.2,0,0,1,180,68.62a3.57,3.57,0,0,1-2.17-1.05,4,4,0,0,0,.32-.73,3.17,3.17,0,0,0,1.84.91c.68,0,1.09-.43,1.33-1.2a9,9,0,0,0,.38-2.45c0-1.37-.45-2.19-1.65-2.18a14.65,14.65,0,0,0-1.47.12,22.72,22.72,0,0,1-2.45,6.48l-.8-.38a19.38,19.38,0,0,0,2.39-6c-.61.07-1.49.18-2.13.29l-.08-.84,2.38-.28c.18-.87.37-2,.52-3Zm5.55,5.77a7.18,7.18,0,0,0-2.69-4.1l.64-.51a7.7,7.7,0,0,1,2.92,4.27Z"/><path class="cls-2" d="M190.25,60.47a.35.35,0,0,1-.31.21,13.3,13.3,0,0,1-.49,3.53h0a8.22,8.22,0,0,1,4.42-1.47c1.84,0,3,.95,3,2.63,0,2.2-1.86,3.19-6.5,3.38a3.65,3.65,0,0,0-.3-.79c4.18-.18,5.86-.87,5.9-2.58,0-1.15-.79-1.85-2.19-1.85a6.32,6.32,0,0,0-4.56,1.92l-.82-.4a13.25,13.25,0,0,0,.69-4.72Zm.21-2.32a19.34,19.34,0,0,1,4.65,1.05l-.3.83a19,19,0,0,0-4.61-1.09Z"/><path class="cls-2" d="M208.55,67.8a22.34,22.34,0,0,1-3.65.28,13.27,13.27,0,0,1-2.35-.16,2.3,2.3,0,0,1-2.07-2.29,3.84,3.84,0,0,1,1.22-2.57l.7.36a3.27,3.27,0,0,0-1.06,2.14c0,.69.47,1.33,1.5,1.56a10.59,10.59,0,0,0,2,.14,19.85,19.85,0,0,0,3.69-.32Zm-5.39-6.06a16.84,16.84,0,0,1,2.13-1.39h0c-.91.11-3,.16-4.33.14,0-.22,0-.62,0-.83a39.47,39.47,0,0,0,6.83-.39l.1.89a9.8,9.8,0,0,0-4,2Z"/><path class="cls-2" d="M212.25,62.63l1.07-.29a18,18,0,0,1,4.34-.85,2.76,2.76,0,0,1,3.07,2.82c0,2.64-2.62,3.61-5.82,3.86a6.94,6.94,0,0,0-.24-.73c2.82-.2,5.21-1,5.21-3.08a2.07,2.07,0,0,0-2.34-2.14,15.08,15.08,0,0,0-4,.88l-.77.26a.29.29,0,0,1-.19.21Z"/><path class="cls-2" d="M225,58.78a28.8,28.8,0,0,0,5.86-.5l.29.75a2.33,2.33,0,0,0-.56.41c-1.21,1-3,2.27-4.39,3.25a40.81,40.81,0,0,1,7.32-.83v.86a4.87,4.87,0,0,0-.54,0,7.92,7.92,0,0,0-1.84.18c-1,.29-3.53,1.77-3.53,3.41a1.11,1.11,0,0,0,.63,1.08,9.14,9.14,0,0,0,3,.59l-.26.84c-2.9-.23-4.24-.9-4.24-2.44s1.68-2.85,2.86-3.48A43,43,0,0,0,223.53,64l-.16-.81a5,5,0,0,0,1.58-.54,38.26,38.26,0,0,0,4.54-3.42c-.74.12-2.24.24-2.93.28-.34,0-.82,0-1.13.06a.5.5,0,0,1-.32.14Z"/><path class="cls-2" d="M237.51,65a7.88,7.88,0,0,1-.35-2.25,21.19,21.19,0,0,1,.41-4l1.2.2c-.05.16-.19.19-.35.21a17.48,17.48,0,0,0-.41,3.49,3.75,3.75,0,0,0,0,.64c.24-.58.68-1.4.93-1.86a4.92,4.92,0,0,0,.47.53c-.89,1.6-1.15,2-1.15,2.56a1.13,1.13,0,0,0,0,.3Zm6.43-6.52c0,.14-.11.2-.31.26.08,1,.2,2.78.2,4.16,0,2.32-.85,4.4-4.46,5.9a6.3,6.3,0,0,0-.6-.69c3.27-1.25,4.15-3.23,4.15-5.2,0-1.47-.15-3.21-.28-4.49Z"/><path class="cls-2" d="M21.68,89V81h0l-1.47.85-.24-.74,1.86-1h.85v9Z"/><path class="cls-2" d="M31.45,83.48c.4.44,1.47,1.72,1.71,2l-.52.66a21.1,21.1,0,0,0-1.19-1.78V90h-.78V84a13.38,13.38,0,0,1-1.78,3.75,4.16,4.16,0,0,0-.44-.73,13.39,13.39,0,0,0,2.1-4.71H28.73v-.77h1.94V78.88l1,.07c0,.09-.07.14-.22.16v2.41h1.69v.77H31.45ZM39.74,82h-1a13,13,0,0,1-1.91,5,7.31,7.31,0,0,0,3,2.3,3.47,3.47,0,0,0-.57.74,7.93,7.93,0,0,1-3-2.37,8.68,8.68,0,0,1-3.14,2.35,5.21,5.21,0,0,0-.5-.66A8,8,0,0,0,35.82,87a12.62,12.62,0,0,1-1.52-3.82,9.56,9.56,0,0,1-1,1.71,5.39,5.39,0,0,0-.6-.57,13.4,13.4,0,0,0,2.17-5.47l1,.25c0,.09-.11.14-.26.15-.15.66-.33,1.33-.54,2h4.67ZM34.8,82l0,.11a12.39,12.39,0,0,0,1.57,4.2A12.06,12.06,0,0,0,37.89,82Z"/><path class="cls-2" d="M40.85,80.57a15.85,15.85,0,0,0,3.36-.48,3.1,3.1,0,0,0,.93-.44l.61.58c-1.14.75-3.26,3.27-3.26,5.82,0,2,1.4,2.69,2.95,2.69,3,0,3-2.27,3-3.32a11.41,11.41,0,0,0-.79-4.56l.78-.37a6.27,6.27,0,0,0,3.29,3.42l-.35.84a5.13,5.13,0,0,1-2.41-2.09h0a14.83,14.83,0,0,1,.31,3.12v.38c-.07,2-1.36,3.41-3.8,3.41-2.1,0-3.78-1-3.78-3.46A8.06,8.06,0,0,1,44,80.9a13,13,0,0,1-2.78.46.3.3,0,0,1-.22.2Z"/><path class="cls-2" d="M60.16,89.94a36.52,36.52,0,0,0-4.7-4.46c-.6-.48-.82-.82-.82-1.25a1.52,1.52,0,0,1,.64-1.09c1.09-1,3.14-3,4.29-4.13l1,.68a.36.36,0,0,1-.26.12.8.8,0,0,1-.15,0c-1.2,1.15-3.07,2.78-4,3.71-.29.27-.52.51-.52.7s.22.45.64.76A40.67,40.67,0,0,1,61,89.3Z"/><path class="cls-2" d="M68,88.36a1.68,1.68,0,1,1-1.68-1.68A1.69,1.69,0,0,1,68,88.36Zm-.43,0a1.25,1.25,0,1,0-1.25,1.23A1.24,1.24,0,0,0,67.52,88.36Z"/></g></g></svg>