<svg xmlns="http://www.w3.org/2000/svg" viewBox="0 0 291.68 174.42"><defs><style>.cls-1{fill:#0097c2;}.cls-2{fill:#fff;}</style></defs><g id="レイヤー_2" data-name="レイヤー 2"><g id="レイヤー_1-2" data-name="レイヤー 1"><rect class="cls-1" width="291.68" height="174.42" rx="5"/><path class="cls-2" d="M16,20.08H24.1V30.4h-.84v-.85H16.77v.85H16Zm7.29.78H16.77V23h6.49Zm0,2.87H16.77v2.12h6.49Zm-6.49,5h6.49V26.63H16.77Z"/><path class="cls-2" d="M32.44,27.29V28h5.11v.61H32.44v.95c0,.43-.12.62-.46.73a8.38,8.38,0,0,1-2,.11,2.77,2.77,0,0,0-.28-.64l1.19,0c.65,0,.72,0,.72-.24v-.94h-5.1V28h5.1v-.71H27.46v-.6h4.18V26c-1.07.06-2.17.1-3.2.11a2,2,0,0,0-.18-.53,54.76,54.76,0,0,0,6.5-.44l.66.5s-.06,0-.23,0c-.73.1-1.69.2-2.75.27v.78h4.3v.6Zm-3.46-2v-.65H26.65v-.55H29v-.52H27.17V21H29V20.5H26.75V20H29v-.72l.93.06c0,.09-.07.14-.22.16V20H32v.54H29.69V21h1.88v2.54H29.69v.52H32v.55H29.69v.65Zm-1.16-3.78V22H29v-.55Zm0,1.58H29v-.56H27.82Zm3.07-1.58h-1.2V22h1.2Zm0,1.58v-.56h-1.2v.56Zm1.54-.4v-.54a2.11,2.11,0,0,0-.47-.51c.84-.38,1-.85,1-1.31v-.67H36v1.1c0,.3,0,.35.24.35.47,0,.52,0,.59,0s.17-.37.18-.82a1.54,1.54,0,0,0,.51.26c0,1-.19,1.18-.9,1.18h-.54c-.79,0-.79-.44-.79-1v-.44H33.67a1.92,1.92,0,0,1-1.06,1.84h3.52l.14,0,.43.16a.2.2,0,0,1-.06.13,3.89,3.89,0,0,1-1.44,1.7,8.29,8.29,0,0,0,2.38.62,2.16,2.16,0,0,0-.43.62,7.68,7.68,0,0,1-2.58-.85,8.53,8.53,0,0,1-2,.69,2.81,2.81,0,0,0-.36-.6A7.46,7.46,0,0,0,33.94,24a4.11,4.11,0,0,1-1-1.2l.54-.15Zm1.09,0a3.11,3.11,0,0,0,1,1,3.51,3.51,0,0,0,1.11-1Z"/><path class="cls-2" d="M49.51,23.94H44.84a21.22,21.22,0,0,1-2.05,1.34h5v5.07H47V30H42.06v.41h-.78V26.08c-.77.38-1.57.73-2.38,1a3.71,3.71,0,0,0-.48-.62,24.68,24.68,0,0,0,5.11-2.56H38.6v-.7h4.29V21.62H39.73v-.71h3.16V19.24l1,.08c0,.08-.09.14-.24.16v1.43H46.8v.41a14.07,14.07,0,0,0,1.4-1.6l.85.5a.28.28,0,0,1-.2.07h-.12a19.65,19.65,0,0,1-2.95,3h3.73ZM47,27.27V26H42.06v1.29Zm-4.95,2H47V27.93H42.06Zm1.62-6h.87a20.68,20.68,0,0,0,2-1.62H43.68Z"/><path class="cls-2" d="M16,62.16a13.35,13.35,0,0,1-1.37,2,5.18,5.18,0,0,0-.42-.76A16.09,16.09,0,0,0,17,58l.95.31c0,.08-.12.13-.27.12a21.34,21.34,0,0,1-1,2.37l.28.09c0,.07-.08.13-.24.15v8H16Zm3.54,5c0,.71.17.88,1.07.88h3.29c.82,0,.95-.39,1.07-1.92a2.08,2.08,0,0,0,.75.32c-.16,1.77-.44,2.34-1.79,2.34H20.58c-1.43,0-1.86-.32-1.86-1.63v-4l-1.35.46-.25-.7,1.6-.55V59l1,.07c0,.09-.07.14-.23.16V62l2-.68v-3.3l1,.07c0,.09-.09.13-.23.16v2.79l2.18-.74a.79.79,0,0,1,.17-.14l.65.25a.45.45,0,0,1-.12.12A41.39,41.39,0,0,1,25,65c-.13.82-.62.93-2,.88a2.38,2.38,0,0,0-.2-.75c.38,0,.88,0,1,0s.35,0,.42-.36a29.45,29.45,0,0,0,.12-3.67l-2.1.73v4.38H21.5V62.13l-2,.69Z"/><path class="cls-2" d="M32.74,60.08a.3.3,0,0,1-.3.19c-.43,3.73-1.67,7-3.67,7-1,0-1.91-1-1.91-2.9a5.26,5.26,0,0,1,5.39-5.29c3.47,0,5,2.19,5,4.53,0,2.85-1.66,4.23-4.56,4.91a4.82,4.82,0,0,0-.5-.74c2.76-.52,4.17-1.87,4.17-4.13,0-2-1.27-3.78-4.08-3.78l-.36,0Zm-1.15-.16a4.41,4.41,0,0,0-3.92,4.4c0,1.29.55,2.09,1.13,2.09C30.25,66.41,31.29,63.21,31.59,59.92Z"/><path class="cls-2" d="M43,59.92v.67h-4.5v-.67Zm-.39,4.89v3.53H39.72v.56H39V64.81Zm7.09,2.81v.76H44.38v.68h-.76V61.9A9.58,9.58,0,0,1,42.73,63a4.19,4.19,0,0,0-.5-.6,2.36,2.36,0,0,0,.2-.23H39v-.66h3.53v.52a13.14,13.14,0,0,0,2.15-4.19l1,.3c0,.09-.12.12-.26.12a15.55,15.55,0,0,1-.89,2h1.74a14.55,14.55,0,0,0,1-2.33l1,.31c0,.08-.12.12-.26.12-.23.54-.56,1.29-.9,1.9h2.4v.74H47.1V62.7h2.15v.74H47.1V65.1h2.15v.75H47.1v1.77Zm-7.11-4.44v.66H39v-.66Zm0-4.85V59H39.07v-.66Zm-.66,7.17H39.72v2.16h2.13Zm4.48-2.8V61.07H44.38V62.7Zm0,2.4V63.44H44.38V65.1Zm-1.95.75v1.77h1.95V65.85Z"/><path class="cls-2" d="M55.13,58.47c0,.14-.17.2-.4.22l-.49,2.55c.54-.06,1-.11,1.33-.11,1.82,0,2.45,1.19,2.45,3a9.25,9.25,0,0,1-.41,2.68,2.2,2.2,0,0,1-2.14,1.82,3.57,3.57,0,0,1-2.17-1.05,4.89,4.89,0,0,0,.33-.73c1,.74,1.46.91,1.83.91.69,0,1.09-.43,1.33-1.2a9.09,9.09,0,0,0,.39-2.46c0-1.36-.46-2.18-1.66-2.17a14.28,14.28,0,0,0-1.46.12,23,23,0,0,1-2.46,6.48l-.79-.38a19.62,19.62,0,0,0,2.38-6c-.61.07-1.48.18-2.13.29L51,61.59l2.37-.28c.18-.87.37-2,.52-3Zm5.55,5.77a7.19,7.19,0,0,0-2.7-4.1l.65-.51a7.69,7.69,0,0,1,2.91,4.27Z"/><path class="cls-2" d="M68,60h0l-1.81,1-.3-.76,2.29-1.28H69v9.21H68Z"/><path class="cls-2" d="M80.64,58.36c0,.1-.1.16-.26.18l0,.35c.13,1.69.85,7.29,5.42,9.37a2.41,2.41,0,0,0-.61.67c-3.24-1.54-4.58-4.8-5.15-7.28h0a10.15,10.15,0,0,1-5,7.27,2.71,2.71,0,0,0-.64-.62c5-2.5,5-8.4,5.12-10Z"/><path class="cls-2" d="M92.74,60.08a.3.3,0,0,1-.3.19c-.43,3.73-1.67,7-3.67,7-1,0-1.91-1-1.91-2.9a5.26,5.26,0,0,1,5.39-5.29c3.47,0,5,2.19,5,4.53,0,2.85-1.66,4.23-4.56,4.91a4.82,4.82,0,0,0-.5-.74c2.76-.52,4.17-1.87,4.17-4.13,0-2-1.27-3.78-4.08-3.78l-.36,0Zm-1.15-.16a4.41,4.41,0,0,0-3.92,4.4c0,1.29.55,2.09,1.13,2.09C90.25,66.41,91.29,63.21,91.59,59.92Z"/><path class="cls-2" d="M109.54,64.44v.79h-5.07v2.68c0,.61-.18.85-.61,1a9.56,9.56,0,0,1-2.52.15,4,4,0,0,0-.35-.81c.58,0,1.13,0,1.55,0,1,0,1.1,0,1.1-.35V65.23h-5v-.79h5v-2H99.4v-.77h4.24V59.7c-1.32.16-2.71.28-4,.35a2.42,2.42,0,0,0-.22-.69,37.71,37.71,0,0,0,8.17-1.21l.69.68a.24.24,0,0,1-.14,0H108a20.49,20.49,0,0,1-3.33.71c0,.08-.09.12-.24.14v1.95h4.39v.77h-4.39v2Z"/><path class="cls-2" d="M114.05,58c0,.08-.09.14-.24.16v2.44h2.11v.77h-2.11v1.14c.46.45,1.75,1.88,2,2.24l-.54.69a23.92,23.92,0,0,0-1.51-2V69H113v-6.1a12.34,12.34,0,0,1-2.18,3.88,4.42,4.42,0,0,0-.47-.76,11.88,11.88,0,0,0,2.53-4.72h-2.26v-.77H113V57.91Zm3.51,9.27c0,.64.12.76.66.76h1.91c.58,0,.67-.54.75-2.55a2.22,2.22,0,0,0,.77.38c-.11,2.2-.32,3-1.48,3h-2c-1.08,0-1.41-.33-1.41-1.59V57.93l1.06.07c0,.09-.07.15-.24.17Z"/><path class="cls-2" d="M133.05,63l-.07,0a.29.29,0,0,1-.18-.07c-.91.3-2.24.79-3.24,1.22,0,.28,0,.59,0,.94s0,.81,0,1.28l-.88,0c0-.43.06-1,.06-1.45,0-.18,0-.35,0-.48-1.35.66-2.46,1.46-2.46,2.18s.83,1,2.49,1a26,26,0,0,0,3-.12v.81c-.71.07-1.79.09-3,.09-2.31,0-3.33-.55-3.33-1.77,0-1.06,1.4-2.08,3.19-3-.07-.75-.4-1.12-.88-1.12a4,4,0,0,0-2.87,1.69,18.3,18.3,0,0,1-1.32,1.3l-.59-.58a8.49,8.49,0,0,0,3-4.43h-2.68v-.78h2.89a17.35,17.35,0,0,0,.33-1.71l1.17.14c0,.12-.12.19-.3.22-.08.48-.19.9-.3,1.33a16.45,16.45,0,0,0,4.13-.7l.14.81a18.66,18.66,0,0,1-4.5.67,8.31,8.31,0,0,1-.86,2h0a3.18,3.18,0,0,1,1.93-.78c.82,0,1.33.58,1.49,1.56,1-.46,2.28-.95,3.24-1.33Z"/><path class="cls-2" d="M135.11,65.73a22.75,22.75,0,0,1,2.71,2.65l-.72.66a25.93,25.93,0,0,0-2.63-2.75Z"/><path class="cls-2" d="M156,67.8a22.13,22.13,0,0,1-3.64.28,13.11,13.11,0,0,1-2.35-.16A2.3,2.3,0,0,1,148,65.63a3.89,3.89,0,0,1,1.22-2.57l.7.36a3.32,3.32,0,0,0-1.06,2.14c0,.69.47,1.33,1.5,1.56a10.59,10.59,0,0,0,2,.14,20.74,20.74,0,0,0,3.69-.32Zm-5.38-6.06a15.12,15.12,0,0,1,2.12-1.39h0c-.91.11-3,.16-4.33.14,0-.22,0-.62,0-.84a38.31,38.31,0,0,0,6.84-.38l.09.89a9.8,9.8,0,0,0-4,2Z"/><path class="cls-2" d="M159.74,62.63l1.07-.29a18.13,18.13,0,0,1,4.34-.85,2.76,2.76,0,0,1,3.07,2.82c0,2.64-2.61,3.61-5.81,3.86a6.25,6.25,0,0,0-.24-.73c2.81-.2,5.2-1,5.2-3.08A2.07,2.07,0,0,0,165,62.22a15.16,15.16,0,0,0-4,.88l-.76.26a.33.33,0,0,1-.19.21Z"/><path class="cls-2" d="M172.52,58.78a29,29,0,0,0,5.87-.5l.29.75a2.15,2.15,0,0,0-.57.41c-1.21,1-3,2.27-4.39,3.25a40.91,40.91,0,0,1,7.32-.83v.85h-.54a8,8,0,0,0-1.84.18c-1,.29-3.52,1.77-3.52,3.41a1.11,1.11,0,0,0,.62,1.08,9.21,9.21,0,0,0,3,.59l-.27.84c-2.9-.23-4.23-.9-4.23-2.44s1.68-2.85,2.85-3.48A43,43,0,0,0,171,64l-.15-.81a5.16,5.16,0,0,0,1.57-.54A38.26,38.26,0,0,0,177,59.26c-.74.12-2.24.24-2.92.28-.35,0-.83,0-1.14.06a.47.47,0,0,1-.31.14Z"/><path class="cls-2" d="M185,65a8.26,8.26,0,0,1-.35-2.26,21.18,21.18,0,0,1,.41-4l1.2.2c0,.16-.19.19-.35.21a17.38,17.38,0,0,0-.4,3.49,5.6,5.6,0,0,0,0,.64c.24-.59.69-1.4.94-1.86A4.92,4.92,0,0,0,187,62c-.89,1.6-1.16,2-1.16,2.56a1.77,1.77,0,0,0,0,.3Zm6.43-6.53c0,.15-.11.21-.31.27.08,1,.2,2.78.2,4.16,0,2.32-.85,4.4-4.46,5.9a6.3,6.3,0,0,0-.6-.69c3.28-1.25,4.15-3.23,4.15-5.2,0-1.47-.14-3.21-.27-4.49Z"/><path class="cls-2" d="M200.74,57.91c0,.09-.12.15-.24.18a16.81,16.81,0,0,0,5.19,4.35,3.1,3.1,0,0,0-.54.71A18.69,18.69,0,0,1,200,58.67a16.51,16.51,0,0,1-5,4.56,3.22,3.22,0,0,0-.5-.63,15,15,0,0,0,5.11-4.75Zm-.31,7.94v2.09h4.84v.75H194.89v-.75h4.7V65.85H195.9v-.74h3.69v-2h-3.16v-.73h7.3v.73h-3.3v2h3.74v.74Z"/><path class="cls-2" d="M210.35,62.51a16,16,0,0,0,.76-2.31l.93.26c0,.07-.11.11-.25.12a19.7,19.7,0,0,1-.76,2.05h1.79v.74H206.5v-.74h4.22Zm2.26-3.21V60h-5.8V59.3h2.49V57.89l1,.06c0,.09-.08.15-.24.17V59.3Zm-5.29,9.75V64.49h4.75V69h-.78v-.62h-3.2v.69Zm.93-8.73a8.13,8.13,0,0,1,.57,2l-.7.17a8.75,8.75,0,0,0-.53-2Zm3,4.89h-3.2v2.43h3.2Zm5.83-6.63.53.26a.17.17,0,0,1-.11.12c-.45,1-1.09,2.32-1.75,3.57,1.3,1.22,1.84,2.12,1.84,3,0,1.88-1.31,1.88-2.09,1.88H215a1.72,1.72,0,0,0-.28-.79l.75,0c.8,0,1.37,0,1.37-1.13,0-.78-.58-1.62-1.89-2.82.59-1.19,1.1-2.32,1.51-3.29h-2.39V69h-.78V58.61H217Z"/><path class="cls-2" d="M223,65.45c0,.08-.11.14-.25.16-.33,1.71-1,2.87-3.85,3.45a2.49,2.49,0,0,0-.45-.71c2.59-.47,3.24-1.4,3.48-3Zm2.66,2.31c0,.35.1.42.65.42h1.91c.5,0,.6-.22.64-1.74a2.31,2.31,0,0,0,.75.34c-.1,1.74-.33,2.17-1.33,2.17h-2c-1.11,0-1.39-.25-1.39-1.19V65h-4.63V58.33h7.64V65h-2.2ZM221,59v1.31h6V59Zm0,2v1.32h6V61Zm0,2v1.34h6V63Z"/><path class="cls-2" d="M238.94,58.33c0,.11-.08.18-.26.22,0,.84.08,1.83.1,2.73l2.57-.41.07.84c-.72.07-1.65.2-2.62.36a14.83,14.83,0,0,1-.14,2.66,1.31,1.31,0,0,1-1.34,1.12,4.14,4.14,0,0,1-1.85-.53,5.86,5.86,0,0,0,.15-.71,3.67,3.67,0,0,0,1.57.47c.72,0,.83-.71.77-2.89l-3.91.66c0,1.14,0,2.23.09,2.9.15,1.82,1.05,1.93,2.77,1.93a25.92,25.92,0,0,0,3.14-.18l0,.82c-.85.09-2.06.13-3.07.13-1.86,0-3.49,0-3.7-2.63-.06-.67-.08-1.71-.1-2.83-.75.13-1.73.33-2.34.45l-.13-.81,2.45-.41c0-1,0-2.17,0-3.08l1.19.11c0,.13-.11.2-.3.23,0,.73,0,1.69,0,2.59l3.88-.65c0-1-.08-2.18-.15-3.15Z"/><path class="cls-2" d="M243,59.51c.9,0,8.28-.56,9.84-.57v.9a3.31,3.31,0,0,0-.44,0,3.4,3.4,0,0,0-2,.62c-1.8,1.08-3.54,3-3.54,4.55S248,67.67,251,68.05l-.39.84c-3.41-.49-4.68-1.76-4.68-3.9,0-1.69,1.66-3.74,3.86-5.12-1.27.09-4.86.36-6.4.51a.38.38,0,0,1-.27.19Z"/><path class="cls-2" d="M21.52,85.47c-.76.08-1.85.14-2.86.14,0,.42-.07.89-.07,1.12,0,1.91,1.27,2.07,2.38,2.07,1.89,0,2.82-.54,2.82-1.64a3.75,3.75,0,0,0-1-2.21,5.87,5.87,0,0,0,.77-.3,4.54,4.54,0,0,1,1.1,2.64c0,2-2.26,2.31-3.71,2.31-1.15,0-3.21-.08-3.21-2.87a10.14,10.14,0,0,1,.07-1.14c-1,0-2.63-.1-2.63-1.33a2,2,0,0,1,1-1.55l.64.37c-.53.32-.84.72-.84,1,0,.64,1,.66,1.87.69.08-.81.19-1.75.3-2.69a8.62,8.62,0,0,1-2.52-.66l.22-.78a8.08,8.08,0,0,0,2.4.65c.09-.76.18-1.52.26-2.16l1.25.16q-.06.21-.39.24c-.08.5-.18,1.16-.27,1.84.35,0,.72,0,1.1,0s.92,0,1.36,0l0,.79c-.36,0-.77,0-1.18,0s-.93,0-1.35,0c-.12.9-.23,1.83-.31,2.64a21.77,21.77,0,0,0,2.79-.17Z"/><path class="cls-2" d="M29.75,81.47a.37.37,0,0,1-.32.21,13.3,13.3,0,0,1-.49,3.53h0a8.22,8.22,0,0,1,4.42-1.47c1.85,0,3,1,3,2.63,0,2.2-1.86,3.19-6.5,3.38a3.46,3.46,0,0,0-.3-.79c4.19-.18,5.87-.87,5.9-2.58,0-1.15-.79-1.85-2.19-1.85a6.34,6.34,0,0,0-4.56,1.92l-.82-.4a13,13,0,0,0,.69-4.72Zm.2-2.32a19.23,19.23,0,0,1,4.65,1l-.3.83a19,19,0,0,0-4.6-1.09Z"/><path class="cls-2" d="M40,83.31a27.32,27.32,0,0,1,5-1,2.53,2.53,0,0,1,2.85,2.74v.09c0,2.19-1.73,3.78-5.18,4.71a4.33,4.33,0,0,0-.54-.74c3.07-.73,4.81-2.17,4.81-4a1.77,1.77,0,0,0-2-2,16.48,16.48,0,0,0-4.34.95c0,.09-.1.22-.23.27Zm1.67-4.15a22.26,22.26,0,0,1,4.83.93l-.26.84a23.14,23.14,0,0,0-4.77-1Z"/><path class="cls-2" d="M53.83,88.36a1.68,1.68,0,1,1-1.68-1.68A1.69,1.69,0,0,1,53.83,88.36Zm-.43,0a1.24,1.24,0,1,0-1.25,1.23A1.24,1.24,0,0,0,53.4,88.36Z"/><rect class="cls-2" x="14.05" y="44.17" width="254" height="1.5"/></g></g></svg>