<svg xmlns="http://www.w3.org/2000/svg" viewBox="0 0 87.49 87.49"><defs><style>.cls-1{fill:#8b7e98;}</style></defs><g id="レイヤー_2" data-name="レイヤー 2"><g id="レイヤー_1-2" data-name="レイヤー 1"><path class="cls-1" d="M85.91,10.91,76.58,1.58a5.41,5.41,0,0,0-7.65,0L43.74,26.77,18.55,1.58a5.4,5.4,0,0,0-7.64,0L1.58,10.91a5.4,5.4,0,0,0,0,7.64L26.77,43.74,1.58,68.93a5.41,5.41,0,0,0,0,7.65l9.33,9.33a5.4,5.4,0,0,0,7.64,0L43.74,60.72,68.93,85.91a5.41,5.41,0,0,0,7.65,0l9.33-9.33a5.41,5.41,0,0,0,0-7.65L60.72,43.74,85.91,18.55A5.4,5.4,0,0,0,85.91,10.91Z"/></g></g></svg>