<svg xmlns="http://www.w3.org/2000/svg" viewBox="0 0 291.68 174.42"><defs><style>.cls-1{fill:#a44193;}.cls-2{fill:#fff;}</style></defs><g id="レイヤー_2" data-name="レイヤー 2"><g id="レイヤー_1-2" data-name="レイヤー 1"><rect class="cls-1" width="291.68" height="174.42" rx="5"/><path class="cls-2" d="M29.62,20.75a.31.31,0,0,1-.16.11,10.29,10.29,0,0,1-2.84,3.84,5.17,5.17,0,0,0-.73-.49,7.24,7.24,0,0,0,2.38-3H19.69v-.81h9l.13-.06Zm-4.68,2.19c0,.09-.12.18-.28.2-.34,2.83-1.32,5.53-3.79,7a5.92,5.92,0,0,0-.7-.56c2.44-1.34,3.32-3.85,3.61-6.74Z"/><path class="cls-2" d="M33.32,26.29V20.47l1.14.07c0,.11-.1.19-.29.21v5.54ZM40,20c0,.12-.1.18-.29.2V24c0,2.52-.86,4.83-4.31,6.16a3.76,3.76,0,0,0-.62-.65c3.32-1.24,4.07-3.29,4.07-5.51V19.92Z"/><path class="cls-2" d="M47.07,21.53a.31.31,0,0,1-.31.18,18.13,18.13,0,0,1-2.88,7.69,3.68,3.68,0,0,0-.81-.43c1.35-1.63,2.4-4.68,2.79-7.69Zm6,7.8a40.06,40.06,0,0,0-3.19-7.73l.78-.37A39,39,0,0,1,54,29Zm-1.74-9.64a8.8,8.8,0,0,1,1.47,1.77l-.46.34A10.16,10.16,0,0,0,50.91,20Zm1.58-.63a9.86,9.86,0,0,1,1.48,1.77l-.47.34a9.61,9.61,0,0,0-1.46-1.76Z"/><path class="cls-2" d="M65.17,20.43a.26.26,0,0,1-.23.09h-.11a29.63,29.63,0,0,1-3.42,2.87,2.61,2.61,0,0,1,.28.13.3.3,0,0,1-.26.16v6.44h-.87V23.94A36,36,0,0,1,56,26.62a4.49,4.49,0,0,0-.51-.66,30.37,30.37,0,0,0,8.79-6.2Z"/><rect class="cls-2" x="18.56" y="44.24" width="254" height="1.5"/><path class="cls-2" d="M30.05,65.75v.8H25v2.67c0,.61-.17.85-.61,1a9.43,9.43,0,0,1-2.51.15,4,4,0,0,0-.35-.81c.57,0,1.12,0,1.54,0,1,0,1.11,0,1.11-.35V66.55h-5v-.8h5v-2H19.9V63h4.25V61c-1.32.15-2.71.27-4,.35a2.37,2.37,0,0,0-.21-.7,37.71,37.71,0,0,0,8.17-1.21l.69.68a.18.18,0,0,1-.14,0h-.11a21.73,21.73,0,0,1-3.33.7c0,.09-.09.12-.25.15V63h4.39v.77H25v2Z"/><path class="cls-2" d="M34.55,59.28c0,.08-.08.14-.24.17v2.43h2.11v.77H34.31v1.14c.47.45,1.75,1.88,2,2.24l-.54.7a19.43,19.43,0,0,0-1.51-2v5.61h-.8V64.26a12.81,12.81,0,0,1-2.18,3.87,5.72,5.72,0,0,0-.47-.76,11.81,11.81,0,0,0,2.53-4.72H31.12v-.77h2.39V59.22Zm3.52,9.27c0,.65.12.77.66.77h1.9c.59,0,.68-.54.76-2.56a2.16,2.16,0,0,0,.77.39c-.11,2.19-.33,3-1.48,3h-2c-1.07,0-1.4-.32-1.4-1.58V59.24l1.06.07c0,.09-.08.15-.24.17Z"/><path class="cls-2" d="M45.71,60.09c0,.14-.15.21-.39.2a28.74,28.74,0,0,0-.64,5.39,13.26,13.26,0,0,0,.16,2.38c.23-.59.74-1.85.91-2.27l.5.53c-.49,1.21-.85,1.89-1,2.43a2.09,2.09,0,0,0-.09.57,1.15,1.15,0,0,0,.06.37l-.85.15a13,13,0,0,1-.53-4.12,35.37,35.37,0,0,1,.63-5.84Zm7.64,8.77c-.43,0-.87,0-1.32,0a17.28,17.28,0,0,1-2.23-.13c-1.47-.22-2.16-1-2.16-2a3.68,3.68,0,0,1,1.13-2.31l.78.34a2.83,2.83,0,0,0-1,1.88c0,1.39,2,1.39,3.29,1.39.5,0,1,0,1.54-.06ZM47.8,61.53A39.15,39.15,0,0,0,53,61.08l.07.84a44.56,44.56,0,0,1-5.28.44Z"/><path class="cls-2" d="M62.71,63.14a3.45,3.45,0,0,1-.12.46c2.12.37,2.89,1.69,2.89,3.1,0,1.91-1.63,3.06-4.62,3.4a4.53,4.53,0,0,0-.33-.72c2.48-.24,4.08-1.11,4.08-2.65v-.09a2.38,2.38,0,0,0-2.28-2.29,9.44,9.44,0,0,1-2.39,3.53,3,3,0,0,0,.32.65l-.71.44a2.79,2.79,0,0,1-.29-.6,3.88,3.88,0,0,1-2.27.9,1.43,1.43,0,0,1-1.45-1.6c0-1.65,1.37-3,3.11-3.67,0-.62,0-1.3,0-2-2,0-2.25,0-2.64,0l0-.79c.62,0,1.66,0,2.69,0,0-.55,0-1.22.06-1.79l1.2.09c0,.12-.13.21-.31.24,0,.44-.06,1-.1,1.44a28,28,0,0,0,4.81-.51l.11.82a28.74,28.74,0,0,1-5,.46c0,.63,0,1.23,0,1.79a6.32,6.32,0,0,1,1.8-.27h.49a5.23,5.23,0,0,0,.12-.57ZM59,67.61a14.27,14.27,0,0,1-.35-2.8,3.36,3.36,0,0,0-2.32,2.73c0,.71.39.95.83.93A3.3,3.3,0,0,0,59,67.61Zm2.46-3.37a5.78,5.78,0,0,0-2,.29A11.86,11.86,0,0,0,59.74,67,7.76,7.76,0,0,0,61.49,64.24Z"/><path class="cls-2" d="M67.54,62a11.44,11.44,0,0,0,2.26-.18c0-.72,0-1.11.08-2.2l1.24.09c0,.13-.14.22-.34.24,0,.53-.1,1.27-.12,1.72l.37.14a6.09,6.09,0,0,0-.48,1.72c1.32-1.24,2.79-2.11,3.78-2.11S76,62.16,76,63.55c0,.15,0,.31,0,.47-.09,1-.21,2.55-.21,3.51,0,.72.09,1.1.59,1.1a3.31,3.31,0,0,0,1.6-.8c0,.24.12.73.16.91a3.57,3.57,0,0,1-1.88.78c-1,0-1.34-.6-1.34-1.85,0-.62.21-3.92.21-3.93,0-1-.36-1.51-.94-1.51-.9,0-2.41,1-3.66,2.29,0,1.74,0,3.87,0,5.5H69.7c0-.69,0-4.11,0-4.88A12.42,12.42,0,0,1,67.53,68l-.43-.75a12.43,12.43,0,0,0,2.64-3.62c0-.35,0-.68,0-1.06a11.88,11.88,0,0,1-2.21.2Z"/><path class="cls-2" d="M80.19,69.68a13.25,13.25,0,0,1-.52-4.23,31.2,31.2,0,0,1,.65-5.6l1.17.23a.33.33,0,0,1-.32.22,23.1,23.1,0,0,0-.69,5.17,13.6,13.6,0,0,0,.11,2.26c.26-.72.75-1.87,1-2.43l.54.5A13.94,13.94,0,0,0,80.89,69a1.54,1.54,0,0,0,.12.58Zm2.71-7c.28,0,2.22,0,3,0,0-1-.08-2-.11-2.9l1.22,0c0,.12-.12.22-.32.26,0,.76,0,1.63.06,2.55a11.49,11.49,0,0,0,2.36-.48l.1.83a10.54,10.54,0,0,1-2.43.44L87,66.8a9,9,0,0,1,2.45,1.52l-.47.77a7.37,7.37,0,0,0-2-1.37c0,1-.17,2.16-2,2.16-1.41,0-2.34-.67-2.34-1.73,0-1.22,1.22-1.76,2.34-1.76a4.18,4.18,0,0,1,1.14.16c0-.76-.11-1.93-.17-3.11-.38,0-.88.05-1.22.05H82.9Zm3.3,4.63A4,4,0,0,0,85,67.11c-.73,0-1.59.26-1.59,1s.7,1,1.59,1,1.21-.44,1.2-1.39C86.21,67.65,86.21,67.45,86.2,67.33Zm2.43-5.42a6.32,6.32,0,0,0-1.32-1.77l.42-.31a6.81,6.81,0,0,1,1.37,1.78ZM90,61a7.13,7.13,0,0,0-1.3-1.73l.41-.32a6.54,6.54,0,0,1,1.36,1.75Z"/><path class="cls-2" d="M91.61,67a22.77,22.77,0,0,1,2.71,2.65l-.72.66A25.8,25.8,0,0,0,91,67.6Z"/><path class="cls-2" d="M107.57,59.71c0,.07-.11.1-.23.1a12.34,12.34,0,0,1-1.48,1.71,8.13,8.13,0,0,1,.92,4.26c0,1.85-.17,3.34-.71,4.06-.24.34-.62.51-1.74.51l-.7,0a1.79,1.79,0,0,0-.28-.81c.38,0,.73,0,1,0,.64,0,.88,0,1.1-.28a7.56,7.56,0,0,0,.51-3.51,7.68,7.68,0,0,0,0-.84,10.9,10.9,0,0,1-2.56,2.56,2.41,2.41,0,0,0-.56-.64,9.06,9.06,0,0,0,3-3.06,6,6,0,0,0-.56-1.72,16.84,16.84,0,0,1-1.78,1.37,3.19,3.19,0,0,0-.56-.54,13.54,13.54,0,0,0,1.93-1.5,7.47,7.47,0,0,0-1.64-1.64l.57-.47a8.23,8.23,0,0,1,1.64,1.56,10,10,0,0,0,1.28-1.6ZM109,68.5c0,.65.15.79.88.79h2.64c.68,0,.79-.4.87-2.07a2.64,2.64,0,0,0,.76.36c-.12,1.86-.37,2.48-1.61,2.48h-2.72c-1.25,0-1.63-.32-1.63-1.58V60.17h5.22v4.77c0,1-.41,1-2.68,1a3.25,3.25,0,0,0-.28-.81c.53,0,1,0,1.37,0,.71,0,.78,0,.78-.25V61H109Z"/><path class="cls-2" d="M121.14,59.67c0,.1-.09.16-.25.18l0,.35c.13,1.69.85,7.29,5.42,9.37a2.56,2.56,0,0,0-.61.67c-3.24-1.54-4.58-4.8-5.15-7.28h0a10.13,10.13,0,0,1-5,7.27,3,3,0,0,0-.65-.61c5-2.51,5-8.41,5.12-10Z"/><path class="cls-2" d="M137.56,64.34l-.08,0a.24.24,0,0,1-.17-.07c-.92.3-2.25.79-3.24,1.23q0,.41,0,.93c0,.38,0,.82,0,1.28l-.88,0c0-.43.06-1,.06-1.45,0-.18,0-.35,0-.48-1.36.66-2.46,1.46-2.46,2.18s.83,1,2.48,1a28.2,28.2,0,0,0,3-.12l0,.8c-.71.07-1.79.09-3,.09-2.3,0-3.32-.55-3.32-1.77,0-1.06,1.39-2.07,3.19-3-.07-.76-.41-1.13-.89-1.13a4,4,0,0,0-2.86,1.69c-.34.37-.81.84-1.32,1.31l-.59-.59a8.39,8.39,0,0,0,3-4.43h-2.67v-.77h2.89a15.54,15.54,0,0,0,.32-1.72l1.18.14c0,.12-.12.2-.3.22-.09.48-.19.9-.3,1.33a16.28,16.28,0,0,0,4.12-.69l.15.8a17.72,17.72,0,0,1-4.5.67,9.19,9.19,0,0,1-.86,2h0a3.18,3.18,0,0,1,1.93-.78c.81,0,1.33.59,1.49,1.56,1-.46,2.28-1,3.23-1.32Z"/><path class="cls-2" d="M143,64.53l.1.7-1.45.51v3.63c0,.86-.39,1-2,1a3,3,0,0,0-.26-.75h1.23c.16,0,.23-.06.23-.22V66l-1.49.5a.21.21,0,0,1-.14.2l-.34-1c.54-.15,1.23-.35,2-.58V62.38H139v-.75h1.82V59.21l1,.06c0,.09-.07.14-.24.16v2.2H143v.75h-1.38V65Zm7.11-.55h-1.52a.32.32,0,0,1-.24.16V65.5h1.59v.75h-1.59V69.4c0,.92-.47.95-2.17.95a3.06,3.06,0,0,0-.28-.76h1.43c.16,0,.21,0,.21-.2V66.25h-4.36V65.5h4.36V64H142.9v-.76h3.17V61.5h-2.38v-.75h2.38V59.19l1,.08c0,.08-.08.14-.24.16v1.32h2.47v.75h-2.47v1.72h3.24Zm-4.73,5.12A10.13,10.13,0,0,0,143.87,67l.61-.39a12.83,12.83,0,0,1,1.54,2Z"/><path class="cls-2" d="M152.25,63.94c.22,0,.66-.16,1.07-.28a17.63,17.63,0,0,1,4.34-.86,2.76,2.76,0,0,1,3.07,2.82c0,2.64-2.62,3.61-5.82,3.87a6.43,6.43,0,0,0-.24-.74c2.82-.2,5.21-1,5.21-3.08a2.06,2.06,0,0,0-2.34-2.13,15,15,0,0,0-4,.87c-.27.1-.57.21-.77.27a.27.27,0,0,1-.19.2Z"/><path class="cls-2" d="M163.54,60.83c.9,0,8.29-.57,9.85-.58v.9H173a3.44,3.44,0,0,0-2.05.61c-1.8,1.08-3.54,3-3.54,4.56s1.17,2.67,4.15,3.06l-.4.83c-3.4-.49-4.68-1.76-4.68-3.89,0-1.69,1.67-3.75,3.87-5.12-1.27.08-4.86.35-6.41.5a.34.34,0,0,1-.26.19Z"/><path class="cls-2" d="M177,60.83c0,.1-.16.18-.32.19a19,19,0,0,0-.23,3c0,.45,0,.88.05,1.26.14,2,1,3.28,1.89,3.27.48,0,1.1-1.23,1.54-2.57a3.85,3.85,0,0,0,.69.51c-.55,1.62-1.25,2.94-2.24,3-1.52,0-2.58-1.83-2.75-4.13,0-.45,0-1,0-1.5a28.56,28.56,0,0,1,.18-3.22ZM185,66.4a6,6,0,0,0-3-4.51l.53-.64a6.58,6.58,0,0,1,3.38,4.88Z"/><path class="cls-2" d="M187.54,60.83c.9,0,8.29-.57,9.85-.58v.9H197a3.44,3.44,0,0,0-2.05.61c-1.8,1.08-3.54,3-3.54,4.56s1.17,2.67,4.15,3.06l-.4.83c-3.4-.49-4.68-1.76-4.68-3.89,0-1.69,1.67-3.75,3.87-5.12-1.27.08-4.86.35-6.41.5a.34.34,0,0,1-.26.19Z"/><path class="cls-2" d="M206,65.78c-.77.08-1.86.14-2.87.14,0,.42-.07.89-.07,1.12,0,1.92,1.27,2.07,2.39,2.07,1.88,0,2.82-.54,2.82-1.64a3.82,3.82,0,0,0-1-2.21,5.36,5.36,0,0,0,.77-.3,4.54,4.54,0,0,1,1.1,2.64c0,2-2.25,2.32-3.7,2.32-1.15,0-3.21-.09-3.21-2.88a8.15,8.15,0,0,1,.07-1.14c-1,0-2.63-.1-2.63-1.33a2,2,0,0,1,1-1.55l.64.37c-.53.33-.84.72-.84,1,0,.63,1,.66,1.87.68.08-.8.19-1.75.3-2.69a8,8,0,0,1-2.52-.66l.21-.78a7.79,7.79,0,0,0,2.4.65c.1-.75.18-1.52.27-2.16l1.24.16c0,.14-.16.23-.38.24-.08.5-.18,1.16-.28,1.85q.53,0,1.11,0c.45,0,.92,0,1.35,0l0,.79c-.36,0-.77,0-1.18,0s-.93,0-1.35,0c-.12.9-.23,1.83-.32,2.64A24,24,0,0,0,206,65Z"/><path class="cls-2" d="M218.26,67.88v-8.8h4v.62h-3.37v8.18Z"/><path class="cls-2" d="M227.57,59.71c0,.07-.11.1-.23.1a12.34,12.34,0,0,1-1.48,1.71,8.13,8.13,0,0,1,.92,4.26c0,1.85-.17,3.34-.71,4.06-.24.34-.62.51-1.74.51l-.7,0a1.79,1.79,0,0,0-.28-.81c.38,0,.73,0,1,0,.64,0,.88,0,1.1-.28a7.56,7.56,0,0,0,.51-3.51,7.68,7.68,0,0,0,0-.84,10.9,10.9,0,0,1-2.56,2.56,2.41,2.41,0,0,0-.56-.64,9.06,9.06,0,0,0,3-3.06,6,6,0,0,0-.56-1.72,16.84,16.84,0,0,1-1.78,1.37,3.19,3.19,0,0,0-.56-.54,13.54,13.54,0,0,0,1.93-1.5,7.47,7.47,0,0,0-1.64-1.64l.57-.47a8.23,8.23,0,0,1,1.64,1.56,10,10,0,0,0,1.28-1.6ZM229,68.5c0,.65.15.79.88.79h2.64c.68,0,.79-.4.87-2.07a2.64,2.64,0,0,0,.76.36c-.12,1.86-.37,2.48-1.61,2.48h-2.72c-1.25,0-1.63-.32-1.63-1.58V60.17h5.22v4.77c0,1-.41,1-2.68,1a3.25,3.25,0,0,0-.28-.81c.53,0,1,0,1.37,0,.71,0,.78,0,.78-.25V61H229Z"/><path class="cls-2" d="M241.14,59.67c0,.1-.09.16-.25.18l0,.35c.13,1.69.85,7.29,5.42,9.37a2.56,2.56,0,0,0-.61.67c-3.24-1.54-4.58-4.8-5.15-7.28h0a10.13,10.13,0,0,1-5,7.27,3,3,0,0,0-.65-.61c5-2.51,5-8.41,5.12-10Z"/><path class="cls-2" d="M247.54,60.83c.9,0,8.29-.57,9.85-.58v.9H257a3.44,3.44,0,0,0-2,.61c-1.8,1.08-3.54,3-3.54,4.56s1.17,2.67,4.15,3.06l-.4.83c-3.4-.49-4.68-1.76-4.68-3.89,0-1.69,1.67-3.75,3.87-5.12-1.32.09-4.86.35-6.41.5a.34.34,0,0,1-.26.19Zm7.77,2.36A9.13,9.13,0,0,1,257,64.84l-.46.38a8.06,8.06,0,0,0-1.58-1.67Zm1.3-1.06a7.51,7.51,0,0,1,1.63,1.66l-.46.36a8.15,8.15,0,0,0-1.58-1.66Z"/><path class="cls-2" d="M260.18,69.68a13.25,13.25,0,0,1-.52-4.23,30.31,30.31,0,0,1,.65-5.6l1.16.23a.3.3,0,0,1-.31.22,23.1,23.1,0,0,0-.69,5.17,15.07,15.07,0,0,0,.1,2.26c.27-.72.75-1.87,1-2.43l.54.5a14,14,0,0,0-1.24,3.2,1.76,1.76,0,0,0,.12.58Zm3-7.07c1,0,2,0,3,0-.05-1-.09-1.91-.11-2.8l1.21,0c0,.12-.12.22-.31.26,0,.76,0,1.54.06,2.45a10.68,10.68,0,0,0,2.35-.47l.11.83a12,12,0,0,1-2.43.44c.05,1.33.11,2.73.15,3.5a8.8,8.8,0,0,1,2.44,1.52l-.46.77a7.21,7.21,0,0,0-1.95-1.37c0,1-.2,2.16-2,2.16-1.4,0-2.34-.67-2.34-1.73,0-1.22,1.24-1.76,2.34-1.76a4.08,4.08,0,0,1,1.14.16c0-.76-.11-2-.17-3.19-.37,0-.87,0-1.22,0h-1.82Zm3.29,4.72a4,4,0,0,0-1.19-.22c-.73,0-1.6.26-1.6,1s.72,1,1.59,1,1.21-.44,1.21-1.39Z"/><path class="cls-2" d="M26.71,84.14a3.45,3.45,0,0,1-.12.46c2.12.37,2.89,1.69,2.89,3.1,0,1.91-1.63,3.06-4.62,3.4a4.53,4.53,0,0,0-.33-.72c2.48-.24,4.08-1.11,4.08-2.65v-.09a2.38,2.38,0,0,0-2.28-2.29,9.44,9.44,0,0,1-2.39,3.53,3,3,0,0,0,.32.65l-.71.44a2.79,2.79,0,0,1-.29-.6,3.88,3.88,0,0,1-2.27.9,1.43,1.43,0,0,1-1.45-1.6c0-1.65,1.37-3,3.11-3.67,0-.62,0-1.3,0-2-2,0-2.25,0-2.64,0l0-.79c.62,0,1.66,0,2.69,0,0-.55,0-1.22.06-1.79l1.2.09c0,.12-.13.21-.31.24,0,.44-.06,1-.1,1.44a28,28,0,0,0,4.81-.51l.11.82a28.74,28.74,0,0,1-4.95.46c0,.63,0,1.23,0,1.79a6.32,6.32,0,0,1,1.8-.27h.49a5.23,5.23,0,0,0,.12-.57ZM23,88.61a14.27,14.27,0,0,1-.35-2.8,3.36,3.36,0,0,0-2.32,2.73c0,.71.39.95.83.93A3.3,3.3,0,0,0,23,88.61Zm2.46-3.37a5.78,5.78,0,0,0-2,.29A11.86,11.86,0,0,0,23.74,88,7.76,7.76,0,0,0,25.49,85.24Z"/><path class="cls-2" d="M33.51,87.28A7.88,7.88,0,0,1,33.16,85a21.19,21.19,0,0,1,.41-4l1.2.2c-.05.16-.19.2-.35.21A17.48,17.48,0,0,0,34,85a4,4,0,0,0,0,.65A20.12,20.12,0,0,1,35,83.76a6,6,0,0,0,.47.52c-.89,1.6-1.15,2-1.15,2.56a1.13,1.13,0,0,0,0,.3Zm6.43-6.52c0,.14-.11.2-.31.26.08,1,.2,2.78.2,4.16,0,2.32-.85,4.41-4.46,5.9a6.3,6.3,0,0,0-.6-.69c3.27-1.25,4.15-3.23,4.15-5.19,0-1.48-.15-3.22-.28-4.5Z"/><path class="cls-2" d="M44,82.07c.74,0,1.74,0,2.56,0l1.65,0c0-.58,0-1.25,0-1.67l1.21.06c0,.15-.12.22-.33.25,0,.2,0,1.12,0,1.32a24,24,0,0,0,4-.46l.1.79a24.68,24.68,0,0,1-4.09.45c0,.72,0,1.47,0,2.21a20,20,0,0,0,3.38-.47l.1.78a22.42,22.42,0,0,1-3.47.42l.1,2a13.43,13.43,0,0,1,3.53,1.88l-.53.73a11.87,11.87,0,0,0-3-1.77c0,.2,0,.41,0,.57,0,1.14-.7,1.8-2.15,1.8s-2.64-.63-2.64-1.75,1.31-1.79,2.65-1.79a5.12,5.12,0,0,1,1.26.14c0-.51,0-1.14-.05-1.78l-1.16,0c-2.05,0-2.63-.32-2.63-1,0-.46.35-.83,1.12-1.32l.57.37c-.54.3-.82.57-.82.81s.56.43,2.08.43h.81l-.08-2.22c-.51,0-1.11,0-1.65,0-.77,0-1.86,0-2.58,0Zm4.44,6.24A5.16,5.16,0,0,0,47,88.12c-.91,0-1.83.37-1.83,1.09s.84,1.06,1.88,1.06S48.4,89.85,48.4,89Z"/><path class="cls-2" d="M63.45,80.64c0,.12-.09.18-.27.23,0,.84.09,1.82.11,2.72l2.57-.41.07.84c-.72.07-1.66.2-2.63.36A15,15,0,0,1,63.17,87a1.31,1.31,0,0,1-1.34,1.12A4.14,4.14,0,0,1,60,87.63a4.46,4.46,0,0,0,.14-.71,3.74,3.74,0,0,0,1.57.47c.72,0,.83-.71.77-2.89l-3.91.66c0,1.14.05,2.23.1,2.9.14,1.83,1,1.93,2.77,1.93a26,26,0,0,0,3.14-.18l0,.82c-.86.09-2.07.13-3.07.13-1.86,0-3.5-.05-3.7-2.63-.06-.67-.08-1.71-.11-2.83l-2.34.45-.13-.81c.64-.09,1.63-.27,2.46-.4,0-1.05,0-2.17,0-3.09l1.18.11c0,.13-.1.21-.3.23,0,.73,0,1.69,0,2.59l3.89-.65c0-1-.08-2.18-.16-3.15Z"/><path class="cls-2" d="M67.15,90.51C68,88,69.51,83.72,70,82.45c.22-.65.54-1.56.62-1.86l1.3.34c-.06.16-.23.22-.47.22-.66,1.65-1.68,4.45-2.12,5.65h0a3.81,3.81,0,0,1,2.62-1.47c1,0,1.55.71,1.52,1.82l0,1.43c0,.9.47,1.39,1.25,1.39,1.08,0,2.07-1.24,2.62-3.3a5.6,5.6,0,0,0,.78.45c-.66,2.29-1.84,3.72-3.44,3.72a1.91,1.91,0,0,1-2.1-2c0-.22,0-1.33,0-1.58,0-.75-.31-1.15-.84-1.15-1.38,0-2.77,2-3.07,2.78-.17.42-.43,1.19-.66,1.89Z"/><path class="cls-2" d="M82.34,89.67A1.68,1.68,0,1,1,80.66,88,1.69,1.69,0,0,1,82.34,89.67Zm-.44,0a1.24,1.24,0,1,0-1.24,1.24A1.24,1.24,0,0,0,81.9,89.67Z"/><path class="cls-2" d="M89,82.54v8.81H85v-.64h3.37V82.54Z"/><path class="cls-2" d="M106.36,84.46a.16.16,0,0,1-.1,0,.46.46,0,0,1-.25-.08c-3.56,1-6.79,2.62-6.78,4.23,0,1.15,1.28,1.54,3.22,1.54a29.18,29.18,0,0,0,4.24-.27l.08.87a37.36,37.36,0,0,1-4.3.22c-2.37,0-4.1-.55-4.11-2.32,0-1.28,1.27-2.41,3.15-3.38-.41-.73-.55-2.12-.55-4.83l1.32.11c0,.15-.13.25-.37.28a10.94,10.94,0,0,0,.39,4.06,33.32,33.32,0,0,1,3.75-1.44Z"/><path class="cls-2" d="M115.3,82a8.41,8.41,0,0,1-.9,1l.89,0a.32.32,0,0,1-.23.17,13.75,13.75,0,0,0,5.22,3.32,4.42,4.42,0,0,0-.48.68,16.57,16.57,0,0,1-2.67-1.38v.58h-5v-.54a18.46,18.46,0,0,1-2.76,1.52,3.6,3.6,0,0,0-.45-.62A13.5,13.5,0,0,0,114,83.23c-.16-.12-.38-.28-.53-.37a5.84,5.84,0,0,0,.91-.89h-2.27a8.28,8.28,0,0,1,.69,1.43l-.74.25a8.58,8.58,0,0,0-.76-1.68h-.48a9.21,9.21,0,0,1-1.18,1.7,3.87,3.87,0,0,0-.61-.42,9.22,9.22,0,0,0,1.8-3.24l.93.29c0,.1-.13.12-.25.11a7.53,7.53,0,0,1-.34.85h3.27v.64A6.93,6.93,0,0,0,115.48,80l1,.28a.25.25,0,0,1-.25.12,6.77,6.77,0,0,1-.43.85H120V82h-2.72a7.42,7.42,0,0,1,.81,1.38l-.75.27a8,8,0,0,0-1-1.65Zm-4.22,9.38V87.52h7v3.79h-.81v-.37h-5.45v.41Zm6.23-3.11h-5.45v2h5.45Zm-.37-2.52a12.51,12.51,0,0,1-2.4-2,11.4,11.4,0,0,1-2.23,2Z"/><path class="cls-2" d="M126,87a2.55,2.55,0,0,1,1.19-.28,1.09,1.09,0,0,1,1.06,1.22c0,.32,0,.69,0,1,0,1.22.72,1.22,1.75,1.22a10.6,10.6,0,0,0,1.56-.11,7.37,7.37,0,0,0,0,.85,15.34,15.34,0,0,1-1.56.08,8.43,8.43,0,0,1-1.25-.08,1.51,1.51,0,0,1-1.37-1.47c0-.28,0-.82,0-1.18s-.19-.79-.61-.79a3.43,3.43,0,0,0-2.15,1c-.7.68-2,2-2.41,2.48a6.21,6.21,0,0,0-.65-.64c1.14-1.16,4.91-4.82,6.13-6-.88.09-3.6.24-5,.32a.21.21,0,0,1-.19.13l-.07-1c1.68,0,4.83-.21,6-.31l.18-.11.7.63a.48.48,0,0,1-.29.1c-.75.71-2.23,2.06-3.12,2.91Zm3-4.8a26,26,0,0,0-5.13-.8l.18-.81a25.35,25.35,0,0,1,5.18.79Z"/><path class="cls-2" d="M136.25,82.79c-.05.12-.14.17-.31.2a13.41,13.41,0,0,1-.49,3.54h0a8.15,8.15,0,0,1,4.42-1.48c1.84,0,3,1,3,2.63,0,2.21-1.86,3.19-6.5,3.38a3.65,3.65,0,0,0-.3-.79c4.18-.18,5.86-.86,5.9-2.58,0-1.15-.79-1.85-2.19-1.85a6.32,6.32,0,0,0-4.56,1.92l-.82-.39a13.38,13.38,0,0,0,.69-4.73Zm.21-2.33a19.34,19.34,0,0,1,4.65,1.05l-.3.83a19.49,19.49,0,0,0-4.61-1.09Z"/><path class="cls-2" d="M145.54,83a11.44,11.44,0,0,0,2.26-.18c0-.72,0-1.11.08-2.2l1.24.09c0,.13-.14.22-.34.24-.05.53-.1,1.27-.12,1.72l.37.14a6.09,6.09,0,0,0-.48,1.72c1.32-1.24,2.79-2.11,3.78-2.11s1.69.79,1.69,2.18c0,.15,0,.31,0,.47-.09,1-.21,2.55-.21,3.51,0,.72.09,1.1.59,1.1a3.31,3.31,0,0,0,1.6-.8c0,.24.12.73.16.91a3.57,3.57,0,0,1-1.88.78c-1,0-1.34-.6-1.34-1.85,0-.62.21-3.92.21-3.93,0-1-.36-1.51-.94-1.51-.9,0-2.41,1-3.66,2.29,0,1.74,0,3.87,0,5.5h-.84c0-.69,0-4.11,0-4.88A12.42,12.42,0,0,1,145.53,89l-.43-.75a12.43,12.43,0,0,0,2.64-3.62c0-.35,0-.68,0-1.06a11.88,11.88,0,0,1-2.21.2Z"/><path class="cls-2" d="M161.07,85.47a7.23,7.23,0,0,1,3-.69,2.79,2.79,0,0,1,3.11,2.87c0,2.18-1.91,3.37-4.32,3.37-1.56,0-2.63-.62-2.63-1.67a1.82,1.82,0,0,1,2-1.61,2.53,2.53,0,0,1,2.45,2.17,2.35,2.35,0,0,0,1.65-2.24c0-1.3-1-2.13-2.47-2.13a6.8,6.8,0,0,0-4.35,1.58,14.65,14.65,0,0,0-1.15,1.21l-.61-.62c1.08-1.12,4.51-4.4,6.14-5.92-.7.1-3.1.19-4.46.24a.41.41,0,0,1-.26.18l-.09-1c1.62,0,4.71-.13,5.59-.26l.18-.09.63.78a.55.55,0,0,1-.29.11c-.85.7-3.13,2.83-4.06,3.73Zm1.65,4.8a5.35,5.35,0,0,0,1.09-.12,1.84,1.84,0,0,0-1.7-1.7c-.62,0-1.17.33-1.17.88C160.94,90.07,161.93,90.27,162.72,90.27Z"/><path class="cls-2" d="M172.34,89.67A1.68,1.68,0,1,1,170.66,88,1.69,1.69,0,0,1,172.34,89.67Zm-.44,0a1.24,1.24,0,1,0-1.24,1.24A1.24,1.24,0,0,0,171.9,89.67Z"/><path class="cls-2" d="M190.48,86.32l1.07.08c0,.08-.08.14-.24.15v4.77h-.83v-.75h-7.8v.79h-.8v-5l1.05.06c0,.1-.08.16-.25.17v3.23h3.41V85.52h-3.76V81.37l1.06.07c0,.07-.08.13-.25.16v3.13h3V80.25l1.07.08c0,.08-.09.14-.24.16v4.24H190V81.36l1.06.07c0,.08-.07.14-.24.17v3.92h-3.89v4.26h3.56Z"/><path class="cls-2" d="M196.91,80.72c0,.15-.13.23-.37.27-.1,1.39-.22,4.57-.22,6.34s.89,2.65,2.4,2.65A5.83,5.83,0,0,0,203,87.7a5.08,5.08,0,0,0,.54.71,6.52,6.52,0,0,1-4.87,2.43c-2.18,0-3.3-1.25-3.3-3.52,0-1.51.11-5.23.19-6.71Z"/><path class="cls-2" d="M205.54,81.83c.9,0,8.29-.57,9.85-.58v.9H215a3.44,3.44,0,0,0-2.05.61c-1.8,1.08-3.54,3-3.54,4.56s1.17,2.67,4.15,3.06l-.4.83c-3.4-.49-4.68-1.76-4.68-3.89,0-1.69,1.67-3.75,3.87-5.12-1.27.08-4.86.35-6.41.5a.34.34,0,0,1-.26.19Z"/><path class="cls-2" d="M224,86.78c-.77.08-1.86.14-2.87.14,0,.42-.07.89-.07,1.12,0,1.92,1.27,2.07,2.39,2.07,1.88,0,2.82-.54,2.82-1.64a3.82,3.82,0,0,0-1-2.21,5.36,5.36,0,0,0,.77-.3,4.54,4.54,0,0,1,1.1,2.64c0,2-2.25,2.32-3.7,2.32-1.15,0-3.21-.09-3.21-2.88a8.15,8.15,0,0,1,.07-1.14c-1,0-2.63-.1-2.63-1.33a2,2,0,0,1,1-1.55l.64.37c-.53.33-.84.72-.84,1,0,.63,1,.66,1.87.68.08-.8.19-1.75.3-2.69a8,8,0,0,1-2.52-.66l.21-.78a7.79,7.79,0,0,0,2.4.65c.1-.75.18-1.52.27-2.16l1.24.16c0,.14-.16.23-.38.24-.08.5-.18,1.16-.28,1.85q.53,0,1.11,0c.45,0,.92,0,1.35-.05l0,.79c-.36,0-.77,0-1.18,0s-.93,0-1.35,0c-.12.9-.23,1.83-.32,2.64A24,24,0,0,0,224,86Z"/><path class="cls-2" d="M230.59,84.51a13.72,13.72,0,0,1-1.46,1.93,4.63,4.63,0,0,0-.41-.75,16.14,16.14,0,0,0,3.07-5.4l.94.32c0,.09-.12.12-.27.11a23.68,23.68,0,0,1-1.15,2.57l.29.08c0,.09-.07.13-.22.16v7.84h-.79Zm9.57-3.1v.78h-.93v8c0,.62-.15.87-.58,1a10.11,10.11,0,0,1-2.44.15,2.88,2.88,0,0,0-.3-.83c.55,0,1.08,0,1.49,0,1,0,1,0,1-.34v-8h-5.86v-.78Zm-3.42,6.74h-3V89H233V84h3.77ZM236,84.7h-2.27v2.73H236Z"/><path class="cls-2" d="M248,86.78c-.77.08-1.86.14-2.87.14,0,.42-.07.89-.07,1.12,0,1.92,1.27,2.07,2.39,2.07,1.88,0,2.82-.54,2.82-1.64a3.82,3.82,0,0,0-1-2.21,5.36,5.36,0,0,0,.77-.3,4.54,4.54,0,0,1,1.1,2.64c0,2-2.25,2.32-3.7,2.32-1.15,0-3.21-.09-3.21-2.88a8.15,8.15,0,0,1,.07-1.14c-1,0-2.63-.1-2.63-1.33a2,2,0,0,1,1-1.55l.64.37c-.53.33-.84.72-.84,1,0,.63,1,.66,1.87.68.08-.8.19-1.75.3-2.69a8,8,0,0,1-2.52-.66l.21-.78a7.79,7.79,0,0,0,2.4.65c.1-.75.18-1.52.27-2.16l1.24.16c0,.14-.16.23-.38.24-.08.5-.18,1.16-.28,1.85q.53,0,1.11,0c.45,0,.92,0,1.35-.05l0,.79c-.36,0-.77,0-1.18,0s-.93,0-1.35,0c-.12.9-.23,1.83-.32,2.64A24,24,0,0,0,248,86Z"/><path class="cls-2" d="M256.28,87.33v2.5a7.57,7.57,0,0,0,3,.43c.53,0,4.33,0,5,0a2.6,2.6,0,0,0-.33.79h-4.67c-2.69,0-4.14-.43-5-2.19a7,7,0,0,1-.78,2.59,3.39,3.39,0,0,0-.62-.37c.68-1.1.84-3.17.88-5.35l1,.12c0,.09-.1.14-.23.16,0,.47,0,1-.09,1.42a4,4,0,0,0,1.13,2V84.87H253v-.73h2.49v-1.7h-2.12v-.73h2.12V80.19l1,.06c0,.09-.08.15-.23.17v1.29h2v.73h-2v1.7h2.22v.73h-2.22v1.74h2v.72Zm6.37-3.13V81.48H258.8v-.73h4.63v4.59h-.78v-.42h-2.74v3.19c0,.38.12.46.72.46h2.1c.53,0,.62-.23.68-1.73a2.59,2.59,0,0,0,.72.32c-.11,1.72-.33,2.15-1.35,2.15h-2.22c-1.09,0-1.43-.24-1.43-1.2V84.2Z"/><path class="cls-2" d="M29.28,105.5a17.86,17.86,0,0,1-3.62.74,4.43,4.43,0,0,0,2,1.89l-.48.68c-.17-.08-.48-.23-.7-.36a4.83,4.83,0,0,0-1.41-.18l-.49,0-.17-.66a8.31,8.31,0,0,1,1.34.05,6.24,6.24,0,0,1-.95-1.35,31.31,31.31,0,0,1-3.21.12H19.78v-.76l1.83,0c1,0,2,0,2.93-.08-.13-.37-.32-1.06-.47-1.59-.48,0-1,.07-1.51.07-.65,0-1.47,0-2,0v-.74c.72,0,1.51,0,2,0s.92,0,1.38-.06c-.11-.56-.23-1.22-.32-1.89h1.23c0,.15-.11.23-.32.27.07.51.15,1.07.25,1.53a12,12,0,0,0,3.21-.69l.21.74a14.27,14.27,0,0,1-3.26.68,14.42,14.42,0,0,0,.45,1.58,18,18,0,0,0,3.74-.79Zm-2.11,6.34c-.66,0-1.45.08-2.64.08-1.94,0-3.45-.64-3.43-2a2.53,2.53,0,0,1,1.42-1.9l.54.55c-.7.37-1.11.88-1.11,1.33,0,.86,1.06,1.23,2.58,1.24.9,0,1.85-.05,2.66-.11Z"/><path class="cls-2" d="M35.63,101.55c0,.1-.15.2-.37.21-.08.53-.19,1.15-.3,1.62a16.58,16.58,0,0,0,3.53-.59l.13.82a25.33,25.33,0,0,1-3.81.57,17.85,17.85,0,0,1-2.55,5.9l-.8-.32a15.86,15.86,0,0,0,2.43-5.56H31.51v-.77h1.42l1.11,0a19.81,19.81,0,0,0,.33-2Zm3.19,5.11c0,1,.09,1.63.16,2.46a12.38,12.38,0,0,1,2.55,1.39l-.43.77A11.58,11.58,0,0,0,39,110c0,1.2-.48,2.14-2.24,2.14-1.34,0-2.35-.6-2.34-1.73s1.26-1.78,2.36-1.78a5.13,5.13,0,0,1,1.35.22c0-.77-.1-1.55-.1-2.11Zm-.66,3a4,4,0,0,0-1.42-.27c-.72,0-1.58.28-1.59,1s.67,1,1.61,1,1.42-.42,1.42-1.21A5,5,0,0,0,38.16,109.66Zm3.29-4.23a17,17,0,0,0-4.25.59l-.13-.76a16.59,16.59,0,0,1,4.33-.65Z"/><path class="cls-2" d="M45,102.83c0,.1-.16.18-.32.19a19,19,0,0,0-.23,3c0,.45,0,.88.05,1.26.14,2,1,3.28,1.89,3.27.48,0,1.1-1.23,1.54-2.57a3.85,3.85,0,0,0,.69.51c-.55,1.62-1.25,2.94-2.24,3-1.52,0-2.58-1.83-2.75-4.13,0-.45,0-1,0-1.5a28.56,28.56,0,0,1,.18-3.22ZM53,108.4a6,6,0,0,0-3-4.51l.53-.64a6.58,6.58,0,0,1,3.38,4.88Z"/><path class="cls-2" d="M58.34,110.67A1.68,1.68,0,1,1,56.66,109,1.69,1.69,0,0,1,58.34,110.67Zm-.44,0a1.24,1.24,0,1,0-1.24,1.24A1.24,1.24,0,0,0,57.9,110.67Z"/></g></g></svg>