<svg xmlns="http://www.w3.org/2000/svg" viewBox="0 0 292 173.81"><defs><style>.cls-1{fill:#d6cc00;}.cls-2{fill:#fff;}</style></defs><g id="レイヤー_2" data-name="レイヤー 2"><g id="レイヤー_1-2" data-name="レイヤー 1"><rect class="cls-1" width="292" height="173.81" rx="5"/><path class="cls-2" d="M18.25,21.84q0,.14-.27.12a14.13,14.13,0,0,1-2.57,4.1,5.24,5.24,0,0,0-.71-.49,11.07,11.07,0,0,0,2.49-4Zm6.14,3.62c0,.09-.11.12-.25.14C23,28.8,20.55,30.48,16,31.18a3.36,3.36,0,0,0-.43-.79c4.35-.57,6.7-2.11,7.76-5.2ZM19.87,20l1.06.06c0,.08-.08.14-.24.17v6c0,.52-.13.76-.51.91a8,8,0,0,1-2.08.14,2.53,2.53,0,0,0-.3-.83l1.29,0c.72,0,.78,0,.78-.27Zm5.25,5.87a17.71,17.71,0,0,0-2.61-4.08l.72-.36a18,18,0,0,1,2.68,4Z"/><path class="cls-2" d="M37.79,27.62v.79H33.31v2.75h-.82V28.41H26.81v-.79h2v-3.3h3.67v-2H29.4a11.25,11.25,0,0,1-1.92,2.42,5.76,5.76,0,0,0-.65-.53A10.92,10.92,0,0,0,29.62,20l1,.32a.21.21,0,0,1-.27.11c-.16.4-.34.78-.54,1.17h7.39v.79H33.31v2H37v.77H33.31v2.53Zm-8.15,0h2.85V25.09H29.64Z"/><path class="cls-2" d="M16.21,62.17a14.51,14.51,0,0,1-1.37,2,5.63,5.63,0,0,0-.42-.76A16.33,16.33,0,0,0,17.28,58l.94.31c0,.09-.12.13-.26.12a20.71,20.71,0,0,1-1,2.38l.28.08c0,.07-.09.13-.24.16v8h-.78Zm3.54,5c0,.71.17.87,1.06.87h3.3c.82,0,.95-.38,1.07-1.92a2.13,2.13,0,0,0,.74.33c-.15,1.76-.43,2.34-1.78,2.34H20.81c-1.42,0-1.85-.33-1.85-1.63V63.09l-1.35.47-.25-.71L19,62.3V59l1,.07c0,.08-.08.13-.23.16V62l2-.69V58.06l1,.07c0,.08-.09.13-.23.15v2.8l2.18-.75a.85.85,0,0,1,.17-.14l.65.25a.46.46,0,0,1-.12.12A44.41,44.41,0,0,1,25.25,65c-.13.83-.62.94-2,.89a2.38,2.38,0,0,0-.21-.76c.39,0,.89,0,1,0s.34,0,.42-.36a29.45,29.45,0,0,0,.12-3.67l-2.1.73v4.38h-.78V62.13l-2,.7Z"/><path class="cls-2" d="M33,57.91a.26.26,0,0,1-.24.18,16.77,16.77,0,0,0,5.18,4.35,4.16,4.16,0,0,0-.54.71,18.45,18.45,0,0,1-5.14-4.47,16.64,16.64,0,0,1-5,4.56,4.12,4.12,0,0,0-.5-.64,14.84,14.84,0,0,0,5.11-4.75Zm-.31,7.94V68H37.5v.74H27.13V68h4.7v-2.1H28.14v-.73h3.69v-2H28.66V62.4H36v.73h-3.3v2h3.74v.73Z"/><path class="cls-2" d="M43.16,67.54a.45.45,0,0,1-.24.09A14.66,14.66,0,0,1,39.38,69a4.15,4.15,0,0,0-.59-.6,12.32,12.32,0,0,0,3.54-1.39ZM40,61.82h8.58V67H40Zm.68-3.44h7.2v2.7h-7.2Zm.12,4v.93h6.95v-.93Zm0,1.51v.94h6.95v-.94Zm0,1.53v.94h6.95v-.94Zm.69-6.42v1.34h5.55V59.05Zm7.66,10a31.32,31.32,0,0,0-3.84-1.45l.71-.52a38.29,38.29,0,0,1,3.82,1.39Z"/><path class="cls-2" d="M53.44,58.79c0,.13-.15.2-.39.19a28.74,28.74,0,0,0-.64,5.4,13.14,13.14,0,0,0,.16,2.37c.23-.59.74-1.85.91-2.27L54,65c-.49,1.21-.85,1.9-1,2.44a2,2,0,0,0-.09.56,1.15,1.15,0,0,0,.06.37l-.85.16a13,13,0,0,1-.53-4.13,34.53,34.53,0,0,1,.64-5.84Zm7.64,8.76c-.43,0-.87,0-1.32,0a17.28,17.28,0,0,1-2.23-.13c-1.47-.22-2.15-1-2.15-2a3.66,3.66,0,0,1,1.12-2.32l.78.34a2.83,2.83,0,0,0-1,1.88c0,1.39,2,1.39,3.29,1.39.5,0,1,0,1.55-.06Zm-5.55-7.32a39,39,0,0,0,5.23-.46l.07.84a44.4,44.4,0,0,1-5.27.44Z"/><path class="cls-2" d="M66.73,63.22l.11.7-1.46.52v3.62c0,.86-.39,1-2,1a3,3,0,0,0-.26-.74h1.23c.16,0,.23-.06.23-.23V64.72l-1.48.51a.19.19,0,0,1-.15.19l-.33-1c.54-.14,1.22-.35,2-.57V61.08H62.77v-.76h1.82V57.9l1,.06c0,.1-.07.14-.24.17v2.19h1.38v.76H65.38v2.56Zm1.51-1.85c0,.42.14.5,1,.5h3c.71,0,.83-.22.9-1.56a2.1,2.1,0,0,0,.74.3c-.12,1.61-.39,2-1.59,2H69.2c-1.38,0-1.76-.25-1.76-1.24V57.9l1,.06c0,.08-.09.14-.24.17v1.63a23.44,23.44,0,0,0,4.06-1.15l.7.63a.17.17,0,0,1-.14,0h-.1a27.86,27.86,0,0,1-4.52,1.15ZM67.63,69V63.69h5.5V69h-.8v-.49H68.39V69Zm4.7-4.65H68.39v1.33h3.94Zm-3.94,3.37h3.94V66.4H68.39Z"/><path class="cls-2" d="M77.85,64.2c0,.08-.12.11-.26.11A11.37,11.37,0,0,1,75.18,68a5.68,5.68,0,0,0-.67-.47,9.51,9.51,0,0,0,2.32-3.64Zm7.8-1.59h-5V68c0,.55-.13.79-.52.92A9.48,9.48,0,0,1,78,69a3.12,3.12,0,0,0-.3-.8l1.34,0c.78,0,.83,0,.83-.27V62.61H75v-.79h10.7Zm-1.07-3.82v.79H76v-.79Zm.47,9.15a14.94,14.94,0,0,0-2.18-3.77l.74-.32a15.37,15.37,0,0,1,2.25,3.72Z"/><path class="cls-2" d="M90.64,58.41c0,.15-.13.23-.37.27-.09,1.39-.21,4.57-.21,6.34s.88,2.65,2.39,2.65a5.85,5.85,0,0,0,4.32-2.27,5,5,0,0,0,.54.7,6.48,6.48,0,0,1-4.87,2.44c-2.18,0-3.3-1.26-3.3-3.53,0-1.51.11-5.23.2-6.7Z"/><path class="cls-2" d="M99.27,59.52c.9,0,8.29-.57,9.85-.58v.9h-.44a3.44,3.44,0,0,0-2,.61c-1.8,1.08-3.54,3-3.54,4.56s1.17,2.67,4.15,3.06l-.4.84c-3.4-.5-4.67-1.77-4.67-3.9,0-1.69,1.66-3.74,3.86-5.12-1.27.08-4.86.36-6.41.5a.32.32,0,0,1-.26.19Z"/><path class="cls-2" d="M115.3,58.4c0,.08-.1.1-.22.1a12.45,12.45,0,0,1-1.49,1.71,8.13,8.13,0,0,1,.92,4.26c0,1.85-.17,3.35-.71,4.07-.24.33-.62.5-1.74.5l-.7,0a1.68,1.68,0,0,0-.28-.82,9.87,9.87,0,0,0,1,0c.64,0,.88,0,1.1-.28a7.56,7.56,0,0,0,.51-3.51,7.77,7.77,0,0,0,0-.84,11,11,0,0,1-2.56,2.57,2.44,2.44,0,0,0-.55-.65,9,9,0,0,0,3-3.06,5.63,5.63,0,0,0-.56-1.71,16.33,16.33,0,0,1-1.77,1.36,4.9,4.9,0,0,0-.57-.54,12.85,12.85,0,0,0,1.93-1.5A7.47,7.47,0,0,0,111,58.45l.58-.47a8.74,8.74,0,0,1,1.63,1.56A9.91,9.91,0,0,0,114.44,58Zm1.45,8.79c0,.65.15.79.88.79h2.64c.68,0,.79-.4.87-2.07a2.4,2.4,0,0,0,.76.36c-.12,1.86-.37,2.48-1.61,2.48h-2.72c-1.25,0-1.63-.32-1.63-1.58V58.86h5.22v4.77c0,1-.41,1-2.68,1a2.86,2.86,0,0,0-.27-.81c.52,0,1,0,1.36,0,.71,0,.78,0,.78-.25v-4h-3.6Z"/><path class="cls-2" d="M128.87,58.37c0,.09-.09.15-.25.18l0,.35c.13,1.69.85,7.29,5.42,9.36a2.73,2.73,0,0,0-.61.67c-3.24-1.53-4.58-4.79-5.15-7.28h0a10.11,10.11,0,0,1-5,7.27,2.75,2.75,0,0,0-.65-.61c5-2.51,5-8.41,5.12-10Z"/><path class="cls-2" d="M145.29,63l-.07,0A.25.25,0,0,1,145,63c-.92.3-2.25.8-3.24,1.23,0,.27,0,.59,0,.93s0,.82,0,1.29l-.88,0c0-.43.06-1,.06-1.45,0-.18,0-.34,0-.48-1.35.66-2.46,1.47-2.46,2.19s.83,1,2.48,1a28.2,28.2,0,0,0,3-.12l0,.8c-.71.07-1.79.1-3,.1-2.3,0-3.32-.56-3.32-1.78,0-1.05,1.39-2.07,3.19-3-.07-.76-.41-1.13-.88-1.13a4,4,0,0,0-2.87,1.69c-.34.37-.8.84-1.32,1.31l-.59-.59a8.35,8.35,0,0,0,3-4.42h-2.67v-.78h2.89a15.12,15.12,0,0,0,.32-1.72l1.18.15q0,.18-.3.21c-.08.48-.19.9-.3,1.33a16.28,16.28,0,0,0,4.12-.69l.15.8a17.72,17.72,0,0,1-4.5.67,9.19,9.19,0,0,1-.86,2h0a3.18,3.18,0,0,1,1.93-.78c.82,0,1.33.59,1.49,1.56,1-.46,2.28-.95,3.24-1.32Z"/><path class="cls-2" d="M150.16,60.3v2.05c0,.19,0,.41,0,.61h2.2v.77h-2.26a9.21,9.21,0,0,1-.19,1.11c.58.57,1.95,2.08,2.3,2.46l-.54.66c-.38-.53-1.34-1.65-2-2.36a6.53,6.53,0,0,1-2.44,3.29,2.79,2.79,0,0,0-.54-.59,6.16,6.16,0,0,0,2.61-4.57h-2.56V63h2.62c0-.22,0-.42,0-.62v-2h-1.06a8.65,8.65,0,0,1-1,2.09,3.22,3.22,0,0,0-.6-.42,11.32,11.32,0,0,0,1.44-4.08l1,.24c0,.08-.11.12-.25.12-.09.43-.19.86-.31,1.29h3.49v.76ZM152.89,59h4.43v9.61h-.81v-.85h-2.83v1h-.79Zm.79,8h2.83V59.72h-2.83Z"/><path class="cls-2" d="M162.8,63.16a7.39,7.39,0,0,1,3-.69,2.79,2.79,0,0,1,3.11,2.88c0,2.17-1.91,3.37-4.32,3.37-1.56,0-2.62-.63-2.62-1.68a1.81,1.81,0,0,1,2-1.61,2.53,2.53,0,0,1,2.45,2.17A2.35,2.35,0,0,0,168,65.36c0-1.3-.95-2.12-2.47-2.12a6.8,6.8,0,0,0-4.35,1.57A16.44,16.44,0,0,0,160,66l-.61-.61c1.08-1.13,4.51-4.4,6.14-5.93-.7.1-3.1.19-4.46.24a.38.38,0,0,1-.26.18l-.09-1c1.62,0,4.71-.13,5.59-.26l.18-.09.63.78a.52.52,0,0,1-.28.11c-.86.7-3.14,2.83-4.07,3.73Zm1.65,4.8a5.53,5.53,0,0,0,1.1-.12,1.86,1.86,0,0,0-1.71-1.7c-.62,0-1.17.33-1.17.89C162.67,67.76,163.66,68,164.45,68Z"/><path class="cls-2" d="M174.07,67.36a1.68,1.68,0,1,1-1.68-1.68A1.68,1.68,0,0,1,174.07,67.36Zm-.43,0a1.25,1.25,0,1,0-1.25,1.24A1.25,1.25,0,0,0,173.64,67.36Z"/><path class="cls-2" d="M17.41,89V81h0l-1.47.85-.24-.74,1.86-1h.85v9Z"/><path class="cls-2" d="M21.61,88.41a.72.72,0,0,1,.72-.78.77.77,0,0,1,0,1.54A.71.71,0,0,1,21.61,88.41Z"/><path class="cls-2" d="M31.22,87.57v-8.8h4v.62H31.84v8.18Z"/><path class="cls-2" d="M37.14,89.37a13.18,13.18,0,0,1-.52-4.22,30.13,30.13,0,0,1,.65-5.6l1.16.22c0,.13-.14.21-.31.22a23.14,23.14,0,0,0-.7,5.17,15,15,0,0,0,.11,2.27c.27-.72.75-1.87,1-2.44l.54.51a13.68,13.68,0,0,0-1.24,3.2,1.66,1.66,0,0,0,.12.57Zm3-7.06c1,0,2,0,3,0-.05-1-.09-1.92-.11-2.81l1.21,0c0,.12-.12.21-.31.25,0,.77,0,1.55.06,2.46a11.38,11.38,0,0,0,2.35-.48l.11.84a12.12,12.12,0,0,1-2.43.43c0,1.33.11,2.73.15,3.5A8.8,8.8,0,0,1,46.68,88l-.46.77a7.37,7.37,0,0,0-1.95-1.37c0,1-.2,2.16-2,2.16-1.4,0-2.34-.67-2.34-1.72,0-1.23,1.24-1.77,2.34-1.77a4.08,4.08,0,0,1,1.14.16c0-.76-.11-2-.17-3.19-.37,0-.87,0-1.22,0H40.19ZM43.47,87a4,4,0,0,0-1.19-.22c-.73,0-1.61.27-1.61,1s.72,1,1.6,1,1.21-.43,1.21-1.39Z"/><path class="cls-2" d="M50,80.52c0,.11-.16.18-.33.19a20.3,20.3,0,0,0-.22,3c0,.44,0,.87,0,1.26.15,2,1,3.27,1.9,3.26.48,0,1.1-1.23,1.53-2.57a4.38,4.38,0,0,0,.7.52c-.55,1.62-1.25,2.94-2.24,3-1.53,0-2.58-1.82-2.75-4.13,0-.45,0-1,0-1.5a28.56,28.56,0,0,1,.18-3.22Zm7.95,5.58a6,6,0,0,0-3-4.51l.53-.65a6.58,6.58,0,0,1,3.38,4.88Z"/><path class="cls-2" d="M62.18,83.1l3.19-.44,0,.66c-1.78.3-3.68.59-4.87.76a.22.22,0,0,1-.16.18l-.3-.89,1.34-.17V78.9l1,.06c0,.08-.07.14-.23.17v1.26h3v.7h-3Zm2.23,1.82A9.26,9.26,0,0,0,65,83.67l1,.29a.26.26,0,0,1-.25.12c-.11.24-.26.55-.43.84H69.4v5.13h-.82v-.44h-6v.44h-.79V84.92Zm4.17,2V85.62h-6V86.9Zm-6,2h6V87.56h-6Zm4.18-6.1c0,.38.11.45.71.45h2.13c.48,0,.56-.18.61-1.24a2.42,2.42,0,0,0,.72.29C70.86,83.64,70.62,84,69.7,84H67.45C66.31,84,66,83.74,66,82.81V78.9L67,79c0,.08-.09.14-.24.17V80.9a15.51,15.51,0,0,0,3-1.16l.65.66s-.06,0-.24,0a21.31,21.31,0,0,1-3.45,1.16Z"/><path class="cls-2" d="M82.36,81.66a23.19,23.19,0,0,1-4,.66c.46,1.63,1,2.6,2.26,3.16l-.59.74a4.08,4.08,0,0,0-2.67-.83l-.14-.71a12.36,12.36,0,0,1,1.33.18,6.4,6.4,0,0,1-1.07-2.48c-.54.05-1.27.07-2,.07s-2,0-2.82,0V81.6c.72,0,1.74,0,2.83,0,.61,0,1.31,0,1.79-.06-.15-.64-.28-1.53-.42-2.46l1.28,0c0,.14-.12.23-.31.27.07.69.19,1.44.32,2.1a21,21,0,0,0,4-.7Zm-2.15,7.89c-.57,0-1.18,0-2.23,0-2.5,0-4.28-.76-4.28-2.37a3,3,0,0,1,1.08-2l.65.51a2.11,2.11,0,0,0-.87,1.48c0,1.18,1.54,1.57,3.45,1.57,1,0,1.65,0,2.26-.06Z"/><path class="cls-2" d="M84.11,89.2c.88-2.54,2.36-6.79,2.83-8.06.22-.65.54-1.56.62-1.86l1.29.34c-.06.17-.22.23-.46.23-.66,1.64-1.68,4.45-2.13,5.65h0A3.79,3.79,0,0,1,88.9,84c1,0,1.55.71,1.51,1.82l0,1.43c0,.9.47,1.39,1.24,1.39,1.08,0,2.08-1.23,2.63-3.3a5.6,5.6,0,0,0,.78.45c-.66,2.29-1.85,3.73-3.44,3.73a1.92,1.92,0,0,1-2.1-2c0-.23,0-1.33,0-1.59,0-.75-.32-1.15-.84-1.15-1.38,0-2.77,2-3.07,2.78-.17.42-.44,1.19-.66,1.89Z"/><path class="cls-2" d="M96.57,86.73a23.56,23.56,0,0,1,2.71,2.65l-.72.66a26.84,26.84,0,0,0-2.62-2.75Z"/><path class="cls-2" d="M109.44,79.73h8.13V90h-.84v-.85h-6.49V90h-.8Zm7.29.78h-6.49v2.1h6.49Zm0,2.86h-6.49V85.5h6.49Zm-6.49,5h6.49V86.27h-6.49Z"/><path class="cls-2" d="M130.52,84s-.05,0-.08,0a.3.3,0,0,1-.18-.08c-.91.3-2.24.8-3.23,1.23,0,.27,0,.59,0,.93s0,.82,0,1.29l-.88,0c0-.43.06-1,.06-1.45,0-.18,0-.34,0-.48-1.36.66-2.46,1.47-2.46,2.19s.83,1,2.48,1a28.32,28.32,0,0,0,3-.12v.8c-.7.07-1.78.1-3,.1-2.3,0-3.32-.56-3.32-1.78,0-1.05,1.39-2.07,3.19-3-.07-.76-.41-1.13-.89-1.13a4,4,0,0,0-2.86,1.69c-.34.37-.81.84-1.32,1.31l-.59-.59a8.35,8.35,0,0,0,3-4.42h-2.67v-.78h2.89a15.12,15.12,0,0,0,.32-1.72l1.18.15c0,.12-.12.19-.3.21-.09.48-.2.9-.3,1.33a16.35,16.35,0,0,0,4.12-.69l.15.8a17.72,17.72,0,0,1-4.5.67,9.19,9.19,0,0,1-.86,2h0a3.18,3.18,0,0,1,1.93-.78c.81,0,1.33.59,1.49,1.56,1-.46,2.27-1,3.23-1.32Z"/><path class="cls-2" d="M136.93,83.56h-3.58v6.49h-.79V79.43h4.37Zm-.77-3.5h-2.81v1.11h2.81Zm-2.81,2.87h2.81V81.78h-2.81Zm7.35,2.8h-2V88.9c0,.79-.38.85-1.81.85a3.12,3.12,0,0,0-.25-.68h.7c.56,0,.62,0,.62-.18V86.32a10.13,10.13,0,0,1-3.3,2.63,4.15,4.15,0,0,0-.52-.59,8.68,8.68,0,0,0,3.47-2.63h-3.28V85H138V83.83l1,0c0,.08-.07.14-.23.15v1h2Zm1.84-6.3v9.48c0,.57-.14.83-.52,1a7.87,7.87,0,0,1-2.14.15,3.53,3.53,0,0,0-.3-.84l1.15,0c.93,0,1,0,1-.33V83.58h-3.67V79.43Zm-.8.63h-2.89v1.11h2.89Zm-2.89,2.88h2.89V81.78h-2.89Z"/><path class="cls-2" d="M147.87,79.45c0,.14-.13.23-.37.27-.1,1.39-.22,4.56-.22,6.34s.89,2.65,2.4,2.65A5.83,5.83,0,0,0,154,86.43a5.08,5.08,0,0,0,.54.71,6.52,6.52,0,0,1-4.87,2.43c-2.18,0-3.3-1.26-3.3-3.52,0-1.51.11-5.23.19-6.71Zm3.25,1.26a9.11,9.11,0,0,1,1.63,1.66l-.44.37a9,9,0,0,0-1.61-1.66Zm1.46-1.09a9.11,9.11,0,0,1,1.65,1.63l-.46.38A8.42,8.42,0,0,0,152.18,80Z"/><path class="cls-2" d="M156.5,80.52c.9,0,8.29-.57,9.85-.58v.9h-.44a3.49,3.49,0,0,0-2.06.61c-1.79,1.08-3.53,3-3.53,4.56s1.17,2.67,4.15,3.06l-.4.84c-3.41-.5-4.68-1.77-4.68-3.9,0-1.69,1.67-3.74,3.87-5.12-1.28.08-4.86.36-6.41.5a.36.36,0,0,1-.26.19Z"/><path class="cls-2" d="M171.3,88.36a1.68,1.68,0,1,1-1.68-1.68A1.68,1.68,0,0,1,171.3,88.36Zm-.44,0a1.24,1.24,0,1,0-1.24,1.24A1.24,1.24,0,0,0,170.86,88.36Z"/><path class="cls-2" d="M177.93,81.24V90h-4V89.4h3.37V81.24Z"/><path class="cls-2" d="M20.19,110H14.88v-.61l.87-.92C17.89,106.33,19,105,19,103.56a1.62,1.62,0,0,0-1.72-1.85,3.07,3.07,0,0,0-1.8.74l-.33-.69a3.5,3.5,0,0,1,2.32-.88A2.4,2.4,0,0,1,20,103.44c0,1.69-1.19,3.13-3.05,5l-.71.74v0h4Z"/><path class="cls-2" d="M21.61,109.41a.72.72,0,0,1,.72-.78.77.77,0,0,1,0,1.54A.71.71,0,0,1,21.61,109.41Z"/><path class="cls-2" d="M31.22,108.57v-8.8h4v.62H31.84v8.18Z"/><path class="cls-2" d="M40.53,100.4c0,.08-.11.1-.23.1a12.34,12.34,0,0,1-1.48,1.71,8.13,8.13,0,0,1,.92,4.26c0,1.85-.17,3.35-.71,4.07-.24.33-.62.5-1.74.5l-.71,0a1.77,1.77,0,0,0-.27-.82,9.74,9.74,0,0,0,1,0c.63,0,.87,0,1.1-.28a7.56,7.56,0,0,0,.51-3.51,7.77,7.77,0,0,0,0-.84,11,11,0,0,1-2.56,2.57,2.31,2.31,0,0,0-.56-.65,9.06,9.06,0,0,0,3-3.06,5.92,5.92,0,0,0-.56-1.71,17.48,17.48,0,0,1-1.78,1.36,4.12,4.12,0,0,0-.56-.54,12.85,12.85,0,0,0,1.93-1.5,7.93,7.93,0,0,0-1.64-1.64l.57-.47a8.44,8.44,0,0,1,1.63,1.56A10,10,0,0,0,39.67,100ZM42,109.19c0,.65.15.79.88.79H45.5c.68,0,.79-.4.87-2.07a2.4,2.4,0,0,0,.76.36c-.12,1.86-.37,2.48-1.61,2.48H42.8c-1.25,0-1.63-.32-1.63-1.58v-8.31h5.21v4.77c0,1-.4,1-2.67,1a3.25,3.25,0,0,0-.28-.81c.53,0,1,0,1.37,0,.71,0,.78,0,.78-.25v-4H42Z"/><path class="cls-2" d="M54.1,100.37c0,.09-.09.15-.25.18l0,.35c.13,1.69.85,7.29,5.42,9.36a2.73,2.73,0,0,0-.61.67c-3.24-1.53-4.59-4.79-5.15-7.28h0a10.14,10.14,0,0,1-5,7.27,3,3,0,0,0-.65-.61c5-2.51,5-8.41,5.12-10Z"/><path class="cls-2" d="M70,103.06a.38.38,0,0,1-.11.16c-.15,3.46-.49,5.63-1,6.48a1.63,1.63,0,0,1-1.57.86,13.53,13.53,0,0,1-2.15-.27,4.17,4.17,0,0,0,0-.86,11.86,11.86,0,0,0,2.1.3.88.88,0,0,0,.92-.56,18.31,18.31,0,0,0,.78-5.44H65.14a10.93,10.93,0,0,1-4,6.87,3.49,3.49,0,0,0-.68-.53,9.88,9.88,0,0,0,3.74-6.34H60.93v-.81h3.48a24.29,24.29,0,0,0,.28-2.61l1.18.09c0,.13-.12.21-.3.22-.07.87-.13,1.53-.26,2.3H69.2l.19-.07Z"/><path class="cls-2" d="M72.44,104.83h10v.85H72.9a.6.6,0,0,1-.39.23Z"/><path class="cls-2" d="M92.9,106.63a46,46,0,0,0-4.21-2v6h-.9V100.23l1.21.08c0,.13-.11.21-.31.25v3.52l.18-.26a43,43,0,0,1,4.51,2ZM91.64,101a10.12,10.12,0,0,1,1.65,1.76l-.45.37a10.27,10.27,0,0,0-1.63-1.75Zm1.6-1a9.63,9.63,0,0,1,1.65,1.75l-.43.37a11.29,11.29,0,0,0-1.65-1.75Z"/><path class="cls-2" d="M106.52,105s0,0-.08,0a.3.3,0,0,1-.18-.08c-.91.3-2.24.8-3.23,1.23,0,.27,0,.59,0,.93s0,.82,0,1.29l-.88,0c0-.43.06-1,.06-1.45,0-.18,0-.34,0-.48-1.36.66-2.46,1.47-2.46,2.19s.83,1,2.48,1a28.32,28.32,0,0,0,3-.12v.8c-.7.07-1.78.1-3,.1-2.3,0-3.32-.56-3.32-1.78,0-1.05,1.39-2.07,3.19-3-.07-.76-.41-1.13-.89-1.13a4,4,0,0,0-2.86,1.69c-.34.37-.81.84-1.32,1.31l-.59-.59a8.35,8.35,0,0,0,3-4.42H96.78v-.78h2.89a15.12,15.12,0,0,0,.32-1.72l1.18.15c0,.12-.12.19-.3.21-.09.48-.2.9-.3,1.33a16.35,16.35,0,0,0,4.12-.69l.15.8a17.72,17.72,0,0,1-4.5.67,9.19,9.19,0,0,1-.86,2h0a3.18,3.18,0,0,1,1.93-.78c.81,0,1.33.59,1.49,1.56,1-.46,2.27-1,3.23-1.32Z"/><path class="cls-2" d="M112,105.22l.1.7-1.45.52v3.62c0,.86-.39,1-2,1a4.11,4.11,0,0,0-.26-.74h1.23c.16,0,.23-.06.23-.23v-3.35c-.56.19-1.08.38-1.49.51a.2.2,0,0,1-.14.19l-.34-1c.54-.14,1.23-.35,2-.57v-2.82H108v-.76h1.82V99.9l1,.06c0,.1-.07.14-.24.17v2.19H112v.76h-1.38v2.56Zm7.11-.55h-1.53a.29.29,0,0,1-.24.16v1.37h1.6v.74h-1.6v3.15c0,.93-.46,1-2.17,1a2.52,2.52,0,0,0-.27-.75h1.42c.17,0,.22,0,.22-.21v-3.15h-4.36v-.74h4.36v-1.53h-4.64v-.75H115v-1.73h-2.38v-.74H115V99.89l1,.07c0,.08-.09.14-.24.17v1.32h2.47v.74h-2.47v1.73h3.24Zm-4.73,5.12a10.13,10.13,0,0,0-1.51-2.06l.61-.38a12.34,12.34,0,0,1,1.54,2Z"/><path class="cls-2" d="M121.21,104.64l1.07-.29a17.48,17.48,0,0,1,4.34-.85c1.62,0,3.07.86,3.07,2.81,0,2.64-2.62,3.62-5.82,3.87a6.25,6.25,0,0,0-.24-.73c2.82-.21,5.21-1,5.21-3.09a2.06,2.06,0,0,0-2.34-2.13,15,15,0,0,0-4,.87l-.77.27a.29.29,0,0,1-.19.2Z"/><path class="cls-2" d="M132.5,101.52c.9,0,8.29-.57,9.85-.58v.9h-.44a3.49,3.49,0,0,0-2.06.61c-1.79,1.08-3.53,3-3.53,4.56s1.17,2.67,4.15,3.06l-.4.84c-3.41-.5-4.68-1.77-4.68-3.9,0-1.69,1.67-3.74,3.87-5.12-1.28.08-4.86.36-6.41.5a.36.36,0,0,1-.26.19Z"/><path class="cls-2" d="M146,101.52c0,.11-.16.18-.33.19a20.3,20.3,0,0,0-.22,3c0,.44,0,.87,0,1.26.15,2,1,3.27,1.9,3.26.48,0,1.1-1.23,1.53-2.57a4.38,4.38,0,0,0,.7.52c-.55,1.62-1.25,2.94-2.24,3-1.53,0-2.58-1.82-2.75-4.13,0-.45-.05-1-.05-1.5a28.56,28.56,0,0,1,.18-3.22Zm7.95,5.58a6,6,0,0,0-3-4.51l.53-.65a6.58,6.58,0,0,1,3.38,4.88Z"/><path class="cls-2" d="M160,105.16a7.36,7.36,0,0,1,3-.69,2.79,2.79,0,0,1,3.11,2.88c0,2.17-1.91,3.37-4.32,3.37-1.56,0-2.63-.63-2.63-1.68a1.82,1.82,0,0,1,2-1.61,2.53,2.53,0,0,1,2.45,2.17,2.35,2.35,0,0,0,1.65-2.24c0-1.3-1-2.12-2.47-2.12a6.8,6.8,0,0,0-4.35,1.57,16.44,16.44,0,0,0-1.15,1.21l-.61-.61c1.07-1.13,4.5-4.4,6.14-5.93-.7.1-3.1.19-4.47.24a.34.34,0,0,1-.25.18l-.09-1c1.62,0,4.71-.13,5.58-.26l.19-.09.63.78a.55.55,0,0,1-.29.11c-.85.7-3.13,2.83-4.06,3.73Zm1.65,4.8a5.35,5.35,0,0,0,1.09-.12,1.84,1.84,0,0,0-1.7-1.7c-.62,0-1.17.33-1.17.89C159.9,109.76,160.89,110,161.68,110Z"/><path class="cls-2" d="M174.1,100.37c0,.09-.09.15-.25.18l0,.35c.13,1.69.85,7.29,5.42,9.36a2.73,2.73,0,0,0-.61.67c-3.24-1.53-4.59-4.79-5.15-7.28h0a10.14,10.14,0,0,1-5,7.27,3,3,0,0,0-.65-.61c5-2.51,5-8.41,5.12-10Z"/><path class="cls-2" d="M181.14,110.37a13.18,13.18,0,0,1-.52-4.22,30.13,30.13,0,0,1,.65-5.6l1.16.22c0,.13-.14.21-.31.22a23.14,23.14,0,0,0-.7,5.17,15,15,0,0,0,.11,2.27c.27-.72.75-1.87,1-2.44l.54.51a13.68,13.68,0,0,0-1.24,3.2,1.66,1.66,0,0,0,.12.57Zm3-7.06c1,0,2,0,3,0-.05-1-.09-1.92-.11-2.81l1.21,0c0,.12-.12.21-.31.25,0,.77,0,1.55.06,2.46a11.38,11.38,0,0,0,2.35-.48l.11.84a12.12,12.12,0,0,1-2.43.43c0,1.33.11,2.73.15,3.5a8.8,8.8,0,0,1,2.44,1.52l-.46.77a7.37,7.37,0,0,0-1.95-1.37c0,1-.2,2.16-2,2.16-1.4,0-2.34-.67-2.34-1.72,0-1.23,1.24-1.77,2.34-1.77a4.08,4.08,0,0,1,1.14.16c0-.76-.11-2-.17-3.19-.37,0-.87,0-1.22,0h-1.83Zm3.29,4.71a4,4,0,0,0-1.19-.22c-.73,0-1.61.27-1.61,1s.72,1,1.6,1,1.21-.43,1.21-1.39Z"/><path class="cls-2" d="M193.44,100.73h8.13V111h-.84v-.85h-6.49V111h-.8Zm7.29.78h-6.49v2.1h6.49Zm0,2.86h-6.49v2.13h6.49Zm-6.49,5h6.49v-2.13h-6.49Z"/><path class="cls-2" d="M214.52,105s-.05,0-.08,0a.3.3,0,0,1-.18-.08c-.91.3-2.24.8-3.23,1.23,0,.27,0,.59,0,.93s0,.82,0,1.29l-.88,0c0-.43.06-1,.06-1.45,0-.18,0-.34,0-.48-1.36.66-2.46,1.47-2.46,2.19s.83,1,2.48,1a28.32,28.32,0,0,0,3-.12v.8c-.7.07-1.78.1-3,.1-2.3,0-3.32-.56-3.32-1.78,0-1.05,1.39-2.07,3.19-3-.07-.76-.41-1.13-.89-1.13a4,4,0,0,0-2.86,1.69c-.34.37-.81.84-1.32,1.31l-.59-.59a8.35,8.35,0,0,0,3-4.42h-2.67v-.78h2.89a15.12,15.12,0,0,0,.32-1.72l1.18.15c0,.12-.12.19-.3.21-.09.48-.2.9-.3,1.33a16.35,16.35,0,0,0,4.12-.69l.15.8a17.72,17.72,0,0,1-4.5.67,9.19,9.19,0,0,1-.86,2h0a3.18,3.18,0,0,1,1.93-.78c.81,0,1.33.59,1.49,1.56,1-.46,2.27-1,3.23-1.32Z"/><path class="cls-2" d="M220.93,104.48h-3.6v6.57h-.79V100.43h4.39Zm-.77-3.42h-2.83v1.06h2.83Zm-2.83,2.78h2.83v-1.12h-2.83Zm7.47,4.2h-1.7v2.77h-.73V108h-1.84a4,4,0,0,1-1.65,2.88,2.89,2.89,0,0,0-.54-.5,3.15,3.15,0,0,0,1.47-2.38h-1.57v-.68h1.6V106h-1.36v-.69h6.06V106H223.1v1.4h1.7Zm-4.25-.68h1.82V106h-1.82Zm6-6.93V110c0,1-.45,1.08-2.34,1.08a3,3,0,0,0-.26-.83l1.1,0c.64,0,.71,0,.71-.28v-5.46h-3.71v-4.06Zm-.79.63h-2.93v1.06h2.93Zm-2.93,2.8h2.93v-1.14h-2.93Z"/><path class="cls-2" d="M230.43,100.87c0,.11-.13.19-.31.22a25.47,25.47,0,0,0-.62,5,12.24,12.24,0,0,0,.12,2c.26-.55.85-1.68,1.22-2.38l.55.56a10.64,10.64,0,0,0-1.43,3,1.7,1.7,0,0,0,.1.49l-.84.17a11.93,11.93,0,0,1-.55-3.87,30.63,30.63,0,0,1,.6-5.38Zm1.78,2.72c1,0,2.37,0,3.24-.08-.08-1.39-.16-3.05-.2-3.3l1.24.05c0,.13-.13.24-.32.27,0,.66.08,1.89.13,2.93a14.29,14.29,0,0,0,2.35-.37l.08.85a18.14,18.14,0,0,1-2.41.32c0,.08,0,.27,0,1,0,2.59-.57,4.42-2.89,5.57a3.89,3.89,0,0,0-.65-.6c2.22-1.08,2.69-2.65,2.69-4.9v-1c-.8,0-2.18.09-3.25.09Z"/><path class="cls-2" d="M240.5,101.52c.9,0,8.29-.57,9.85-.58v.9h-.44a3.49,3.49,0,0,0-2.06.61c-1.79,1.08-3.53,3-3.53,4.56s1.17,2.67,4.15,3.06l-.4.84c-3.41-.5-4.68-1.77-4.68-3.9,0-1.69,1.67-3.74,3.87-5.12-1.28.08-4.86.36-6.41.5a.36.36,0,0,1-.26.19Z"/><path class="cls-2" d="M255.3,109.36a1.68,1.68,0,1,1-1.68-1.68A1.68,1.68,0,0,1,255.3,109.36Zm-.44,0a1.24,1.24,0,1,0-1.24,1.24A1.24,1.24,0,0,0,254.86,109.36Z"/><path class="cls-2" d="M261.93,102.24V111h-4v-.64h3.37v-8.16Z"/><path class="cls-2" d="M18.06,126.16a2.31,2.31,0,0,1,2,2.33c0,1.43-1,2.68-3.05,2.68a3.94,3.94,0,0,1-2.12-.58l.3-.77a3.59,3.59,0,0,0,1.84.54,1.82,1.82,0,0,0,2-1.88c0-1.32-1.12-1.92-2.29-1.92H16.1v-.74h.59a1.84,1.84,0,0,0,2-1.67,1.39,1.39,0,0,0-1.55-1.45,2.9,2.9,0,0,0-1.64.59l-.3-.74a3.79,3.79,0,0,1,2.13-.67A2.13,2.13,0,0,1,19.69,124a2.27,2.27,0,0,1-1.63,2.12Z"/><path class="cls-2" d="M21.61,130.41a.72.72,0,0,1,.72-.78.77.77,0,0,1,0,1.54A.71.71,0,0,1,21.61,130.41Z"/><path class="cls-2" d="M31.22,129.57v-8.8h4v.62H31.84v8.18Z"/><path class="cls-2" d="M38.18,125.1l3.19-.44,0,.66c-1.78.3-3.68.59-4.87.76a.22.22,0,0,1-.16.18l-.3-.89,1.34-.17v-4.3l1,.06c0,.08-.07.14-.23.17v1.26h3v.7h-3Zm2.23,1.82a9.26,9.26,0,0,0,.54-1.25l1,.29a.26.26,0,0,1-.25.12c-.11.24-.26.55-.43.84H45.4v5.13h-.82v-.44h-6v.44h-.79v-5.13Zm4.17,2v-1.28h-6v1.28Zm-6,2h6v-1.35h-6Zm4.18-6.1c0,.38.11.45.71.45h2.13c.48,0,.56-.18.61-1.24a2.42,2.42,0,0,0,.72.29c-.11,1.33-.35,1.66-1.27,1.66H43.45c-1.14,0-1.43-.23-1.43-1.16V120.9l1,.06c0,.08-.09.14-.24.17v1.77a15.51,15.51,0,0,0,3-1.16l.65.66c-.05,0-.06,0-.24,0a21.31,21.31,0,0,1-3.45,1.16Z"/><path class="cls-2" d="M58.36,123.66a23.19,23.19,0,0,1-4,.66c.46,1.63,1,2.6,2.26,3.16l-.59.74a4.08,4.08,0,0,0-2.67-.83l-.14-.71a12.36,12.36,0,0,1,1.33.18,6.4,6.4,0,0,1-1.07-2.48c-.54.05-1.27.07-2,.07s-2,0-2.82,0v-.81c.72,0,1.74,0,2.83,0,.61,0,1.31,0,1.79-.06-.15-.64-.28-1.53-.42-2.46l1.28,0c0,.14-.12.23-.31.27.07.69.19,1.44.32,2.1a21,21,0,0,0,4-.7Zm-2.15,7.89c-.57,0-1.18,0-2.23,0-2.5,0-4.28-.76-4.28-2.37a3,3,0,0,1,1.08-2l.65.51a2.11,2.11,0,0,0-.87,1.48c0,1.18,1.54,1.57,3.45,1.57,1,0,1.65,0,2.26-.06Z"/><path class="cls-2" d="M60.11,131.2c.88-2.54,2.36-6.79,2.83-8.06.22-.65.54-1.56.62-1.86l1.29.34c-.06.17-.22.23-.46.23-.66,1.64-1.68,4.45-2.13,5.65h0A3.79,3.79,0,0,1,64.9,126c1,0,1.55.71,1.51,1.82l0,1.43c0,.9.47,1.39,1.24,1.39,1.08,0,2.08-1.23,2.63-3.3a5.6,5.6,0,0,0,.78.45c-.66,2.29-1.85,3.73-3.44,3.73a1.92,1.92,0,0,1-2.1-2c0-.23,0-1.33,0-1.59,0-.75-.32-1.15-.84-1.15-1.38,0-2.77,2-3.07,2.78-.17.42-.44,1.19-.66,1.89Z"/><path class="cls-2" d="M72.57,128.73a23.56,23.56,0,0,1,2.71,2.65l-.72.66a26.84,26.84,0,0,0-2.62-2.75Z"/><path class="cls-2" d="M85.44,121.73h8.13V132h-.84v-.85H86.24V132h-.8Zm7.29.78H86.24v2.1h6.49Zm0,2.86H86.24v2.13h6.49Zm-6.49,5h6.49v-2.13H86.24Z"/><path class="cls-2" d="M106.52,126s0,0-.08,0a.3.3,0,0,1-.18-.08c-.91.3-2.24.8-3.23,1.23,0,.27,0,.59,0,.93s0,.82,0,1.29l-.88,0c0-.43.06-1,.06-1.45,0-.18,0-.34,0-.48-1.36.66-2.46,1.47-2.46,2.19s.83,1,2.48,1a28.32,28.32,0,0,0,3-.12v.8c-.7.07-1.78.1-3,.1-2.3,0-3.32-.56-3.32-1.78,0-1,1.39-2.07,3.19-3-.07-.76-.41-1.13-.89-1.13a4,4,0,0,0-2.86,1.69c-.34.37-.81.84-1.32,1.31l-.59-.59a8.35,8.35,0,0,0,3-4.42H96.78v-.78h2.89a15.12,15.12,0,0,0,.32-1.72l1.18.15c0,.12-.12.19-.3.21-.09.48-.2.9-.3,1.33a16.35,16.35,0,0,0,4.12-.69l.15.8a17.72,17.72,0,0,1-4.5.67,9.19,9.19,0,0,1-.86,2h0a3.18,3.18,0,0,1,1.93-.78c.81,0,1.33.59,1.49,1.56,1-.46,2.27-1,3.23-1.32Z"/><path class="cls-2" d="M112.93,125.48h-3.6v6.57h-.79V121.43h4.39Zm-.77-3.42h-2.83v1.06h2.83Zm-2.83,2.78h2.83v-1.12h-2.83Zm7.47,4.2h-1.7v2.77h-.73V129h-1.84a4,4,0,0,1-1.65,2.88,2.89,2.89,0,0,0-.54-.5,3.15,3.15,0,0,0,1.47-2.38h-1.57v-.68h1.6V127h-1.36v-.69h6.06V127H115.1v1.4h1.7Zm-4.25-.68h1.82V127h-1.82Zm6-6.93V131c0,1-.45,1.08-2.34,1.08a3,3,0,0,0-.26-.83l1.1,0c.64,0,.71,0,.71-.28v-5.46h-3.71v-4.06Zm-.79.63h-2.93v1.06h2.93Zm-2.93,2.8h2.93v-1.14h-2.93Z"/><path class="cls-2" d="M122.43,121.87c0,.11-.13.19-.31.22a25.47,25.47,0,0,0-.62,5,12.24,12.24,0,0,0,.12,2c.26-.55.85-1.68,1.22-2.38l.55.56a10.64,10.64,0,0,0-1.43,3,1.7,1.7,0,0,0,.1.49l-.84.17a11.93,11.93,0,0,1-.55-3.87,30.63,30.63,0,0,1,.6-5.38Zm1.78,2.72c1,0,2.37,0,3.24-.08-.08-1.39-.16-3.05-.2-3.3l1.24.05c0,.13-.13.24-.32.27,0,.66.08,1.89.13,2.93a14.29,14.29,0,0,0,2.35-.37l.08.85a18.14,18.14,0,0,1-2.41.32c0,.08,0,.27,0,1,0,2.59-.57,4.42-2.89,5.57a3.89,3.89,0,0,0-.65-.6c2.22-1.08,2.69-2.65,2.69-4.9v-1c-.8,0-2.18.09-3.25.09Z"/><path class="cls-2" d="M132.5,122.52c.9,0,8.29-.57,9.85-.58v.9h-.44a3.49,3.49,0,0,0-2.06.61c-1.79,1.08-3.53,3-3.53,4.56s1.17,2.67,4.15,3.06l-.4.84c-3.41-.5-4.68-1.77-4.68-3.9,0-1.69,1.67-3.74,3.87-5.12-1.28.08-4.86.36-6.41.5a.36.36,0,0,1-.26.19Z"/><path class="cls-2" d="M147.93,123.24V132h-4v-.64h3.37v-8.16Z"/><rect class="cls-2" x="14.29" y="43.94" width="254" height="1.5"/></g></g></svg>