<svg xmlns="http://www.w3.org/2000/svg" viewBox="0 0 292 173.81"><defs><style>.cls-1{fill:#eb6100;}.cls-2{fill:#fff;}</style></defs><g id="レイヤー_2" data-name="レイヤー 2"><g id="レイヤー_1-2" data-name="レイヤー 1"><rect class="cls-1" width="292" height="173.81" rx="5"/><path class="cls-2" d="M20,19.23c0,.08-.1.1-.22.1A12.45,12.45,0,0,1,18.3,21a8.13,8.13,0,0,1,.92,4.26c0,1.85-.17,3.35-.71,4.07-.24.33-.62.5-1.73.5l-.71,0a1.68,1.68,0,0,0-.28-.82,9.87,9.87,0,0,0,1,0c.64,0,.88,0,1.1-.28a7.56,7.56,0,0,0,.51-3.51,7.77,7.77,0,0,0,0-.84A11,11,0,0,1,15.83,27a2.61,2.61,0,0,0-.55-.65,9,9,0,0,0,3-3.06,5.63,5.63,0,0,0-.56-1.71A16.33,16.33,0,0,1,15.94,23a4.9,4.9,0,0,0-.57-.54,12.85,12.85,0,0,0,1.93-1.5,7.47,7.47,0,0,0-1.64-1.64l.58-.47a9.08,9.08,0,0,1,1.63,1.56,9.49,9.49,0,0,0,1.28-1.59ZM21.46,28c0,.65.15.8.88.8H25c.68,0,.79-.41.87-2.08a2.4,2.4,0,0,0,.76.36c-.12,1.86-.37,2.48-1.61,2.48H22.28c-1.25,0-1.63-.32-1.63-1.58V19.69h5.22v4.77c0,1-.41,1-2.68,1a2.86,2.86,0,0,0-.27-.81c.52,0,1,0,1.36,0,.71,0,.78,0,.78-.25v-4h-3.6Z"/><path class="cls-2" d="M33.58,19.2c0,.09-.09.15-.25.18l0,.35c.13,1.69.85,7.29,5.42,9.36a2.73,2.73,0,0,0-.61.67C34.88,28.23,33.54,25,33,22.48h0a10.11,10.11,0,0,1-5,7.27,2.75,2.75,0,0,0-.65-.61c5-2.51,5-8.41,5.13-10Z"/><path class="cls-2" d="M19.23,64l-1.4.46v3.61c0,.89-.4,1-1.91,1a2.71,2.71,0,0,0-.24-.75l.84,0c.5,0,.55,0,.55-.24V64.7l-1.24.38a.24.24,0,0,1-.17.19l-.29-.92c.47-.12,1.06-.27,1.7-.45V61.16H15.49v-.75h1.58V57.9l1,.06c0,.1-.07.14-.24.17v2.28h1.45v.75H17.83v2.53l1.31-.37Zm7.21.9H23.68a8.63,8.63,0,0,0,3.05,2.91,2.54,2.54,0,0,0-.56.62,9.87,9.87,0,0,1-3.05-3.14V69h-.79V65.33a8.5,8.5,0,0,1-3.17,3.16,2.9,2.9,0,0,0-.54-.62,7.63,7.63,0,0,0,3.16-3H19.27v-.74h3.06V62.82l1,.06c0,.08-.08.14-.24.16v1.12h3.32Zm-4.05-5.25a.25.25,0,0,1-.23.16c-.17,1.69-.61,2.85-2.55,3.5a2.12,2.12,0,0,0-.44-.59c1.74-.53,2.14-1.51,2.26-3.15Zm-2.12-.48v1.44h-.71V58.46h6.71v2.22h-.73V59.17Zm3.1.32,1,.08c0,.08-.07.13-.23.15v2.16c0,.27.06.3.39.3h1.06c.27,0,.33-.12.35-1a1.87,1.87,0,0,0,.65.27c-.07,1.1-.28,1.36-.9,1.36H24.39c-.84,0-1-.2-1-1Z"/><path class="cls-2" d="M29.05,62.13a14.08,14.08,0,0,1-1.46,2,6.31,6.31,0,0,0-.42-.76,16.06,16.06,0,0,0,3-5.4l.95.33c0,.08-.13.12-.27.1a21.93,21.93,0,0,1-1.1,2.49l.32.08c0,.07-.08.13-.24.15v7.95h-.78ZM34,67.36a.22.22,0,0,1-.25.09,10.3,10.3,0,0,1-2.65,1.61,5.88,5.88,0,0,0-.65-.51A8.2,8.2,0,0,0,33,67Zm3.77-6.54v5.87H31.46V60.82h2.6V57.89l1,.07c0,.08-.07.14-.24.17V59h3.52v.72H34.87v1.06ZM37,62.58V61.46H32.24v1.12Zm0,1.72V63.19H32.24V64.3Zm0,1.76V64.91H32.24v1.15Zm.88,3a19,19,0,0,0-2.44-1.69l.68-.41a16.93,16.93,0,0,1,2.48,1.64Z"/><path class="cls-2" d="M42.15,58.79c0,.13-.15.2-.39.19a28.74,28.74,0,0,0-.64,5.4,13.14,13.14,0,0,0,.16,2.37c.23-.59.74-1.85.91-2.27l.5.53c-.49,1.21-.85,1.9-1,2.44a2.41,2.41,0,0,0-.09.56,1.15,1.15,0,0,0,.06.37l-.85.16a13,13,0,0,1-.53-4.13,35.48,35.48,0,0,1,.63-5.84Zm7.64,8.76c-.43,0-.87,0-1.32,0a17.28,17.28,0,0,1-2.23-.13c-1.47-.22-2.15-1-2.15-2a3.66,3.66,0,0,1,1.12-2.32l.78.34a2.83,2.83,0,0,0-1,1.88c0,1.39,2,1.39,3.29,1.39.5,0,1,0,1.55-.06Zm-5.55-7.32a39,39,0,0,0,5.23-.46l.07.84a44.57,44.57,0,0,1-5.27.44Z"/><path class="cls-2" d="M57.62,58c0,.08-.07.14-.24.17v4.15h4v6.78h-.82v-.52H52.34v-.79h8.25v-2H53V65h7.61V63.07h-8v-.79h4V57.89Zm-4.47.48a11.73,11.73,0,0,1,1.64,2.77l-.77.35a12.15,12.15,0,0,0-1.59-2.82Zm8.6.3a.32.32,0,0,1-.28.11,21.91,21.91,0,0,1-1.64,2.81l-.69-.31a20.66,20.66,0,0,0,1.6-3Z"/><path class="cls-2" d="M64,59.52c.9,0,8.29-.57,9.85-.58v.9H73.4a3.46,3.46,0,0,0-2.05.61c-1.8,1.08-3.54,3-3.54,4.56S69,67.67,72,68.06l-.4.84c-3.4-.5-4.67-1.77-4.67-3.9,0-1.69,1.66-3.74,3.86-5.12-1.27.08-4.86.36-6.41.5a.32.32,0,0,1-.26.19Z"/><path class="cls-2" d="M78.69,60.48c0,.12-.14.18-.31.2a13.33,13.33,0,0,1-.49,3.54h0a8.15,8.15,0,0,1,4.42-1.48c1.84,0,3,.95,3,2.63,0,2.21-1.86,3.19-6.5,3.38a3.85,3.85,0,0,0-.3-.79c4.19-.18,5.87-.86,5.9-2.58,0-1.15-.79-1.84-2.19-1.84a6.32,6.32,0,0,0-4.56,1.92l-.82-.4a13.38,13.38,0,0,0,.69-4.73Zm.21-2.33a19.21,19.21,0,0,1,4.65,1.06l-.3.82a20,20,0,0,0-4.6-1.09Z"/><path class="cls-2" d="M88,60.65a12.2,12.2,0,0,0,2.26-.18c0-.72,0-1.12.08-2.21l1.24.1c0,.13-.13.21-.34.23,0,.53-.1,1.28-.12,1.72l.37.14A7,7,0,0,0,91,62.17c1.32-1.24,2.79-2.11,3.78-2.11s1.69.79,1.69,2.18c0,.16,0,.31,0,.47-.08,1-.21,2.55-.21,3.51,0,.72.09,1.11.59,1.11a3.25,3.25,0,0,0,1.6-.81,7,7,0,0,0,.17.91,3.63,3.63,0,0,1-1.89.78c-1,0-1.34-.6-1.34-1.84,0-.63.22-3.93.22-3.94,0-1-.37-1.51-1-1.51-.9,0-2.41,1-3.66,2.29,0,1.74,0,3.88,0,5.51h-.84c0-.7,0-4.12,0-4.88A12.42,12.42,0,0,1,88,66.73L87.54,66a12.13,12.13,0,0,0,2.64-3.62c0-.35,0-.67,0-1.06a12.58,12.58,0,0,1-2.2.21Z"/><path class="cls-2" d="M100,59.52c.9,0,8.29-.57,9.85-.58v.9h-.44a3.46,3.46,0,0,0-2.05.61c-1.8,1.08-3.54,3-3.54,4.56S105,67.67,108,68.06l-.4.84c-3.4-.5-4.67-1.77-4.67-3.9,0-1.69,1.66-3.74,3.86-5.12-1.27.08-4.86.36-6.41.5a.32.32,0,0,1-.26.19Z"/><path class="cls-2" d="M115.35,58.41c0,.15-.13.23-.37.27-.09,1.39-.21,4.57-.21,6.34s.88,2.65,2.39,2.65a5.83,5.83,0,0,0,4.32-2.27,5,5,0,0,0,.54.7,6.48,6.48,0,0,1-4.87,2.44c-2.18,0-3.3-1.26-3.3-3.53,0-1.51.11-5.23.2-6.7Z"/><path class="cls-2" d="M124.39,59.76c.74.05,1.74.05,2.56.05l1.65,0c0-.57,0-1.25,0-1.67l1.21.06c0,.15-.12.22-.33.26,0,.19,0,1.11,0,1.32a25.1,25.1,0,0,0,4-.47l.1.79a25.71,25.71,0,0,1-4.09.46c0,.71,0,1.46,0,2.2a19.82,19.82,0,0,0,3.38-.47l.1.78a22.42,22.42,0,0,1-3.47.42l.1,2a13.37,13.37,0,0,1,3.53,1.87l-.53.73a11.5,11.5,0,0,0-3-1.76c0,.19,0,.4,0,.56,0,1.14-.7,1.8-2.15,1.8s-2.64-.62-2.64-1.75,1.31-1.79,2.65-1.79a5.65,5.65,0,0,1,1.26.14c0-.51,0-1.13-.05-1.78l-1.16,0c-2,0-2.63-.32-2.63-1,0-.45.35-.83,1.12-1.32l.57.38c-.54.29-.82.56-.82.8s.56.43,2.08.43h.81l-.08-2.22c-.51,0-1.11,0-1.65,0-.77,0-1.86,0-2.58,0ZM128.83,66a4.74,4.74,0,0,0-1.34-.2c-.92,0-1.84.38-1.84,1.1s.84,1,1.88,1,1.31-.42,1.31-1.26Z"/><path class="cls-2" d="M136.94,62.31a27.37,27.37,0,0,1,5-1,2.53,2.53,0,0,1,2.85,2.73v.1c0,2.18-1.74,3.78-5.18,4.7a4.89,4.89,0,0,0-.54-.73c3.07-.73,4.81-2.17,4.81-4a1.77,1.77,0,0,0-2-2,16.82,16.82,0,0,0-4.34.94c0,.1-.11.22-.23.28Zm1.68-4.15a22,22,0,0,1,4.82.94l-.25.84a22.5,22.5,0,0,0-4.77-1Z"/><path class="cls-2" d="M156.8,62.16h-.1a.45.45,0,0,1-.25-.07c-3.56,1-6.79,2.61-6.78,4.22,0,1.15,1.28,1.55,3.22,1.55a28.82,28.82,0,0,0,4.24-.28l.08.88a39.92,39.92,0,0,1-4.3.21c-2.37,0-4.1-.55-4.11-2.31,0-1.29,1.27-2.41,3.15-3.39-.41-.73-.55-2.12-.55-4.83l1.32.11c0,.15-.13.25-.37.29a10.88,10.88,0,0,0,.39,4.05,33.32,33.32,0,0,1,3.75-1.44Z"/><path class="cls-2" d="M161.09,66.94V61.22a9.26,9.26,0,0,1-.93.68,2.48,2.48,0,0,0-.61-.56,9.9,9.9,0,0,0,3.37-3.43l1.06.18a.24.24,0,0,1-.25.14c-.12.2-.26.39-.4.59h3.11l.12,0,.62.4a.32.32,0,0,1-.17.1,10.15,10.15,0,0,1-1,1.41h3.13v6.26Zm3,.65a.24.24,0,0,1-.27.08,20.36,20.36,0,0,1-3.55,1.41,4.92,4.92,0,0,0-.58-.63,13.76,13.76,0,0,0,3.5-1.3Zm.94-6.91a7.7,7.7,0,0,0,.93-1.2h-3.1a12.37,12.37,0,0,1-1.12,1.2Zm3.27,1.87v-1.2h-6.38v1.2Zm0,1.85V63.19h-6.38V64.4Zm0,1.87V65.05h-6.38v1.22Zm1.26,2.79a30.06,30.06,0,0,0-3.39-1.45l.62-.45a32.34,32.34,0,0,1,3.6,1.44Z"/><path class="cls-2" d="M173.91,58.87c0,.11-.13.19-.31.22a25.47,25.47,0,0,0-.62,5,13.46,13.46,0,0,0,.12,2c.26-.55.85-1.68,1.22-2.38l.55.56a10.49,10.49,0,0,0-1.42,3,1.65,1.65,0,0,0,.09.49l-.84.17a11.93,11.93,0,0,1-.55-3.87,30.63,30.63,0,0,1,.6-5.38Zm1.78,2.72c1,0,2.37,0,3.24-.08-.07-1.39-.16-3-.19-3.3l1.23,0c0,.13-.13.24-.32.27,0,.66.08,1.89.13,2.93a14.29,14.29,0,0,0,2.35-.37l.08.85a18.14,18.14,0,0,1-2.41.32c0,.08,0,.27,0,1,0,2.59-.57,4.42-2.89,5.57a4.21,4.21,0,0,0-.64-.6c2.22-1.08,2.68-2.65,2.68-4.9v-1c-.8,0-2.18.09-3.25.09Z"/><path class="cls-2" d="M186.78,67.36a1.68,1.68,0,1,1-1.68-1.68A1.68,1.68,0,0,1,186.78,67.36Zm-.43,0a1.25,1.25,0,1,0-1.25,1.24A1.25,1.25,0,0,0,186.35,67.36Z"/><path class="cls-2" d="M206.45,63.28H200.5V69h-.77v-1.4c-1.43.21-2.85.41-3.78.53a.19.19,0,0,1-.17.15l-.28-.84,1.16-.12V63.28h-1.11V62.6h10.9Zm-1.57-4.87v3.41h-7.76V58.41Zm-5.15,5.73v-.86h-2.32v.86Zm0,1.5v-.88h-2.32v.88Zm-2.32.62v1l2.32-.27v-.75Zm6.67-6.44V59H197.9v.82Zm0,1.41v-.84H197.9v.84Zm1.32,2.85.51.2a.56.56,0,0,1-.1.14,7.19,7.19,0,0,1-1.72,2.8,6.8,6.8,0,0,0,2.47,1.17,3,3,0,0,0-.49.64,7.1,7.1,0,0,1-2.53-1.32,8.12,8.12,0,0,1-2.35,1.34,2.83,2.83,0,0,0-.46-.63A7,7,0,0,0,203,67.19a6.68,6.68,0,0,1-1.47-2.28l.47-.14h-1.14V64.1h4.4Zm-3.19.69a5.66,5.66,0,0,0,1.32,2,6.3,6.3,0,0,0,1.33-2Z"/><path class="cls-2" d="M209.09,63.54A17.55,17.55,0,0,1,207.71,65a8,8,0,0,0-.45-.68,14.19,14.19,0,0,0,3-3.73l.89.38c0,.07-.13.1-.26.09-.3.49-.65,1-1,1.5l.21.07a.29.29,0,0,1-.24.16V69h-.76Zm1.71-5.28a.24.24,0,0,1-.25.1,16.8,16.8,0,0,1-2.71,2.86,4.43,4.43,0,0,0-.47-.6,11.72,11.72,0,0,0,2.52-2.72Zm6,6.05.55.27a.57.57,0,0,1-.12.11,6.87,6.87,0,0,1-2.05,2.46,11,11,0,0,0,3.45,1.22,3,3,0,0,0-.49.69,10.86,10.86,0,0,1-3.62-1.47,11.58,11.58,0,0,1-3.67,1.47,4.82,4.82,0,0,0-.41-.69,11.06,11.06,0,0,0,3.42-1.25,7.43,7.43,0,0,1-1.54-1.58,11,11,0,0,1-1.46,1.11,4.36,4.36,0,0,0-.5-.56,10.48,10.48,0,0,0,3-2.79l-2.48.08a.22.22,0,0,1-.18.17l-.27-.91,1.87,0c.28-.21.55-.44.84-.7a16,16,0,0,0-2.34-2l.51-.51c.23.15.47.33.72.53a14,14,0,0,0,1.57-2l.86.45a.3.3,0,0,1-.26.1,18.45,18.45,0,0,1-1.66,1.85,11.76,11.76,0,0,1,1.18,1.09,29.71,29.71,0,0,0,2.38-2.52l.88.47c0,.06-.14.09-.28.08a33.9,33.9,0,0,1-3.32,3.17l3.55-.09a13.29,13.29,0,0,0-1-1.11l.62-.36a13.71,13.71,0,0,1,2.08,2.59l-.67.41a6.11,6.11,0,0,0-.57-.88l-3.07.12.12.05c0,.07-.13.11-.26.09a9.24,9.24,0,0,1-.73.95h3.15ZM213,65l-.07.07a6.57,6.57,0,0,0,1.68,1.64A6,6,0,0,0,216.22,65Z"/><path class="cls-2" d="M225.69,60.08a.3.3,0,0,1-.3.19c-.43,3.73-1.68,7-3.67,7-1,0-1.92-1-1.92-2.9a5.27,5.27,0,0,1,5.4-5.29c3.47,0,5,2.2,5,4.54,0,2.85-1.66,4.23-4.56,4.9a4.24,4.24,0,0,0-.51-.73c2.76-.53,4.18-1.87,4.18-4.14,0-2-1.27-3.78-4.08-3.78l-.36,0Zm-1.15-.15a4.41,4.41,0,0,0-3.92,4.4c0,1.28.55,2.08,1.13,2.08C223.2,66.41,224.24,63.21,224.54,59.93Z"/><path class="cls-2" d="M242.49,64.45v.79h-5.07v2.67c0,.62-.18.86-.62,1a10.06,10.06,0,0,1-2.51.14,4,4,0,0,0-.35-.8c.57,0,1.13,0,1.55,0,1,0,1.1,0,1.1-.35V65.24h-5.05v-.79h5.05v-2h-4.25v-.77h4.25V59.71c-1.32.16-2.71.28-4,.35a2.72,2.72,0,0,0-.22-.7,37.1,37.1,0,0,0,8.17-1.21l.69.68a.18.18,0,0,1-.14,0H241a21.61,21.61,0,0,1-3.33.71c0,.08-.09.12-.24.14v1.94h4.39v.77h-4.39v2Z"/><path class="cls-2" d="M247,58c0,.09-.08.14-.24.17v2.43h2.12v.77h-2.12v1.14c.47.46,1.75,1.88,2.05,2.24l-.53.7a22.72,22.72,0,0,0-1.52-2V69H246V63a12.48,12.48,0,0,1-2.18,3.87,5,5,0,0,0-.47-.75,11.85,11.85,0,0,0,2.53-4.73h-2.27v-.77H246V57.91Zm3.52,9.27c0,.65.12.77.66.77h1.9c.59,0,.68-.54.76-2.55a2.31,2.31,0,0,0,.77.38c-.11,2.19-.33,3-1.48,3h-2c-1.08,0-1.41-.32-1.41-1.58V57.94l1.06.07c0,.08-.07.14-.24.16Z"/><path class="cls-2" d="M261.12,68V60h0l-1.47.85-.24-.74,1.86-1h.85v9Z"/><path class="cls-2" d="M18.27,83.48c.41.44,1.48,1.73,1.72,2l-.52.66a20.79,20.79,0,0,0-1.2-1.77V90h-.78V84a13.18,13.18,0,0,1-1.77,3.76,4.42,4.42,0,0,0-.44-.73,13.44,13.44,0,0,0,2.1-4.72H15.56v-.76h1.93V78.89l1,.07c0,.08-.07.13-.23.15v2.42H20v.76H18.27ZM26.57,82h-1a13.18,13.18,0,0,1-1.91,5,7.33,7.33,0,0,0,3,2.31,3,3,0,0,0-.57.74,8.05,8.05,0,0,1-3-2.38A8.56,8.56,0,0,1,20,90.06a5.21,5.21,0,0,0-.5-.66A8,8,0,0,0,22.65,87a12.66,12.66,0,0,1-1.52-3.81,9.82,9.82,0,0,1-1,1.7,5.3,5.3,0,0,0-.6-.56,13.4,13.4,0,0,0,2.17-5.47l1,.25c0,.08-.11.13-.26.14-.15.66-.33,1.33-.54,2h4.67Zm-4.94,0-.05.11a12.57,12.57,0,0,0,1.58,4.19A11.81,11.81,0,0,0,24.71,82Z"/><path class="cls-2" d="M33.69,81.08a.3.3,0,0,1-.3.19c-.43,3.73-1.68,7-3.67,7-1,0-1.92-1-1.92-2.9a5.27,5.27,0,0,1,5.4-5.29c3.47,0,5,2.2,5,4.54,0,2.85-1.66,4.23-4.56,4.9a4.24,4.24,0,0,0-.51-.73c2.76-.53,4.18-1.87,4.18-4.14,0-2-1.27-3.78-4.08-3.78-.12,0-.25,0-.36,0Zm-1.15-.15a4.41,4.41,0,0,0-3.92,4.4c0,1.28.55,2.08,1.13,2.08C31.2,87.41,32.24,84.21,32.54,80.93Z"/><path class="cls-2" d="M43.27,79.69v7.94H40.63v1h-.77V79.69Zm-.76.74H40.63v2.82h1.88Zm-1.88,6.46h1.88V84H40.63Zm6.78-4.13h3.15v.73H43.49v-.73h3.13V81.12H44V80.4h2.62V78.91l1,.06c0,.09-.09.14-.24.17V80.4h2.67v.72H47.41Zm1.9,1.07c0,.08-.07.14-.22.15v1h1.45v.71H49.09v3.36c0,.49-.11.72-.48.84a7.64,7.64,0,0,1-2,.13,3,3,0,0,0-.28-.75l1.2,0c.67,0,.73,0,.73-.25V85.73H43.53V85h4.76V83.77Zm-3.41,5a9.46,9.46,0,0,0-1.57-2.16l.64-.39a9.1,9.1,0,0,1,1.62,2.11Z"/><path class="cls-2" d="M58.83,81.53a15.16,15.16,0,0,1-3.68.68A32,32,0,0,1,53,89.71l-.87-.33a25.8,25.8,0,0,0,2.17-7.14c-.24,0-1.84,0-2.21,0v-.82h2.34c.12-.77.24-1.61.31-2.34l1.24.12c0,.14-.18.23-.35.24-.07.53-.19,1.18-.3,1.91a14,14,0,0,0,3.36-.67ZM62,89.45c-.46,0-1,.06-1.46.06a10.45,10.45,0,0,1-2.49-.24,1.66,1.66,0,0,1-1.34-1.65,2.91,2.91,0,0,1,.75-1.74l.72.31a2.22,2.22,0,0,0-.63,1.33c0,1,.92,1.17,2.87,1.17A15.5,15.5,0,0,0,62,88.61Zm-4.69-5.72a14.41,14.41,0,0,1,4.36-.61v.82a13.22,13.22,0,0,0-4.15.54Zm2.12-4.16a9.18,9.18,0,0,1,1.66,1.63l-.44.39a8.43,8.43,0,0,0-1.62-1.65ZM61,78.78a8,8,0,0,1,1.66,1.62l-.45.38a9.07,9.07,0,0,0-1.6-1.63Z"/><path class="cls-2" d="M65.91,79.87c0,.11-.13.19-.31.22A25.47,25.47,0,0,0,65,85a13.46,13.46,0,0,0,.12,2c.26-.55.85-1.68,1.22-2.38l.55.56a10.49,10.49,0,0,0-1.42,3,1.65,1.65,0,0,0,.09.49l-.84.17a11.93,11.93,0,0,1-.55-3.87,30.63,30.63,0,0,1,.6-5.38Zm1.78,2.72c1,0,2.37,0,3.24-.08-.07-1.39-.16-3.05-.19-3.3l1.23.05c0,.13-.13.24-.32.27,0,.66.08,1.89.13,2.93a14.29,14.29,0,0,0,2.35-.37l.08.85a18.14,18.14,0,0,1-2.41.32c0,.08,0,.27,0,1,0,2.59-.57,4.42-2.89,5.57a4.21,4.21,0,0,0-.64-.6C70.5,88.13,71,86.56,71,84.31v-1c-.8,0-2.18.09-3.25.09Z"/><path class="cls-2" d="M84.92,85l1.07.07c0,.08-.08.14-.24.15V90h-.83v-.76h-7.8v.79h-.8V85l1.06.06c0,.09-.09.15-.26.16v3.23h3.41V84.21H76.78V80.06l1,.07c0,.08-.08.14-.25.16v3.13h3V79L81.6,79c0,.08-.09.14-.24.17v4.23h3.07V80.05l1.06.07c0,.09-.07.15-.24.17v3.92H81.36v4.26h3.56Z"/><path class="cls-2" d="M95.89,79.33c0,.12-.09.18-.27.23,0,.84.09,1.82.11,2.72l2.57-.41.07.84c-.72.08-1.66.21-2.63.36a14,14,0,0,1-.13,2.66,1.31,1.31,0,0,1-1.34,1.12,4.14,4.14,0,0,1-1.85-.53,4.56,4.56,0,0,0,.14-.7,3.68,3.68,0,0,0,1.58.46c.72,0,.82-.7.76-2.89L91,83.85c0,1.14.05,2.23.1,2.9.14,1.83,1,1.94,2.77,1.94A26,26,0,0,0,97,88.51l0,.81a29.73,29.73,0,0,1-3.07.13c-1.86,0-3.49,0-3.7-2.62-.06-.68-.08-1.72-.11-2.83l-2.33.44-.14-.8,2.46-.41c0-1,0-2.17,0-3.08l1.19.1c0,.14-.11.21-.3.23,0,.73,0,1.69,0,2.59l3.88-.64c0-1-.08-2.19-.15-3.16Z"/><path class="cls-2" d="M103.51,84.16a7.39,7.39,0,0,1,3-.69,2.79,2.79,0,0,1,3.11,2.88c0,2.17-1.91,3.37-4.32,3.37-1.56,0-2.62-.63-2.62-1.68a1.81,1.81,0,0,1,2-1.61,2.53,2.53,0,0,1,2.45,2.17,2.35,2.35,0,0,0,1.65-2.24c0-1.3-.95-2.12-2.47-2.12a6.82,6.82,0,0,0-4.35,1.57A16.44,16.44,0,0,0,100.74,87l-.61-.61c1.08-1.13,4.51-4.4,6.14-5.93-.7.1-3.1.19-4.46.24a.38.38,0,0,1-.26.18l-.09-1c1.62,0,4.71-.13,5.59-.26l.18-.09.63.78a.52.52,0,0,1-.28.11c-.86.7-3.13,2.83-4.07,3.73Zm1.65,4.8a5.53,5.53,0,0,0,1.1-.12,1.86,1.86,0,0,0-1.71-1.7c-.62,0-1.17.33-1.17.89C103.38,88.76,104.37,89,105.16,89Z"/><path class="cls-2" d="M114.78,88.36a1.68,1.68,0,1,1-1.68-1.68A1.68,1.68,0,0,1,114.78,88.36Zm-.43,0a1.25,1.25,0,1,0-1.25,1.24A1.25,1.25,0,0,0,114.35,88.36Z"/><path class="cls-2" d="M132.92,85l1.07.07c0,.08-.08.14-.24.15V90h-.83v-.76h-7.8v.79h-.8V85l1.06.06c0,.09-.09.15-.26.16v3.23h3.41V84.21h-3.75V80.06l1,.07c0,.08-.08.14-.25.16v3.13h3V79l1.07.07c0,.08-.09.14-.24.17v4.23h3.07V80.05l1.06.07c0,.09-.07.15-.24.17v3.92h-3.89v4.26h3.56Z"/><path class="cls-2" d="M143.89,79.33c0,.12-.09.18-.27.23,0,.84.09,1.82.11,2.72l2.57-.41.07.84c-.72.08-1.66.21-2.63.36a14,14,0,0,1-.13,2.66,1.31,1.31,0,0,1-1.34,1.12,4.14,4.14,0,0,1-1.85-.53,4.56,4.56,0,0,0,.14-.7,3.68,3.68,0,0,0,1.58.46c.72,0,.82-.7.76-2.89l-3.91.66c0,1.14,0,2.23.1,2.9.14,1.83,1,1.94,2.77,1.94a26,26,0,0,0,3.14-.18l0,.81a29.73,29.73,0,0,1-3.07.13c-1.86,0-3.49,0-3.7-2.62-.06-.68-.08-1.72-.11-2.83l-2.33.44-.14-.8,2.46-.41c0-1,0-2.17,0-3.08l1.19.1c0,.14-.11.21-.3.23,0,.73,0,1.69,0,2.59l3.88-.64c0-1-.08-2.19-.15-3.16Z"/><path class="cls-2" d="M154.83,81.53a15.16,15.16,0,0,1-3.68.68,32,32,0,0,1-2.19,7.5l-.87-.33a25.8,25.8,0,0,0,2.17-7.14c-.24,0-1.84,0-2.21,0v-.82h2.34c.12-.77.24-1.61.31-2.34l1.24.12c0,.14-.18.23-.35.24-.07.53-.19,1.18-.3,1.91a14,14,0,0,0,3.36-.67Zm3.19,8c-.36,0-.73,0-1.1,0a11.89,11.89,0,0,1-2.84-.27,1.66,1.66,0,0,1-1.34-1.65,2.91,2.91,0,0,1,.75-1.74l.72.31a2.22,2.22,0,0,0-.63,1.33c0,1,.92,1.19,3.1,1.19.44,0,.9,0,1.34,0Zm-4.68-5.78a14.41,14.41,0,0,1,4.36-.61v.82a13.22,13.22,0,0,0-4.15.54Z"/><path class="cls-2" d="M164.07,79.25c0,.09-.15.19-.37.2-.08.53-.19,1.15-.3,1.62a16.58,16.58,0,0,0,3.53-.59l.13.82a24.11,24.11,0,0,1-3.81.57,17.67,17.67,0,0,1-2.55,5.9l-.8-.32a15.89,15.89,0,0,0,2.43-5.55H160v-.78h2.53a20,20,0,0,0,.33-2Zm3.19,5.11c0,1,.09,1.63.16,2.45a12,12,0,0,1,2.55,1.4l-.43.76a11.58,11.58,0,0,0-2.12-1.26c0,1.2-.48,2.14-2.24,2.14-1.33,0-2.35-.6-2.34-1.73s1.26-1.77,2.36-1.77a5.24,5.24,0,0,1,1.36.21c-.05-.76-.11-1.54-.11-2.11Zm-.66,3a4,4,0,0,0-1.42-.27c-.72,0-1.57.29-1.59,1s.68,1,1.61,1,1.42-.42,1.42-1.21A5.06,5.06,0,0,0,166.6,87.35Zm3.29-4.23a17.09,17.09,0,0,0-4.25.59l-.13-.76a17.07,17.07,0,0,1,4.33-.64Z"/><path class="cls-2" d="M174.69,81.48c0,.12-.14.18-.31.2a13.33,13.33,0,0,1-.49,3.54h0a8.15,8.15,0,0,1,4.42-1.48c1.84,0,3,1,3,2.63,0,2.21-1.86,3.19-6.5,3.38a3.85,3.85,0,0,0-.3-.79c4.19-.18,5.87-.86,5.9-2.58,0-1.15-.79-1.84-2.19-1.84a6.32,6.32,0,0,0-4.56,1.92l-.82-.4a13.38,13.38,0,0,0,.69-4.73Zm.21-2.33a19.21,19.21,0,0,1,4.65,1.06l-.3.82a20,20,0,0,0-4.6-1.09Z"/><path class="cls-2" d="M194.55,83.85h-1.44a5.1,5.1,0,0,0,1.7,1.8,3,3,0,0,0-.54.64,6.43,6.43,0,0,1-2-2.44h-2.53a6.37,6.37,0,0,1-2.15,2.47,3.88,3.88,0,0,0-.45-.57v3.32c0,.87-.39,1-1.88,1a4.54,4.54,0,0,0-.24-.74h.74c.63,0,.65,0,.65-.24V85.9h-1.62A12.54,12.54,0,0,1,184,90a2.13,2.13,0,0,0-.64-.38,15.55,15.55,0,0,0,.86-6V79.34h3v6.38a5.55,5.55,0,0,0,1.76-1.87h-1.47v-.68h1.84a12,12,0,0,0,.5-1.36h-2v-.68H190a18.33,18.33,0,0,0,.38-2.24l1,.14c0,.1-.09.14-.24.16-.09.68-.2,1.33-.34,1.94h1.55l-.21-.08a12.46,12.46,0,0,0,.9-2l1,.32a.29.29,0,0,1-.27.11,14.34,14.34,0,0,1-.87,1.62h1.56v.68h-2.14a11.63,11.63,0,0,0,.53,1.36h1.81Zm-9.67-.14c0,.44,0,.92,0,1.44h1.57V83h-1.55Zm1.55-3.61h-1.55v2.12h1.55Zm6.5,5.74h.17l.42.06a1.21,1.21,0,0,1,0,.25c-.13,2.35-.27,3.22-.56,3.53s-.54.31-1.22.31L191,90a1.94,1.94,0,0,0-.2-.7,10.22,10.22,0,0,0,1.18.06c.18,0,.27,0,.35-.12s.32-.89.42-2.66h-1.9a4.45,4.45,0,0,1-2.88,3.55,2,2,0,0,0-.48-.61A3.83,3.83,0,0,0,190,86.54h-1.73v-.7h1.86c.06-.42.1-.87.13-1.35l1,.08c0,.1-.1.15-.24.17,0,.38-.08.74-.12,1.1Zm-4.31-6.73a6,6,0,0,1,.75,1.6l-.66.26a5.67,5.67,0,0,0-.7-1.61Zm1.94,2.7a12,12,0,0,1-.47,1.36H192a9.9,9.9,0,0,1-.47-1.36Z"/><path class="cls-2" d="M204.92,81.32a27.49,27.49,0,0,1-5.16.7,14.84,14.84,0,0,1-.56,3.18,6.05,6.05,0,0,1,3.4-1.28c1.79,0,2.88,1,2.88,2.58,0,2.39-2.41,3.19-6.31,3.29a3.45,3.45,0,0,0-.24-.79c3.45-.07,5.68-.66,5.68-2.47,0-1.08-.72-1.83-2.11-1.83a5,5,0,0,0-3.7,1.84l-.84-.4a10.11,10.11,0,0,0,1-4.11h-2.8v-.84H199c0-.68.08-1.45.08-2.17l1.27.12c0,.21-.17.24-.39.26,0,.6-.06,1.22-.1,1.78a23.45,23.45,0,0,0,4.91-.73Z"/><path class="cls-2" d="M210.78,88.36a1.68,1.68,0,1,1-1.68-1.68A1.68,1.68,0,0,1,210.78,88.36Zm-.43,0a1.25,1.25,0,1,0-1.25,1.24A1.25,1.25,0,0,0,210.35,88.36Z"/><rect class="cls-2" x="15" y="43.94" width="254" height="1.5"/></g></g></svg>