<svg xmlns="http://www.w3.org/2000/svg" viewBox="0 0 291.68 174.42"><defs><style>.cls-1{fill:#c9a063;}.cls-2{fill:#fff;}</style></defs><g id="レイヤー_2" data-name="レイヤー 2"><g id="レイヤー_1-2" data-name="レイヤー 1"><rect class="cls-1" width="291.68" height="174.42" rx="5"/><path class="cls-2" d="M17,21.87c0,.11-.15.19-.32.2a19,19,0,0,0-.23,3c0,.45,0,.88.05,1.26.14,2,1,3.28,1.89,3.26.48,0,1.11-1.22,1.54-2.56a4.24,4.24,0,0,0,.69.51c-.55,1.62-1.24,2.94-2.24,3-1.52,0-2.58-1.83-2.74-4.13,0-.46,0-1,0-1.5a28.43,28.43,0,0,1,.18-3.22Zm8,5.58a6,6,0,0,0-3-4.51l.53-.65a6.61,6.61,0,0,1,3.38,4.89Z"/><path class="cls-2" d="M29.69,21.56c0,.15-.19.22-.31.27a21.88,21.88,0,0,0,.48,2.8,7.69,7.69,0,0,1,2.83-1.24c.15-.79.3-1.84.39-2.75l1.17.22c0,.12-.15.19-.35.2-.1.72-.26,1.69-.36,2.21a5.56,5.56,0,0,1,.79-.06c2,0,3,1.3,3,3.58a8.49,8.49,0,0,1-.25,2c.34.28.73.61,1,.9l-.49.75a10.84,10.84,0,0,0-.85-.82A2.25,2.25,0,0,1,34.55,31c-1.3,0-1.92-.75-1.92-1.62a1.74,1.74,0,0,1,1.95-1.56,3.8,3.8,0,0,1,1.72.54A6.28,6.28,0,0,0,36.47,27c0-1.87-.69-3-2.21-3a3.94,3.94,0,0,0-.9.1,13.53,13.53,0,0,1-1.84,4.41,2.45,2.45,0,0,0,.54.53l-.49.67a3.1,3.1,0,0,1-.55-.54,2.81,2.81,0,0,1-2.17,1.31c-.85,0-1.38-.77-1.38-2a4.49,4.49,0,0,1,1.68-3.27,33.87,33.87,0,0,1-.67-3.55Zm.86,7A10.28,10.28,0,0,1,29.43,26a3.53,3.53,0,0,0-1.19,2.44c0,.8.28,1.25.71,1.25S29.88,29.43,30.55,28.52Zm1.92-4.29a6.34,6.34,0,0,0-2.42,1.17,9.46,9.46,0,0,0,1,2.38A11.21,11.21,0,0,0,32.47,24.23Zm2.08,6.09a1.56,1.56,0,0,0,1.56-1.18,3.07,3.07,0,0,0-1.59-.58c-.7,0-1.2.37-1.2.85S33.78,30.32,34.55,30.32Z"/><path class="cls-2" d="M16.49,62.16a13.35,13.35,0,0,1-1.37,2,5.18,5.18,0,0,0-.42-.76A16.09,16.09,0,0,0,17.56,58l1,.31c0,.08-.12.13-.27.12a21.34,21.34,0,0,1-1,2.37l.28.09c0,.07-.08.13-.24.15v8h-.78Zm3.54,5c0,.71.17.88,1.07.88h3.29c.82,0,.95-.39,1.07-1.92a2.08,2.08,0,0,0,.75.32c-.16,1.77-.44,2.34-1.79,2.34H21.1c-1.43,0-1.86-.32-1.86-1.63v-4l-1.35.46-.25-.7,1.6-.55V59l1,.07c0,.09-.08.14-.23.16V62l2-.68v-3.3l1,.07c0,.09-.09.13-.23.16v2.79L25,60.33a.79.79,0,0,1,.17-.14l.65.25a.45.45,0,0,1-.12.12A41.39,41.39,0,0,1,25.53,65c-.13.82-.62.93-2,.88a2.15,2.15,0,0,0-.21-.75c.39,0,.89,0,1.05,0s.35,0,.42-.36a29.45,29.45,0,0,0,.12-3.67l-2.1.73v4.38H22V62.13l-2,.69Z"/><path class="cls-2" d="M33.26,60.08a.3.3,0,0,1-.3.19c-.43,3.73-1.68,7-3.67,7-1,0-1.91-1-1.91-2.9a5.26,5.26,0,0,1,5.39-5.29c3.47,0,5,2.19,5,4.53,0,2.85-1.66,4.23-4.56,4.91a4.82,4.82,0,0,0-.5-.74c2.75-.52,4.17-1.87,4.17-4.13,0-2-1.27-3.78-4.08-3.78l-.36,0Zm-1.15-.16a4.41,4.41,0,0,0-3.92,4.4c0,1.29.55,2.09,1.13,2.09C30.77,66.41,31.81,63.21,32.11,59.92Z"/><path class="cls-2" d="M46.4,60.52a14.7,14.7,0,0,1-3.68.68,31.38,31.38,0,0,1-2.19,7.5l-.87-.32a25.34,25.34,0,0,0,2.17-7.14c-.24,0-1.84,0-2.2,0l0-.81H42c.12-.77.24-1.61.32-2.34l1.23.12c0,.13-.18.22-.35.24-.07.53-.19,1.17-.3,1.9a13.44,13.44,0,0,0,3.36-.67Zm3.2,7.93c-.46,0-1,.06-1.46.06a11,11,0,0,1-2.49-.24,1.66,1.66,0,0,1-1.33-1.66,2.94,2.94,0,0,1,.74-1.74l.72.32a2.19,2.19,0,0,0-.62,1.33c0,.94.91,1.16,2.86,1.16a15.58,15.58,0,0,0,1.56-.07Zm-4.68-5.72a14.3,14.3,0,0,1,4.35-.62v.82a13.82,13.82,0,0,0-4.15.54ZM47,58.57a8.86,8.86,0,0,1,1.66,1.63l-.44.38a8.12,8.12,0,0,0-1.62-1.64Zm1.54-.8a8.54,8.54,0,0,1,1.66,1.62l-.44.39a9.5,9.5,0,0,0-1.61-1.63Z"/><path class="cls-2" d="M51.56,60.64a11.33,11.33,0,0,0,2.25-.18c0-.72,0-1.11.08-2.21l1.24.1c0,.13-.13.22-.34.24,0,.53-.09,1.27-.12,1.71l.38.15a6,6,0,0,0-.48,1.71c1.31-1.23,2.78-2.11,3.77-2.11S60,60.84,60,62.24c0,.15,0,.31,0,.46-.08,1.06-.2,2.56-.2,3.52,0,.72.08,1.1.58,1.1a3.31,3.31,0,0,0,1.6-.8,7,7,0,0,0,.17.91,3.65,3.65,0,0,1-1.89.78c-1,0-1.34-.6-1.34-1.85,0-.62.22-3.92.22-3.93,0-1-.36-1.51-.95-1.51-.9,0-2.41,1-3.66,2.29,0,1.74,0,3.87,0,5.5h-.84c0-.69,0-4.11,0-4.88a12.5,12.5,0,0,1-2.19,2.89L51.11,66a12.17,12.17,0,0,0,2.64-3.63c0-.34,0-.67,0-1.05a12.79,12.79,0,0,1-2.2.2Z"/><path class="cls-2" d="M67.64,58.47c0,.14-.16.2-.39.22l-.49,2.55c.54-.06,1-.11,1.33-.11,1.82,0,2.44,1.19,2.44,3a9.25,9.25,0,0,1-.4,2.68A2.2,2.2,0,0,1,68,68.62a3.57,3.57,0,0,1-2.17-1.05,4.89,4.89,0,0,0,.33-.73,3.2,3.2,0,0,0,1.83.91c.68,0,1.09-.43,1.33-1.2a9.09,9.09,0,0,0,.39-2.46c0-1.36-.46-2.18-1.66-2.17a14.28,14.28,0,0,0-1.46.12,23,23,0,0,1-2.46,6.48l-.79-.38a19.62,19.62,0,0,0,2.38-6c-.61.07-1.48.18-2.13.29l-.07-.84,2.37-.28c.18-.87.37-2,.52-3Zm5.56,5.77a7.19,7.19,0,0,0-2.7-4.1l.65-.51a7.69,7.69,0,0,1,2.91,4.27Z"/><path class="cls-2" d="M80.69,68V60h0l-1.48.85L79,60.08l1.86-1h.85v9Z"/><path class="cls-2" d="M93.77,58.36c0,.1-.1.16-.25.18l0,.35c.13,1.69.85,7.29,5.42,9.37a2.41,2.41,0,0,0-.61.67c-3.24-1.54-4.58-4.8-5.14-7.28h0a10.14,10.14,0,0,1-5,7.27,3,3,0,0,0-.65-.62c5-2.5,5-8.4,5.12-10Z"/><path class="cls-2" d="M105.88,60.08a.31.31,0,0,1-.3.19c-.44,3.73-1.68,7-3.67,7-1,0-1.92-1-1.92-2.9a5.26,5.26,0,0,1,5.39-5.29c3.47,0,5,2.19,5,4.53,0,2.85-1.66,4.23-4.56,4.91a4.82,4.82,0,0,0-.5-.74c2.76-.52,4.17-1.87,4.17-4.13,0-2-1.27-3.78-4.08-3.78l-.36,0Zm-1.16-.16a4.41,4.41,0,0,0-3.92,4.4c0,1.29.55,2.09,1.13,2.09C103.38,66.41,104.43,63.21,104.72,59.92Z"/><path class="cls-2" d="M122.67,64.44v.79H117.6v2.68c0,.61-.18.85-.61,1a9.52,9.52,0,0,1-2.52.15,4,4,0,0,0-.35-.81c.58,0,1.13,0,1.55,0,1,0,1.1,0,1.1-.35V65.23h-5v-.79h5v-2h-4.24v-.77h4.24V59.7c-1.32.16-2.71.28-4,.35a2.14,2.14,0,0,0-.22-.69,37.61,37.61,0,0,0,8.17-1.21l.7.68a.31.31,0,0,1-.15,0h-.11a20.26,20.26,0,0,1-3.33.71c0,.08-.08.12-.24.14v1.95H122v.77H117.6v2Z"/><path class="cls-2" d="M127.18,58c0,.08-.09.14-.24.16v2.44h2.11v.77h-2.11v1.14c.47.45,1.75,1.88,2.05,2.24l-.54.69a23.92,23.92,0,0,0-1.51-2V69h-.81v-6.1A12.34,12.34,0,0,1,124,66.82a4.42,4.42,0,0,0-.47-.76A11.88,11.88,0,0,0,126,61.34h-2.26v-.77h2.38V57.91Zm3.51,9.27c0,.64.12.76.66.76h1.91c.59,0,.67-.54.75-2.55a2.22,2.22,0,0,0,.77.38c-.11,2.2-.32,3-1.47,3h-2c-1.08,0-1.4-.33-1.4-1.59V57.93l1.05.07c0,.09-.07.15-.24.17Z"/><path class="cls-2" d="M146.18,63l-.07,0a.29.29,0,0,1-.18-.07c-.91.3-2.24.79-3.24,1.22a8.93,8.93,0,0,1,0,.94c0,.38,0,.81,0,1.28l-.87,0c0-.43.06-1,.06-1.45a3.47,3.47,0,0,0,0-.48c-1.35.66-2.45,1.46-2.45,2.18s.82,1,2.48,1a26,26,0,0,0,3-.12v.81c-.71.07-1.79.09-3,.09-2.3,0-3.32-.55-3.32-1.77,0-1.06,1.39-2.08,3.19-3-.08-.75-.41-1.12-.89-1.12A4,4,0,0,0,138,64.35a16.44,16.44,0,0,1-1.32,1.3l-.58-.58a8.54,8.54,0,0,0,3-4.43h-2.68v-.78h2.89a14.85,14.85,0,0,0,.33-1.71l1.17.14c0,.12-.12.19-.3.22-.08.48-.19.9-.3,1.33a16.45,16.45,0,0,0,4.13-.7l.14.81a18.66,18.66,0,0,1-4.49.67,8.67,8.67,0,0,1-.87,2h0a3.18,3.18,0,0,1,1.93-.78c.82,0,1.34.58,1.49,1.56,1-.46,2.28-.95,3.24-1.33Z"/><path class="cls-2" d="M153.3,68V60h0l-1.48.85-.24-.74,1.86-1h.85v9Z"/><path class="cls-2" d="M163.07,62.48c.41.44,1.47,1.72,1.71,2.05l-.51.66c-.23-.4-.76-1.18-1.2-1.78V69h-.78V63a13.38,13.38,0,0,1-1.77,3.75,4.22,4.22,0,0,0-.45-.73,13.39,13.39,0,0,0,2.1-4.71h-1.81v-.77h1.93V57.88l1,.07c0,.09-.07.14-.23.16v2.41h1.69v.77h-1.69Zm8.3-1.47h-1a13,13,0,0,1-1.91,5,7.35,7.35,0,0,0,3,2.3,3.51,3.51,0,0,0-.58.74,7.82,7.82,0,0,1-3-2.37,8.68,8.68,0,0,1-3.14,2.35,4.49,4.49,0,0,0-.51-.66A8,8,0,0,0,167.45,66a12.39,12.39,0,0,1-1.53-3.82,8.61,8.61,0,0,1-1,1.7,5.36,5.36,0,0,0-.6-.56,13.26,13.26,0,0,0,2.17-5.47l1,.25c0,.09-.11.14-.27.15a16.21,16.21,0,0,1-.54,2h4.68Zm-4.94,0-.05.11a12.82,12.82,0,0,0,1.57,4.2A12.06,12.06,0,0,0,169.51,61Z"/><path class="cls-2" d="M174.59,62.69v4c.93,1.44,2.71,1.44,4.77,1.44,1.38,0,3.06,0,4.06-.1a2.7,2.7,0,0,0-.27.77c-.82,0-2.16,0-3.37,0-2.67,0-4.34,0-5.53-1.49-.52.54-1.09,1.07-1.53,1.49a.18.18,0,0,1-.11.18l-.45-.82c.5-.39,1.12-.92,1.66-1.44V63.46h-1.55v-.77ZM173,58.18a8.46,8.46,0,0,1,1.9,2l-.67.47a8.18,8.18,0,0,0-1.85-2.09Zm10.25,6.75v.65h-8.11v-.65h2.24v-1.2h-1.75v-.64h1.75v-1l1,.07c0,.08-.08.14-.24.16v.73h2v-1l1,.07c0,.08-.08.14-.24.17v.72h1.82v.64h-1.82v1.2Zm-5.52-5.12V59H175.3v-.58h3.13v2h-2.14v.66c0,.23.06.28.45.28h1.36c.29,0,.35-.08.38-.63a1.93,1.93,0,0,0,.61.23c-.07.79-.28,1-.89,1h-1.52c-.85,0-1.08-.15-1.08-.85V59.81Zm1,6.2a.21.21,0,0,1-.25.09A11.38,11.38,0,0,1,176,67.61a3.7,3.7,0,0,0-.55-.49,8.4,8.4,0,0,0,2.45-1.45Zm-.6-2.28v1.2h2v-1.2Zm3.69-3.92V59h-2.57v-.58h3.29v2h-2.26v.66c0,.23.07.28.5.28h1.5c.31,0,.37-.08.39-.68a2.63,2.63,0,0,0,.63.23c-.09.83-.29,1-.92,1h-1.66c-.9,0-1.14-.15-1.14-.86V59.81Zm-1.46,5.86a14.58,14.58,0,0,1,2.76,1.57l-.79.37A12.84,12.84,0,0,0,179.79,66Z"/><path class="cls-2" d="M184.34,66.83a26.51,26.51,0,0,0,2.92-2.29l.42.65c-.79.73-1.93,1.66-2.57,2.15a.33.33,0,0,1-.13.33Zm3.34-8.59a10.66,10.66,0,0,0,4.51,1.45l-.17.78-.5,0a2.5,2.5,0,0,0-1.81.9L189,61a4,4,0,0,1,1.21-.89,9.53,9.53,0,0,1-3-1.25Zm1.57,3.85a1.92,1.92,0,0,0-.32.91c0,.49.35.91,1.15,1.47a2.84,2.84,0,0,1,1.44,2.33,1.83,1.83,0,0,1-2,1.84,5.2,5.2,0,0,1-2.31-.8,3.38,3.38,0,0,0,.23-.7,4.74,4.74,0,0,0,2,.71,1,1,0,0,0,1.16-1.07,2.51,2.51,0,0,0-1.26-1.86c-.87-.6-1.29-1.17-1.29-1.85a2.42,2.42,0,0,1,.41-1.25ZM192,63.52a5.55,5.55,0,0,1,3.24,3.31l-.78.43a5.25,5.25,0,0,0-2.9-3.12Zm.58-5.08a7.55,7.55,0,0,1,1.62,1.71l-.46.36a7.6,7.6,0,0,0-1.58-1.72Zm1.47-.76a6.79,6.79,0,0,1,1.6,1.68l-.46.36A6.85,6.85,0,0,0,193.58,58Z"/><path class="cls-2" d="M199.57,67.36a1.68,1.68,0,1,1-1.68-1.68A1.68,1.68,0,0,1,199.57,67.36Zm-.43,0a1.24,1.24,0,1,0-1.25,1.23A1.24,1.24,0,0,0,199.14,67.36Z"/><path class="cls-2" d="M210.59,62.69v4c.93,1.44,2.71,1.44,4.77,1.44,1.38,0,3.06,0,4.06-.1a2.7,2.7,0,0,0-.27.77c-.82,0-2.16,0-3.37,0-2.67,0-4.34,0-5.53-1.49-.52.54-1.09,1.07-1.53,1.49a.18.18,0,0,1-.11.18l-.45-.82c.5-.39,1.12-.92,1.66-1.44V63.46h-1.55v-.77ZM209,58.18a8.46,8.46,0,0,1,1.9,2l-.67.47a8.18,8.18,0,0,0-1.85-2.09Zm10.25,6.75v.65h-8.11v-.65h2.24v-1.2h-1.75v-.64h1.75v-1l1,.07c0,.08-.08.14-.24.16v.73h2v-1l1,.07c0,.08-.08.14-.24.17v.72h1.82v.64h-1.82v1.2Zm-5.52-5.12V59H211.3v-.58h3.13v2h-2.14v.66c0,.23.06.28.45.28h1.36c.29,0,.35-.08.38-.63a1.93,1.93,0,0,0,.61.23c-.07.79-.28,1-.89,1h-1.52c-.85,0-1.08-.15-1.08-.85V59.81Zm1,6.2a.21.21,0,0,1-.25.09A11.38,11.38,0,0,1,212,67.61a3.7,3.7,0,0,0-.55-.49,8.4,8.4,0,0,0,2.45-1.45Zm-.6-2.28v1.2h2v-1.2Zm3.69-3.92V59h-2.57v-.58h3.29v2h-2.26v.66c0,.23.07.28.5.28h1.5c.31,0,.37-.08.39-.68a2.63,2.63,0,0,0,.63.23c-.09.83-.29,1-.92,1h-1.66c-.9,0-1.14-.15-1.14-.86V59.81Zm-1.46,5.86a14.58,14.58,0,0,1,2.76,1.57l-.79.37A12.84,12.84,0,0,0,215.79,66Z"/><path class="cls-2" d="M220.38,68.2c.89-2.55,2.37-6.79,2.83-8.06.23-.65.54-1.56.63-1.86l1.29.33c-.06.17-.23.23-.47.23-.65,1.64-1.67,4.45-2.12,5.65h0A3.85,3.85,0,0,1,225.18,63c1,0,1.55.7,1.51,1.82l0,1.43a1.19,1.19,0,0,0,1.24,1.39c1.08,0,2.08-1.24,2.63-3.3a5.52,5.52,0,0,0,.78.44c-.66,2.29-1.85,3.73-3.44,3.73a1.92,1.92,0,0,1-2.1-2c0-.23,0-1.33,0-1.58,0-.76-.31-1.15-.84-1.15-1.37,0-2.77,2-3.07,2.78-.16.42-.43,1.19-.66,1.88Z"/><path class="cls-2" d="M239.63,60.52a14.78,14.78,0,0,1-3.69.68,31.38,31.38,0,0,1-2.19,7.5l-.86-.32a26,26,0,0,0,2.17-7.14c-.24,0-1.85,0-2.21,0v-.81h2.34c.12-.77.24-1.61.31-2.34l1.23.12c0,.13-.18.22-.34.24-.08.53-.2,1.17-.3,1.9a13.45,13.45,0,0,0,3.35-.67Zm3.2,7.93c-.47,0-1,.06-1.46.06a11.1,11.1,0,0,1-2.5-.24,1.67,1.67,0,0,1-1.33-1.66,2.94,2.94,0,0,1,.74-1.74l.72.32a2.19,2.19,0,0,0-.62,1.33c0,.94.91,1.16,2.87,1.16.52,0,1.08,0,1.56-.07Zm-4.69-5.72a14.35,14.35,0,0,1,4.35-.62v.82a13.91,13.91,0,0,0-4.15.54Zm2.11-4.16a8.64,8.64,0,0,1,1.67,1.63l-.45.38a7.86,7.86,0,0,0-1.62-1.64Zm1.55-.8a8.47,8.47,0,0,1,1.65,1.62l-.44.39a9.14,9.14,0,0,0-1.61-1.63Z"/><path class="cls-2" d="M254.28,61.06a.51.51,0,0,1-.11.16c-.16,3.45-.49,5.62-1,6.47a1.65,1.65,0,0,1-1.57.87,12.64,12.64,0,0,1-2.15-.28,4.06,4.06,0,0,0,0-.85,12.92,12.92,0,0,0,2.1.3.89.89,0,0,0,.92-.57,18.25,18.25,0,0,0,.78-5.44h-3.84a11,11,0,0,1-4,6.87,4.47,4.47,0,0,0-.68-.53,9.94,9.94,0,0,0,3.74-6.34h-3.31v-.8h3.48A24.6,24.6,0,0,0,249,58.3l1.19.1c0,.13-.12.2-.3.21-.07.88-.13,1.54-.26,2.31h3.88l.2-.08Z"/><path class="cls-2" d="M256.72,62.82h10v.85h-9.55a.56.56,0,0,1-.39.23Z"/><path class="cls-2" d="M24,85.62a41.29,41.29,0,0,0-4.21-2v6h-.9V79.23l1.21.07c0,.13-.11.22-.31.25v3.53l.18-.26a41,41,0,0,1,4.51,2ZM22.69,80a11,11,0,0,1,1.66,1.77l-.46.37a9.91,9.91,0,0,0-1.63-1.75Zm1.61-1a10.67,10.67,0,0,1,1.64,1.75l-.43.37a11.64,11.64,0,0,0-1.64-1.75Z"/><path class="cls-2" d="M37.57,84l-.07,0a.29.29,0,0,1-.18-.07c-.91.3-2.24.79-3.24,1.22,0,.28,0,.59,0,.94s0,.81,0,1.28l-.88,0c0-.43.06-1,.06-1.45,0-.18,0-.35,0-.48-1.35.66-2.46,1.46-2.46,2.18s.83,1,2.49,1a26,26,0,0,0,3-.12v.81c-.71.07-1.79.09-3,.09C31,89.53,30,89,30,87.76c0-1.06,1.4-2.08,3.19-3-.07-.75-.4-1.12-.88-1.12a4,4,0,0,0-2.87,1.69,18.3,18.3,0,0,1-1.32,1.3l-.59-.58a8.49,8.49,0,0,0,3-4.43H27.83v-.78h2.89a17.35,17.35,0,0,0,.33-1.71l1.17.14c0,.12-.12.19-.3.22-.08.48-.19.9-.3,1.33a16.45,16.45,0,0,0,4.13-.7l.14.81a18.66,18.66,0,0,1-4.5.67,8.73,8.73,0,0,1-.86,2h0a3.18,3.18,0,0,1,1.93-.78c.82,0,1.33.58,1.49,1.56,1-.46,2.28-1,3.24-1.33Z"/><path class="cls-2" d="M45.26,78.91c0,.09-.12.15-.24.18a16.81,16.81,0,0,0,5.19,4.35,3.1,3.1,0,0,0-.54.71,18.69,18.69,0,0,1-5.15-4.48,16.51,16.51,0,0,1-5,4.56,3.22,3.22,0,0,0-.5-.63,15,15,0,0,0,5.11-4.75ZM45,86.85v2.09h4.84v.75H39.41v-.75h4.7V86.85H40.42v-.74h3.69v-2H41v-.73h7.3v.73H45v2h3.74v.74Z"/><path class="cls-2" d="M55.44,88.54a.45.45,0,0,1-.24.08A14.9,14.9,0,0,1,51.66,90a4.08,4.08,0,0,0-.58-.6A12.37,12.37,0,0,0,54.61,88Zm-3.12-5.72H60.9V88H52.32ZM53,79.37H60.2v2.7H53Zm.12,4.06v.92h6.94v-.92Zm0,1.51v.93h6.94v-.93Zm0,1.52v1h6.94v-1ZM53.81,80v1.35h5.55V80Zm7.66,10a30.16,30.16,0,0,0-3.83-1.45l.7-.53a38.29,38.29,0,0,1,3.82,1.39Z"/><path class="cls-2" d="M65.73,79.78c0,.13-.16.21-.4.19a28.83,28.83,0,0,0-.64,5.4,13.07,13.07,0,0,0,.16,2.37l.91-2.26.51.53c-.5,1.21-.86,1.89-1,2.43a2.07,2.07,0,0,0-.1.56,1.16,1.16,0,0,0,.06.38l-.85.15a13,13,0,0,1-.53-4.12,34.43,34.43,0,0,1,.64-5.84Zm7.64,8.77q-.66,0-1.32,0a15.46,15.46,0,0,1-2.23-.13c-1.48-.21-2.16-1-2.16-2a3.64,3.64,0,0,1,1.12-2.31l.78.33a2.85,2.85,0,0,0-1,1.89c0,1.39,2,1.39,3.29,1.39.5,0,1,0,1.55-.06Zm-5.56-7.33A39,39,0,0,0,73,80.77l.07.83a44.29,44.29,0,0,1-5.27.45Z"/><path class="cls-2" d="M79.55,86.45c0,.08-.11.14-.25.16-.33,1.71-1,2.87-3.85,3.45a2.49,2.49,0,0,0-.45-.71c2.59-.47,3.24-1.4,3.48-3Zm2.66,2.31c0,.35.1.42.65.42h1.91c.5,0,.6-.22.64-1.74a2.31,2.31,0,0,0,.75.34c-.1,1.74-.33,2.17-1.33,2.17h-2c-1.11,0-1.39-.25-1.39-1.19V86H76.77V79.33h7.64V86h-2.2ZM77.55,80v1.31h6V80Zm0,2v1.32h6V82Zm0,2v1.34h6V84Z"/><path class="cls-2" d="M95.46,79.33c0,.11-.09.18-.27.22,0,.84.09,1.83.11,2.73l2.57-.41.07.84c-.72.07-1.65.2-2.63.36a14.1,14.1,0,0,1-.13,2.66,1.31,1.31,0,0,1-1.34,1.12A4.14,4.14,0,0,1,92,86.32a5.86,5.86,0,0,0,.15-.71,3.67,3.67,0,0,0,1.57.47c.72,0,.82-.71.77-2.89l-3.91.66c0,1.14,0,2.23.09,2.9.15,1.82,1,1.93,2.77,1.93a25.92,25.92,0,0,0,3.14-.18l0,.82c-.85.09-2.07.13-3.07.13-1.86,0-3.49,0-3.7-2.63-.06-.67-.08-1.71-.1-2.83-.75.13-1.73.33-2.34.45l-.13-.81,2.45-.41c0-1,0-2.17,0-3.08l1.19.11c0,.13-.11.2-.3.23,0,.73,0,1.69,0,2.59l3.88-.65c0-1-.08-2.18-.15-3.15Z"/><path class="cls-2" d="M103.08,84.16a7.25,7.25,0,0,1,3-.7,2.79,2.79,0,0,1,3.1,2.88c0,2.17-1.9,3.37-4.32,3.37-1.56,0-2.62-.62-2.62-1.68a1.81,1.81,0,0,1,2-1.6,2.53,2.53,0,0,1,2.45,2.17,2.36,2.36,0,0,0,1.66-2.25c0-1.29-1-2.12-2.47-2.12a6.83,6.83,0,0,0-4.36,1.57c-.36.34-.83.84-1.15,1.21l-.61-.61c1.08-1.13,4.51-4.4,6.14-5.92-.7.09-3.09.19-4.46.24a.47.47,0,0,1-.25.18l-.1-1c1.62,0,4.71-.13,5.59-.27l.18-.08.63.78a.61.61,0,0,1-.28.11c-.85.69-3.13,2.83-4.07,3.73Zm1.66,4.8a5.35,5.35,0,0,0,1.09-.12,1.85,1.85,0,0,0-1.71-1.71c-.62,0-1.17.34-1.17.89C103,88.75,103.94,89,104.74,89Z"/><path class="cls-2" d="M114.35,88.36a1.68,1.68,0,1,1-1.68-1.68A1.69,1.69,0,0,1,114.35,88.36Zm-.43,0a1.25,1.25,0,1,0-1.25,1.23A1.24,1.24,0,0,0,113.92,88.36Z"/><path class="cls-2" d="M120.54,79.78a29,29,0,0,0,5.87-.5l.28.75a2.33,2.33,0,0,0-.56.41c-1.21,1-3,2.27-4.39,3.25a40.81,40.81,0,0,1,7.32-.83v.85h-.54a8,8,0,0,0-1.84.18c-1,.29-3.52,1.77-3.52,3.41a1.11,1.11,0,0,0,.62,1.08,9.21,9.21,0,0,0,3,.59l-.27.84c-2.9-.23-4.23-.9-4.23-2.44s1.68-2.85,2.85-3.48A43,43,0,0,0,119,85l-.15-.81a5.27,5.27,0,0,0,1.57-.54A38.26,38.26,0,0,0,125,80.26c-.74.12-2.24.24-2.92.28-.35,0-.83,0-1.14.06a.47.47,0,0,1-.31.14Z"/><path class="cls-2" d="M136.76,81.08a.3.3,0,0,1-.3.19c-.43,3.73-1.68,7-3.67,7-1,0-1.91-1-1.91-2.9a5.26,5.26,0,0,1,5.39-5.29c3.47,0,5,2.19,5,4.53,0,2.85-1.66,4.23-4.56,4.91a4.82,4.82,0,0,0-.5-.74c2.75-.52,4.17-1.87,4.17-4.13,0-2-1.27-3.78-4.08-3.78l-.36,0Zm-1.15-.16a4.41,4.41,0,0,0-3.92,4.4c0,1.29.55,2.09,1.13,2.09C134.27,87.41,135.31,84.21,135.61,80.92Z"/><path class="cls-2" d="M152.55,82.06a.35.35,0,0,1-.1.16c-.16,3.45-.5,5.62-1,6.47a1.65,1.65,0,0,1-1.57.87,12.64,12.64,0,0,1-2.15-.28,4.07,4.07,0,0,0,0-.85,13.07,13.07,0,0,0,2.1.3.91.91,0,0,0,.93-.57,18.71,18.71,0,0,0,.77-5.44H147.7a11,11,0,0,1-4,6.87,5,5,0,0,0-.68-.53,9.94,9.94,0,0,0,3.74-6.34h-3.31v-.8H147a22.16,22.16,0,0,0,.28-2.62l1.19.1c0,.13-.12.2-.3.21a21.9,21.9,0,0,1-.27,2.31h3.89l.19-.08Z"/><path class="cls-2" d="M155,83.82h10v.85h-9.56a.54.54,0,0,1-.38.23Z"/><path class="cls-2" d="M175.45,85.62a41.29,41.29,0,0,0-4.21-2v6h-.9V79.23l1.21.07c0,.13-.11.22-.31.25v3.53l.18-.26a41,41,0,0,1,4.51,2ZM174.19,80a11,11,0,0,1,1.66,1.77l-.46.37a9.91,9.91,0,0,0-1.63-1.75Zm1.61-1a10.67,10.67,0,0,1,1.64,1.75l-.43.37a11.64,11.64,0,0,0-1.64-1.75Z"/><path class="cls-2" d="M183.14,79.47c0,.14-.16.2-.39.22l-.49,2.55c.54-.06,1-.11,1.33-.11,1.82,0,2.44,1.19,2.44,3a9.25,9.25,0,0,1-.4,2.68,2.2,2.2,0,0,1-2.14,1.82,3.57,3.57,0,0,1-2.17-1.05,4.89,4.89,0,0,0,.33-.73,3.2,3.2,0,0,0,1.83.91c.68,0,1.09-.43,1.33-1.2a9.09,9.09,0,0,0,.39-2.46c0-1.36-.46-2.18-1.66-2.17a14.28,14.28,0,0,0-1.46.12,23,23,0,0,1-2.46,6.48l-.79-.38a19.62,19.62,0,0,0,2.38-6c-.61.07-1.48.18-2.13.29l-.07-.84,2.37-.28c.18-.87.37-2,.52-3Zm2.79-.37a8.12,8.12,0,0,1,1.6,1.68l-.46.33a8.34,8.34,0,0,0-1.59-1.67Zm2.68,7A7.51,7.51,0,0,0,186.17,82l.69-.47a8,8,0,0,1,2.62,4.23Zm-.87-7.45a7.72,7.72,0,0,1,1.62,1.67l-.47.34A8.3,8.3,0,0,0,187.31,79Z"/><path class="cls-2" d="M195.09,79.4c0,.07-.11.09-.23.09a13.12,13.12,0,0,1-1.49,1.72,8.09,8.09,0,0,1,.92,4.26c0,1.84-.16,3.34-.7,4.06-.24.34-.63.51-1.74.51l-.71,0a1.68,1.68,0,0,0-.28-.81c.39,0,.74,0,1,0,.64,0,.88,0,1.11-.27a7.62,7.62,0,0,0,.5-3.52c0-.28,0-.56,0-.84a10.8,10.8,0,0,1-2.57,2.57,2.8,2.8,0,0,0-.55-.65,9.12,9.12,0,0,0,3-3,6,6,0,0,0-.57-1.72A17.81,17.81,0,0,1,191,83.13a3.25,3.25,0,0,0-.57-.54,13.54,13.54,0,0,0,1.93-1.5,7.72,7.72,0,0,0-1.64-1.65l.58-.46a8.44,8.44,0,0,1,1.63,1.56,10,10,0,0,0,1.28-1.6Zm1.45,8.79c0,.65.14.79.87.79h2.64c.68,0,.79-.41.88-2.07a2.73,2.73,0,0,0,.75.36c-.12,1.85-.37,2.48-1.61,2.48h-2.72c-1.25,0-1.63-.33-1.63-1.59V79.85h5.22v4.78c0,1-.41,1-2.68,1a2.92,2.92,0,0,0-.27-.82c.53,0,1,0,1.36,0,.71,0,.78,0,.78-.26v-4h-3.59Z"/><path class="cls-2" d="M208.66,79.36c0,.1-.1.16-.26.18l0,.35c.13,1.69.85,7.29,5.42,9.37a2.41,2.41,0,0,0-.61.67c-3.24-1.54-4.58-4.8-5.15-7.28h0a10.15,10.15,0,0,1-5,7.27,2.71,2.71,0,0,0-.64-.62c5-2.5,5-8.4,5.12-10Z"/><path class="cls-2" d="M219.14,79.24c0,.1-.15.19-.37.2-.08.53-.19,1.16-.3,1.62a16.48,16.48,0,0,0,3.53-.58l.13.81a23.71,23.71,0,0,1-3.81.58,17.85,17.85,0,0,1-2.55,5.9l-.8-.33a16.09,16.09,0,0,0,2.44-5.55H215v-.78h2.53c.14-.64.25-1.32.34-2Zm3.2,5.11c0,1,.08,1.63.15,2.46a12.23,12.23,0,0,1,2.56,1.39l-.44.77a11,11,0,0,0-2.12-1.26c0,1.2-.48,2.13-2.24,2.13-1.33,0-2.35-.6-2.34-1.72s1.26-1.78,2.36-1.78a5.27,5.27,0,0,1,1.36.22c0-.77-.11-1.55-.11-2.11Zm-.66,3a4.11,4.11,0,0,0-1.43-.28c-.72,0-1.57.29-1.58,1s.67,1,1.6,1,1.42-.42,1.42-1.21C221.69,87.71,221.69,87.53,221.68,87.35ZM225,83.11a17.42,17.42,0,0,0-4.24.59l-.14-.75a16.66,16.66,0,0,1,4.33-.65Z"/><path class="cls-2" d="M229.77,81.47a.37.37,0,0,1-.32.21,13.3,13.3,0,0,1-.49,3.53h0a8.22,8.22,0,0,1,4.42-1.47c1.84,0,3,1,3,2.63,0,2.2-1.86,3.19-6.5,3.38a3.46,3.46,0,0,0-.3-.79c4.19-.18,5.87-.87,5.9-2.58,0-1.15-.79-1.85-2.19-1.85a6.34,6.34,0,0,0-4.56,1.92l-.82-.4a13.25,13.25,0,0,0,.69-4.72Zm.2-2.32a19.23,19.23,0,0,1,4.65,1l-.3.83a19,19,0,0,0-4.6-1.09Z"/><path class="cls-2" d="M249.62,83.85h-1.44a5.3,5.3,0,0,0,1.71,1.8,3,3,0,0,0-.54.63,6.22,6.22,0,0,1-2-2.43h-2.53a6.47,6.47,0,0,1-2.16,2.47,3.94,3.94,0,0,0-.45-.58v3.32c0,.88-.39,1-1.88,1a3.74,3.74,0,0,0-.24-.74h.74c.63,0,.65,0,.65-.24V85.9h-1.62A12.35,12.35,0,0,1,239,90a2,2,0,0,0-.63-.39,15.52,15.52,0,0,0,.85-6V79.34h3v6.38A5.87,5.87,0,0,0,244,83.85h-1.48v-.69h1.84a10.21,10.21,0,0,0,.5-1.35h-2v-.69h2.2a18,18,0,0,0,.38-2.24l1,.15c0,.09-.09.14-.23.15-.1.68-.21,1.33-.35,1.94h1.56l-.22-.08a12.06,12.06,0,0,0,.9-2l.95.33a.3.3,0,0,1-.27.11,15.14,15.14,0,0,1-.87,1.61h1.56v.69h-2.14a11.47,11.47,0,0,0,.53,1.35h1.81ZM240,83.7c0,.45,0,.93,0,1.44h1.57V83H240Zm1.55-3.61H240v2.13h1.55Zm6.5,5.75h.17l.42.06c0,.07,0,.15,0,.25-.14,2.35-.28,3.21-.57,3.52s-.54.32-1.22.32L246,90a1.94,1.94,0,0,0-.2-.69,10.22,10.22,0,0,0,1.18.06.44.44,0,0,0,.36-.12c.18-.2.31-.89.42-2.67h-1.91A4.42,4.42,0,0,1,243,90.08a2.12,2.12,0,0,0-.48-.61,3.81,3.81,0,0,0,2.59-2.94h-1.73v-.69h1.86c.06-.42.1-.88.14-1.36l1,.09c0,.09-.1.14-.24.16,0,.39-.08.75-.12,1.11Zm-4.3-6.73a6.07,6.07,0,0,1,.74,1.59l-.66.27a5.84,5.84,0,0,0-.69-1.62Zm1.93,2.7a10.18,10.18,0,0,1-.47,1.35h1.91a11.29,11.29,0,0,1-.47-1.35Z"/><path class="cls-2" d="M260,81.32a28.29,28.29,0,0,1-5.16.69,14.71,14.71,0,0,1-.56,3.18,6.14,6.14,0,0,1,3.41-1.27c1.78,0,2.87,1,2.87,2.58,0,2.38-2.41,3.19-6.3,3.28A4.49,4.49,0,0,0,254,89c3.44-.07,5.67-.66,5.67-2.47,0-1.08-.72-1.82-2.11-1.82a5,5,0,0,0-3.7,1.83l-.84-.39A10.17,10.17,0,0,0,254,82h-2.8v-.83h2.88c0-.69.07-1.45.07-2.17l1.27.12c0,.2-.17.24-.39.26,0,.6-.06,1.21-.1,1.78a23.49,23.49,0,0,0,4.91-.74Z"/><path class="cls-2" d="M265.85,88.36a1.68,1.68,0,1,1-1.68-1.68A1.69,1.69,0,0,1,265.85,88.36Zm-.43,0a1.25,1.25,0,1,0-1.25,1.23A1.24,1.24,0,0,0,265.42,88.36Z"/><path class="cls-2" d="M19.59,100.4c0,.07-.11.09-.23.09a13.12,13.12,0,0,1-1.49,1.72,8.09,8.09,0,0,1,.92,4.26c0,1.84-.16,3.34-.7,4.06-.24.34-.63.51-1.74.51l-.71,0a1.68,1.68,0,0,0-.28-.81c.39,0,.74,0,1,0,.64,0,.88,0,1.11-.27a7.62,7.62,0,0,0,.5-3.52c0-.28,0-.56,0-.84a10.8,10.8,0,0,1-2.57,2.57,2.8,2.8,0,0,0-.55-.65,9.12,9.12,0,0,0,3-3,6,6,0,0,0-.57-1.72,17.81,17.81,0,0,1-1.77,1.37,3.25,3.25,0,0,0-.57-.54,13.54,13.54,0,0,0,1.93-1.5,7.72,7.72,0,0,0-1.64-1.65l.58-.46a8.44,8.44,0,0,1,1.63,1.56,10,10,0,0,0,1.28-1.6ZM21,109.19c0,.65.14.79.87.79h2.64c.68,0,.79-.41.88-2.07a2.73,2.73,0,0,0,.75.36c-.12,1.85-.37,2.48-1.61,2.48H21.85c-1.25,0-1.63-.33-1.63-1.59v-8.31h5.22v4.78c0,1-.41,1-2.68,1a2.92,2.92,0,0,0-.27-.82c.53,0,1,0,1.36,0,.71,0,.78,0,.78-.26v-4H21Z"/><path class="cls-2" d="M33.16,100.36c0,.1-.1.16-.26.18l0,.35c.13,1.69.85,7.29,5.42,9.37a2.41,2.41,0,0,0-.61.67c-3.24-1.54-4.58-4.8-5.15-7.28h0a10.15,10.15,0,0,1-5,7.27,2.71,2.71,0,0,0-.64-.62c5-2.5,5-8.4,5.12-10Z"/><path class="cls-2" d="M39.56,101.51c.89,0,8.28-.56,9.84-.57v.9a3.31,3.31,0,0,0-.44,0,3.4,3.4,0,0,0-2,.62c-1.8,1.08-3.54,3-3.54,4.55s1.18,2.68,4.15,3.06l-.39.84c-3.41-.49-4.68-1.76-4.68-3.9,0-1.69,1.66-3.74,3.86-5.12-1.32.1-4.86.36-6.4.51a.38.38,0,0,1-.27.19Zm7.77,2.37A9.06,9.06,0,0,1,49,105.53l-.46.37a7.76,7.76,0,0,0-1.58-1.66Zm1.29-1.06a7.3,7.3,0,0,1,1.63,1.66l-.45.36a8.5,8.5,0,0,0-1.59-1.66Z"/><path class="cls-2" d="M55.64,100.24c0,.1-.15.19-.37.2-.08.53-.19,1.16-.3,1.62a16.48,16.48,0,0,0,3.53-.58l.13.81a23.71,23.71,0,0,1-3.81.58,17.85,17.85,0,0,1-2.55,5.9l-.8-.33a16.09,16.09,0,0,0,2.44-5.55H51.52v-.78h2.53c.14-.64.25-1.32.34-2Zm3.2,5.11c0,1,.08,1.63.15,2.46a12.23,12.23,0,0,1,2.56,1.39l-.44.77A11,11,0,0,0,59,108.71c0,1.2-.48,2.13-2.24,2.13-1.33,0-2.35-.6-2.34-1.72s1.26-1.78,2.36-1.78a5.27,5.27,0,0,1,1.36.22c-.05-.77-.11-1.55-.11-2.11Zm-.66,3a4.11,4.11,0,0,0-1.43-.28c-.72,0-1.57.29-1.58,1s.67,1,1.6,1,1.42-.42,1.42-1.21C58.19,108.71,58.19,108.53,58.18,108.35Zm3.28-4.24a17.42,17.42,0,0,0-4.24.59l-.14-.75a16.66,16.66,0,0,1,4.33-.65Z"/><path class="cls-2" d="M67.64,100.24c0,.1-.15.19-.37.2-.08.53-.19,1.16-.3,1.62a16.48,16.48,0,0,0,3.53-.58l.13.81a23.71,23.71,0,0,1-3.81.58,17.85,17.85,0,0,1-2.55,5.9l-.8-.33a16.09,16.09,0,0,0,2.44-5.55H63.52v-.78h2.53c.14-.64.25-1.32.34-2Zm3.2,5.11c0,1,.08,1.63.15,2.46a12.23,12.23,0,0,1,2.56,1.39l-.44.77A11,11,0,0,0,71,108.71c0,1.2-.48,2.13-2.24,2.13-1.33,0-2.35-.6-2.34-1.72s1.26-1.78,2.36-1.78a5.27,5.27,0,0,1,1.36.22c0-.77-.11-1.55-.11-2.11Zm-.66,3a4.11,4.11,0,0,0-1.43-.28c-.72,0-1.57.29-1.58,1s.67,1,1.6,1,1.42-.42,1.42-1.21C70.19,108.71,70.19,108.53,70.18,108.35Zm3.28-4.24a17.42,17.42,0,0,0-4.24.59l-.14-.75a16.66,16.66,0,0,1,4.33-.65Z"/><path class="cls-2" d="M77,101.51c0,.11-.15.18-.32.19a19,19,0,0,0-.23,3c0,.44,0,.88.05,1.26.14,2,1,3.27,1.89,3.26.48,0,1.11-1.22,1.54-2.56a4.92,4.92,0,0,0,.69.51c-.55,1.62-1.24,2.94-2.24,3-1.52,0-2.58-1.82-2.74-4.12,0-.46-.05-1-.05-1.5a28.61,28.61,0,0,1,.18-3.23ZM85,107.09a6,6,0,0,0-3-4.51l.53-.65a6.61,6.61,0,0,1,3.38,4.88Z"/><path class="cls-2" d="M91.64,100.24c0,.1-.15.19-.37.2-.08.53-.19,1.16-.3,1.62a16.48,16.48,0,0,0,3.53-.58l.13.81a23.71,23.71,0,0,1-3.81.58,17.85,17.85,0,0,1-2.55,5.9l-.8-.33a16.09,16.09,0,0,0,2.44-5.55H87.52v-.78h2.53c.14-.64.25-1.32.34-2Zm3.2,5.11c0,1,.08,1.63.15,2.46a12.23,12.23,0,0,1,2.56,1.39l-.44.77A11,11,0,0,0,95,108.71c0,1.2-.48,2.13-2.24,2.13-1.33,0-2.35-.6-2.34-1.72s1.26-1.78,2.36-1.78a5.27,5.27,0,0,1,1.36.22c0-.77-.11-1.55-.11-2.11Zm-.66,3a4.11,4.11,0,0,0-1.43-.28c-.72,0-1.57.29-1.58,1s.67,1,1.6,1,1.42-.42,1.42-1.21C94.19,108.71,94.19,108.53,94.18,108.35Zm3.28-4.24a17.42,17.42,0,0,0-4.24.59l-.14-.75a16.66,16.66,0,0,1,4.33-.65Z"/><path class="cls-2" d="M102.27,102.47a.37.37,0,0,1-.32.21,13.3,13.3,0,0,1-.49,3.53h0a8.22,8.22,0,0,1,4.42-1.47c1.84,0,3,1,3,2.63,0,2.2-1.86,3.19-6.5,3.38a3.46,3.46,0,0,0-.3-.79c4.19-.18,5.87-.87,5.9-2.58,0-1.15-.79-1.85-2.19-1.85a6.34,6.34,0,0,0-4.56,1.92l-.82-.4a13.25,13.25,0,0,0,.69-4.72Zm.2-2.32a19.23,19.23,0,0,1,4.65,1l-.3.83a19,19,0,0,0-4.6-1.09Z"/><path class="cls-2" d="M115.44,105.33c0,.08-.09.15-.25.18-.26,2.32-.77,4.45-3.62,5.54a2.44,2.44,0,0,0-.51-.65c2.64-1,3.1-2.88,3.29-5.17Zm3.12,4.36c0,.41.1.51.59.51h1.66c.52,0,.6-.34.66-2.23a2.31,2.31,0,0,0,.74.36c-.09,2.06-.32,2.61-1.34,2.61h-1.81c-1,0-1.32-.26-1.32-1.25v-4.62h-6.52v-.79h10.71v.79h-3.31l-.06,0Zm2.34-8.93v.78h-8.61v-.78Z"/><path class="cls-2" d="M125.73,100.78c0,.13-.16.21-.4.19a28.83,28.83,0,0,0-.64,5.4,13.07,13.07,0,0,0,.16,2.37l.91-2.26.51.53c-.5,1.21-.86,1.89-1,2.43a2.07,2.07,0,0,0-.1.56,1.16,1.16,0,0,0,.06.38l-.85.15a13,13,0,0,1-.53-4.12,34.43,34.43,0,0,1,.64-5.84Zm7.64,8.77q-.66,0-1.32,0a15.46,15.46,0,0,1-2.23-.13c-1.48-.21-2.16-1-2.16-2a3.64,3.64,0,0,1,1.12-2.31l.78.33a2.85,2.85,0,0,0-1,1.89c0,1.39,2,1.39,3.29,1.39.5,0,1,0,1.55-.06Zm-5.56-7.33a39,39,0,0,0,5.23-.45l.07.83a44.29,44.29,0,0,1-5.27.45Z"/><path class="cls-2" d="M145.81,107.32h-4c.67,1.71,2.11,2.66,4.41,3a3,3,0,0,0-.49.72c-2.35-.46-3.81-1.49-4.58-3.37-.49,1.64-1.57,2.77-4.24,3.39a2.19,2.19,0,0,0-.43-.67c2.5-.54,3.49-1.54,3.92-3.08H137a7.57,7.57,0,0,1-1.38,3.5,2.94,2.94,0,0,0-.71-.44c1.32-1.65,1.48-3.94,1.48-5.6v-2.51H145v2.83h-3.86l.6,0c0,.08-.09.14-.25.17,0,.45-.08.87-.14,1.28h4.47Zm.06-6.74v.74H135.29v-.74Zm-8.72,4.52c0,.47,0,1-.1,1.5h3.47c.08-.46.13-1,.17-1.5Zm7-2.17h-7v1.51h7Z"/><path class="cls-2" d="M152.93,101.87c0-.26-.05-1.57-.07-1.87l1.23,0c0,.1-.09.22-.31.25,0,.14,0,.29,0,1.55,1.48,0,3-.08,3.93-.1v.83c-1,0-2.47,0-3.9,0,0,.93,0,1.8.08,2.46a4,4,0,0,1,.15,1.26,4.85,4.85,0,0,1-.13,1.16c-.31,1.4-1.34,2.64-3.45,3.48a5.68,5.68,0,0,0-.61-.69c1.83-.66,2.82-1.65,3.12-2.79h0a1.53,1.53,0,0,1-1.24.64,2,2,0,0,1-2-2.1,2.21,2.21,0,0,1,2.15-2.25,1.75,1.75,0,0,1,1.12.38c0-.21,0-1-.05-1.53-1.25,0-5,.16-5.53.18l0-.79,2.73-.07Zm.23,4.21c0-.47,0-1.56-1.23-1.56a1.44,1.44,0,0,0-1.42,1.53,1.34,1.34,0,0,0,1.33,1.39A1.3,1.3,0,0,0,153.16,106.08Z"/><path class="cls-2" d="M162.35,109.36a1.68,1.68,0,1,1-1.68-1.68A1.69,1.69,0,0,1,162.35,109.36Zm-.43,0a1.25,1.25,0,1,0-1.25,1.23A1.24,1.24,0,0,0,161.92,109.36Z"/><rect class="cls-2" x="14.57" y="44.17" width="254" height="1.5"/></g></g></svg>