<svg xmlns="http://www.w3.org/2000/svg" viewBox="0 0 291.68 174.42"><defs><style>.cls-1{fill:#172a88;}.cls-2{fill:#fff;}</style></defs><g id="レイヤー_2" data-name="レイヤー 2"><g id="レイヤー_1-2" data-name="レイヤー 1"><rect class="cls-1" width="291.68" height="174.42" rx="5"/><path class="cls-2" d="M24.39,22.88a15.15,15.15,0,0,1-3.68.69,31.89,31.89,0,0,1-2.2,7.49l-.86-.32a25.9,25.9,0,0,0,2.17-7.14c-.24,0-1.85,0-2.21,0V22.8h2.34c.12-.77.24-1.61.31-2.34l1.24.12c0,.13-.18.23-.35.24-.07.53-.19,1.18-.3,1.91a14,14,0,0,0,3.36-.67Zm3.19,8-1.1,0a12,12,0,0,1-2.84-.26A1.66,1.66,0,0,1,22.3,29a2.91,2.91,0,0,1,.75-1.74l.72.31a2.22,2.22,0,0,0-.63,1.33c0,.95.92,1.19,3.1,1.19.44,0,.9,0,1.34-.05ZM22.9,25.09a14.1,14.1,0,0,1,4.36-.61v.81a13.82,13.82,0,0,0-4.15.54Z"/><path class="cls-2" d="M36.55,31.3a37.18,37.18,0,0,0-4.7-4.46c-.6-.48-.82-.81-.82-1.25a1.54,1.54,0,0,1,.64-1.09c1.09-1,3.14-2.95,4.29-4.12l1,.67a.39.39,0,0,1-.27.12l-.14,0c-1.2,1.15-3.07,2.79-4,3.71-.29.28-.52.51-.52.71s.22.44.64.75a39.92,39.92,0,0,1,4.73,4.36Z"/><path class="cls-2" d="M44.25,22.83a.34.34,0,0,1-.31.21,13.49,13.49,0,0,1-.49,3.54h0a8.14,8.14,0,0,1,4.41-1.48c1.85,0,3,.95,3,2.63,0,2.21-1.86,3.19-6.5,3.38a3.65,3.65,0,0,0-.3-.79c4.18-.18,5.86-.87,5.9-2.58,0-1.15-.79-1.85-2.19-1.85a6.32,6.32,0,0,0-4.56,1.92l-.82-.39a13.38,13.38,0,0,0,.69-4.73Zm.21-2.32a19.34,19.34,0,0,1,4.65,1l-.3.83A19.49,19.49,0,0,0,44.2,21.3Z"/><path class="cls-2" d="M63,23.72a.34.34,0,0,1-.35.22,21.37,21.37,0,0,1-.53,2.44c.65.28,1.34.59,2,.94l-.39.8c-.64-.32-1.27-.63-1.88-.9a6.89,6.89,0,0,1-2.67,3.83,3.93,3.93,0,0,0-.69-.5,6.37,6.37,0,0,0,2.59-3.67,11.84,11.84,0,0,0-3.2-.89c-.83,3-1.57,3.81-3,3.81a1.66,1.66,0,0,1-1.71-1.88c0-1.86,1.93-2.72,4.07-2.73a27.71,27.71,0,0,0,.65-3.39c-.56.05-2.48.18-3.39.24a.37.37,0,0,1-.25.17l-.11-1c1,0,3.26-.18,4-.25a.43.43,0,0,0,.26-.13l.75.44a.51.51,0,0,1-.3.19,35.21,35.21,0,0,1-.75,3.74,12.48,12.48,0,0,1,3.23.86,22.46,22.46,0,0,0,.52-2.62ZM57,25.94c-1.72,0-3.1.71-3.1,2,0,.67.32,1.13.88,1.13C55.69,29.05,56.27,28.75,57,25.94Z"/><path class="cls-2" d="M26.48,64l1.06.07c0,.09-.07.15-.23.16V69h-.83v-.75h-7.8v.79h-.8V64l1.05.06c0,.1-.08.16-.25.17v3.22h3.41V63.21H18.33V59.06l1.06.07c0,.07-.08.13-.25.15v3.14h2.95V57.94l1.07.07c0,.09-.09.15-.24.17v4.24H26V59l1.06.08c0,.08-.07.14-.24.16v3.93H22.92v4.25h3.56Z"/><path class="cls-2" d="M34.92,59.87c0-.26-.05-1.57-.08-1.87l1.24,0c0,.1-.1.22-.31.25,0,.14,0,.29,0,1.55,1.48-.05,3-.08,3.92-.1v.83c-1,0-2.47,0-3.9.05,0,.93,0,1.8.09,2.46A4.05,4.05,0,0,1,36,64.35a4.86,4.86,0,0,1-.12,1.16c-.31,1.4-1.34,2.64-3.45,3.48a6.68,6.68,0,0,0-.61-.69c1.83-.66,2.82-1.65,3.12-2.79h0a1.5,1.5,0,0,1-1.23.64,2.05,2.05,0,0,1-2-2.1,2.22,2.22,0,0,1,2.16-2.25,1.77,1.77,0,0,1,1.12.38c0-.21,0-1-.05-1.53-1.25,0-5,.16-5.53.18l0-.79L32.12,60Zm.22,4.21c0-.47,0-1.56-1.22-1.56a1.45,1.45,0,0,0-1.43,1.53,1.34,1.34,0,0,0,1.33,1.39A1.29,1.29,0,0,0,35.14,64.08Z"/><path class="cls-2" d="M50.36,62.15h-.1a.45.45,0,0,1-.25-.07c-3.56,1-6.79,2.62-6.78,4.22,0,1.15,1.28,1.55,3.22,1.55a27.47,27.47,0,0,0,4.24-.28l.08.88a39.89,39.89,0,0,1-4.3.22c-2.37,0-4.1-.56-4.11-2.32,0-1.28,1.27-2.41,3.15-3.38-.41-.73-.55-2.12-.55-4.83l1.32.1c0,.16-.13.26-.37.29a10.94,10.94,0,0,0,.39,4.06,33.32,33.32,0,0,1,3.75-1.44Z"/><path class="cls-2" d="M53.61,65.73a22.87,22.87,0,0,1,2.72,2.65L55.6,69A25.8,25.8,0,0,0,53,66.29Z"/><path class="cls-2" d="M69.57,58.4c0,.07-.11.09-.23.09a13,13,0,0,1-1.48,1.72,8.09,8.09,0,0,1,.92,4.26c0,1.84-.17,3.34-.71,4.06-.24.34-.62.51-1.74.51l-.7,0a1.79,1.79,0,0,0-.28-.81c.38,0,.73,0,1,0,.64,0,.88,0,1.1-.27A7.58,7.58,0,0,0,68,64.45a7.86,7.86,0,0,0,0-.84,11,11,0,0,1-2.56,2.57,2.8,2.8,0,0,0-.55-.65,9,9,0,0,0,3-3.05,5.69,5.69,0,0,0-.56-1.72,16.84,16.84,0,0,1-1.78,1.37,3.19,3.19,0,0,0-.56-.54,13.54,13.54,0,0,0,1.93-1.5,7.72,7.72,0,0,0-1.64-1.65l.57-.46a8.23,8.23,0,0,1,1.64,1.56,10.55,10.55,0,0,0,1.28-1.6ZM71,67.19c0,.65.15.79.88.79h2.64c.68,0,.79-.41.87-2.07a2.93,2.93,0,0,0,.76.36c-.12,1.85-.37,2.48-1.61,2.48H71.84c-1.25,0-1.63-.33-1.63-1.59V58.85h5.22v4.78c0,1-.41,1-2.68,1a3,3,0,0,0-.28-.82c.53,0,1,0,1.37,0,.71,0,.78,0,.78-.26v-4H71Z"/><path class="cls-2" d="M83.14,58.36c0,.1-.09.16-.25.18l0,.35c.13,1.69.85,7.29,5.42,9.37a2.41,2.41,0,0,0-.61.67c-3.24-1.54-4.58-4.8-5.15-7.28h0a10.15,10.15,0,0,1-5,7.27,2.77,2.77,0,0,0-.65-.62c5-2.5,5-8.4,5.12-10Z"/><path class="cls-2" d="M95.25,60.08a.3.3,0,0,1-.3.19c-.43,3.73-1.68,7-3.67,7-1,0-1.92-1-1.92-2.9a5.26,5.26,0,0,1,5.4-5.29c3.47,0,5,2.19,5,4.53,0,2.85-1.65,4.23-4.55,4.91a4.94,4.94,0,0,0-.51-.74c2.76-.52,4.18-1.87,4.18-4.13,0-2-1.27-3.78-4.08-3.78l-.36,0Zm-1.15-.16a4.41,4.41,0,0,0-3.92,4.4c0,1.29.55,2.09,1.13,2.09C92.76,66.41,93.8,63.21,94.1,59.92Z"/><path class="cls-2" d="M105.54,65.45c0,.08-.11.14-.26.16-.32,1.71-1,2.87-3.85,3.45a2.45,2.45,0,0,0-.44-.71c2.59-.47,3.24-1.4,3.48-3Zm2.66,2.31c0,.35.09.42.65.42h1.9c.51,0,.6-.22.65-1.74a2.36,2.36,0,0,0,.74.34c-.09,1.74-.32,2.17-1.33,2.17h-2c-1.1,0-1.39-.25-1.39-1.19V65h-4.63V58.33h7.64V65H108.2ZM103.53,59v1.31h6V59Zm0,2v1.32h6V61Zm0,2v1.34h6V63Z"/><path class="cls-2" d="M124,60.8h-6.18c0,.67-.11,1.38-.2,2.08h4.28l.18,0,.48.08a1.58,1.58,0,0,1,0,.25c-.25,3.61-.49,5-1,5.44-.32.35-.65.41-1.4.41-.44,0-1,0-1.63-.06a2.16,2.16,0,0,0-.29-.8c.89.09,1.75.09,2.05.09s.44,0,.57-.13c.38-.34.62-1.55.83-4.49h-4.18a7,7,0,0,1-3.88,5.42,2.67,2.67,0,0,0-.57-.65c3.39-1.53,3.76-4.77,3.91-7.62h-3.81V60h5V57.86l1.07.07c0,.08-.09.14-.24.17V60H124Z"/><path class="cls-2" d="M127.71,58.78c0,.13-.15.21-.39.19a28.83,28.83,0,0,0-.64,5.4,13.07,13.07,0,0,0,.16,2.37l.91-2.26.5.53c-.49,1.21-.85,1.89-1,2.43a2,2,0,0,0-.09.56,1.16,1.16,0,0,0,.06.38l-.85.15a13,13,0,0,1-.53-4.12,35.37,35.37,0,0,1,.63-5.84Zm7.64,8.77q-.65,0-1.32,0a15.65,15.65,0,0,1-2.23-.13c-1.47-.21-2.16-1-2.16-2a3.66,3.66,0,0,1,1.13-2.31l.78.33a2.85,2.85,0,0,0-1,1.89c0,1.39,2,1.39,3.29,1.39.5,0,1,0,1.54-.06Zm-5.55-7.33a39.15,39.15,0,0,0,5.23-.45l.07.83a44.63,44.63,0,0,1-5.28.45Z"/><path class="cls-2" d="M141.63,58.24c0,.1-.15.19-.37.2-.08.53-.19,1.16-.3,1.62a16.58,16.58,0,0,0,3.53-.58l.13.81a24,24,0,0,1-3.82.58,17.63,17.63,0,0,1-2.54,5.9l-.8-.33a15.89,15.89,0,0,0,2.43-5.55h-2.38v-.78H140a20,20,0,0,0,.33-2Zm3.19,5.11c0,1,.09,1.63.16,2.46a11.93,11.93,0,0,1,2.55,1.39l-.43.77A11,11,0,0,0,145,66.71c0,1.2-.48,2.13-2.24,2.13-1.34,0-2.36-.6-2.34-1.72s1.26-1.78,2.36-1.78a5.13,5.13,0,0,1,1.35.22c0-.77-.1-1.55-.1-2.11Zm-.66,3a4,4,0,0,0-1.42-.28c-.72,0-1.58.29-1.59,1s.67,1,1.61,1,1.42-.42,1.42-1.21A5,5,0,0,0,144.16,66.35Zm3.29-4.24a17.5,17.5,0,0,0-4.25.59l-.13-.75a16.59,16.59,0,0,1,4.33-.65Z"/><path class="cls-2" d="M153.07,63.16a7.24,7.24,0,0,1,3-.7,2.8,2.8,0,0,1,3.11,2.88c0,2.17-1.91,3.37-4.32,3.37-1.56,0-2.63-.62-2.63-1.68a1.82,1.82,0,0,1,2-1.6,2.53,2.53,0,0,1,2.45,2.17,2.35,2.35,0,0,0,1.65-2.25c0-1.29-1-2.12-2.47-2.12a6.8,6.8,0,0,0-4.35,1.57c-.36.34-.83.84-1.15,1.21l-.61-.61c1.08-1.13,4.51-4.4,6.14-5.92-.7.09-3.1.19-4.46.24a.46.46,0,0,1-.26.18l-.09-1c1.62,0,4.71-.13,5.59-.27l.18-.08.63.78a.65.65,0,0,1-.29.11c-.85.69-3.13,2.83-4.06,3.73Zm1.65,4.8a5.35,5.35,0,0,0,1.09-.12,1.84,1.84,0,0,0-1.7-1.71c-.62,0-1.17.34-1.17.89C152.94,67.75,153.93,68,154.72,68Z"/><path class="cls-2" d="M164.34,67.36a1.68,1.68,0,1,1-1.68-1.68A1.69,1.69,0,0,1,164.34,67.36Zm-.43,0a1.25,1.25,0,1,0-2.49,0,1.25,1.25,0,0,0,2.49,0Z"/><path class="cls-2" d="M177.57,58.4c0,.07-.11.09-.23.09a13,13,0,0,1-1.48,1.72,8.09,8.09,0,0,1,.92,4.26c0,1.84-.17,3.34-.71,4.06-.24.34-.62.51-1.74.51l-.7,0a1.79,1.79,0,0,0-.28-.81c.38,0,.73,0,1,0,.64,0,.88,0,1.1-.27a7.58,7.58,0,0,0,.51-3.52,7.86,7.86,0,0,0,0-.84,11,11,0,0,1-2.56,2.57,2.8,2.8,0,0,0-.55-.65,9,9,0,0,0,3-3.05,5.69,5.69,0,0,0-.56-1.72,16.84,16.84,0,0,1-1.78,1.37,3.19,3.19,0,0,0-.56-.54,13.54,13.54,0,0,0,1.93-1.5,7.72,7.72,0,0,0-1.64-1.65l.57-.46a8.23,8.23,0,0,1,1.64,1.56,10.55,10.55,0,0,0,1.28-1.6ZM179,67.19c0,.65.15.79.88.79h2.64c.68,0,.79-.41.87-2.07a2.93,2.93,0,0,0,.76.36c-.12,1.85-.37,2.48-1.61,2.48h-2.72c-1.25,0-1.63-.33-1.63-1.59V58.85h5.22v4.78c0,1-.41,1-2.68,1a3,3,0,0,0-.28-.82c.53,0,1,0,1.37,0,.71,0,.78,0,.78-.26v-4H179Z"/><path class="cls-2" d="M191.14,58.36c0,.1-.09.16-.25.18l0,.35c.13,1.69.85,7.29,5.42,9.37a2.41,2.41,0,0,0-.61.67c-3.24-1.54-4.58-4.8-5.15-7.28h0a10.15,10.15,0,0,1-5,7.27,2.77,2.77,0,0,0-.65-.62c5-2.5,5-8.4,5.12-10Z"/><path class="cls-2" d="M201.63,58.47c0,.14-.17.2-.39.22-.14.67-.35,1.83-.5,2.55.54-.06,1-.11,1.34-.11,1.82,0,2.44,1.19,2.44,3a9.25,9.25,0,0,1-.41,2.68A2.19,2.19,0,0,1,202,68.62a3.57,3.57,0,0,1-2.17-1.05,4,4,0,0,0,.32-.73,3.24,3.24,0,0,0,1.84.91c.68,0,1.09-.43,1.33-1.2a9.05,9.05,0,0,0,.38-2.46c0-1.36-.45-2.18-1.65-2.17a14.65,14.65,0,0,0-1.47.12,22.72,22.72,0,0,1-2.45,6.48l-.8-.38a19.38,19.38,0,0,0,2.39-6c-.61.07-1.49.18-2.13.29l-.08-.84,2.38-.28c.18-.87.37-2,.51-3Zm2.78-.37A8.18,8.18,0,0,1,206,59.78l-.47.33A8,8,0,0,0,204,58.44Zm2.69,7A7.47,7.47,0,0,0,204.65,61l.7-.47A7.93,7.93,0,0,1,208,64.75Zm-.87-7.45a8,8,0,0,1,1.62,1.67l-.47.34A8.08,8.08,0,0,0,205.79,58Z"/><path class="cls-2" d="M220.11,62.85h-1.44a5.27,5.27,0,0,0,1.7,1.8,3,3,0,0,0-.54.63,6.39,6.39,0,0,1-2-2.43h-2.53a6.31,6.31,0,0,1-2.16,2.47,3.86,3.86,0,0,0-.44-.58v3.32c0,.88-.39,1-1.88,1a4.54,4.54,0,0,0-.24-.74h.74c.63,0,.65,0,.65-.24V64.9h-1.62a12.6,12.6,0,0,1-.85,4.14,2.07,2.07,0,0,0-.64-.39,15.52,15.52,0,0,0,.85-6V58.34h3v6.38a5.74,5.74,0,0,0,1.76-1.87H213v-.69h1.83a10.22,10.22,0,0,0,.51-1.35h-2v-.69h2.21a18,18,0,0,0,.38-2.24l1,.15c0,.09-.09.14-.24.15a18.13,18.13,0,0,1-.35,1.94h1.56l-.21-.08a12.06,12.06,0,0,0,.9-2l.94.33a.28.28,0,0,1-.26.11,15.14,15.14,0,0,1-.87,1.61h1.55v.69h-2.13a8.8,8.8,0,0,0,.53,1.35h1.81Zm-9.67-.15c0,.45,0,.93,0,1.44H212V62h-1.55ZM212,59.09h-1.55v2.13H212Zm6.5,5.75h.17l.42.06a1.29,1.29,0,0,1,0,.25c-.13,2.35-.27,3.21-.56,3.52s-.54.32-1.22.32l-.75,0a1.94,1.94,0,0,0-.2-.69,10.07,10.07,0,0,0,1.17.06.43.43,0,0,0,.36-.12c.18-.2.32-.89.42-2.67h-1.9a4.44,4.44,0,0,1-2.88,3.55,2.31,2.31,0,0,0-.48-.61,3.83,3.83,0,0,0,2.59-2.94h-1.73v-.69h1.86c.06-.42.1-.88.13-1.36l1,.09c0,.09-.09.14-.23.16,0,.39-.08.75-.13,1.11Zm-4.31-6.73a5.81,5.81,0,0,1,.75,1.59l-.66.27a5.89,5.89,0,0,0-.7-1.62Zm1.93,2.7a10.18,10.18,0,0,1-.46,1.35h1.9a11.27,11.27,0,0,1-.46-1.35Z"/><path class="cls-2" d="M221.34,61.25c.27-.06.67-.17,1.23-.35a19.89,19.89,0,0,1,5.34-1.15c2,0,3.73,1,3.73,3.52,0,3-2.94,4.12-7,4.53a3.92,3.92,0,0,0-.31-.81c3.7-.35,6.37-1.36,6.37-3.67a2.57,2.57,0,0,0-2.88-2.7,20.23,20.23,0,0,0-5.89,1.46.34.34,0,0,1-.22.28Z"/><path class="cls-2" d="M242.36,62.15h-.1a.45.45,0,0,1-.25-.07c-3.56,1-6.79,2.62-6.78,4.22,0,1.15,1.28,1.55,3.22,1.55a27.47,27.47,0,0,0,4.24-.28l.08.88a39.89,39.89,0,0,1-4.3.22c-2.37,0-4.1-.56-4.11-2.32,0-1.28,1.27-2.41,3.15-3.38-.41-.73-.55-2.12-.55-4.83l1.32.1c0,.16-.13.26-.37.29a10.94,10.94,0,0,0,.39,4.06,33.32,33.32,0,0,1,3.75-1.44Z"/><path class="cls-2" d="M245.61,65.73a22.87,22.87,0,0,1,2.72,2.65l-.73.66A25.8,25.8,0,0,0,245,66.29Z"/><path class="cls-2" d="M27.59,79.53V89c0,1-.52,1.07-2.49,1.07a3.05,3.05,0,0,0-.3-.79l1.22,0c.7,0,.78,0,.78-.3V80.3H18.36v9.76h-.78V79.53Zm-1.9,2.11v.71H19.5v-.71ZM25,87.51H20.88v.91h-.76V83.68H25Zm-.77-3.12H20.88v2.42h3.34Z"/><path class="cls-2" d="M32.91,79.44c0,.15-.13.23-.37.27-.1,1.39-.21,4.57-.21,6.34s.88,2.65,2.39,2.65A5.85,5.85,0,0,0,39,86.43a5,5,0,0,0,.54.7,6.5,6.5,0,0,1-4.87,2.44c-2.18,0-3.3-1.26-3.3-3.53,0-1.51.11-5.23.19-6.7Zm3.25,1.26a9.79,9.79,0,0,1,1.63,1.66l-.44.37a9,9,0,0,0-1.61-1.65Zm1.47-1.09a9.38,9.38,0,0,1,1.64,1.63l-.46.39A8.42,8.42,0,0,0,37.22,80Z"/><path class="cls-2" d="M48.55,89.94a37.18,37.18,0,0,0-4.7-4.46c-.6-.48-.82-.82-.82-1.25a1.52,1.52,0,0,1,.64-1.09c1.09-1,3.14-3,4.29-4.13l1,.68a.39.39,0,0,1-.27.12l-.14,0c-1.2,1.15-3.07,2.78-4,3.71-.29.27-.52.51-.52.7s.22.45.64.76a39.81,39.81,0,0,1,4.73,4.35Z"/><path class="cls-2" d="M64.11,83.85H62.67a5.27,5.27,0,0,0,1.7,1.8,3,3,0,0,0-.54.63,6.39,6.39,0,0,1-2-2.43H59.32a6.31,6.31,0,0,1-2.16,2.47,3.86,3.86,0,0,0-.44-.58v3.32c0,.88-.39,1-1.88,1a4.54,4.54,0,0,0-.24-.74h.74c.63,0,.65,0,.65-.24V85.9H54.37A12.6,12.6,0,0,1,53.52,90a2.07,2.07,0,0,0-.64-.39,15.52,15.52,0,0,0,.85-6V79.34h3v6.38a5.74,5.74,0,0,0,1.76-1.87H57v-.69h1.83a10.22,10.22,0,0,0,.51-1.35h-2v-.69h2.21a18,18,0,0,0,.38-2.24l1,.15c0,.09-.09.14-.24.15a18.13,18.13,0,0,1-.35,1.94h1.56L61.64,81a12.06,12.06,0,0,0,.9-2l.94.33a.28.28,0,0,1-.26.11,15.14,15.14,0,0,1-.87,1.61H63.9v.69H61.77a8.8,8.8,0,0,0,.53,1.35h1.81Zm-9.67-.15c0,.45,0,.93,0,1.44H56V83H54.44ZM56,80.09H54.44v2.13H56Zm6.5,5.75h.17l.42.06a1.29,1.29,0,0,1,0,.25c-.13,2.35-.27,3.21-.56,3.52S62,90,61.27,90l-.75,0a1.94,1.94,0,0,0-.2-.69,10.07,10.07,0,0,0,1.17.06.43.43,0,0,0,.36-.12c.18-.2.32-.89.42-2.67h-1.9a4.44,4.44,0,0,1-2.88,3.55,2.31,2.31,0,0,0-.48-.61,3.83,3.83,0,0,0,2.59-2.94H57.87v-.69h1.86c.06-.42.1-.88.13-1.36l1,.09c0,.09-.09.14-.23.16,0,.39-.08.75-.13,1.11Zm-4.31-6.73a5.81,5.81,0,0,1,.75,1.59l-.66.27a5.89,5.89,0,0,0-.7-1.62Zm1.93,2.7a10.18,10.18,0,0,1-.46,1.35h1.9a11.27,11.27,0,0,1-.46-1.35Z"/><path class="cls-2" d="M74.48,81.32a28.29,28.29,0,0,1-5.16.69,15.38,15.38,0,0,1-.56,3.18,6.11,6.11,0,0,1,3.4-1.27c1.79,0,2.88,1,2.88,2.58,0,2.38-2.41,3.19-6.31,3.28a3.78,3.78,0,0,0-.24-.79c3.44-.07,5.68-.66,5.68-2.47,0-1.08-.72-1.82-2.11-1.82a5,5,0,0,0-3.7,1.83l-.84-.39a10.17,10.17,0,0,0,1-4.12H65.67v-.83h2.88c0-.69.07-1.45.07-2.17l1.28.12c0,.2-.17.24-.39.26,0,.6-.06,1.21-.11,1.78a23.48,23.48,0,0,0,4.92-.74Z"/><path class="cls-2" d="M80.34,88.36a1.68,1.68,0,1,1-1.68-1.68A1.69,1.69,0,0,1,80.34,88.36Zm-.43,0a1.25,1.25,0,1,0-2.49,0,1.25,1.25,0,0,0,2.49,0Z"/><path class="cls-2" d="M93.57,79.4c0,.07-.11.09-.23.09a13,13,0,0,1-1.48,1.72,8.09,8.09,0,0,1,.92,4.26c0,1.84-.17,3.34-.71,4.06-.24.34-.62.51-1.74.51l-.7,0a1.79,1.79,0,0,0-.28-.81c.38,0,.73,0,1,0,.64,0,.88,0,1.1-.27A7.58,7.58,0,0,0,92,85.45a7.86,7.86,0,0,0,0-.84,11,11,0,0,1-2.56,2.57,2.8,2.8,0,0,0-.55-.65,9,9,0,0,0,3-3,5.69,5.69,0,0,0-.56-1.72,16.84,16.84,0,0,1-1.78,1.37,3.19,3.19,0,0,0-.56-.54,13.54,13.54,0,0,0,1.93-1.5,7.72,7.72,0,0,0-1.64-1.65l.57-.46a8.23,8.23,0,0,1,1.64,1.56,10.55,10.55,0,0,0,1.28-1.6ZM95,88.19c0,.65.15.79.88.79h2.64c.68,0,.79-.41.87-2.07a2.93,2.93,0,0,0,.76.36c-.12,1.85-.37,2.48-1.61,2.48H95.84c-1.25,0-1.63-.33-1.63-1.59V79.85h5.22v4.78c0,1-.41,1-2.68,1a3,3,0,0,0-.28-.82c.53,0,1,0,1.37,0,.71,0,.78,0,.78-.26v-4H95Z"/><path class="cls-2" d="M107.14,79.36c0,.1-.09.16-.25.18l0,.35c.13,1.69.85,7.29,5.42,9.37a2.41,2.41,0,0,0-.61.67c-3.24-1.54-4.58-4.8-5.15-7.28h0a10.15,10.15,0,0,1-5,7.27,2.77,2.77,0,0,0-.65-.62c5-2.5,5-8.4,5.12-10Z"/><path class="cls-2" d="M117.63,79.47c0,.14-.17.2-.39.22-.14.67-.35,1.83-.5,2.55.54-.06,1-.11,1.34-.11,1.82,0,2.44,1.19,2.44,3a9.25,9.25,0,0,1-.41,2.68A2.19,2.19,0,0,1,118,89.62a3.57,3.57,0,0,1-2.17-1.05,4,4,0,0,0,.32-.73,3.24,3.24,0,0,0,1.84.91c.68,0,1.09-.43,1.33-1.2a9.05,9.05,0,0,0,.38-2.46c0-1.36-.45-2.18-1.65-2.17a14.65,14.65,0,0,0-1.47.12,22.72,22.72,0,0,1-2.45,6.48l-.8-.38a19.38,19.38,0,0,0,2.39-6c-.61.07-1.49.18-2.13.29l-.08-.84,2.38-.28c.18-.87.37-2,.51-3Zm2.78-.37A8.18,8.18,0,0,1,122,80.78l-.47.33A8,8,0,0,0,120,79.44Zm2.69,7A7.47,7.47,0,0,0,120.65,82l.7-.47A7.93,7.93,0,0,1,124,85.75Zm-.87-7.45a8,8,0,0,1,1.62,1.67l-.47.34A8.08,8.08,0,0,0,121.79,79Z"/><path class="cls-2" d="M126.65,87.94V82.22a11.13,11.13,0,0,1-.93.68,2.3,2.3,0,0,0-.61-.56,10,10,0,0,0,3.37-3.43l1.06.18c0,.08-.11.14-.26.14l-.39.59H132l.11,0,.63.4a.31.31,0,0,1-.17.09,10.84,10.84,0,0,1-1,1.42h3.13v6.26Zm3,.64c-.05.08-.14.11-.28.09a20.51,20.51,0,0,1-3.55,1.4,3.71,3.71,0,0,0-.57-.62,13.76,13.76,0,0,0,3.5-1.31Zm.94-6.9a8.2,8.2,0,0,0,.93-1.2h-3.11a13.37,13.37,0,0,1-1.11,1.2Zm3.27,1.87v-1.2h-6.38v1.2Zm0,1.84V84.18h-6.38v1.21Zm0,1.88V86h-6.38v1.23Zm1.26,2.79a27.86,27.86,0,0,0-3.4-1.45l.63-.46a34.4,34.4,0,0,1,3.6,1.44Z"/><path class="cls-2" d="M139.47,79.86c0,.11-.13.2-.31.22a25.47,25.47,0,0,0-.62,5,12.16,12.16,0,0,0,.12,2c.26-.54.85-1.68,1.22-2.38l.55.57a10.48,10.48,0,0,0-1.42,3,1.65,1.65,0,0,0,.09.49l-.84.17a11.81,11.81,0,0,1-.55-3.86,30.63,30.63,0,0,1,.6-5.39Zm1.78,2.73c1,0,2.37,0,3.24-.09-.08-1.39-.16-3-.2-3.29l1.24,0c0,.14-.13.24-.32.28,0,.66.08,1.88.13,2.93a15.4,15.4,0,0,0,2.35-.38l.08.86a18.14,18.14,0,0,1-2.41.32c0,.07,0,.26,0,1,0,2.59-.57,4.43-2.89,5.58a3.77,3.77,0,0,0-.64-.6c2.22-1.08,2.68-2.65,2.68-4.91v-1c-.8,0-2.18.08-3.25.08Z"/><path class="cls-2" d="M153.07,84.16a7.24,7.24,0,0,1,3-.7,2.8,2.8,0,0,1,3.11,2.88c0,2.17-1.91,3.37-4.32,3.37-1.56,0-2.63-.62-2.63-1.68a1.82,1.82,0,0,1,2-1.6,2.53,2.53,0,0,1,2.45,2.17,2.35,2.35,0,0,0,1.65-2.25c0-1.29-1-2.12-2.47-2.12a6.8,6.8,0,0,0-4.35,1.57c-.36.34-.83.84-1.15,1.21l-.61-.61c1.08-1.13,4.51-4.4,6.14-5.92-.7.09-3.1.19-4.46.24a.46.46,0,0,1-.26.18l-.09-1c1.62,0,4.71-.13,5.59-.27l.18-.08.63.78a.65.65,0,0,1-.29.11c-.85.69-3.13,2.83-4.06,3.73Zm1.65,4.8a5.35,5.35,0,0,0,1.09-.12,1.84,1.84,0,0,0-1.7-1.71c-.62,0-1.17.34-1.17.89C152.94,88.75,153.93,89,154.72,89Z"/><path class="cls-2" d="M170.36,83.15h-.1a.45.45,0,0,1-.25-.07c-3.56,1-6.79,2.62-6.78,4.22,0,1.15,1.28,1.55,3.22,1.55a27.47,27.47,0,0,0,4.24-.28l.08.88a39.89,39.89,0,0,1-4.3.22c-2.37,0-4.1-.56-4.11-2.32,0-1.28,1.27-2.41,3.15-3.38-.41-.73-.55-2.12-.55-4.83l1.32.1c0,.16-.13.26-.37.29a10.94,10.94,0,0,0,.39,4.06,33.32,33.32,0,0,1,3.75-1.44Z"/><path class="cls-2" d="M173.61,86.73a22.87,22.87,0,0,1,2.72,2.65l-.73.66A25.8,25.8,0,0,0,173,87.29Z"/><path class="cls-2" d="M195.59,79.53V89c0,1-.52,1.07-2.49,1.07a3.05,3.05,0,0,0-.3-.79l1.22,0c.7,0,.78,0,.78-.3V80.3h-8.44v9.76h-.78V79.53Zm-1.9,2.11v.71H187.5v-.71Zm-.7,5.87h-4.11v.91h-.76V83.68H193Zm-.77-3.12h-3.34v2.42h3.34Z"/><path class="cls-2" d="M200.91,79.44c0,.15-.13.23-.37.27-.1,1.39-.21,4.57-.21,6.34s.88,2.65,2.39,2.65A5.85,5.85,0,0,0,207,86.43a5,5,0,0,0,.54.7,6.5,6.5,0,0,1-4.87,2.44c-2.18,0-3.3-1.26-3.3-3.53,0-1.51.11-5.23.19-6.7Zm3.25,1.26a9.79,9.79,0,0,1,1.63,1.66l-.44.37a9,9,0,0,0-1.61-1.65Zm1.47-1.09a9.38,9.38,0,0,1,1.64,1.63l-.46.39A8.42,8.42,0,0,0,205.22,80Z"/><path class="cls-2" d="M216.55,89.94a37.18,37.18,0,0,0-4.7-4.46c-.6-.48-.82-.82-.82-1.25a1.52,1.52,0,0,1,.64-1.09c1.09-1,3.14-3,4.29-4.13l1,.68a.39.39,0,0,1-.27.12l-.14,0c-1.2,1.15-3.07,2.78-4,3.71-.29.27-.52.51-.52.7s.22.45.64.76a39.81,39.81,0,0,1,4.73,4.35Z"/><path class="cls-2" d="M222.65,87.94V82.22a11.13,11.13,0,0,1-.93.68,2.3,2.3,0,0,0-.61-.56,10,10,0,0,0,3.37-3.43l1.06.18c0,.08-.11.14-.26.14l-.39.59H228l.11,0,.63.4a.31.31,0,0,1-.17.09,10.84,10.84,0,0,1-1,1.42h3.13v6.26Zm3,.64c-.05.08-.14.11-.28.09a20.51,20.51,0,0,1-3.55,1.4,3.71,3.71,0,0,0-.57-.62,13.76,13.76,0,0,0,3.5-1.31Zm.94-6.9a8.2,8.2,0,0,0,.93-1.2h-3.11a13.37,13.37,0,0,1-1.11,1.2Zm3.27,1.87v-1.2h-6.38v1.2Zm0,1.84V84.18h-6.38v1.21Zm0,1.88V86h-6.38v1.23Zm1.26,2.79a27.86,27.86,0,0,0-3.4-1.45l.63-.46a34.4,34.4,0,0,1,3.6,1.44Z"/><path class="cls-2" d="M235.47,79.86c0,.11-.13.2-.31.22a25.47,25.47,0,0,0-.62,5,12.16,12.16,0,0,0,.12,2c.26-.54.85-1.68,1.22-2.38l.55.57a10.48,10.48,0,0,0-1.42,3,1.65,1.65,0,0,0,.09.49l-.84.17a11.81,11.81,0,0,1-.55-3.86,30.63,30.63,0,0,1,.6-5.39Zm1.78,2.73c1,0,2.37,0,3.24-.09-.08-1.39-.16-3-.2-3.29l1.24,0c0,.14-.13.24-.32.28,0,.66.08,1.88.13,2.93a15.4,15.4,0,0,0,2.35-.38l.08.86a18.14,18.14,0,0,1-2.41.32c0,.07,0,.26,0,1,0,2.59-.57,4.43-2.89,5.58a3.77,3.77,0,0,0-.64-.6c2.22-1.08,2.68-2.65,2.68-4.91v-1c-.8,0-2.18.08-3.25.08Z"/><path class="cls-2" d="M248.34,88.36a1.68,1.68,0,1,1-1.68-1.68A1.69,1.69,0,0,1,248.34,88.36Zm-.43,0a1.25,1.25,0,1,0-2.49,0,1.25,1.25,0,0,0,2.49,0Z"/><rect class="cls-2" x="16.56" y="44.17" width="254" height="1.5"/></g></g></svg>