<svg xmlns="http://www.w3.org/2000/svg" viewBox="0 0 241.04 74.19"><defs><style>.cls-1{font-size:32px;font-family:YuKyo-Medium-83pv-RKSJ-H, YuKyokasho;}.cls-1,.cls-2{fill:#8b7e98;}</style></defs><g id="レイヤー_2" data-name="レイヤー 2"><g id="レイヤー_1-2" data-name="レイヤー 1"><text class="cls-1" transform="translate(0 28.16)">CREATED <tspan x="0" y="34" xml:space="preserve">          BY </tspan></text><path class="cls-2" d="M235.47,43.11c.41.25,2,1.07,2.88,1.46l-.13-.15a7.28,7.28,0,0,0-.73-1.05,2.34,2.34,0,0,0-1.49-.52,1.64,1.64,0,0,1-.4,0C235.4,42.9,235.3,43,235.47,43.11Z"/><path class="cls-2" d="M240,3.58a12.42,12.42,0,0,1,.9-1.79c.25-.42,0-.76-.26-.59s-2.21,1.64-3.39,2.59c0,0-3.52,3.2-4.47,3.24s-4.66-.13-8.24,0-6.25.64-6.74.64-1.35-.87-3.6-2.71-3.6-2.26-4.07-1.79.62,2.47,1.09,3.77a50.91,50.91,0,0,1,1.75,5c.06.69,0,2.72.15,2.83a1,1,0,0,1,.43.84c0,.59-1.61,2.24-2,2.3s-.64-.5-1.82-1a45.8,45.8,0,0,0-13.1-2.69c-6-.27-13.12,1-17.85,5.38a27,27,0,0,0-7,11.61c-.48,1.44.06,4.66-.4,8A31.19,31.19,0,0,0,172,49c.44,1.28-.27,3-.32,3.43s-.44,1.54,1.8,2.86,9.54,4,14.26,5.58,12.74,1.6,15.43,1.44,9.53-2,13.66-3.25,6.9-2.19,8-3.14a2.3,2.3,0,0,0,.65-2.5,28.44,28.44,0,0,0-3.93-3.76c-1.6-1-3.81-.88-5.18-.77a5.87,5.87,0,0,0-3.25,1.48c-1,.78-1.87,1-1.52,0A61.35,61.35,0,0,1,214.79,44c.81-1.32,2.84-2.83,3.09-3.3a17.4,17.4,0,0,0,1-3.11,1.9,1.9,0,0,0-.47-1,15.35,15.35,0,0,1-1.91-2.93c0-.41,1.28-1.17,1.64-1s2.55,4.86,2.86,6-.27,8.91.11,9.22a8,8,0,0,0,1.55.64A11.92,11.92,0,0,1,225,50.31a7.34,7.34,0,0,1,1.47,2h.17a6.73,6.73,0,0,0,2.84-.68,2.64,2.64,0,0,1,1.32-.15,13.31,13.31,0,0,0,5.47-1.36,4.84,4.84,0,0,0,2.55-4.31,2,2,0,0,0-.49-1.24c-.91-.39-2.47-1.21-2.88-1.46-.17-.11-.07-.21.13-.3-.37-.08-.59-.26-.59-.39s.07-.17.19-.34a4.08,4.08,0,0,1-1.34.62,4.07,4.07,0,0,0-1.35.23,1.16,1.16,0,0,1-1.13-.22,5,5,0,0,0-.65-2.32c-.77-1.15-5.6-4.26-7-5.19s-5-3.22-5.26-3.46-.18-1.23.14-2.26a6,6,0,0,0,.32-1.86,3.47,3.47,0,0,1,3.26-3.28,6,6,0,0,0,.07-.8,3.07,3.07,0,0,1,.23-1.18l.27-.47.08-.4c.38-2.4,1.47-2.65,1.64-3.27.23-.84,1.08-.83,1.66-.21a9,9,0,0,1,1.19,3.89c0,.86-.15,1.58.09,1.82a4,4,0,0,0,1.65.37,6.44,6.44,0,0,1,2.43.9c.52.42,1.81,1.59,2.35,1.59s2.47,0,2.84,0a3.67,3.67,0,0,0,1.92-1A5.38,5.38,0,0,0,239.84,23v-.34c0-1-.13-2.66-.14-3a2,2,0,0,1,.3-.91,7.69,7.69,0,0,0,0-2,1.66,1.66,0,0,0-.29-.64,3.34,3.34,0,0,1-.12-.85c0-.13,0-.15-.47-.44S238,14,238,13.88s.52-.28,1-1.07a2.45,2.45,0,0,0,.39-1.68,3,3,0,0,1-.29-.72,9.52,9.52,0,0,1,.22-2.65A38.8,38.8,0,0,0,240,3.58Z"/><path class="cls-2" d="M222.18,24.34a4.13,4.13,0,0,1-.41,1.39,1.18,1.18,0,0,0-.27.81c0,.08.18.16.44.22s.26.91.23,1.13a1.65,1.65,0,0,1-.31.63c-.17.29.07.91.29,1.34A2.92,2.92,0,0,0,223.42,31a1.67,1.67,0,0,0,1.76-.2A27.43,27.43,0,0,0,227.24,28a1.09,1.09,0,0,0,0-1.19c-.42-.55-.68-.44-1.28-.34s-.66-1.22-.6-1.51a6.58,6.58,0,0,0,.24-1c0-.42-.18-2.74-.74-3.39s-1.12-.22-1.45.33l-.62,1-.45,2.44Z"/></g></g></svg>